<svg version="1.1" id="Layer_1" xmlns="http://www.w3.org/2000/svg" xmlns:xlink="http://www.w3.org/1999/xlink" x="0px" y="0px"
	 width="100%" viewBox="0 0 256 256" enable-background="new 0 0 256 256" xml:space="preserve">
<path fill="#010100" opacity="1.000000" stroke="none" 
	d="
M257.000000,92.000000 
	C257.000000,147.333328 257.000000,202.166672 257.000000,257.000000 
	C171.666672,257.000000 86.333336,257.000000 1.000000,257.000000 
	C1.000000,171.666672 1.000000,86.333336 1.000000,1.000000 
	C86.333336,1.000000 171.666672,1.000000 257.000000,1.000000 
	C257.000000,31.166666 257.000000,61.333332 257.000000,92.000000 
M88.000000,26.000000 
	C88.000000,26.000000 87.994362,25.994539 87.412224,26.025867 
	C86.957962,26.361860 86.503700,26.697853 86.017113,27.001261 
	C86.017113,27.001261 86.018280,27.047560 85.332222,27.161158 
	C78.835915,31.731676 72.339607,36.302197 65.933014,40.924709 
	C65.933014,40.924709 65.884262,40.833195 65.264023,41.052593 
	C63.799023,42.680817 62.334015,44.309040 60.289501,46.259148 
	C56.854134,50.823818 53.418766,55.388489 49.417175,60.328934 
	C47.234390,64.133423 45.051601,67.937904 42.321804,72.186928 
	C35.220806,85.232948 32.029984,99.171745 32.577797,114.911697 
	C32.907921,118.995186 33.238045,123.078667 33.710747,127.975822 
	C35.175663,133.314896 36.640583,138.653961 38.129677,144.683716 
	C38.750462,146.127655 39.371246,147.571609 40.053818,149.742126 
	C42.081844,154.156677 44.109871,158.571228 46.199936,163.679733 
	C52.017685,174.883102 59.217381,184.929474 70.299171,192.600052 
	C77.865257,196.736038 85.431343,200.872025 93.534821,205.462646 
	C96.037720,206.264069 98.540627,207.065475 101.609360,208.271561 
	C103.407379,208.754227 105.205399,209.236893 107.619659,209.972321 
	C108.058624,210.024658 108.497589,210.076996 109.546288,210.567291 
	C116.765297,211.582520 123.962944,213.256165 131.207275,213.491318 
	C154.269836,214.239914 175.234604,208.043839 193.881165,192.923431 
	C200.177979,186.144073 207.516663,180.045822 212.506912,172.412323 
	C218.695312,162.946030 222.938721,152.208252 228.449829,141.464111 
	C228.659332,140.321243 228.868835,139.178360 229.481750,137.614029 
	C229.541077,137.045822 229.600403,136.477631 229.909149,135.170624 
	C230.064331,134.146439 230.219513,133.122253 230.680634,131.613159 
	C230.700989,131.046814 230.721344,130.480484 230.960709,129.099091 
	C231.014465,119.879570 231.068222,110.660057 231.127457,100.720375 
	C230.694458,99.128654 230.261459,97.536934 229.866196,95.210655 
	C228.906281,92.806847 227.946381,90.403046 227.066742,87.277069 
	C226.341675,85.516472 225.616623,83.755875 224.868011,81.287025 
	C224.541458,80.181908 224.214890,79.076790 223.993240,77.347679 
	C223.656158,76.611656 223.319077,75.875633 223.024323,74.500778 
	C222.767578,73.945732 222.510849,73.390686 222.226517,72.862503 
	C222.226517,72.862503 222.236969,72.819366 222.199860,72.259262 
	C221.945816,71.773499 221.691772,71.287743 221.221619,70.104408 
	C216.886475,64.039421 212.551331,57.974434 207.988312,51.378212 
	C207.837296,51.258541 207.686295,51.138874 207.366348,50.590481 
	C206.910461,50.195324 206.454559,49.800167 205.646683,48.779243 
	C200.811325,44.392689 195.975967,40.006134 190.741837,35.100487 
	C184.513641,31.340485 178.285431,27.580481 171.615570,23.260777 
	C151.907898,16.360376 131.946732,12.000907 110.250000,17.127281 
	C104.149948,19.376343 98.049896,21.625404 91.953651,23.902580 
	C91.953651,23.902580 91.936913,23.913082 91.319763,23.914885 
	C90.852814,24.259041 90.385864,24.603195 89.429070,25.070921 
	C89.284332,25.156984 89.139587,25.243048 88.538338,25.297682 
	C88.233307,25.433628 88.051758,25.666042 88.000000,26.000000 
z"/>
<path fill="#DBB74A" opacity="1.000000" stroke="none" 
	d="
M172.057236,23.820480 
	C178.285431,27.580481 184.513641,31.340485 190.966003,35.724525 
	C192.066147,39.867928 196.328751,41.590820 195.517822,46.294018 
	C194.609589,51.561516 195.444962,57.112862 194.730972,62.434620 
	C193.684189,70.237152 191.318024,71.895607 183.255066,72.133659 
	C182.495117,72.156090 181.750488,72.697090 180.595367,72.998505 
	C176.813385,74.002419 173.434769,75.005157 169.712051,76.005081 
	C168.909439,76.002754 168.450943,76.003227 168.193481,75.774864 
	C169.262604,74.695419 170.130692,73.844810 171.307800,72.936752 
	C172.412445,72.253448 173.208054,71.627594 174.375397,70.977875 
	C175.902939,70.375771 177.267593,70.021507 178.174286,69.176094 
	C180.616821,66.898628 182.187073,48.416908 180.052109,45.785061 
	C169.043655,32.214558 155.163300,24.761770 137.305084,26.977407 
	C131.788376,27.661858 126.430458,29.626265 120.612984,31.004559 
	C118.150749,31.670118 116.075378,32.335747 113.588364,33.029995 
	C98.187500,34.623604 91.143135,45.869518 83.838768,57.278267 
	C83.116570,58.704498 82.559570,59.852383 81.795395,61.281445 
	C79.689095,65.322098 83.166290,66.234009 84.988647,68.322647 
	C84.918465,69.039749 84.864670,69.447906 84.458008,69.859772 
	C80.947823,70.221260 77.790512,70.579033 73.936295,71.015785 
	C74.276459,69.018967 74.185745,66.953247 74.983955,65.322670 
	C78.172791,58.808483 81.637985,52.429577 85.353073,45.971138 
	C88.136238,43.294090 90.567253,40.646515 92.999130,37.999466 
	C93.000000,38.000000 92.998932,37.998268 93.336655,37.926918 
	C98.117287,34.238300 102.560204,30.621033 107.335114,27.002197 
	C108.109734,26.998220 108.552383,26.995815 109.379395,26.920242 
	C112.981056,26.183186 116.218155,25.601585 119.410370,24.833435 
	C122.961563,23.978905 126.471863,22.954462 130.336472,22.001713 
	C131.121719,21.989389 131.570450,21.979342 132.476837,21.971947 
	C137.956100,22.309334 142.977722,22.644068 148.263367,23.235729 
	C150.205719,23.972727 151.926575,24.954649 153.552475,24.816790 
	C156.074005,24.602991 158.530807,23.625919 161.389999,22.974550 
	C162.514786,22.985882 163.264618,22.995108 164.134186,23.319660 
	C165.837158,23.764561 167.420410,23.894135 169.274628,24.051285 
	C170.382782,23.992735 171.220016,23.906607 172.057236,23.820480 
z"/>
<path fill="#A48449" opacity="1.000000" stroke="none" 
	d="
M230.374710,132.098068 
	C230.219513,133.122253 230.064331,134.146439 229.471405,135.388779 
	C227.262939,135.715073 225.371872,135.463898 223.747238,136.008072 
	C220.614853,137.057297 217.741348,139.265579 214.570663,139.749527 
	C197.942917,142.287415 190.675095,155.623581 181.764069,167.247147 
	C179.460541,170.251877 176.286423,172.659958 173.267136,175.029907 
	C167.605911,179.473633 161.765747,183.689423 155.667267,188.000763 
	C154.890884,188.002029 154.447220,188.002548 153.591888,188.031189 
	C144.116714,190.149323 135.537659,189.724213 126.358376,186.789352 
	C118.818977,184.378799 110.161926,185.463882 101.600616,184.972809 
	C98.802101,184.628479 96.403214,184.310898 93.915726,183.702927 
	C93.217407,182.942902 92.607704,182.473267 91.665192,182.002869 
	C90.888664,182.000778 90.444939,181.999466 89.755722,181.757401 
	C86.914009,180.063614 84.245987,178.724213 81.734459,177.137146 
	C72.659073,171.402390 63.609879,165.625046 54.607632,159.776291 
	C51.322926,157.642227 48.197140,155.263565 45.004875,152.646759 
	C45.037785,148.991699 46.679420,149.157822 48.830040,150.550049 
	C54.355240,154.126816 60.788242,156.861481 65.157913,161.525803 
	C71.045517,167.810410 78.132912,171.650665 85.384430,175.633087 
	C91.972794,179.251328 98.507828,181.810211 105.807503,177.478973 
	C106.718277,176.938553 108.080444,176.975876 109.219131,177.032684 
	C116.010246,177.371552 123.005173,176.898727 129.533371,178.414215 
	C137.887939,180.353638 145.704102,179.729584 153.453064,176.849518 
	C163.031799,173.289337 173.377609,171.019470 180.207687,162.340195 
	C185.804901,155.227570 191.410004,148.121155 197.387177,140.985779 
	C202.822357,139.051376 207.893936,137.173904 212.933563,135.214325 
	C214.263947,134.697021 215.641068,134.110504 216.746582,133.238617 
	C220.556427,130.233887 224.255615,127.088867 227.998474,123.998642 
	C228.000000,124.000000 228.000610,124.001068 228.000519,124.436432 
	C228.791840,127.280556 229.583282,129.689316 230.374710,132.098068 
z"/>
<path fill="#A98949" opacity="1.000000" stroke="none" 
	d="
M197.011612,141.011978 
	C191.410004,148.121155 185.804901,155.227570 180.207687,162.340195 
	C173.377609,171.019470 163.031799,173.289337 153.453064,176.849518 
	C145.704102,179.729584 137.887939,180.353638 129.533371,178.414215 
	C123.005173,176.898727 116.010246,177.371552 109.219131,177.032684 
	C108.080444,176.975876 106.718277,176.938553 105.807503,177.478973 
	C98.507828,181.810211 91.972794,179.251328 85.384430,175.633087 
	C78.132912,171.650665 71.045517,167.810410 65.157913,161.525803 
	C60.788242,156.861481 54.355240,154.126816 48.830040,150.550049 
	C46.679420,149.157822 45.037785,148.991699 44.678242,152.540619 
	C43.564548,151.187820 42.783516,149.591476 42.058609,147.659943 
	C43.310608,143.166946 40.178963,144.216675 38.105499,143.993027 
	C36.640583,138.653961 35.175663,133.314896 33.995995,127.521820 
	C34.519482,127.041840 34.757725,127.015854 35.292080,127.174896 
	C37.164501,129.575577 38.740818,131.791229 40.617176,134.428619 
	C44.467632,133.326584 46.920425,135.762619 48.821754,139.536102 
	C53.659458,149.137283 61.414307,155.197891 71.740059,158.130310 
	C73.600769,158.658737 75.318550,159.758728 77.033562,160.717804 
	C80.696526,162.766266 84.147835,165.299500 87.994614,166.884995 
	C92.415833,168.707275 97.121941,169.924835 101.791878,171.037521 
	C109.362671,172.841370 116.987061,175.561646 124.621292,175.673172 
	C134.486954,175.817322 144.436081,174.093506 154.239929,172.500946 
	C157.586044,171.957367 160.748016,169.605804 163.731964,167.675156 
	C167.595230,165.175583 171.220612,162.302979 174.903030,159.530731 
	C178.629501,156.725342 182.300659,153.846451 186.144562,150.696091 
	C187.193802,148.587311 188.094543,146.782181 189.314728,144.870483 
	C192.057312,143.465515 194.480469,142.167130 196.930496,140.904648 
	C196.957367,140.940552 197.011612,141.011978 197.011612,141.011978 
z"/>
<path fill="#C7A54A" opacity="1.000000" stroke="none" 
	d="
M222.254120,72.835640 
	C222.510849,73.390686 222.767578,73.945732 223.031219,75.122559 
	C223.321518,76.486786 223.604919,77.229225 223.888336,77.971672 
	C224.214890,79.076790 224.541458,80.181908 224.535736,81.737778 
	C223.437668,83.534454 222.620102,84.854012 221.918289,86.232506 
	C220.872879,88.285858 220.465378,91.209564 218.815796,92.316727 
	C211.062073,97.520782 205.872299,106.286247 196.028458,108.602669 
	C192.714462,109.382507 189.700790,111.827675 190.483643,115.248596 
	C191.783676,120.929428 188.659241,123.933220 185.312958,127.267654 
	C184.305328,128.271744 183.752365,129.732101 182.591888,130.986588 
	C181.127411,130.991562 180.062164,130.993393 178.723480,130.823807 
	C173.965683,131.767029 169.481308,132.881683 165.077621,133.657440 
	C168.876129,128.600845 172.603439,123.890572 176.308762,119.163055 
	C179.220612,115.447899 182.105286,111.711433 185.240540,107.980347 
	C185.479050,107.976257 185.956116,107.976509 186.295792,107.959091 
	C187.424667,107.287285 188.213867,106.632889 189.184814,105.835495 
	C189.599106,105.487808 189.802994,105.257698 190.318695,104.929321 
	C191.475540,104.315727 192.689484,103.962425 193.046478,103.205154 
	C196.479950,95.921692 203.368332,93.394371 210.044281,90.485619 
	C211.659058,89.782051 213.635880,88.929314 214.453857,87.554657 
	C217.289871,82.788704 219.688858,77.762695 222.254120,72.835640 
z"/>
<path fill="#CCA949" opacity="1.000000" stroke="none" 
	d="
M222.240326,72.849075 
	C219.688858,77.762695 217.289871,82.788704 214.453857,87.554657 
	C213.635880,88.929314 211.659058,89.782051 210.044281,90.485619 
	C203.368332,93.394371 196.479950,95.921692 193.046478,103.205154 
	C192.689484,103.962425 191.475540,104.315727 190.263794,104.594452 
	C189.276428,102.901375 188.684494,101.470306 188.177734,99.661957 
	C189.963348,91.605881 193.496353,83.733482 186.323364,77.022598 
	C192.348022,76.175545 192.766830,80.663879 193.637085,83.906296 
	C197.210770,83.192528 200.466248,82.826317 203.502670,81.807365 
	C204.872253,81.347771 206.499420,79.728912 206.773285,78.384193 
	C207.180389,76.385345 206.375977,74.167656 206.290253,72.034943 
	C206.086502,66.966331 204.043411,61.305088 210.284180,58.624691 
	C209.521469,56.148003 208.868835,54.028725 208.216202,51.909447 
	C212.551331,57.974434 216.886475,64.039421 221.126038,70.638626 
	C221.432617,71.721680 221.834793,72.270523 222.236969,72.819366 
	C222.236969,72.819366 222.226517,72.862503 222.240326,72.849075 
z"/>
<path fill="#B59249" opacity="1.000000" stroke="none" 
	d="
M34.995972,126.989868 
	C34.757725,127.015854 34.519482,127.041840 33.924702,127.114990 
	C33.238045,123.078667 32.907921,118.995186 32.980190,114.456001 
	C33.585777,113.999855 33.788967,113.999397 34.099594,114.292007 
	C34.912846,114.810539 35.830307,115.440720 36.291935,115.199287 
	C41.272060,112.594795 44.686752,114.757950 48.016731,118.446404 
	C56.197262,127.507553 64.652443,136.320755 72.832443,145.382370 
	C79.963249,153.281693 88.664841,158.477173 99.055542,160.317657 
	C102.539597,160.934799 106.632767,163.842529 110.490761,159.789764 
	C112.960167,159.852753 114.996033,159.881943 117.366409,160.147491 
	C122.121193,160.535110 126.541481,160.686356 130.870575,161.180786 
	C129.053421,162.563522 127.219414,163.462341 125.631165,164.681351 
	C123.964745,165.960342 122.533951,167.546341 120.571259,168.998840 
	C114.264664,168.561111 107.986214,169.284729 102.598274,167.426422 
	C93.274338,164.210556 84.464394,159.473465 75.526268,155.191971 
	C73.326935,154.138458 71.453667,152.396469 69.449318,150.944992 
	C59.667923,143.861664 56.282501,131.568787 47.356201,123.809616 
	C45.399105,122.108414 42.737309,119.255104 41.034252,119.652222 
	C37.936363,120.374596 34.505657,122.508263 34.995972,126.989868 
z"/>
<path fill="#BE9D48" opacity="1.000000" stroke="none" 
	d="
M182.991119,130.983444 
	C183.752365,129.732101 184.305328,128.271744 185.312958,127.267654 
	C188.659241,123.933220 191.783676,120.929428 190.483643,115.248596 
	C189.700790,111.827675 192.714462,109.382507 196.028458,108.602669 
	C205.872299,106.286247 211.062073,97.520782 218.815796,92.316727 
	C220.465378,91.209564 220.872879,88.285858 221.918289,86.232506 
	C222.620102,84.854012 223.437668,83.534454 224.547516,82.091904 
	C225.616623,83.755875 226.341675,85.516472 226.667999,87.675903 
	C225.243423,89.249382 223.681274,90.267792 223.285583,91.626030 
	C221.665527,97.187111 220.099213,102.798302 219.089554,108.493233 
	C218.043945,114.390892 213.842316,118.412407 208.129593,119.153519 
	C205.420868,119.504929 202.757706,121.151108 200.349472,122.652679 
	C196.800217,124.865715 193.671539,127.793335 190.019394,129.785278 
	C188.045883,130.861679 185.357162,130.626770 182.991119,130.983444 
z"/>
<path fill="#D5AF49" opacity="1.000000" stroke="none" 
	d="
M208.102264,51.643829 
	C208.868835,54.028725 209.521469,56.148003 210.284180,58.624691 
	C204.043411,61.305088 206.086502,66.966331 206.290253,72.034943 
	C206.375977,74.167656 207.180389,76.385345 206.773285,78.384193 
	C206.499420,79.728912 204.872253,81.347771 203.502670,81.807365 
	C200.466248,82.826317 197.210770,83.192528 193.637085,83.906296 
	C192.766830,80.663879 192.348022,76.175545 186.034683,76.989349 
	C184.898468,76.617256 184.461975,76.265404 183.927917,75.619827 
	C182.886475,74.549843 181.942612,73.773590 180.998749,72.997330 
	C181.750488,72.697090 182.495117,72.156090 183.255066,72.133659 
	C191.318024,71.895607 193.684189,70.237152 194.730972,62.434620 
	C195.444962,57.112862 194.609589,51.561516 195.517822,46.294018 
	C196.328751,41.590820 192.066147,39.867928 191.165390,35.984074 
	C195.975967,40.006134 200.811325,44.392689 205.884399,49.321426 
	C206.593170,50.248806 207.064224,50.634003 207.535278,51.019203 
	C207.686295,51.138874 207.837296,51.258541 208.102264,51.643829 
z"/>
<path fill="#C1A34A" opacity="1.000000" stroke="none" 
	d="
M42.868816,71.742393 
	C45.051601,67.937904 47.234390,64.133423 50.052395,60.127148 
	C53.392479,57.754787 56.097347,55.584209 58.835907,53.386597 
	C60.021194,54.367981 61.008274,55.185261 61.925575,56.363441 
	C58.731888,62.511864 55.586678,68.288078 52.502304,74.096596 
	C51.895729,75.238899 51.109360,76.507294 51.113327,77.715218 
	C51.134373,84.132866 48.969387,91.322334 56.714218,95.317009 
	C57.117744,95.525139 57.329361,96.090302 57.653725,96.469215 
	C63.029694,102.749214 68.580925,108.892029 73.664925,115.399895 
	C74.900421,116.981415 74.601044,119.761993 74.756920,121.994415 
	C74.339401,121.999100 74.172394,122.000595 73.753082,121.876358 
	C73.005234,121.481323 72.509697,121.212029 71.986816,120.582733 
	C69.584724,117.039482 67.450752,113.630539 64.751762,110.751221 
	C62.908951,108.785278 60.277390,107.558685 57.680050,105.901718 
	C53.204948,101.162582 48.940620,96.614189 44.922363,91.857918 
	C41.032959,87.254166 41.395786,82.222008 43.613628,76.883423 
	C44.184223,75.509933 43.160255,73.474007 42.868816,71.742393 
z"/>
<path fill="#BB9A4C" opacity="1.000000" stroke="none" 
	d="
M42.595310,71.964661 
	C43.160255,73.474007 44.184223,75.509933 43.613628,76.883423 
	C41.395786,82.222008 41.032959,87.254166 44.922363,91.857918 
	C48.940620,96.614189 53.204948,101.162582 57.687267,106.304092 
	C57.680496,112.392624 61.560112,115.560440 64.940239,119.325592 
	C65.311935,121.090981 65.745995,122.510025 66.509010,123.938972 
	C67.583542,124.901192 68.329124,125.853508 68.979904,127.130814 
	C68.253677,128.639618 67.622253,129.823441 66.637756,130.924210 
	C65.213470,129.505814 63.935631,128.283295 63.128120,126.804008 
	C62.289276,125.267326 62.041767,123.419144 61.299744,121.816414 
	C57.231953,113.030212 49.907028,109.662048 40.638786,108.762398 
	C34.129101,108.130516 34.175980,107.647575 33.992153,113.998947 
	C33.788967,113.999397 33.585777,113.999855 33.077759,114.004517 
	C32.029984,99.171745 35.220806,85.232948 42.595310,71.964661 
z"/>
<path fill="#997B4D" opacity="1.000000" stroke="none" 
	d="
M69.935417,192.030243 
	C59.217381,184.929474 52.017685,174.883102 46.561302,163.336807 
	C49.688545,163.962280 52.622238,164.610962 55.189137,165.958420 
	C63.200874,170.164001 71.073906,174.633835 79.099541,179.324463 
	C79.892670,181.600510 80.586967,183.553329 81.264961,185.460297 
	C84.513580,185.974518 87.756783,186.487869 90.976532,187.370392 
	C90.302246,189.825775 89.651428,191.911972 88.537575,193.998993 
	C82.028168,193.343277 75.981789,192.686752 69.935417,192.030243 
z"/>
<path fill="#B19343" opacity="1.000000" stroke="none" 
	d="
M182.591873,130.986588 
	C185.357162,130.626770 188.045883,130.861679 190.019394,129.785278 
	C193.671539,127.793335 196.800217,124.865715 200.349472,122.652679 
	C202.757706,121.151108 205.420868,119.504929 208.129593,119.153519 
	C213.842316,118.412407 218.043945,114.390892 219.089554,108.493233 
	C220.099213,102.798302 221.665527,97.187111 223.285583,91.626030 
	C223.681274,90.267792 225.243423,89.249382 226.627869,88.036987 
	C227.946381,90.403046 228.906281,92.806847 229.560730,95.454918 
	C225.151291,95.063095 224.716385,98.317497 224.140411,100.912987 
	C223.178543,105.247581 223.010040,109.778473 221.829102,114.038643 
	C220.600571,118.470375 218.721100,122.646278 213.403458,124.038719 
	C210.407227,124.823280 207.631485,126.449791 204.741150,127.348434 
	C203.369568,127.034019 201.869904,126.703659 200.683563,127.170128 
	C196.995529,128.620270 193.557068,130.819611 189.786118,131.922577 
	C179.184799,135.023315 168.442017,137.636398 157.799622,140.601837 
	C147.704453,143.414810 137.534470,145.278946 127.000366,143.737061 
	C127.000282,142.920197 127.001312,142.453354 127.463623,141.984970 
	C135.825531,141.298660 143.853760,141.237534 151.571426,139.658539 
	C155.271805,138.901474 158.688950,137.031403 162.715073,137.695160 
	C163.369141,137.802979 164.237534,136.610657 165.427765,136.017731 
	C170.653641,135.448212 175.647598,135.375092 178.996933,130.995239 
	C180.062164,130.993393 181.127411,130.991562 182.591873,130.986588 
z"/>
<path fill="#957A57" opacity="1.000000" stroke="none" 
	d="
M108.936554,210.129349 
	C108.497589,210.076996 108.058624,210.024658 107.178078,209.557785 
	C104.838837,208.717789 102.941185,208.292343 101.043526,207.866898 
	C98.540627,207.065475 96.037720,206.264069 93.386932,204.951233 
	C93.410973,203.226486 93.582901,202.013138 93.797668,200.497482 
	C94.900169,200.667175 95.950905,200.828918 97.422058,200.992889 
	C99.642822,201.224991 101.476128,201.309555 103.237946,201.709229 
	C112.114326,203.722885 120.963417,205.857407 129.846176,207.841721 
	C131.101120,208.122040 132.509003,207.946793 133.810715,207.749252 
	C139.549286,206.878448 145.274902,205.922226 151.437012,204.997406 
	C155.557465,204.175842 159.468948,203.879929 162.891663,202.430115 
	C172.042480,198.553925 180.983536,194.182526 189.934784,190.344559 
	C187.801941,192.763580 186.064667,195.391876 183.625763,196.832062 
	C173.988876,202.522766 164.075836,206.926315 152.695038,209.121292 
	C142.305588,211.125046 132.851913,212.582901 122.684517,208.711044 
	C118.440147,207.094742 113.192551,206.584778 108.936554,210.129349 
z"/>
<path fill="#A18249" opacity="1.000000" stroke="none" 
	d="
M156.000000,188.000000 
	C161.765747,183.689423 167.605911,179.473633 173.267136,175.029907 
	C176.286423,172.659958 179.460541,170.251877 181.764069,167.247147 
	C190.675095,155.623581 197.942917,142.287415 214.570663,139.749527 
	C217.741348,139.265579 220.614853,137.057297 223.747238,136.008072 
	C225.371872,135.463898 227.262939,135.715073 229.346680,135.758179 
	C229.600403,136.477631 229.541077,137.045822 228.988922,137.872131 
	C227.994019,138.422180 227.491959,138.714111 226.664276,139.021500 
	C225.558487,139.358780 224.778320,139.680618 223.611176,140.026276 
	C212.381516,142.707626 202.576050,146.979736 196.419571,157.052658 
	C195.650330,158.311279 194.444427,159.299408 193.645706,160.544296 
	C191.740112,163.514420 189.222214,166.362106 188.326859,169.635437 
	C187.393631,173.047226 185.866104,175.018723 182.615280,175.565155 
	C176.739532,176.552765 172.826782,180.012466 169.665344,184.997742 
	C168.888107,184.998291 168.443954,184.998672 167.801147,184.853973 
	C167.067749,185.138290 166.533035,185.567673 165.601349,186.003845 
	C162.136246,186.673752 159.068115,187.336868 156.000000,188.000000 
z"/>
<path fill="#9B7851" opacity="1.000000" stroke="none" 
	d="
M223.998169,140.002441 
	C224.778320,139.680618 225.558487,139.358780 226.682907,139.349915 
	C227.358887,140.448486 227.690582,141.234085 228.022278,142.019699 
	C222.938721,152.208252 218.695312,162.946030 212.506912,172.412323 
	C207.516663,180.045822 200.177979,186.144073 193.329285,192.807007 
	C192.184448,191.791489 191.591476,190.892380 191.108704,189.666046 
	C193.478210,187.892120 195.737534,186.445450 198.288116,184.820679 
	C199.831696,182.938217 201.166458,181.287704 202.321304,179.519669 
	C206.200592,173.580536 210.129242,167.668503 213.813644,161.609070 
	C216.087662,157.869171 217.952087,153.880234 220.243027,149.758301 
	C221.656479,146.343155 222.827316,143.172806 223.998169,140.002441 
z"/>
<path fill="#AF8D49" opacity="1.000000" stroke="none" 
	d="
M204.756424,127.697037 
	C207.631485,126.449791 210.407227,124.823280 213.403458,124.038719 
	C218.721100,122.646278 220.600571,118.470375 221.829102,114.038643 
	C223.010040,109.778473 223.178543,105.247581 224.140411,100.912987 
	C224.716385,98.317497 225.151291,95.063095 229.541870,95.822197 
	C230.261459,97.536934 230.694458,99.128654 231.095383,101.578964 
	C231.038895,105.624451 231.014496,108.811348 230.661072,112.108047 
	C229.339859,113.677574 227.730820,115.036804 227.473465,116.616272 
	C226.758926,121.001595 224.054337,122.672325 220.247314,124.328468 
	C216.447632,125.981407 213.327759,129.163025 209.830063,131.557922 
	C207.971405,132.830551 205.943619,133.856171 204.000610,134.589096 
	C204.269485,132.036957 204.529922,129.889008 204.780029,127.731552 
	C204.769684,127.722031 204.756424,127.697037 204.756424,127.697037 
z"/>
<path fill="#95745D" opacity="1.000000" stroke="none" 
	d="
M190.998520,189.993286 
	C191.591476,190.892380 192.184448,191.791489 193.013504,192.913635 
	C175.234604,208.043839 154.269836,214.239914 131.207275,213.491318 
	C123.962944,213.256165 116.765297,211.582520 109.241425,210.348328 
	C113.192551,206.584778 118.440147,207.094742 122.684517,208.711044 
	C132.851913,212.582901 142.305588,211.125046 152.695038,209.121292 
	C164.075836,206.926315 173.988876,202.522766 183.625763,196.832062 
	C186.064667,195.391876 187.801941,192.763580 190.182373,190.340897 
	C190.503128,190.000580 190.998520,189.993286 190.998520,189.993286 
z"/>
<path fill="#C3A547" opacity="1.000000" stroke="none" 
	d="
M171.836395,23.540628 
	C171.220016,23.906607 170.382782,23.992735 168.939606,23.899471 
	C166.893936,23.481499 165.454193,23.242916 164.014465,23.004333 
	C163.264618,22.995108 162.514786,22.985882 161.223114,22.629551 
	C156.341873,20.473143 152.060379,19.718664 147.999329,22.978802 
	C142.977722,22.644068 137.956100,22.309334 132.348740,21.649841 
	C131.428772,20.966213 131.144089,20.364658 130.752914,20.284784 
	C124.646355,19.037912 118.547447,17.560701 112.516525,20.801689 
	C111.579033,21.305496 110.173271,20.937954 109.139984,20.706306 
	C109.874062,19.365133 110.452202,18.291004 111.030342,17.216873 
	C131.946732,12.000907 151.907898,16.360376 171.836395,23.540628 
z"/>
<path fill="#9E814B" opacity="1.000000" stroke="none" 
	d="
M79.000710,179.001221 
	C71.073906,174.633835 63.200874,170.164001 55.189137,165.958420 
	C52.622238,164.610962 49.688545,163.962280 46.530281,162.989838 
	C44.109871,158.571228 42.081844,154.156677 40.231121,149.179382 
	C40.939777,148.409454 41.471127,148.202286 42.002480,147.995117 
	C42.783516,149.591476 43.564548,151.187820 44.672218,152.890320 
	C48.197140,155.263565 51.322926,157.642227 54.607632,159.776291 
	C63.609879,165.625046 72.659073,171.402390 81.734459,177.137146 
	C84.245987,178.724213 86.914009,180.063614 89.491837,181.929474 
	C85.982536,181.228622 82.491623,180.114929 79.000710,179.001221 
z"/>
<path fill="#927450" opacity="1.000000" stroke="none" 
	d="
M97.001640,200.990646 
	C95.950905,200.828918 94.900169,200.667175 93.797668,200.497482 
	C93.582901,202.013138 93.410973,203.226486 93.118240,204.723907 
	C85.431343,200.872025 77.865257,196.736038 70.117294,192.315155 
	C75.981789,192.686752 82.028168,193.343277 88.929192,193.974289 
	C91.855576,193.633530 93.927315,193.318283 95.930801,193.331940 
	C93.371643,196.550201 95.567307,198.711258 97.001640,200.990646 
z"/>
<path fill="#BC9F3F" opacity="1.000000" stroke="none" 
	d="
M61.995358,56.002537 
	C61.008274,55.185261 60.021194,54.367981 58.835907,53.386597 
	C56.097347,55.584209 53.392479,57.754787 50.335503,59.939262 
	C53.418766,55.388489 56.854134,50.823818 60.936176,46.082275 
	C63.016655,44.214672 64.450462,42.523933 65.884262,40.833195 
	C65.884262,40.833195 65.933014,40.924709 66.264709,40.914322 
	C68.060287,40.602982 69.524162,40.302029 71.273003,40.095524 
	C71.305267,41.670086 71.300247,43.253941 70.735115,44.603191 
	C70.077515,46.173172 68.929459,47.537720 67.871323,49.241829 
	C67.495285,49.989048 67.242180,50.485855 66.711182,51.155067 
	C64.953972,52.885830 63.474663,54.444183 61.995358,56.002537 
z"/>
<path fill="#AA9142" opacity="1.000000" stroke="none" 
	d="
M70.988037,40.001076 
	C69.524162,40.302029 68.060287,40.602982 66.219856,40.888321 
	C72.339607,36.302197 78.835915,31.731676 85.672668,27.430111 
	C86.013977,28.133438 86.014847,28.567808 85.805107,29.197859 
	C85.065155,29.602524 84.535820,29.811510 83.682526,30.105503 
	C79.235062,33.460697 75.111549,36.730885 70.988037,40.001076 
z"/>
<path fill="#A48449" opacity="1.000000" stroke="none" 
	d="
M230.990082,111.998253 
	C231.014496,108.811348 231.038895,105.624451 231.092651,101.939041 
	C231.068222,110.660057 231.014465,119.879570 230.686859,129.195435 
	C229.608871,127.528221 228.804733,125.764641 228.000610,124.001068 
	C228.000610,124.001068 228.000000,124.000000 228.005707,123.600739 
	C229.004303,119.467072 229.997192,115.732658 230.990082,111.998253 
z"/>
<path fill="#AA9142" opacity="1.000000" stroke="none" 
	d="
M110.640167,17.172077 
	C110.452202,18.291004 109.874062,19.365133 108.809937,20.713520 
	C107.883499,20.997932 107.443031,21.008087 106.648163,21.023388 
	C102.737152,22.024561 98.291306,20.703579 95.995438,24.987804 
	C95.996658,24.994232 95.990921,24.988958 95.670532,24.843128 
	C94.216713,24.423021 93.083275,24.148745 91.949844,23.874468 
	C98.049896,21.625404 104.149948,19.376343 110.640167,17.172077 
z"/>
<path fill="#C3A547" opacity="1.000000" stroke="none" 
	d="
M91.951752,23.888523 
	C93.083275,24.148745 94.216713,24.423021 95.423752,25.090504 
	C92.336815,26.656536 89.176270,27.829357 86.015717,29.002178 
	C86.014847,28.567808 86.013977,28.133438 86.015694,27.373314 
	C86.018280,27.047560 86.017113,27.001261 86.252274,27.101519 
	C86.989746,26.799364 87.492058,26.396954 87.994362,25.994541 
	C87.994362,25.994539 88.000000,26.000000 88.200912,25.950666 
	C88.667786,25.781357 88.865456,25.590616 88.994850,25.329111 
	C89.139587,25.243048 89.284332,25.156984 89.967819,24.977329 
	C90.983345,24.560186 91.460129,24.236635 91.936913,23.913082 
	C91.936913,23.913082 91.953651,23.902580 91.951752,23.888523 
z"/>
<path fill="#A18249" opacity="1.000000" stroke="none" 
	d="
M228.000519,124.436432 
	C228.804733,125.764641 229.608871,127.528221 230.577347,129.602966 
	C230.721344,130.480484 230.700989,131.046814 230.527679,131.855621 
	C229.583282,129.689316 228.791840,127.280556 228.000519,124.436432 
z"/>
<path fill="#A48449" opacity="1.000000" stroke="none" 
	d="
M42.058609,147.659943 
	C41.471127,148.202286 40.939777,148.409454 40.200226,148.816086 
	C39.371246,147.571609 38.750462,146.127655 38.117588,144.338379 
	C40.178963,144.216675 43.310608,143.166946 42.058609,147.659943 
z"/>
<path fill="#95745D" opacity="1.000000" stroke="none" 
	d="
M101.326447,208.069229 
	C102.941185,208.292343 104.838837,208.717789 106.869957,209.431396 
	C105.205399,209.236893 103.407379,208.754227 101.326447,208.069229 
z"/>
<path fill="#AA9142" opacity="1.000000" stroke="none" 
	d="
M65.574142,40.942894 
	C64.450462,42.523933 63.016655,44.214672 61.225929,45.921333 
	C62.334015,44.309040 63.799023,42.680817 65.574142,40.942894 
z"/>
<path fill="#A48449" opacity="1.000000" stroke="none" 
	d="
M228.236053,141.741913 
	C227.690582,141.234085 227.358887,140.448486 227.008545,139.334457 
	C227.491959,138.714111 227.994019,138.422180 228.787231,138.082870 
	C228.868835,139.178360 228.659332,140.321243 228.236053,141.741913 
z"/>
<path fill="#C7A54A" opacity="1.000000" stroke="none" 
	d="
M222.218414,72.539307 
	C221.834793,72.270523 221.432617,71.721680 221.234085,70.987411 
	C221.691772,71.287743 221.945816,71.773499 222.218414,72.539307 
z"/>
<path fill="#CCA949" opacity="1.000000" stroke="none" 
	d="
M207.450806,50.804840 
	C207.064224,50.634003 206.593170,50.248806 206.060394,49.634308 
	C206.454559,49.800167 206.910461,50.195324 207.450806,50.804840 
z"/>
<path fill="#AA9142" opacity="1.000000" stroke="none" 
	d="
M87.703293,26.010204 
	C87.492058,26.396954 86.989746,26.799364 86.268433,27.117809 
	C86.503700,26.697853 86.957962,26.361860 87.703293,26.010204 
z"/>
<path fill="#CCA949" opacity="1.000000" stroke="none" 
	d="
M223.940796,77.659676 
	C223.604919,77.229225 223.321518,76.486786 223.010040,75.441971 
	C223.319077,75.875633 223.656158,76.611656 223.940796,77.659676 
z"/>
<path fill="#AA9142" opacity="1.000000" stroke="none" 
	d="
M91.628342,23.913982 
	C91.460129,24.236635 90.983345,24.560186 90.212738,24.915543 
	C90.385864,24.603195 90.852814,24.259041 91.628342,23.913982 
z"/>
<path fill="#AA9142" opacity="1.000000" stroke="none" 
	d="
M88.766594,25.313396 
	C88.865456,25.590616 88.667786,25.781357 88.197754,25.948128 
	C88.051758,25.666042 88.233307,25.433628 88.766594,25.313396 
z"/>
<path fill="#E3C14C" opacity="1.000000" stroke="none" 
	d="
M167.992447,76.003693 
	C168.450943,76.003227 168.909439,76.002754 169.527283,76.291252 
	C168.833145,78.125198 167.979660,79.670174 167.124557,81.622177 
	C164.551941,87.896347 166.233353,97.389648 175.107040,103.381058 
	C176.822250,105.111313 178.418594,106.531418 179.679535,107.963623 
	C178.896896,107.991066 178.449661,108.006416 177.634735,108.010941 
	C175.507141,107.335930 173.747208,106.671745 171.972900,105.710602 
	C171.389755,102.214928 170.111221,104.221291 168.666779,105.005608 
	C167.892242,104.995956 167.449631,104.990730 166.937515,104.635216 
	C165.712738,102.642799 164.557465,101.000664 163.402206,99.358528 
	C162.603302,100.573776 161.804398,101.789024 161.003021,103.252365 
	C161.000549,103.500458 160.996338,103.996643 160.594604,103.990005 
	C153.446747,101.249474 147.819443,102.719612 142.783768,108.005882 
	C140.768265,110.121674 137.946121,111.528572 135.357590,113.027512 
	C128.513535,116.990707 115.690094,115.161789 113.189613,109.517578 
	C111.528069,105.767097 109.024094,103.891289 105.322487,103.678017 
	C101.563217,103.461426 97.768631,103.857742 94.115448,103.666672 
	C95.640831,102.545998 97.148300,101.886223 98.420815,100.917732 
	C103.614059,96.965210 108.980659,96.283195 115.160728,98.771339 
	C119.881393,100.671890 125.049011,101.429825 129.904144,103.038971 
	C133.918732,104.369545 136.963211,102.955399 139.920944,100.549736 
	C144.266083,97.015633 148.638962,93.515640 153.342896,89.926895 
	C156.323685,88.000488 159.247528,86.440804 161.522278,84.217110 
	C163.993668,81.801201 165.861465,78.767838 167.992447,76.003693 
z"/>
<path fill="#E1C04B" opacity="1.000000" stroke="none" 
	d="
M174.003662,71.001740 
	C173.208054,71.627594 172.412445,72.253448 171.282227,72.545990 
	C170.457062,68.507156 169.926270,64.806236 169.500320,61.093296 
	C169.371658,59.971657 169.901794,58.665234 169.504990,57.700645 
	C165.992432,49.162281 161.021133,41.495541 153.212738,36.464485 
	C150.586395,34.772297 146.448914,35.425480 142.574371,35.003708 
	C140.435913,34.993168 138.725204,34.985630 136.923218,34.689445 
	C136.219238,33.937649 135.606552,33.474499 134.620453,33.010315 
	C133.500229,33.010132 132.753403,33.010986 131.641449,33.079636 
	C124.168556,35.240353 117.183113,37.779125 111.612122,42.777538 
	C109.213188,44.929920 107.837891,48.223213 105.854080,51.284359 
	C104.806976,52.380558 103.903336,53.190586 102.634766,54.021736 
	C98.626282,56.595497 94.982727,59.148129 90.842346,62.048828 
	C93.499847,64.259277 95.747475,66.128807 98.160721,68.277023 
	C98.886902,69.704384 99.447464,70.853065 99.878632,72.265366 
	C99.482384,73.052063 99.215530,73.575142 98.640488,73.975594 
	C97.215370,72.773132 96.098427,71.693291 94.867172,70.447601 
	C94.545670,70.088417 94.300377,69.992294 94.009766,69.998306 
	C94.002541,70.003220 94.003334,69.987869 93.775909,69.728973 
	C91.699310,68.648796 89.850151,67.827522 87.829178,66.722626 
	C85.772438,64.626091 83.887512,62.813179 82.002579,61.000267 
	C82.559570,59.852383 83.116570,58.704498 84.174454,57.206650 
	C93.967979,50.086353 103.293060,43.359436 112.500702,36.475426 
	C113.376633,35.820549 113.517746,34.182816 114.000000,33.001373 
	C116.075378,32.335747 118.150749,31.670118 120.730789,31.318163 
	C122.392403,31.798180 123.644356,32.339054 124.691719,32.073383 
	C136.140121,29.169411 147.557449,28.143394 158.246475,34.276855 
	C161.748199,36.286182 165.023254,39.425892 167.229797,42.812401 
	C172.755081,51.292458 172.429138,61.426357 174.003662,71.001740 
z"/>
<path fill="#CFAE49" opacity="1.000000" stroke="none" 
	d="
M85.805115,29.197857 
	C89.176270,27.829357 92.336815,26.656536 95.744141,25.236336 
	C95.990921,24.988958 95.996658,24.994232 96.306870,25.122055 
	C100.078911,23.839331 103.540741,22.428785 107.002571,21.018240 
	C107.443031,21.008087 107.883499,20.997932 108.654007,20.980564 
	C110.173271,20.937954 111.579033,21.305496 112.516525,20.801689 
	C118.547447,17.560701 124.646355,19.037912 130.752914,20.284784 
	C131.144089,20.364658 131.428772,20.966213 131.891083,21.647190 
	C131.570450,21.979342 131.121719,21.989389 130.023468,21.784912 
	C123.477997,22.287460 117.558266,22.863806 111.707993,23.851530 
	C110.656815,24.029003 109.892036,25.902807 108.995026,26.993408 
	C108.552383,26.995815 108.109734,26.998220 106.962601,27.022680 
	C99.970474,28.434816 95.886627,32.492573 92.998932,37.998268 
	C92.998932,37.998268 93.000000,38.000000 92.652199,38.066513 
	C89.869904,40.755554 87.435410,43.378082 85.000916,46.000610 
	C81.637985,52.429577 78.172791,58.808483 74.983955,65.322670 
	C74.185745,66.953247 74.276459,69.018967 73.936295,71.015785 
	C77.790512,70.579033 80.947823,70.221260 84.568016,69.969482 
	C85.030899,70.075493 85.240517,70.300720 85.033577,70.560547 
	C79.879379,74.089096 75.590340,77.750359 76.099670,84.526772 
	C76.233925,86.312851 76.072289,88.121185 76.035629,90.282074 
	C75.542679,92.104393 77.127556,96.213692 72.999619,92.576126 
	C72.227081,86.478371 72.488449,80.552406 67.819023,76.017014 
	C66.671066,74.902023 66.577477,72.701515 66.066757,70.649185 
	C67.089973,67.865410 68.045601,65.432480 69.341125,62.920540 
	C72.475761,58.366421 75.270500,53.891319 78.694656,48.408360 
	C76.153526,48.728325 75.077675,48.863789 74.001335,48.666058 
	C73.999748,47.888603 73.998657,47.444347 74.071472,46.660126 
	C74.765297,45.349609 75.408539,44.393063 76.001144,43.406109 
	C78.677422,38.948944 81.339371,34.483170 84.006477,30.020496 
	C84.535820,29.811510 85.065155,29.602524 85.805115,29.197857 
z"/>
<path fill="#E1BE4B" opacity="1.000000" stroke="none" 
	d="
M174.375397,70.977875 
	C172.429138,61.426357 172.755081,51.292458 167.229797,42.812401 
	C165.023254,39.425892 161.748199,36.286182 158.246475,34.276855 
	C147.557449,28.143394 136.140121,29.169411 124.691719,32.073383 
	C123.644356,32.339054 122.392403,31.798180 121.117645,31.318230 
	C126.430458,29.626265 131.788376,27.661858 137.305084,26.977407 
	C155.163300,24.761770 169.043655,32.214558 180.052109,45.785061 
	C182.187073,48.416908 180.616821,66.898628 178.174286,69.176094 
	C177.267593,70.021507 175.902939,70.375771 174.375397,70.977875 
z"/>
<path fill="#E5C453" opacity="1.000000" stroke="none" 
	d="
M143.002106,35.006706 
	C146.448914,35.425480 150.586395,34.772297 153.212738,36.464485 
	C161.021133,41.495541 165.992432,49.162281 169.504990,57.700645 
	C169.901794,58.665234 169.371658,59.971657 169.500320,61.093296 
	C169.926270,64.806236 170.457062,68.507156 170.973206,72.603439 
	C170.130692,73.844810 169.262604,74.695419 168.193481,75.774857 
	C165.861465,78.767838 163.993668,81.801201 161.522278,84.217110 
	C159.247528,86.440804 156.323685,88.000488 153.403580,89.587845 
	C153.413254,88.214409 153.705139,87.105804 154.065826,85.643745 
	C156.090363,80.859718 158.046097,76.429153 160.286636,71.806351 
	C167.071594,62.919891 167.395706,56.144493 161.342636,47.616055 
	C156.807053,41.225666 150.643326,36.987843 143.002106,35.006706 
z"/>
<path fill="#E1BE4B" opacity="1.000000" stroke="none" 
	d="
M113.588371,33.029999 
	C113.517746,34.182816 113.376633,35.820549 112.500702,36.475426 
	C103.293060,43.359436 93.967979,50.086353 84.339661,56.928299 
	C91.143135,45.869518 98.187500,34.623604 113.588371,33.029999 
z"/>
<path fill="#D4B24A" opacity="1.000000" stroke="none" 
	d="
M109.379395,26.920240 
	C109.892036,25.902807 110.656815,24.029003 111.707993,23.851530 
	C117.558266,22.863806 123.477997,22.287460 129.686966,21.787188 
	C126.471863,22.954462 122.961563,23.978905 119.410370,24.833435 
	C116.218155,25.601585 112.981056,26.183186 109.379395,26.920240 
z"/>
<path fill="#D4B24A" opacity="1.000000" stroke="none" 
	d="
M93.336655,37.926918 
	C95.886627,32.492573 99.970474,28.434816 106.630623,27.024250 
	C102.560204,30.621033 98.117287,34.238300 93.336655,37.926918 
z"/>
<path fill="#CFAE49" opacity="1.000000" stroke="none" 
	d="
M148.263367,23.235729 
	C152.060379,19.718664 156.341873,20.473143 160.848175,22.627445 
	C158.530807,23.625919 156.074005,24.602991 153.552475,24.816790 
	C151.926575,24.954649 150.205719,23.972727 148.263367,23.235729 
z"/>
<path fill="#CCA949" opacity="1.000000" stroke="none" 
	d="
M167.126160,81.215149 
	C167.979660,79.670174 168.833145,78.125198 169.871399,76.294067 
	C173.434769,75.005157 176.813385,74.002419 180.595367,72.998505 
	C181.942612,73.773590 182.886475,74.549843 183.536499,75.603302 
	C178.320938,74.637756 173.905899,75.324867 170.189209,79.100838 
	C169.334442,79.969238 168.155762,80.518829 167.126160,81.215149 
z"/>
<path fill="#E1BE4B" opacity="1.000000" stroke="none" 
	d="
M81.795395,61.281441 
	C83.887512,62.813179 85.772438,64.626091 87.578766,66.927788 
	C86.668457,67.615623 85.836754,67.814674 85.005043,68.013718 
	C83.166290,66.234009 79.689095,65.322098 81.795395,61.281441 
z"/>
<path fill="#D4B24A" opacity="1.000000" stroke="none" 
	d="
M85.353073,45.971138 
	C87.435410,43.378082 89.869904,40.755554 92.651337,38.065979 
	C90.567253,40.646515 88.136238,43.294090 85.353073,45.971138 
z"/>
<path fill="#CFAE49" opacity="1.000000" stroke="none" 
	d="
M84.988647,68.322647 
	C85.836754,67.814674 86.668457,67.615623 87.750580,67.211411 
	C89.850151,67.827522 91.699310,68.648796 93.396164,69.736420 
	C90.576080,70.102097 87.908295,70.201408 85.240517,70.300720 
	C85.240517,70.300720 85.030899,70.075493 84.920891,69.965782 
	C84.864670,69.447906 84.918465,69.039749 84.988647,68.322647 
z"/>
<path fill="#CFAE49" opacity="1.000000" stroke="none" 
	d="
M164.134186,23.319660 
	C165.454193,23.242916 166.893936,23.481499 168.668671,23.871895 
	C167.420410,23.894135 165.837158,23.764561 164.134186,23.319660 
z"/>
<path fill="#9C7D4A" opacity="1.000000" stroke="none" 
	d="
M79.099541,179.324463 
	C82.491623,180.114929 85.982536,181.228622 89.737335,182.170227 
	C90.444939,181.999466 90.888664,182.000778 91.753281,182.293610 
	C92.784233,183.054535 93.394279,183.523926 94.004333,183.993317 
	C96.403214,184.310898 98.802101,184.628479 101.893242,185.203278 
	C110.035934,186.993439 117.465363,188.640427 124.944458,190.017792 
	C129.647278,190.883865 134.484680,192.132141 139.152130,191.775375 
	C144.169403,191.391861 149.058533,189.331635 154.003571,188.003052 
	C154.447220,188.002548 154.890884,188.002029 155.667267,188.000763 
	C159.068115,187.336868 162.136246,186.673752 165.882294,185.948135 
	C167.040085,185.590103 167.519958,185.294586 167.999817,184.999054 
	C168.443954,184.998672 168.888107,184.998291 170.036041,184.926849 
	C173.935364,183.524582 177.088699,182.078354 180.335785,180.887741 
	C185.914688,178.842133 191.436569,176.429932 197.200378,175.164658 
	C202.058273,174.098236 203.456070,173.087982 202.784653,168.036072 
	C202.527832,166.103668 202.100082,163.980942 202.620331,162.198975 
	C204.073853,157.220306 214.595688,150.071609 220.000412,150.003098 
	C217.952087,153.880234 216.087662,157.869171 213.813644,161.609070 
	C210.129242,167.668503 206.200592,173.580536 202.321304,179.519669 
	C201.166458,181.287704 199.831696,182.938217 198.078979,184.526764 
	C194.617538,183.713898 191.368622,181.857574 188.742630,182.509689 
	C172.816498,186.464722 156.729599,190.067307 142.035645,197.855209 
	C140.633606,198.598297 138.729904,199.203369 137.269775,198.890198 
	C130.482819,197.434464 123.101273,196.865570 117.190987,193.659424 
	C108.791824,189.103134 100.119598,187.661880 90.999985,187.001221 
	C87.756783,186.487869 84.513580,185.974518 81.264961,185.460297 
	C80.586967,183.553329 79.892670,181.600510 79.099541,179.324463 
z"/>
<path fill="#A98949" opacity="1.000000" stroke="none" 
	d="
M230.661072,112.108047 
	C229.997192,115.732658 229.004303,119.467072 228.004181,123.599388 
	C224.255615,127.088867 220.556427,130.233887 216.746582,133.238617 
	C215.641068,134.110504 214.263947,134.697021 212.933563,135.214325 
	C207.893936,137.173904 202.822357,139.051376 197.387177,140.985779 
	C197.011612,141.011978 196.957367,140.940552 197.061859,140.669128 
	C197.423904,139.918900 197.681473,139.440063 198.276718,138.906143 
	C200.406982,137.565125 202.199585,136.279205 203.992188,134.993286 
	C205.943619,133.856171 207.971405,132.830551 209.830063,131.557922 
	C213.327759,129.163025 216.447632,125.981407 220.247314,124.328468 
	C224.054337,122.672325 226.758926,121.001595 227.473465,116.616272 
	C227.730820,115.036804 229.339859,113.677574 230.661072,112.108047 
z"/>
<path fill="#A18249" opacity="1.000000" stroke="none" 
	d="
M153.591888,188.031189 
	C149.058533,189.331635 144.169403,191.391861 139.152130,191.775375 
	C134.484680,192.132141 129.647278,190.883865 124.944458,190.017792 
	C117.465363,188.640427 110.035934,186.993439 102.292877,185.230026 
	C110.161926,185.463882 118.818977,184.378799 126.358376,186.789352 
	C135.537659,189.724213 144.116714,190.149323 153.591888,188.031189 
z"/>
<path fill="#9E814B" opacity="1.000000" stroke="none" 
	d="
M93.915718,183.702927 
	C93.394279,183.523926 92.784233,183.054535 92.086090,182.294373 
	C92.607704,182.473267 93.217407,182.942902 93.915718,183.702927 
z"/>
<path fill="#AF8D49" opacity="1.000000" stroke="none" 
	d="
M35.292080,127.174896 
	C34.505657,122.508263 37.936363,120.374596 41.034252,119.652222 
	C42.737309,119.255104 45.399105,122.108414 47.356201,123.809616 
	C56.282501,131.568787 59.667923,143.861664 69.449318,150.944992 
	C71.453667,152.396469 73.326935,154.138458 75.526268,155.191971 
	C84.464394,159.473465 93.274338,164.210556 102.598274,167.426422 
	C107.986214,169.284729 114.264664,168.561111 121.008446,168.999329 
	C127.446251,169.060867 133.311554,168.029053 138.524048,169.428574 
	C147.384277,171.807480 154.295868,168.251312 160.585114,163.583389 
	C168.391525,157.789413 176.444046,153.021790 185.996048,150.999756 
	C182.300659,153.846451 178.629501,156.725342 174.903030,159.530731 
	C171.220612,162.302979 167.595230,165.175583 163.731964,167.675156 
	C160.748016,169.605804 157.586044,171.957367 154.239929,172.500946 
	C144.436081,174.093506 134.486954,175.817322 124.621292,175.673172 
	C116.987061,175.561646 109.362671,172.841370 101.791878,171.037521 
	C97.121941,169.924835 92.415833,168.707275 87.994614,166.884995 
	C84.147835,165.299500 80.696526,162.766266 77.033562,160.717804 
	C75.318550,159.758728 73.600769,158.658737 71.740059,158.130310 
	C61.414307,155.197891 53.659458,149.137283 48.821754,139.536102 
	C46.920425,135.762619 44.467632,133.326584 40.617176,134.428619 
	C38.740818,131.791229 37.164501,129.575577 35.292080,127.174896 
z"/>
<path fill="#B2924B" opacity="1.000000" stroke="none" 
	d="
M186.144562,150.696106 
	C176.444046,153.021790 168.391525,157.789413 160.585114,163.583389 
	C154.295868,168.251312 147.384277,171.807480 138.524048,169.428574 
	C133.311554,168.029053 127.446251,169.060867 121.437378,168.998657 
	C122.533951,167.546341 123.964745,165.960342 125.631165,164.681351 
	C127.219414,163.462341 129.053421,162.563522 131.114456,161.004578 
	C132.358826,160.041183 133.268143,159.597183 134.621628,159.150787 
	C139.037399,158.757980 143.008987,158.367569 147.303467,157.980133 
	C148.443253,157.763123 149.260162,157.543121 150.456421,157.267914 
	C152.569977,156.836960 154.304169,156.461212 156.452988,156.068878 
	C163.578613,153.986954 170.289627,151.921616 177.381790,149.870209 
	C181.507050,148.248444 185.251175,146.612747 188.995300,144.977051 
	C188.094543,146.782181 187.193802,148.587311 186.144562,150.696106 
z"/>
<path fill="#C8AC5D" opacity="1.000000" stroke="none" 
	d="
M189.314728,144.870483 
	C185.251175,146.612747 181.507050,148.248444 177.567780,149.602188 
	C180.479782,147.332611 183.670578,145.460739 186.655090,143.303421 
	C187.944916,142.371109 188.808594,140.849228 190.075897,139.355469 
	C192.149933,138.057297 194.013885,136.998825 196.197403,136.046509 
	C196.990982,137.088852 197.465027,138.025040 197.939056,138.961243 
	C197.681473,139.440063 197.423904,139.918900 197.034973,140.633240 
	C194.480469,142.167130 192.057312,143.465515 189.314728,144.870483 
z"/>
<path fill="#CDAC4A" opacity="1.000000" stroke="none" 
	d="
M178.002426,108.021759 
	C178.449661,108.006416 178.896896,107.991066 180.094696,107.969620 
	C182.230850,107.970490 183.616440,107.977470 185.002045,107.984444 
	C182.105286,111.711433 179.220612,115.447899 176.308762,119.163055 
	C172.603439,123.890572 168.876129,128.600845 165.079147,133.659271 
	C165.000000,134.000000 164.996338,133.996948 164.545624,133.997162 
	C159.201340,133.696442 154.903351,135.345947 150.271469,136.867355 
	C144.351990,138.811722 137.562088,138.400513 131.144455,138.432770 
	C126.698105,138.455109 122.034966,138.183289 117.842117,136.859833 
	C109.189262,134.128586 100.785614,130.607620 92.284340,127.398567 
	C92.156471,127.350296 92.091583,127.135201 91.922997,126.654114 
	C88.254440,120.844429 86.326736,114.115089 79.656265,110.977325 
	C78.421005,110.396255 77.869118,108.362411 77.376259,106.999237 
	C78.499641,106.999382 79.248604,106.999382 80.085793,107.290588 
	C80.783089,108.055115 81.392159,108.528435 82.107819,109.329391 
	C84.153305,110.831093 86.149475,111.921692 88.015488,113.201973 
	C90.008148,114.569160 92.239250,115.818390 93.735115,117.637978 
	C98.657074,123.625084 105.004547,125.843674 112.511894,125.866943 
	C118.597343,125.885811 124.879715,125.350685 130.721466,126.649849 
	C140.112350,128.738297 147.640854,124.498390 154.955673,120.500221 
	C161.156754,117.110802 166.496170,112.250870 173.812592,110.930107 
	C175.334625,110.655342 176.612198,109.026543 178.002426,108.021759 
z"/>
<path fill="#D2B864" opacity="1.000000" stroke="none" 
	d="
M185.240540,107.980347 
	C183.616440,107.977470 182.230850,107.970490 180.430084,107.957520 
	C178.418594,106.531418 176.822250,105.111313 175.506729,103.430420 
	C180.633636,105.052368 184.820068,104.342049 188.092575,100.039238 
	C188.684494,101.470306 189.276428,102.901375 189.923279,104.667313 
	C189.802994,105.257698 189.599106,105.487808 188.848877,105.860023 
	C187.539520,106.677200 186.747818,107.326859 185.956116,107.976509 
	C185.956116,107.976509 185.479050,107.976257 185.240540,107.980347 
z"/>
<path fill="#C3A547" opacity="1.000000" stroke="none" 
	d="
M178.723480,130.823807 
	C175.647598,135.375092 170.653641,135.448212 165.425446,135.680450 
	C165.000259,134.895462 164.998306,134.446213 164.996338,133.996948 
	C164.996338,133.996948 165.000000,134.000000 164.998474,133.998169 
	C169.481308,132.881683 173.965683,131.767029 178.723480,130.823807 
z"/>
<path fill="#CDAC4A" opacity="1.000000" stroke="none" 
	d="
M186.295792,107.959091 
	C186.747818,107.326859 187.539520,106.677200 188.667145,106.003021 
	C188.213867,106.632889 187.424667,107.287285 186.295792,107.959091 
z"/>
<path fill="#050401" opacity="1.000000" stroke="none" 
	d="
M188.177734,99.661957 
	C184.820068,104.342049 180.633636,105.052368 175.387848,103.120270 
	C166.233353,97.389648 164.551941,87.896347 167.124542,81.622177 
	C168.155762,80.518829 169.334442,79.969238 170.189209,79.100838 
	C173.905899,75.324867 178.320938,74.637756 183.634079,75.897026 
	C184.461975,76.265404 184.898468,76.617256 185.623627,77.002350 
	C193.496353,83.733482 189.963348,91.605881 188.177734,99.661957 
z"/>
<path fill="#B69649" opacity="1.000000" stroke="none" 
	d="
M34.099594,114.292007 
	C34.175980,107.647575 34.129101,108.130516 40.638786,108.762398 
	C49.907028,109.662048 57.231953,113.030212 61.299744,121.816414 
	C62.041767,123.419144 62.289276,125.267326 63.128120,126.804008 
	C63.935631,128.283295 65.213470,129.505814 66.711929,131.259857 
	C70.049858,135.243881 72.622154,139.174866 75.967514,142.270386 
	C79.232948,145.291946 83.288010,147.460144 86.998215,150.001480 
	C87.000000,150.000000 86.997459,150.003113 87.077171,150.343018 
	C89.106728,151.786469 91.056572,152.889984 93.335442,154.001648 
	C94.103119,154.021561 94.541786,154.033325 95.074852,154.331604 
	C95.786880,155.073074 96.404510,155.528046 97.395630,156.057678 
	C100.526207,156.739929 103.283287,157.347534 106.373611,157.977997 
	C107.823647,158.585907 108.940437,159.170944 110.057220,159.755981 
	C106.632767,163.842529 102.539597,160.934799 99.055542,160.317657 
	C88.664841,158.477173 79.963249,153.281693 72.832443,145.382370 
	C64.652443,136.320755 56.197262,127.507553 48.016731,118.446404 
	C44.686752,114.757950 41.272060,112.594795 36.291935,115.199287 
	C35.830307,115.440720 34.912846,114.810539 34.099594,114.292007 
z"/>
<path fill="#DEC26B" opacity="1.000000" stroke="none" 
	d="
M110.490761,159.789764 
	C108.940437,159.170944 107.823647,158.585907 106.359863,157.625473 
	C106.014473,156.542755 106.016090,155.835419 106.421349,155.081970 
	C110.122864,155.694672 113.396500,156.691986 116.724487,156.930237 
	C121.311172,157.258606 125.955612,157.258148 130.544327,156.944839 
	C135.046509,156.637421 139.509903,155.762161 144.102478,155.416855 
	C145.136612,156.457443 146.058594,157.217285 146.980591,157.977142 
	C143.008987,158.367569 139.037399,158.757980 134.137756,159.108261 
	C127.817108,159.349121 122.424507,159.630127 117.031898,159.911118 
	C114.996033,159.881943 112.960167,159.852753 110.490761,159.789764 
z"/>
<path fill="#D2B864" opacity="1.000000" stroke="none" 
	d="
M117.366409,160.147491 
	C122.424507,159.630127 127.817108,159.349121 133.693588,159.110657 
	C133.268143,159.597183 132.358826,160.041183 131.205627,160.661392 
	C126.541481,160.686356 122.121193,160.535110 117.366409,160.147491 
z"/>
<path fill="#C7A54A" opacity="1.000000" stroke="none" 
	d="
M164.545624,133.997162 
	C164.998306,134.446213 165.000259,134.895462 165.004547,135.682007 
	C164.237534,136.610657 163.369141,137.802979 162.715073,137.695160 
	C158.688950,137.031403 155.271805,138.901474 151.571426,139.658539 
	C143.853760,141.237534 135.825531,141.298660 127.183708,141.779999 
	C124.206467,140.728394 122.342209,140.657700 121.584282,143.801697 
	C120.144424,143.795807 119.093391,143.702011 118.054581,143.336243 
	C118.049149,142.701462 118.031502,142.338623 117.740967,141.757111 
	C105.416527,135.910782 93.369965,130.272369 81.308578,124.665840 
	C79.240608,123.704575 77.109413,122.879318 75.007423,121.991226 
	C74.601044,119.761993 74.900421,116.981415 73.664925,115.399895 
	C68.580925,108.892029 63.029694,102.749214 57.653725,96.469215 
	C57.329361,96.090302 57.117744,95.525139 56.714218,95.317009 
	C48.969387,91.322334 51.134373,84.132866 51.113327,77.715218 
	C51.109360,76.507294 51.895729,75.238899 52.502304,74.096596 
	C55.586678,68.288078 58.731888,62.511864 61.925575,56.363441 
	C63.474663,54.444183 64.953972,52.885830 66.708374,51.552734 
	C64.212860,58.844654 61.891052,66.135536 58.512318,72.898376 
	C56.296555,77.333420 55.287296,81.327820 57.863323,85.554695 
	C61.824352,92.054153 65.897202,98.505699 70.306587,104.704430 
	C73.175369,108.737381 77.664978,111.835449 79.737976,116.162270 
	C82.450615,121.824173 86.669304,124.798103 91.997307,126.997955 
	C92.091583,127.135201 92.156471,127.350296 92.284340,127.398567 
	C100.785614,130.607620 109.189262,134.128586 117.842117,136.859833 
	C122.034966,138.183289 126.698105,138.455109 131.144455,138.432770 
	C137.562088,138.400513 144.351990,138.811722 150.271469,136.867355 
	C154.903351,135.345947 159.201340,133.696442 164.545624,133.997162 
z"/>
<path fill="#BE9D48" opacity="1.000000" stroke="none" 
	d="
M74.756920,121.994415 
	C77.109413,122.879318 79.240608,123.704575 81.308578,124.665840 
	C93.369965,130.272369 105.416527,135.910782 117.324196,141.760406 
	C113.195053,141.444870 109.209808,140.907379 104.996170,140.427124 
	C104.440186,140.422195 104.184654,140.251923 103.859810,139.637756 
	C102.357002,139.030960 100.995583,138.759903 99.613846,138.497192 
	C99.593536,138.505524 99.549904,138.500549 99.560890,138.123871 
	C97.290558,136.932999 95.009247,136.118835 92.769806,135.302734 
	C92.811684,135.300812 92.800804,135.383942 92.669861,135.038177 
	C91.245598,134.276047 89.952286,133.859680 88.643753,133.462479 
	C88.628532,133.481628 88.579971,133.475769 88.589539,133.091888 
	C86.629181,131.847870 84.659264,130.987732 82.428146,130.104202 
	C81.749001,129.796677 81.331070,129.512527 80.849571,128.890289 
	C78.525803,126.368835 76.265594,124.185463 74.005386,122.002098 
	C74.172394,122.000595 74.339401,121.999100 74.756920,121.994415 
z"/>
<path fill="#BE9D48" opacity="1.000000" stroke="none" 
	d="
M65.002609,118.979248 
	C61.560112,115.560440 57.680496,112.392624 58.005692,106.403900 
	C60.277390,107.558685 62.908951,108.785278 64.751762,110.751221 
	C67.450752,113.630539 69.584724,117.039482 71.619385,120.610619 
	C70.790207,121.040375 70.301140,121.082237 69.521088,121.012695 
	C68.764954,120.490486 68.299797,120.079681 67.591553,119.503342 
	C66.566521,119.218292 65.784561,119.098770 65.002609,118.979248 
z"/>
<path fill="#B59745" opacity="1.000000" stroke="none" 
	d="
M69.812065,121.124100 
	C70.301140,121.082237 70.790207,121.040375 71.646721,120.970627 
	C72.509697,121.212029 73.005234,121.481323 73.753082,121.876358 
	C76.265594,124.185463 78.525803,126.368835 80.506012,128.806580 
	C76.754692,126.415344 73.283379,123.769730 69.812065,121.124100 
z"/>
<path fill="#070502" opacity="1.000000" stroke="none" 
	d="
M69.521088,121.012703 
	C73.283379,123.769730 76.754692,126.415344 80.569565,129.144684 
	C81.331070,129.512527 81.749001,129.796677 82.639618,130.377548 
	C84.934853,131.608109 86.757416,132.541931 88.579971,133.475769 
	C88.579971,133.475769 88.628532,133.481628 88.885605,133.686417 
	C90.362061,134.388779 91.581436,134.886353 92.800804,135.383942 
	C92.800804,135.383942 92.811684,135.300812 93.008499,135.552734 
	C95.320175,136.703278 97.435043,137.601913 99.549904,138.500549 
	C99.549904,138.500549 99.593536,138.505524 99.855042,138.730835 
	C101.411430,139.295273 102.706314,139.634399 104.001198,139.973511 
	C104.184654,140.251923 104.440186,140.422195 105.285156,140.694931 
	C109.882484,141.806427 113.962425,142.707321 118.042366,143.608215 
	C119.093391,143.702011 120.144424,143.795807 121.985168,143.945587 
	C124.183754,144.030090 125.592628,144.058609 127.001495,144.087112 
	C137.534470,145.278946 147.704453,143.414810 157.799622,140.601837 
	C168.442017,137.636398 179.184799,135.023315 189.786118,131.922577 
	C193.557068,130.819611 196.995529,128.620270 200.683563,127.170128 
	C201.869904,126.703659 203.369568,127.034019 204.741150,127.348442 
	C204.756424,127.697037 204.769684,127.722031 204.503143,127.921745 
	C201.450363,130.727768 198.664108,133.334061 195.877853,135.940353 
	C194.013885,136.998825 192.149933,138.057297 189.729324,139.473511 
	C178.117157,144.188995 167.061646,148.546753 155.633301,152.907730 
	C153.838852,153.285248 152.417221,153.659561 150.599869,153.993774 
	C148.132858,154.347839 146.061600,154.741989 143.990326,155.136139 
	C139.509903,155.762161 135.046509,156.637421 130.544327,156.944839 
	C125.955612,157.258148 121.311172,157.258606 116.724487,156.930237 
	C113.396500,156.691986 110.122864,155.694672 106.109665,154.910172 
	C103.656898,153.734207 101.919449,152.683914 99.933960,151.397812 
	C95.497726,148.969955 91.309525,146.777908 86.912643,144.342651 
	C84.157875,142.030396 81.611794,139.961319 79.053215,137.926910 
	C79.040718,137.961548 79.111336,137.940582 78.962212,137.645752 
	C77.576843,136.077652 76.340607,134.804367 74.980209,133.240479 
	C72.928947,130.901840 71.001823,128.853836 69.074707,126.805824 
	C68.329124,125.853508 67.583542,124.901192 66.473488,123.564499 
	C66.684219,122.009712 67.259430,120.839294 67.834641,119.668869 
	C68.299797,120.079681 68.764954,120.490486 69.521088,121.012703 
z"/>
<path fill="#BF9F4E" opacity="1.000000" stroke="none" 
	d="
M68.979904,127.130814 
	C71.001823,128.853836 72.928947,130.901840 75.018578,133.610779 
	C76.491173,135.494659 77.801254,136.717621 79.111336,137.940582 
	C79.111336,137.940582 79.040718,137.961548 79.057411,138.293549 
	C80.745033,142.093445 81.823135,146.185104 87.041306,146.308380 
	C87.459595,147.033524 87.739616,147.516296 87.821243,148.207275 
	C87.414047,148.944641 87.205231,149.473801 86.996422,150.002960 
	C83.288010,147.460144 79.232948,145.291946 75.967514,142.270386 
	C72.622154,139.174866 70.049858,135.243881 67.065018,131.342926 
	C67.622253,129.823441 68.253677,128.639618 68.979904,127.130814 
z"/>
<path fill="#B59745" opacity="1.000000" stroke="none" 
	d="
M67.591553,119.503342 
	C67.259430,120.839294 66.684219,122.009712 66.144531,123.554604 
	C65.745995,122.510025 65.311935,121.090981 64.940239,119.325584 
	C65.784561,119.098770 66.566521,119.218292 67.591553,119.503342 
z"/>
<path fill="#99794C" opacity="1.000000" stroke="none" 
	d="
M90.976532,187.370392 
	C100.119598,187.661880 108.791824,189.103134 117.190987,193.659424 
	C123.101273,196.865570 130.482819,197.434464 137.269775,198.890198 
	C138.729904,199.203369 140.633606,198.598297 142.035645,197.855209 
	C156.729599,190.067307 172.816498,186.464722 188.742630,182.509689 
	C191.368622,181.857574 194.617538,183.713898 197.787720,184.704865 
	C195.737534,186.445450 193.478210,187.892120 191.108704,189.666046 
	C190.998520,189.993286 190.503128,190.000580 190.255524,190.004242 
	C180.983536,194.182526 172.042480,198.553925 162.891663,202.430115 
	C159.468948,203.879929 155.557465,204.175842 151.309143,204.647064 
	C148.354782,203.531204 146.009445,202.495819 143.556854,202.048096 
	C133.145340,200.147491 122.685730,198.509720 112.276955,196.595078 
	C106.815529,195.590485 101.422798,194.212433 95.999046,193.003052 
	C93.927315,193.318283 91.855576,193.633530 89.392227,193.973480 
	C89.651428,191.911972 90.302246,189.825775 90.976532,187.370392 
z"/>
<path fill="#B59745" opacity="1.000000" stroke="none" 
	d="
M127.000366,143.737061 
	C125.592628,144.058609 124.183754,144.030090 122.374001,143.857666 
	C122.342209,140.657700 124.206467,140.728394 126.722435,141.781555 
	C127.001312,142.453354 127.000282,142.920197 127.000366,143.737061 
z"/>
<path fill="#8E754D" opacity="1.000000" stroke="none" 
	d="
M95.930801,193.331924 
	C101.422798,194.212433 106.815529,195.590485 112.276955,196.595078 
	C122.685730,198.509720 133.145340,200.147491 143.556854,202.048096 
	C146.009445,202.495819 148.354782,203.531204 150.877319,204.646606 
	C145.274902,205.922226 139.549286,206.878448 133.810715,207.749252 
	C132.509003,207.946793 131.101120,208.122040 129.846176,207.841721 
	C120.963417,205.857407 112.114326,203.722885 103.237946,201.709229 
	C101.476128,201.309555 99.642822,201.224991 97.422058,200.992889 
	C95.567307,198.711258 93.371643,196.550201 95.930801,193.331924 
z"/>
<path fill="#9F7F49" opacity="1.000000" stroke="none" 
	d="
M220.243027,149.758301 
	C214.595688,150.071609 204.073853,157.220306 202.620331,162.198975 
	C202.100082,163.980942 202.527832,166.103668 202.784653,168.036072 
	C203.456070,173.087982 202.058273,174.098236 197.200378,175.164658 
	C191.436569,176.429932 185.914688,178.842133 180.335785,180.887741 
	C177.088699,182.078354 173.935364,183.524582 170.369141,184.926682 
	C172.826782,180.012466 176.739532,176.552765 182.615280,175.565155 
	C185.866104,175.018723 187.393631,173.047226 188.326859,169.635437 
	C189.222214,166.362106 191.740112,163.514420 193.645706,160.544296 
	C194.444427,159.299408 195.650330,158.311279 196.419571,157.052658 
	C202.576050,146.979736 212.381516,142.707626 223.611176,140.026276 
	C222.827316,143.172806 221.656479,146.343155 220.243027,149.758301 
z"/>
<path fill="#9F7F49" opacity="1.000000" stroke="none" 
	d="
M167.801147,184.853973 
	C167.519958,185.294586 167.040085,185.590103 166.279266,185.941345 
	C166.533035,185.567673 167.067749,185.138290 167.801147,184.853973 
z"/>
<path fill="#B69649" opacity="1.000000" stroke="none" 
	d="
M196.197403,136.046509 
	C198.664108,133.334061 201.450363,130.727768 204.513489,127.931259 
	C204.529922,129.889008 204.269485,132.036957 204.000610,134.589096 
	C202.199585,136.279205 200.406982,137.565125 198.276718,138.906143 
	C197.465027,138.025040 196.990982,137.088852 196.197403,136.046509 
z"/>
<path fill="#CCA94A" opacity="1.000000" stroke="none" 
	d="
M91.922997,126.654114 
	C86.669304,124.798103 82.450615,121.824173 79.737976,116.162270 
	C77.664978,111.835449 73.175369,108.737381 70.306587,104.704430 
	C65.897202,98.505699 61.824352,92.054153 57.863323,85.554695 
	C55.287296,81.327820 56.296555,77.333420 58.512318,72.898376 
	C61.891052,66.135536 64.212860,58.844654 66.986275,51.380325 
	C67.242180,50.485855 67.495285,49.989048 68.217690,49.169159 
	C70.457184,48.230743 72.227371,47.615417 73.997559,47.000092 
	C73.998657,47.444347 73.999748,47.888603 73.757339,48.915333 
	C72.009628,53.998386 70.505424,58.498970 69.001221,62.999554 
	C68.045601,65.432480 67.089973,67.865410 65.735748,70.775093 
	C61.813095,74.032295 64.114853,77.657158 63.832512,80.944473 
	C62.996002,90.683838 69.349098,96.631104 74.999298,103.249878 
	C75.000122,103.499756 75.001221,103.999519 75.088135,104.290703 
	C75.782860,105.054420 76.390663,105.526955 76.999298,106.249390 
	C77.000130,106.499283 77.001831,106.999084 77.001831,106.999084 
	C77.869118,108.362411 78.421005,110.396255 79.656265,110.977325 
	C86.326736,114.115089 88.254440,120.844429 91.922997,126.654114 
z"/>
<path fill="#C3A547" opacity="1.000000" stroke="none" 
	d="
M74.071472,46.660126 
	C72.227371,47.615417 70.457184,48.230743 68.340622,48.918743 
	C68.929459,47.537720 70.077515,46.173172 70.735115,44.603191 
	C71.300247,43.253941 71.305267,41.670086 71.273003,40.095524 
	C75.111549,36.730885 79.235062,33.460697 83.682526,30.105503 
	C81.339371,34.483170 78.677422,38.948944 76.001144,43.406109 
	C75.408539,44.393063 74.765297,45.349609 74.071472,46.660126 
z"/>
<path fill="#C3A547" opacity="1.000000" stroke="none" 
	d="
M106.648163,21.023388 
	C103.540741,22.428785 100.078911,23.839331 96.305649,25.115627 
	C98.291306,20.703579 102.737152,22.024561 106.648163,21.023388 
z"/>
<path fill="#D0B04A" opacity="1.000000" stroke="none" 
	d="
M177.634735,108.010941 
	C176.612198,109.026543 175.334625,110.655342 173.812592,110.930107 
	C166.496170,112.250870 161.156754,117.110802 154.955673,120.500221 
	C147.640854,124.498390 140.112350,128.738297 130.721466,126.649849 
	C124.879715,125.350685 118.597343,125.885811 112.511894,125.866943 
	C105.004547,125.843674 98.657074,123.625084 93.735115,117.637978 
	C92.239250,115.818390 90.008148,114.569160 88.015488,113.201973 
	C86.149475,111.921692 84.153305,110.831093 82.476692,109.399948 
	C87.826485,110.427872 92.914001,111.712868 98.402100,113.005119 
	C104.618828,115.263618 110.448044,117.481934 116.245132,119.781273 
	C118.789520,120.790466 121.239120,122.805031 123.782928,122.893631 
	C129.509720,123.093071 135.270142,122.086357 141.013657,122.120117 
	C145.848053,122.148544 148.630615,119.743729 151.043396,116.009712 
	C152.245590,114.149223 154.184357,112.777176 155.699890,111.102661 
	C156.874924,109.804352 157.910202,108.379562 159.258759,106.888275 
	C160.007828,106.511475 160.505737,106.257385 161.382385,106.002083 
	C163.173935,105.669724 164.586761,105.338585 166.251495,105.003418 
	C166.671280,104.994751 166.839157,104.990128 167.007034,104.985504 
	C167.449631,104.990730 167.892242,104.995956 168.916870,105.210495 
	C170.328354,105.615723 171.157822,105.811646 171.987289,106.007568 
	C173.747208,106.671745 175.507141,107.335930 177.634735,108.010941 
z"/>
<path fill="#E8C850" opacity="1.000000" stroke="none" 
	d="
M153.997025,85.997200 
	C153.705139,87.105804 153.413254,88.214409 153.060699,89.662064 
	C148.638962,93.515640 144.266083,97.015633 139.920944,100.549736 
	C136.963211,102.955399 133.918732,104.369545 129.904144,103.038971 
	C125.049011,101.429825 119.881393,100.671890 115.160728,98.771339 
	C108.980659,96.283195 103.614059,96.965210 98.420815,100.917732 
	C97.148300,101.886223 95.640831,102.545998 93.688942,103.669136 
	C91.427864,103.987022 89.719231,103.983467 87.918541,103.691170 
	C87.208305,102.948334 86.590118,102.494240 85.616302,102.007362 
	C84.209663,100.837547 83.158669,99.700516 82.472122,98.690262 
	C85.523811,99.339180 88.697205,101.026497 90.800446,100.148956 
	C95.680397,98.112854 99.570213,94.410255 101.301567,88.885712 
	C101.548592,88.527969 101.525497,88.278091 101.294914,87.685333 
	C101.335876,86.860115 101.413406,86.390930 101.596390,85.737564 
	C101.562302,85.042168 101.422768,84.530945 101.177063,83.616470 
	C100.981499,81.828186 100.892105,80.443161 101.166939,79.042084 
	C102.016510,79.016724 102.501862,79.007423 103.322128,79.073997 
	C105.493309,81.225868 107.652916,83.099464 109.103523,85.416862 
	C113.020195,91.673897 120.235771,95.485237 127.531113,93.716141 
	C136.452408,91.552757 145.183609,88.605492 153.997025,85.997200 
z"/>
<path fill="#DDBA49" opacity="1.000000" stroke="none" 
	d="
M88.010597,103.979912 
	C89.719231,103.983467 91.427864,103.987022 93.563004,103.988106 
	C97.768631,103.857742 101.563217,103.461426 105.322487,103.678017 
	C109.024094,103.891289 111.528069,105.767097 113.189613,109.517578 
	C115.690094,115.161789 128.513535,116.990707 135.357590,113.027512 
	C137.946121,111.528572 140.768265,110.121674 142.783768,108.005882 
	C147.819443,102.719612 153.446747,101.249474 160.596359,104.324478 
	C161.001129,105.111481 161.002396,105.557396 161.003662,106.003304 
	C160.505737,106.257385 160.007828,106.511475 158.842484,106.886765 
	C151.357819,107.372803 145.578949,109.262527 142.257736,116.093613 
	C141.416077,117.824753 138.864166,119.490868 136.895065,119.773819 
	C128.651871,120.958366 120.775421,122.860489 113.873383,114.349548 
	C108.000763,107.108009 97.722069,107.673393 88.666946,106.003120 
	C87.889893,106.000519 87.445862,105.999039 87.001724,105.665367 
	C87.001701,104.890228 87.001778,104.447289 87.254066,103.999184 
	C87.674377,103.989319 87.842484,103.984619 88.010597,103.979912 
z"/>
<path fill="#DDBA49" opacity="1.000000" stroke="none" 
	d="
M166.937515,104.635216 
	C166.839157,104.990128 166.671280,104.994751 166.008133,104.761261 
	C164.010422,104.016846 162.507950,103.510559 161.005493,103.004272 
	C161.804398,101.789024 162.603302,100.573776 163.402206,99.358528 
	C164.557465,101.000664 165.712738,102.642799 166.937515,104.635216 
z"/>
<path fill="#D6B549" opacity="1.000000" stroke="none" 
	d="
M161.003021,103.252365 
	C162.507950,103.510559 164.010422,104.016846 165.756241,104.765289 
	C164.586761,105.338585 163.173935,105.669724 161.382385,106.002083 
	C161.002396,105.557396 161.001129,105.111481 160.998093,104.331108 
	C160.996338,103.996643 161.000549,103.500458 161.003021,103.252365 
z"/>
<path fill="#DDBA49" opacity="1.000000" stroke="none" 
	d="
M171.972900,105.710602 
	C171.157822,105.811646 170.328354,105.615723 169.248810,105.214912 
	C170.111221,104.221291 171.389755,102.214928 171.972900,105.710602 
z"/>
<path fill="#050401" opacity="1.000000" stroke="none" 
	d="
M100.802711,79.058136 
	C100.892105,80.443161 100.981499,81.828186 101.124329,83.939392 
	C101.282158,85.084305 101.386551,85.503021 101.490944,85.921745 
	C101.413406,86.390930 101.335876,86.860115 101.192322,87.910255 
	C101.126297,88.491211 101.202370,88.980431 101.202370,88.980431 
	C99.570213,94.410255 95.680397,98.112854 90.800446,100.148956 
	C88.697205,101.026497 85.523811,99.339180 82.331451,98.439362 
	C81.137512,97.397446 80.448692,96.733208 79.660141,95.753998 
	C78.389099,93.599113 77.217812,91.759209 76.046524,89.919296 
	C76.072289,88.121185 76.233925,86.312851 76.099670,84.526772 
	C75.590340,77.750359 79.879379,74.089096 85.033577,70.560547 
	C87.908295,70.201408 90.576080,70.102097 93.623596,69.995323 
	C94.003334,69.987869 94.002541,70.003220 94.106140,70.187737 
	C94.209740,70.372253 94.556648,70.617516 94.556648,70.617516 
	C94.556648,70.617516 94.981483,70.613457 94.981483,70.613457 
	C96.098427,71.693291 97.215370,72.773132 98.699409,74.246613 
	C99.190392,74.777428 99.314278,74.914604 99.428703,75.253548 
	C99.520195,75.735741 99.716980,75.904327 100.013687,76.231125 
	C100.096382,76.663147 100.174980,76.825134 100.194023,77.271187 
	C100.357208,78.056213 100.579956,78.557175 100.802711,79.058136 
z"/>
<path fill="#EDCC5A" opacity="1.000000" stroke="none" 
	d="
M154.065826,85.643745 
	C145.183609,88.605492 136.452408,91.552757 127.531113,93.716141 
	C120.235771,95.485237 113.020195,91.673897 109.103523,85.416862 
	C107.652916,83.099464 105.493309,81.225868 103.325546,78.741074 
	C102.993057,77.888260 102.992058,77.444252 102.928818,76.654068 
	C101.913719,74.872520 100.960869,73.437134 100.008026,72.001747 
	C99.447464,70.853065 98.886902,69.704384 98.140442,67.903351 
	C96.896873,64.199181 97.361298,61.726852 99.928207,59.388420 
	C101.381790,58.064228 102.003380,55.826748 102.999695,54.000610 
	C103.903336,53.190586 104.806976,52.380558 106.133415,51.121605 
	C107.702477,50.116280 108.848732,49.559875 109.922050,49.347061 
	C107.901093,53.794224 105.953064,57.897793 104.162018,62.327690 
	C105.138802,64.799347 106.374199,66.882278 106.707191,69.100677 
	C108.234894,79.278328 113.076256,84.212273 127.336082,86.218742 
	C134.480225,88.234947 140.575058,85.815529 145.888733,82.198982 
	C150.384476,79.139122 153.994873,74.778450 158.206451,71.189278 
	C158.944489,71.589584 159.473160,71.794083 160.001831,71.998581 
	C158.046097,76.429153 156.090363,80.859718 154.065826,85.643745 
z"/>
<path fill="#E9C75E" opacity="1.000000" stroke="none" 
	d="
M160.286636,71.806351 
	C159.473160,71.794083 158.944489,71.589584 158.231354,70.803665 
	C162.634537,60.730843 160.731659,52.890881 153.406860,45.178429 
	C148.478928,39.989685 141.258667,36.573147 128.087814,40.660416 
	C129.461899,37.896435 130.734238,35.454140 132.006592,33.011845 
	C132.753403,33.010986 133.500229,33.010132 134.709808,33.300316 
	C135.786560,34.053600 136.400513,34.515850 137.014481,34.978096 
	C138.725204,34.985630 140.435913,34.993168 142.574371,35.003708 
	C150.643326,36.987843 156.807053,41.225666 161.342636,47.616055 
	C167.395706,56.144493 167.071594,62.919891 160.286636,71.806351 
z"/>
<path fill="#E7C454" opacity="1.000000" stroke="none" 
	d="
M131.641449,33.079636 
	C130.734238,35.454140 129.461899,37.896435 127.672653,40.666573 
	C120.439369,41.529728 114.244095,43.181599 109.994987,49.003471 
	C108.848732,49.559875 107.702477,50.116280 106.276886,50.835434 
	C107.837891,48.223213 109.213188,44.929920 111.612122,42.777538 
	C117.183113,37.779125 124.168556,35.240353 131.641449,33.079636 
z"/>
<path fill="#E7C454" opacity="1.000000" stroke="none" 
	d="
M102.634766,54.021736 
	C102.003380,55.826748 101.381790,58.064228 99.928207,59.388420 
	C97.361298,61.726852 96.896873,64.199181 97.974823,67.624664 
	C95.747475,66.128807 93.499847,64.259277 90.842346,62.048828 
	C94.982727,59.148129 98.626282,56.595497 102.634766,54.021736 
z"/>
<path fill="#E8C850" opacity="1.000000" stroke="none" 
	d="
M99.878632,72.265366 
	C100.960869,73.437134 101.913719,74.872520 102.586838,76.653473 
	C101.622604,76.995064 100.938095,76.991089 100.253586,76.987122 
	C100.174980,76.825134 100.096382,76.663147 99.962738,76.054420 
	C99.804955,75.376953 99.648445,75.191658 99.438164,75.051781 
	C99.314278,74.914604 99.190392,74.777428 99.007599,74.369232 
	C99.215530,73.575142 99.482384,73.052063 99.878632,72.265366 
z"/>
<path fill="#E7C454" opacity="1.000000" stroke="none" 
	d="
M136.923218,34.689445 
	C136.400513,34.515850 135.786560,34.053600 135.083221,33.301350 
	C135.606552,33.474499 136.219238,33.937649 136.923218,34.689445 
z"/>
<path fill="#CFAE49" opacity="1.000000" stroke="none" 
	d="
M94.867172,70.447601 
	C94.981483,70.613457 94.556648,70.617516 94.556648,70.617516 
	C94.556648,70.617516 94.209740,70.372253 94.113365,70.182816 
	C94.300377,69.992294 94.545670,70.088417 94.867172,70.447601 
z"/>
<path fill="#CDAC4A" opacity="1.000000" stroke="none" 
	d="
M74.998474,103.000000 
	C69.349098,96.631104 62.996002,90.683838 63.832512,80.944473 
	C64.114853,77.657158 61.813095,74.032295 65.668152,71.125946 
	C66.577477,72.701515 66.671066,74.902023 67.819023,76.017014 
	C72.488449,80.552406 72.227081,86.478371 72.800858,92.847565 
	C73.402596,96.696991 74.200539,99.848495 74.998474,103.000000 
z"/>
<path fill="#D0B04A" opacity="1.000000" stroke="none" 
	d="
M74.999298,103.249878 
	C74.200539,99.848495 73.402596,96.696991 72.803406,93.274055 
	C77.127556,96.213692 75.542679,92.104393 76.035629,90.282074 
	C77.217812,91.759209 78.389099,93.599113 79.405106,95.952408 
	C77.534798,98.582268 75.789803,100.697601 79.059723,103.341614 
	C79.413040,104.786461 79.705299,105.892921 79.997559,106.999390 
	C79.248604,106.999382 78.499641,106.999382 77.376259,106.999237 
	C77.001831,106.999084 77.000130,106.499283 76.912430,105.958252 
	C76.216896,104.944656 75.609055,104.472092 75.001221,103.999519 
	C75.001221,103.999519 75.000122,103.499756 74.999298,103.249878 
z"/>
<path fill="#CDAC4A" opacity="1.000000" stroke="none" 
	d="
M69.341125,62.920540 
	C70.505424,58.498970 72.009628,53.998386 73.757828,49.248528 
	C75.077675,48.863789 76.153526,48.728325 78.694656,48.408360 
	C75.270500,53.891319 72.475761,58.366421 69.341125,62.920540 
z"/>
<path fill="#D2B864" opacity="1.000000" stroke="none" 
	d="
M156.006134,152.904510 
	C167.061646,148.546753 178.117157,144.188995 189.519257,139.713211 
	C188.808594,140.849228 187.944916,142.371109 186.655090,143.303421 
	C183.670578,145.460739 180.479782,147.332611 177.186630,149.588257 
	C170.289627,151.921616 163.578613,153.986954 156.453156,155.669952 
	C156.027863,154.493271 156.016998,153.698883 156.006134,152.904510 
z"/>
<path fill="#D2B864" opacity="1.000000" stroke="none" 
	d="
M144.102478,155.416870 
	C146.061600,154.741989 148.132858,154.347839 150.452652,154.302856 
	C150.493134,155.542404 150.285110,156.432755 150.077087,157.323120 
	C149.260162,157.543121 148.443253,157.763123 147.303467,157.980133 
	C146.058594,157.217285 145.136612,156.457443 144.102478,155.416870 
z"/>
<path fill="#DEC26B" opacity="1.000000" stroke="none" 
	d="
M150.456421,157.267914 
	C150.285110,156.432755 150.493134,155.542404 150.848389,154.342957 
	C152.417221,153.659561 153.838852,153.285248 155.633301,152.907730 
	C156.016998,153.698883 156.027863,154.493271 156.038544,155.686554 
	C154.304169,156.461212 152.569977,156.836960 150.456421,157.267914 
z"/>
<path fill="#D4B24A" opacity="1.000000" stroke="none" 
	d="
M80.085793,107.290588 
	C79.705299,105.892921 79.413040,104.786461 79.437607,103.346024 
	C82.170242,104.007217 84.586037,105.002388 87.001831,105.997559 
	C87.445862,105.999039 87.889893,106.000519 88.780128,106.321022 
	C92.151398,108.759315 95.076454,110.878586 98.001518,112.997864 
	C92.914001,111.712868 87.826485,110.427872 82.370094,109.072319 
	C81.392159,108.528435 80.783089,108.055115 80.085793,107.290588 
z"/>
<path fill="#C8AC5D" opacity="1.000000" stroke="none" 
	d="
M86.998215,150.001480 
	C87.205231,149.473801 87.414047,148.944641 88.187546,148.230927 
	C90.056671,148.703735 91.299606,149.575317 92.679062,149.971436 
	C95.136505,150.677094 97.676521,151.095230 100.181992,151.633606 
	C101.919449,152.683914 103.656898,153.734207 105.706024,154.956299 
	C106.016090,155.835419 106.014473,156.542755 106.026611,157.602600 
	C103.283287,157.347534 100.526207,156.739929 97.302536,155.768799 
	C96.217453,154.951874 95.598953,154.498474 94.980446,154.045074 
	C94.541786,154.033325 94.103119,154.021561 93.160645,153.716019 
	C90.770363,152.282532 88.883911,151.142822 86.997459,150.003113 
	C86.997459,150.003113 87.000000,150.000000 86.998215,150.001480 
z"/>
<path fill="#BF9F4E" opacity="1.000000" stroke="none" 
	d="
M87.077171,150.343018 
	C88.883911,151.142822 90.770363,152.282532 92.831619,153.707855 
	C91.056572,152.889984 89.106728,151.786469 87.077171,150.343018 
z"/>
<path fill="#BF9F4E" opacity="1.000000" stroke="none" 
	d="
M95.074852,154.331589 
	C95.598953,154.498474 96.217453,154.951874 96.929047,155.694153 
	C96.404510,155.528046 95.786880,155.073074 95.074852,154.331589 
z"/>
<path fill="#B59745" opacity="1.000000" stroke="none" 
	d="
M118.054581,143.336243 
	C113.962425,142.707321 109.882484,141.806427 105.513550,140.637695 
	C109.209808,140.907379 113.195053,141.444870 117.597076,141.979095 
	C118.031502,142.338623 118.049149,142.701462 118.054581,143.336243 
z"/>
<path fill="#B59745" opacity="1.000000" stroke="none" 
	d="
M99.560890,138.123871 
	C97.435043,137.601913 95.320175,136.703278 92.966614,135.554657 
	C95.009247,136.118835 97.290558,136.932999 99.560890,138.123871 
z"/>
<path fill="#B59745" opacity="1.000000" stroke="none" 
	d="
M88.589539,133.091888 
	C86.757416,132.541931 84.934853,131.608109 82.900818,130.400940 
	C84.659264,130.987732 86.629181,131.847870 88.589539,133.091888 
z"/>
<path fill="#B59745" opacity="1.000000" stroke="none" 
	d="
M103.859810,139.637756 
	C102.706314,139.634399 101.411430,139.295273 99.875351,138.722504 
	C100.995583,138.759903 102.357002,139.030960 103.859810,139.637756 
z"/>
<path fill="#B59745" opacity="1.000000" stroke="none" 
	d="
M92.669861,135.038177 
	C91.581436,134.886353 90.362061,134.388779 88.900826,133.667267 
	C89.952286,133.859680 91.245598,134.276047 92.669861,135.038177 
z"/>
<path fill="#D2B864" opacity="1.000000" stroke="none" 
	d="
M99.933960,151.397797 
	C97.676521,151.095230 95.136505,150.677094 92.679062,149.971436 
	C91.299606,149.575317 90.056671,148.703735 88.385933,148.022720 
	C87.739616,147.516296 87.459595,147.033524 87.102226,145.938873 
	C87.057030,145.079926 87.089180,144.832886 87.121323,144.585846 
	C91.309525,146.777908 95.497726,148.969955 99.933960,151.397797 
z"/>
<path fill="#C8AC5D" opacity="1.000000" stroke="none" 
	d="
M86.912643,144.342651 
	C87.089180,144.832886 87.057030,145.079926 86.963959,145.696487 
	C81.823135,146.185104 80.745033,142.093445 79.069908,138.258911 
	C81.611794,139.961319 84.157875,142.030396 86.912643,144.342651 
z"/>
<path fill="#C8AC5D" opacity="1.000000" stroke="none" 
	d="
M78.962212,137.645752 
	C77.801254,136.717621 76.491173,135.494659 75.142731,133.901398 
	C76.340607,134.804367 77.576843,136.077652 78.962212,137.645752 
z"/>
<path fill="#CDAC4A" opacity="1.000000" stroke="none" 
	d="
M75.088135,104.290703 
	C75.609055,104.472092 76.216896,104.944656 76.911606,105.708359 
	C76.390663,105.526955 75.782860,105.054420 75.088135,104.290703 
z"/>
<path fill="#D6B549" opacity="1.000000" stroke="none" 
	d="
M98.402100,113.005119 
	C95.076454,110.878586 92.151398,108.759315 89.113152,106.322136 
	C97.722069,107.673393 108.000763,107.108009 113.873383,114.349548 
	C120.775421,122.860489 128.651871,120.958366 136.895065,119.773819 
	C138.864166,119.490868 141.416077,117.824753 142.257736,116.093613 
	C145.578949,109.262527 151.357819,107.372803 158.591339,107.009476 
	C157.910202,108.379562 156.874924,109.804352 155.699890,111.102661 
	C154.184357,112.777176 152.245590,114.149223 151.043396,116.009712 
	C148.630615,119.743729 145.848053,122.148544 141.013657,122.120117 
	C135.270142,122.086357 129.509720,123.093071 123.782928,122.893631 
	C121.239120,122.805031 118.789520,120.790466 116.245132,119.781273 
	C110.448044,117.481934 104.618828,115.263618 98.402100,113.005119 
z"/>
<path fill="#DBB74A" opacity="1.000000" stroke="none" 
	d="
M87.001724,105.665359 
	C84.586037,105.002388 82.170242,104.007217 79.376556,103.007645 
	C75.789803,100.697601 77.534798,98.582268 79.504845,96.267380 
	C80.448692,96.733208 81.137512,97.397446 81.967003,98.312576 
	C83.158669,99.700516 84.209663,100.837547 85.680939,102.282578 
	C86.401436,103.061829 86.701653,103.533089 87.001862,104.004341 
	C87.001778,104.447289 87.001701,104.890228 87.001724,105.665359 
z"/>
<path fill="#E1C04B" opacity="1.000000" stroke="none" 
	d="
M100.194023,77.271179 
	C100.938095,76.991089 101.622604,76.995064 102.649094,76.999634 
	C102.992058,77.444252 102.993057,77.888260 102.990631,78.665192 
	C102.501862,79.007423 102.016510,79.016724 101.166939,79.042084 
	C100.579956,78.557175 100.357208,78.056213 100.194023,77.271179 
z"/>
<path fill="#E3C14C" opacity="1.000000" stroke="none" 
	d="
M87.254066,103.999184 
	C86.701653,103.533089 86.401436,103.061829 86.036583,102.315361 
	C86.590118,102.494240 87.208305,102.948334 87.918541,103.691170 
	C87.842484,103.984619 87.674377,103.989319 87.254066,103.999184 
z"/>
<path fill="#E1C04B" opacity="1.000000" stroke="none" 
	d="
M101.596390,85.737564 
	C101.386551,85.503021 101.282158,85.084305 101.230499,84.342651 
	C101.422768,84.530945 101.562302,85.042168 101.596390,85.737564 
z"/>
<path fill="#E1C04B" opacity="1.000000" stroke="none" 
	d="
M101.301567,88.885712 
	C101.202370,88.980431 101.126297,88.491211 101.228889,88.266281 
	C101.525497,88.278091 101.548592,88.527969 101.301567,88.885712 
z"/>
<path fill="#E1C04B" opacity="1.000000" stroke="none" 
	d="
M99.428703,75.253548 
	C99.648445,75.191658 99.804955,75.376953 99.958649,75.784378 
	C99.716980,75.904327 99.520195,75.735741 99.428703,75.253548 
z"/>
<path fill="#EECD66" opacity="1.000000" stroke="none" 
	d="
M109.922050,49.347061 
	C114.244095,43.181599 120.439369,41.529728 127.570915,40.988251 
	C141.258667,36.573147 148.478928,39.989685 153.406860,45.178429 
	C160.731659,52.890881 162.634537,60.730843 158.021973,70.607864 
	C153.994873,74.778450 150.384476,79.139122 145.888733,82.198982 
	C140.575058,85.815529 134.480225,88.234947 127.574066,85.980629 
	C133.562393,82.546188 139.513367,79.254585 145.760147,76.680992 
	C152.589981,73.867203 154.710739,70.869270 154.001938,62.576557 
	C153.409058,59.666019 153.442886,56.765190 152.118591,54.762367 
	C145.944000,45.424114 136.301666,42.599991 125.230423,46.421726 
	C118.122345,48.875397 115.258575,52.114727 114.638397,57.980659 
	C112.310760,58.585705 110.305443,59.120781 108.379463,59.861996 
	C106.870384,60.442760 105.459526,61.278755 104.005035,62.001362 
	C105.953064,57.897793 107.901093,53.794224 109.922050,49.347061 
z"/>
<path fill="#F2D063" opacity="1.000000" stroke="none" 
	d="
M154.003021,62.999943 
	C154.710739,70.869270 152.589981,73.867203 145.760147,76.680992 
	C139.513367,79.254585 133.562393,82.546188 127.243073,85.759483 
	C113.076256,84.212273 108.234894,79.278328 106.707191,69.100677 
	C106.374199,66.882278 105.138802,64.799347 104.162018,62.327690 
	C105.459526,61.278755 106.870384,60.442760 108.379463,59.861996 
	C110.305443,59.120781 112.310760,58.585705 114.781036,58.305710 
	C115.187103,60.766605 115.094009,62.883564 114.769150,65.295532 
	C111.069992,74.466682 113.955872,81.572212 121.885239,81.608376 
	C125.916275,81.626770 129.961060,78.630516 134.367889,76.926453 
	C143.047943,74.864609 150.436676,71.589828 154.003021,62.999943 
z"/>
<path fill="#F3D66E" opacity="1.000000" stroke="none" 
	d="
M154.001938,62.576557 
	C150.436676,71.589828 143.047943,74.864609 134.440262,76.553879 
	C134.430405,74.502571 134.716431,72.753242 135.366699,70.932625 
	C138.221222,69.937248 140.761353,69.127151 143.191086,68.064613 
	C147.798843,66.049622 148.581268,63.299114 145.941330,58.975372 
	C142.451157,53.259121 131.562592,48.637463 124.889137,50.147980 
	C121.492126,50.916889 119.968620,53.185120 120.048637,56.684601 
	C120.127213,60.120449 120.020988,63.560520 119.663589,66.929535 
	C117.887856,66.240395 116.444389,65.620461 115.000916,65.000526 
	C115.094009,62.883564 115.187103,60.766605 115.137558,58.324589 
	C115.258575,52.114727 118.122345,48.875397 125.230423,46.421726 
	C136.301666,42.599991 145.944000,45.424114 152.118591,54.762367 
	C153.442886,56.765190 153.409058,59.666019 154.001938,62.576557 
z"/>
<path fill="#F8D868" opacity="1.000000" stroke="none" 
	d="
M114.769150,65.295532 
	C116.444389,65.620461 117.887856,66.240395 119.845840,67.222107 
	C124.415451,72.258530 129.436264,72.798683 135.002441,71.003922 
	C134.716431,72.753242 134.430405,74.502571 134.072006,76.624466 
	C129.961060,78.630516 125.916275,81.626770 121.885239,81.608376 
	C113.955872,81.572212 111.069992,74.466682 114.769150,65.295532 
z"/>
<path fill="#F7DD74" opacity="1.000000" stroke="none" 
	d="
M135.366699,70.932625 
	C129.436264,72.798683 124.415451,72.258530 120.178108,67.291321 
	C120.020988,63.560520 120.127213,60.120449 120.048637,56.684601 
	C119.968620,53.185120 121.492126,50.916889 124.889137,50.147980 
	C131.562592,48.637463 142.451157,53.259121 145.941330,58.975372 
	C148.581268,63.299114 147.798843,66.049622 143.191086,68.064613 
	C140.761353,69.127151 138.221222,69.937248 135.366699,70.932625 
M132.942993,53.249008 
	C131.330170,52.872734 129.734207,52.304188 128.100952,52.160954 
	C124.886803,51.879066 122.103989,54.720890 122.535683,57.628559 
	C123.701721,65.482491 133.605545,70.511276 140.729492,66.866653 
	C144.227493,65.077080 144.745285,61.911316 141.701599,59.345520 
	C139.178589,57.218666 136.344864,55.460430 132.942993,53.249008 
z"/>
<path fill="#FBE47B" opacity="1.000000" stroke="none" 
	d="
M133.295898,53.393948 
	C136.344864,55.460430 139.178589,57.218666 141.701599,59.345520 
	C144.745285,61.911316 144.227493,65.077080 140.729492,66.866653 
	C133.605545,70.511276 123.701721,65.482491 122.535683,57.628559 
	C122.103989,54.720890 124.886803,51.879066 128.100952,52.160954 
	C129.734207,52.304188 131.330170,52.872734 133.295898,53.393948 
z"/>
</svg>