<?xml version="1.0" encoding="UTF-8"?>
<svg version="1.1" xmlns="http://www.w3.org/2000/svg" width="256" height="256">
<path d="M0 0 C0.75983185 0.00154083 1.5196637 0.00308167 2.30252075 0.00466919 C31.93474074 0.14803515 56.26569162 10.47324202 77.5625 31.375 C78.27535156 32.06335938 78.98820313 32.75171875 79.72265625 33.4609375 C90.6355019 44.75008817 100.15776082 59.25959162 104.5625 74.375 C104.92601562 75.58542969 105.28953125 76.79585938 105.6640625 78.04296875 C109.49790468 91.57174278 110.93587964 104.69008983 110.93310547 118.7121582 C110.93747611 121.17404588 110.97392768 123.63413053 111.01171875 126.09570312 C111.0868172 136.81520179 109.66190234 146.10007824 106.5625 156.375 C106.25127197 157.47465088 105.94004395 158.57430176 105.61938477 159.70727539 C102.54127485 170.36098168 96.93960119 180.34201761 89.32421875 188.40234375 C87.287112 190.68336128 85.61142872 193.10807342 83.875 195.625 C75.30137171 207.48354334 65.45302452 215.58303186 52.5625 222.375 C51.50289062 222.95121094 50.44328125 223.52742187 49.3515625 224.12109375 C34.5303547 231.60636368 18.91008078 232.98863929 2.54516602 233.2331543 C0.35108565 233.30784754 0.35108565 233.30784754 -2.4375 234.375 C-4.28605253 234.22390777 -6.12814751 233.9874772 -7.9609375 233.703125 C-9.05841309 233.53514404 -10.15588867 233.36716309 -11.28662109 233.1940918 C-12.45016113 233.0062915 -13.61370117 232.81849121 -14.8125 232.625 C-16.58681396 232.34039917 -16.58681396 232.34039917 -18.39697266 232.05004883 C-21.74598581 231.50388857 -25.09202018 230.9423465 -28.4375 230.375 C-29.19675781 230.25108887 -29.95601563 230.12717773 -30.73828125 229.99951172 C-49.40809967 226.87338012 -71.73467897 210.32363712 -83.70703125 195.8203125 C-101.56773484 170.58148531 -117.22790244 134.77874933 -112.4375 103.375 C-112.36015625 102.60671875 -112.2828125 101.8384375 -112.203125 101.046875 C-111.87317095 97.92500206 -111.7180167 96.6555167 -109.4375 94.375 C-108.65553112 92.04675409 -108.65553112 92.04675409 -108.02734375 89.30859375 C-99.81638318 56.96833692 -82.37872873 31.79679907 -53.60546875 14.25830078 C-44.64152647 8.95306231 -35.47832414 5.16051895 -25.4375 2.375 C-24.82092529 2.18953613 -24.20435059 2.00407227 -23.5690918 1.81298828 C-15.86062646 -0.24566321 -7.91865401 -0.0240975 0 0 Z " fill="#BE960B" transform="translate(128.4375,3.625)"/>
<path d="M0 0 C23.82964435 -1.41764012 46.63719145 4.03344766 66.85693359 16.71875 C67.99195313 17.42584106 67.99195313 17.42584106 69.14990234 18.1472168 C69.85115234 18.60523682 70.55240234 19.06325684 71.27490234 19.53515625 C71.90549561 19.9432251 72.53608887 20.35129395 73.18579102 20.77172852 C75.03189028 22.49449121 75.38381792 23.67049628 75.66943359 26.15625 C75.33943359 26.81625 75.00943359 27.47625 74.66943359 28.15625 C74.00943359 28.15625 73.34943359 28.15625 72.66943359 28.15625 C72.00943359 29.80625 71.34943359 31.45625 70.66943359 33.15625 C69.61755859 33.011875 68.56568359 32.8675 67.48193359 32.71875 C61.56459052 31.97241844 55.61677258 31.58235508 49.66943359 31.15625 C49.59595703 32.09984375 49.59595703 32.09984375 49.52099609 33.0625 C49.28471929 35.76746207 48.98713095 38.45969685 48.66943359 41.15625 C48.60498047 41.8471875 48.54052734 42.538125 48.47412109 43.25 C46.74571482 54.06361874 34.91719191 62.09594063 26.66943359 68.15625 C21.02671588 72.03214955 15.64702288 74.74560897 8.66943359 74.15625 C5.08263119 73.27485146 1.60171555 72.23790893 -1.90087891 71.06640625 C-9.14587415 69.14375945 -13.75258631 70.41315265 -20.20556641 73.59375 C-26.01428776 76.31339764 -30.82549274 78.04008797 -37.33056641 78.15625 C-37.33056641 78.81625 -37.33056641 79.47625 -37.33056641 80.15625 C-35.85523437 80.12144531 -35.85523437 80.12144531 -34.35009766 80.0859375 C-27.49274997 79.97758295 -20.74787925 80.02506266 -13.93348694 80.85314941 C-3.06552745 82.14919507 7.76711728 82.39208876 18.69677734 82.5 C19.49911741 82.50811832 20.30145748 82.51623665 21.12811089 82.52460098 C27.81128321 82.58885379 34.4945681 82.63115972 41.17791748 82.67193604 C46.20419188 82.70325424 51.23028414 82.7423975 56.2564106 82.79219055 C58.58624418 82.81208975 60.91593411 82.82053149 63.24583435 82.82849121 C64.67341644 82.84146111 66.10099367 82.85498105 67.52856445 82.86914062 C68.76650253 82.87643188 70.00444061 82.88372314 71.27989197 82.89123535 C74.76830115 83.16398006 77.46528268 83.7572733 80.66943359 85.15625 C86.18513624 93.42980397 85.56081546 105.56915354 84.66943359 115.15625 C83.38803079 119.50431098 81.49593504 121.92988474 77.75537109 124.44140625 C66.15661341 130.32513969 52.40850334 129.44410341 39.77709961 129.36206055 C36.84594087 129.34368107 33.91509741 129.3415523 30.98388672 129.34179688 C29.10172255 129.33688444 27.2195605 129.33105732 25.33740234 129.32421875 C24.47060349 129.32310593 23.60380463 129.3219931 22.71073914 129.32084656 C21.88910782 129.31446671 21.0674765 129.30808685 20.22094727 129.30151367 C19.50879562 129.29770187 18.79664398 129.29389008 18.06291199 129.28996277 C15.66943359 129.15625 15.66943359 129.15625 12.29013062 128.65306091 C8.8604984 128.1824668 5.64447359 128.04427274 2.18676758 128.06201172 C0.94535507 128.06466034 -0.29605743 128.06730896 -1.5750885 128.07003784 C-2.22833666 128.07308804 -2.88158482 128.07613823 -3.55462837 128.07928085 C-7.05225812 128.09075094 -10.54976704 128.07010506 -14.04736328 128.0546875 C-18.48046807 128.03639643 -22.91287233 128.02780386 -27.34594727 128.05664062 C-30.94663767 128.07921572 -34.54582372 128.06771795 -38.14640617 128.03363419 C-39.51186628 128.02688541 -40.87744833 128.03248922 -42.24279976 128.05099106 C-52.87491836 128.18589277 -52.87491836 128.18589277 -56.46627808 125.64556885 C-58.00686914 123.88254942 -59.1830347 122.19147793 -60.33056641 120.15625 C-60.99056641 119.16625 -61.65056641 118.17625 -62.33056641 117.15625 C-63.69777032 112.44991346 -63.55062428 107.58060305 -63.58056641 102.71875 C-63.60119141 101.88537109 -63.62181641 101.05199219 -63.64306641 100.19335938 C-63.67540642 95.07959475 -63.18203304 91.57907117 -60.33056641 87.15625 C-56.01477693 83.15625 -56.01477693 83.15625 -53.33056641 83.15625 C-53.33056641 82.49625 -53.33056641 81.83625 -53.33056641 81.15625 C-48.38056641 80.16625 -48.38056641 80.16625 -43.33056641 79.15625 C-43.99056641 77.83625 -44.65056641 76.51625 -45.33056641 75.15625 C-46.32056641 75.15625 -47.31056641 75.15625 -48.33056641 75.15625 C-48.33056641 74.16625 -48.33056641 73.17625 -48.33056641 72.15625 C-49.40306641 72.0325 -50.47556641 71.90875 -51.58056641 71.78125 C-56.79398104 70.91234756 -56.79398104 70.91234756 -59.33056641 69.15625 C-59.66056641 68.16625 -59.99056641 67.17625 -60.33056641 66.15625 C-62.31056641 66.65125 -62.31056641 66.65125 -64.33056641 67.15625 C-64.33056641 66.49625 -64.33056641 65.83625 -64.33056641 65.15625 C-66.31056641 65.65125 -66.31056641 65.65125 -68.33056641 66.15625 C-68.33056641 65.16625 -68.33056641 64.17625 -68.33056641 63.15625 C-74.22129926 64.4185499 -76.99552694 67.394778 -80.33056641 72.15625 C-81.02647555 73.47455675 -81.6974309 74.80667168 -82.33056641 76.15625 C-82.82556641 77.14625 -82.82556641 77.14625 -83.33056641 78.15625 C-83.12431641 78.795625 -82.91806641 79.435 -82.70556641 80.09375 C-82.58181641 80.774375 -82.45806641 81.455 -82.33056641 82.15625 C-83.70556641 83.78125 -83.70556641 83.78125 -85.33056641 85.15625 C-85.82556641 86.14625 -85.82556641 86.14625 -86.33056641 87.15625 C-87.32056641 86.82625 -88.31056641 86.49625 -89.33056641 86.15625 C-89.66056641 87.47625 -89.99056641 88.79625 -90.33056641 90.15625 C-89.67056641 90.48625 -89.01056641 90.81625 -88.33056641 91.15625 C-88.51619141 91.73375 -88.70181641 92.31125 -88.89306641 92.90625 C-89.48528226 95.0929099 -89.48528226 95.0929099 -88.86401367 96.97167969 C-88.24553214 99.50448187 -88.21775696 101.75302505 -88.23291016 104.359375 C-88.23613281 105.3390625 -88.23935547 106.31875 -88.24267578 107.328125 C-88.25105469 108.34390625 -88.25943359 109.3596875 -88.26806641 110.40625 C-88.27257812 111.4375 -88.27708984 112.46875 -88.28173828 113.53125 C-88.29350553 116.07297573 -88.30994629 118.61458319 -88.33056641 121.15625 C-87.67056641 121.15625 -87.01056641 121.15625 -86.33056641 121.15625 C-86.33056641 125.44625 -86.33056641 129.73625 -86.33056641 134.15625 C-86.99056641 134.48625 -87.65056641 134.81625 -88.33056641 135.15625 C-88.97996376 132.78217408 -89.62516694 130.4070861 -90.26806641 128.03125 C-90.45046875 127.36609375 -90.63287109 126.7009375 -90.82080078 126.015625 C-98.37714639 97.98845219 -91.4663345 73.94092438 -78.33056641 49.15625 C-77.67056641 48.16625 -77.01056641 47.17625 -76.33056641 46.15625 C-75.67056641 46.15625 -75.01056641 46.15625 -74.33056641 46.15625 C-74.07662109 45.59550781 -73.82267578 45.03476562 -73.56103516 44.45703125 C-72.15784861 41.83329513 -70.50403086 39.66538542 -68.64306641 37.34375 C-67.67820312 36.12751953 -67.67820312 36.12751953 -66.69384766 34.88671875 C-51.73645851 17.60537162 -28.8144329 2.95994069 -5.69384766 0.34375 C-3.79539064 0.23791268 -1.89714596 0.12719185 0 0 Z " fill="#DCB110" transform="translate(118.33056640625,8.84375)"/>
<path d="M0 0 C0.75983185 0.00154083 1.5196637 0.00308167 2.30252075 0.00466919 C31.93474074 0.14803515 56.26569162 10.47324202 77.5625 31.375 C78.27535156 32.06335938 78.98820313 32.75171875 79.72265625 33.4609375 C90.6355019 44.75008817 100.15776082 59.25959162 104.5625 74.375 C104.92601562 75.58542969 105.28953125 76.79585938 105.6640625 78.04296875 C109.49790468 91.57174278 110.93587964 104.69008983 110.93310547 118.7121582 C110.93747611 121.17404588 110.97392768 123.63413053 111.01171875 126.09570312 C111.0868172 136.81520179 109.66190234 146.10007824 106.5625 156.375 C106.25127197 157.47465088 105.94004395 158.57430176 105.61938477 159.70727539 C102.54127485 170.36098168 96.93960119 180.34201761 89.32421875 188.40234375 C87.287112 190.68336128 85.61142872 193.10807342 83.875 195.625 C75.30137171 207.48354334 65.45302452 215.58303186 52.5625 222.375 C51.50289062 222.95121094 50.44328125 223.52742187 49.3515625 224.12109375 C34.5303547 231.60636368 18.91008078 232.98863929 2.54516602 233.2331543 C0.35108565 233.30784754 0.35108565 233.30784754 -2.4375 234.375 C-4.28605253 234.22390777 -6.12814751 233.9874772 -7.9609375 233.703125 C-9.05841309 233.53514404 -10.15588867 233.36716309 -11.28662109 233.1940918 C-12.45016113 233.0062915 -13.61370117 232.81849121 -14.8125 232.625 C-16.58681396 232.34039917 -16.58681396 232.34039917 -18.39697266 232.05004883 C-21.74598581 231.50388857 -25.09202018 230.9423465 -28.4375 230.375 C-29.19675781 230.25108887 -29.95601563 230.12717773 -30.73828125 229.99951172 C-49.40809967 226.87338012 -71.73467897 210.32363712 -83.70703125 195.8203125 C-101.56773484 170.58148531 -117.22790244 134.77874933 -112.4375 103.375 C-112.36015625 102.60671875 -112.2828125 101.8384375 -112.203125 101.046875 C-111.87317095 97.92500206 -111.7180167 96.6555167 -109.4375 94.375 C-108.65553112 92.04675409 -108.65553112 92.04675409 -108.02734375 89.30859375 C-99.81638318 56.96833692 -82.37872873 31.79679907 -53.60546875 14.25830078 C-44.64152647 8.95306231 -35.47832414 5.16051895 -25.4375 2.375 C-24.82092529 2.18953613 -24.20435059 2.00407227 -23.5690918 1.81298828 C-15.86062646 -0.24566321 -7.91865401 -0.0240975 0 0 Z M-80.0625 43.8125 C-83.28295981 47.18272243 -83.28295981 47.18272243 -84.4375 51.375 C-85.0975 51.375 -85.7575 51.375 -86.4375 51.375 C-88.19953036 54.63948401 -89.94477099 57.91267717 -91.6875 61.1875 C-92.17863281 62.09693359 -92.66976562 63.00636719 -93.17578125 63.94335938 C-105.0438243 86.3344006 -107.24396011 111.75163205 -100.12646484 136.20605469 C-98.02867822 142.81014269 -95.3975137 149.11529891 -92.4375 155.375 C-92.13328125 156.02984375 -91.8290625 156.6846875 -91.515625 157.359375 C-86.82886733 167.28894633 -80.95962689 175.40614193 -73.4375 183.375 C-72.15166016 184.79425781 -72.15166016 184.79425781 -70.83984375 186.2421875 C-61.93450141 195.2884777 -50.91027003 200.23777319 -39.4375 205.375 C-38.75913086 205.68228027 -38.08076172 205.98956055 -37.38183594 206.30615234 C-24.73026616 211.93709843 -11.70808829 212.82256136 2 212.8125 C2.69504639 212.8125705 3.39009277 212.81264099 4.10620117 212.81271362 C33.12351875 212.70025948 54.37558093 203.15840581 75.02734375 182.96484375 C76.97910241 180.83530113 78.78173863 178.64889529 80.5625 176.375 C81.26246094 175.53324219 81.96242187 174.69148437 82.68359375 173.82421875 C92.38996938 161.66181047 99.89480372 147.53019783 103.5625 132.375 C103.83707031 131.39853516 103.83707031 131.39853516 104.1171875 130.40234375 C105.11896507 125.84161955 105.20968198 121.151351 105.43652344 116.5 C105.52061309 115.08155751 105.63074929 113.66442368 105.76660156 112.25 C106.90618954 100.3770834 104.79217229 90.14196102 101.0625 78.9375 C100.65346436 77.69419922 100.24442871 76.45089844 99.82299805 75.16992188 C94.71273244 60.66685092 86.78549726 49.59799726 75.9375 38.75 C73.5625 36.375 73.5625 36.375 72.12231445 34.6105957 C67.78932316 29.31428586 63.2066202 25.7192933 57.375 22.1875 C56.52695801 21.66849121 55.67891602 21.14948242 54.80517578 20.61474609 C9.04784519 -6.93045101 -45.95839581 3.51310703 -80.0625 43.8125 Z " fill="#040402" transform="translate(128.4375,3.625)"/>
<path d="M0 0 C10.93545027 1.26669365 21.82820154 1.53242369 32.82252502 1.64135742 C33.62466682 1.64948141 34.42680862 1.6576054 35.25325775 1.66597557 C41.93663022 1.73022334 48.62011569 1.77251592 55.30366516 1.81329346 C60.32993957 1.84461166 65.35603182 1.88375492 70.38215828 1.93354797 C72.71199186 1.95344717 75.04168179 1.96188892 77.37158203 1.96984863 C78.79916412 1.98281853 80.22674135 1.99633847 81.65431213 2.01049805 C83.51121925 2.02143494 83.51121925 2.02143494 85.40563965 2.03259277 C88.89404883 2.30533748 91.59103036 2.89863072 94.79518127 4.29760742 C100.31088392 12.57116139 99.68656314 24.71051096 98.79518127 34.29760742 C97.51377847 38.6456684 95.62168272 41.07124217 91.88111877 43.58276367 C80.28236109 49.46649712 66.53425102 48.58546083 53.90284729 48.50341797 C50.97168855 48.48503849 48.0408451 48.48290972 45.1096344 48.4831543 C43.22747023 48.47824186 41.34530818 48.47241474 39.46315002 48.46557617 C38.59635117 48.46446335 37.72955231 48.46335052 36.83648682 48.46220398 C36.0148555 48.45582413 35.19322418 48.44944427 34.34669495 48.44287109 C33.6345433 48.4390593 32.92239166 48.4352475 32.18865967 48.43132019 C29.79518127 48.29760742 29.79518127 48.29760742 26.4158783 47.79441833 C22.98624609 47.32382422 19.77022127 47.18563016 16.31251526 47.20336914 C15.07110275 47.20601776 13.82969025 47.20866638 12.55065918 47.21139526 C11.89741102 47.21444546 11.24416286 47.21749565 10.57111931 47.22063828 C7.07348956 47.23210836 3.57598064 47.21146248 0.0783844 47.19604492 C-4.35472039 47.17775385 -8.78712465 47.16916128 -13.22019958 47.19799805 C-16.82088999 47.22057314 -20.42007603 47.20907537 -24.02065849 47.17499161 C-25.3861186 47.16824283 -26.75170065 47.17384664 -28.11705208 47.19234848 C-38.74917068 47.32725019 -38.74917068 47.32725019 -42.3405304 44.78692627 C-43.88112146 43.02390684 -45.05728702 41.33283535 -46.20481873 39.29760742 C-46.86481873 38.30760742 -47.52481873 37.31760742 -48.20481873 36.29760742 C-49.57202264 31.59127088 -49.4248766 26.72196047 -49.45481873 21.86010742 C-49.47544373 21.02672852 -49.49606873 20.19334961 -49.51731873 19.3347168 C-49.55694687 13.06851625 -48.50278015 8.80447443 -44.14231873 4.04760742 C-32.25424536 -3.03464905 -13.27456473 -1.59378369 0 0 Z " fill="#F6F6F2" transform="translate(104.20481872558594,89.702392578125)"/>
<path d="M0 0 C23.82964435 -1.41764012 46.63719145 4.03344766 66.85693359 16.71875 C67.99195313 17.42584106 67.99195313 17.42584106 69.14990234 18.1472168 C69.85115234 18.60523682 70.55240234 19.06325684 71.27490234 19.53515625 C71.90549561 19.9432251 72.53608887 20.35129395 73.18579102 20.77172852 C75.03189028 22.49449121 75.38381792 23.67049628 75.66943359 26.15625 C75.33943359 26.81625 75.00943359 27.47625 74.66943359 28.15625 C74.00943359 28.15625 73.34943359 28.15625 72.66943359 28.15625 C72.66943359 28.81625 72.66943359 29.47625 72.66943359 30.15625 C66.25068359 29.7859375 66.25068359 29.7859375 63.41943359 26.71875 C62.84193359 25.873125 62.26443359 25.0275 61.66943359 24.15625 C60.67943359 23.49625 59.68943359 22.83625 58.66943359 22.15625 C58.66943359 21.49625 58.66943359 20.83625 58.66943359 20.15625 C53.87071259 17.91684686 48.84087512 17.1001636 43.66943359 16.15625 C43.66943359 15.49625 43.66943359 14.83625 43.66943359 14.15625 C43.09837891 14.04667969 42.52732422 13.93710937 41.93896484 13.82421875 C41.12814453 13.66566406 40.31732422 13.50710937 39.48193359 13.34375 C38.55767578 13.16585938 37.63341797 12.98796875 36.68115234 12.8046875 C33.66943359 12.15625 33.66943359 12.15625 30.81396484 11.3203125 C14.31358941 6.66690779 -7.26102644 8.81004325 -22.33056641 17.15625 C-24.76499108 18.7459459 -24.76499108 18.7459459 -26.33056641 20.15625 C-26.33056641 19.49625 -26.33056641 18.83625 -26.33056641 18.15625 C-27.23806641 18.671875 -28.14556641 19.1875 -29.08056641 19.71875 C-32.33056641 21.15625 -32.33056641 21.15625 -34.70556641 20.84375 C-35.24181641 20.616875 -35.77806641 20.39 -36.33056641 20.15625 C-36.33056641 20.81625 -36.33056641 21.47625 -36.33056641 22.15625 C-40.03990603 25.57708543 -44.03478297 28.53327719 -48.58056641 30.71875 C-51.51784293 32.25414455 -53.04926081 34.01204686 -55.04931641 36.62109375 C-56.33056641 38.15625 -56.33056641 38.15625 -59.33056641 40.59375 C-63.77044001 44.38614204 -67.2800965 48.16083191 -68.14306641 54.09375 C-68.20494141 55.104375 -68.26681641 56.115 -68.33056641 57.15625 C-71.33056641 56.15625 -71.33056641 56.15625 -73.33056641 53.15625 C-74.03610542 46.73156902 -72.69669791 41.95704239 -68.70556641 36.90625 C-67.2904478 35.28417729 -65.82566264 33.70491646 -64.33056641 32.15625 C-63.84249512 31.63087646 -63.35442383 31.10550293 -62.8515625 30.56420898 C-46.68708216 13.63734278 -23.42599259 1.57056728 0 0 Z " fill="#F2F26C" transform="translate(118.33056640625,8.84375)"/>
<path d="M0 0 C10.9240975 2.73102438 19.2350358 16.02474201 25 25 C29.00298963 32.14233444 31.77224422 39.54712607 34.3125 47.3125 C34.67150391 48.37017578 35.03050781 49.42785156 35.40039062 50.51757812 C35.73876953 51.53916016 36.07714844 52.56074219 36.42578125 53.61328125 C36.88078003 54.98673706 36.88078003 54.98673706 37.3449707 56.38793945 C38.00838109 59.03342128 38.12347965 61.28497981 38 64 C36.5422647 64.335939 35.08378894 64.66866624 33.625 65 C32.40683594 65.2784375 32.40683594 65.2784375 31.1640625 65.5625 C29 66 29 66 27 66 C26.91363281 65.18917969 26.82726562 64.37835938 26.73828125 63.54296875 C25.83228254 56.40303399 24.27923505 50.57143798 21.0234375 44.14453125 C20 42 20 42 20 40 C19.34 40 18.68 40 18 40 C17.52949219 38.87980469 17.05898437 37.75960937 16.57421875 36.60546875 C15.94569133 35.13265077 15.31676412 33.66000337 14.6875 32.1875 C14.2244043 31.08051758 14.2244043 31.08051758 13.75195312 29.95117188 C13.44580078 29.23896484 13.13964844 28.52675781 12.82421875 27.79296875 C12.54666748 27.1383667 12.26911621 26.48376465 11.9831543 25.80932617 C10.90431331 23.82390512 9.62339686 22.55535521 8 21 C7.5359375 20.0409375 7.5359375 20.0409375 7.0625 19.0625 C6.04404962 16.82816681 6.04404962 16.82816681 3.875 14.875 C2.946875 13.946875 2.946875 13.946875 2 13 C2 12.34 2 11.68 2 11 C1.00355469 11.165 0.00710937 11.33 -1.01953125 11.5 C-4.92679875 12.05860255 -8.73921927 12.06387512 -12.6875 12 C-18.42686266 11.85585951 -18.42686266 11.85585951 -24 13 C-23.9175 13.845625 -23.835 14.69125 -23.75 15.5625 C-24.07537023 20.03634062 -25.59932129 22.24893952 -28 26 C-27.34 26 -26.68 26 -26 26 C-27.32327141 30.36679564 -29.6552884 33.13578257 -32.66015625 36.44921875 C-34.09089081 37.97649454 -34.09089081 37.97649454 -35 40 C-36.1446875 39.9071875 -36.1446875 39.9071875 -37.3125 39.8125 C-40.01696627 39.74841062 -40.01696627 39.74841062 -41.75 41.375 C-43.07441644 42.98977484 -43.07441644 42.98977484 -44 45 C-42.02 46.65 -40.04 48.3 -38 50 C-38.875 53.875 -38.875 53.875 -40 55 C-41.68608966 55.07205511 -43.37500659 55.08386068 -45.0625 55.0625 C-45.98160156 55.05347656 -46.90070313 55.04445312 -47.84765625 55.03515625 C-48.55792969 55.02355469 -49.26820313 55.01195312 -50 55 C-50.33 52.03 -50.66 49.06 -51 46 C-51.433125 46.825 -51.86625 47.65 -52.3125 48.5 C-52.869375 49.325 -53.42625 50.15 -54 51 C-54.99 51 -55.98 51 -57 51 C-57.296875 48.6953125 -57.296875 48.6953125 -57 46 C-55.015625 44.3671875 -55.015625 44.3671875 -52.25 42.875 C-47.53539882 40.09381224 -43.55592922 37.07856349 -39.5625 33.375 C-39.06717773 32.9197998 -38.57185547 32.46459961 -38.06152344 31.99560547 C-33.88969611 28.07260901 -30.08473853 24.31180003 -28.375 18.75 C-28.13910156 17.98300781 -27.90320313 17.21601562 -27.66015625 16.42578125 C-26.63151607 12.64598509 -25.77161557 8.83992218 -25 5 C-19.89266083 4.79153718 -15.85814886 5.44172584 -11 7 C-9.68 7.33 -8.36 7.66 -7 8 C-4.69 5.36 -2.38 2.72 0 0 Z " fill="#FACE30" transform="translate(195,36)"/>
<path d="M0 0 C0.66 0 1.32 0 2 0 C0.57475436 4.70982189 -1.36904858 8.98760065 -3.6875 13.3125 C-4.21815063 14.3037085 -4.21815063 14.3037085 -4.75952148 15.31494141 C-7.68765259 20.66059725 -11.09441184 25.32404353 -15 30 C-16.10487744 31.49947653 -17.20903018 32.9994873 -18.3125 34.5 C-22.33297607 39.64620937 -26.98629621 43.83754376 -32 48 C-32.90621094 48.75410156 -33.81242188 49.50820312 -34.74609375 50.28515625 C-53.34212004 64.9954457 -72.03176345 69.33469281 -95.375 69.375 C-96.39146606 69.37826294 -96.39146606 69.37826294 -97.4284668 69.3815918 C-109.90950435 69.37705489 -121.7715945 68.6239076 -133.25 63.4375 C-134.04937988 63.08526367 -134.84875977 62.73302734 -135.67236328 62.37011719 C-138.12705796 61.27128916 -140.564839 60.14138895 -143 59 C-143.75958008 58.65018066 -144.51916016 58.30036133 -145.30175781 57.93994141 C-155.95064849 52.96410663 -170.39424187 45.61092318 -175 34 C-173.02 34 -171.04 34 -169 34 C-168.67 35.32 -168.34 36.64 -168 38 C-167.34 38 -166.68 38 -166 38 C-166 38.66 -166 39.32 -166 40 C-164.68 40.33 -163.36 40.66 -162 41 C-161.979375 41.5775 -161.95875 42.155 -161.9375 42.75 C-160.4633456 46.28797057 -157.30840497 47.43653436 -154 49 C-153.05125 49.37125 -152.1025 49.7425 -151.125 50.125 C-149 51 -149 51 -148 53 C-146.35 53 -144.7 53 -143 53 C-143 53.99 -143 54.98 -143 56 C-139.7 56.99 -136.4 57.98 -133 59 C-133 59.66 -133 60.32 -133 61 C-132.21625 60.814375 -131.4325 60.62875 -130.625 60.4375 C-128 60 -128 60 -126 61 C-126 61.66 -126 62.32 -126 63 C-124.35 63 -122.7 63 -121 63 C-121 63.66 -121 64.32 -121 65 C-119.96359375 65 -118.9271875 65 -117.859375 65 C-112.57291667 65 -107.28645833 65 -102 65 C-97.97797198 64.90743579 -93.95806016 64.76665215 -89.9375 64.625 C-88.83599609 64.5940625 -87.73449219 64.563125 -86.59960938 64.53125 C-85.54451172 64.49257812 -84.48941406 64.45390625 -83.40234375 64.4140625 C-82.43804443 64.3826416 -81.47374512 64.3512207 -80.48022461 64.31884766 C-77.75075546 64.15456187 -77.75075546 64.15456187 -75 62 C-71.91602939 61.39082062 -68.829376 60.98532135 -65.71484375 60.5625 C-62.86514232 60.23110186 -62.86514232 60.23110186 -61 58 C-59.1953125 57.4375 -59.1953125 57.4375 -57.125 57 C-51.61388831 55.71143072 -47.63206414 53.29391227 -43 50 C-42.67 49.34 -42.34 48.68 -42 48 C-41.01 48 -40.02 48 -39 48 C-39 47.34 -39 46.68 -39 46 C-35.91190305 44.23537317 -34.76687864 44 -31 44 C-31 43.34 -31 42.68 -31 42 C-30.34 42 -29.68 42 -29 42 C-28.73960937 41.4328125 -28.47921875 40.865625 -28.2109375 40.28125 C-26.89131636 37.79525405 -25.36127991 35.71394643 -23.625 33.5 C-23.03976563 32.7471875 -22.45453125 31.994375 -21.8515625 31.21875 C-20 29 -20 29 -17.78125 26.87890625 C-15.72684325 25.12068536 -15.72684325 25.12068536 -15.875 22.4375 C-15.91625 21.633125 -15.9575 20.82875 -16 20 C-15.01 18.515 -15.01 18.515 -14 17 C-13.30686092 15.34416775 -12.63525576 13.67889021 -12 12 C-11.34 12 -10.68 12 -10 12 C-9.8453125 11.071875 -9.8453125 11.071875 -9.6875 10.125 C-9 8 -9 8 -6 6 C-4.80767387 3.94996045 -4.80767387 3.94996045 -4 2 C-2.68 2 -1.36 2 0 2 C0 1.34 0 0.68 0 0 Z " fill="#9D740C" transform="translate(226,147)"/>
<path d="M0 0 C0.99 0.66 1.98 1.32 3 2 C3 2.66 3 3.32 3 4 C1.52460414 5.24588984 0.04550456 6.48812639 -1.46484375 7.69140625 C-3.3047996 9.25981645 -4.66183579 10.99275368 -6 13 C-8.4681852 12.40763555 -10.88048783 11.73419235 -13.3125 11 C-16.88117227 10.03222447 -20.34024228 9.48971668 -24 9 C-24.12955078 10.37671875 -24.12955078 10.37671875 -24.26171875 11.78125 C-25.82747442 25.4564738 -30.81127112 31.91874165 -41 41 C-45.75696564 44.74352513 -50.29814477 47.90090993 -56 50 C-56 51.65 -56 53.3 -56 55 C-54.35 54.34 -52.7 53.68 -51 53 C-51 55.31 -51 57.62 -51 60 C-64.46001552 60.22846351 -77.65327409 59.9625988 -91.0390625 58.51171875 C-98.34021014 57.72298792 -105.66758988 57.36517901 -113 57 C-113 56.34 -113 55.68 -113 55 C-112.28457031 54.85304687 -111.56914063 54.70609375 -110.83203125 54.5546875 C-103.70299336 52.94996228 -97.58667372 50.58317224 -91.10546875 47.20703125 C-85.02665452 44.84432232 -80.13489846 46.05238657 -74.125 48.0625 C-66.26858046 50.39032801 -60.98339263 50.72461849 -53.625 47 C-44.44095349 41.42225448 -32.47597466 33.24675511 -28.87890625 22.71875 C-28.11793472 19.48553127 -27.51416836 16.2804791 -27 13 C-26.6731711 11.33204564 -26.34222209 9.66486424 -26 8 C-18.64657821 7.79822928 -12.05112439 7.78788254 -5 10 C-4.34 8.35 -3.68 6.7 -3 5 C-2.34 5 -1.68 5 -1 5 C-0.67 3.35 -0.34 1.7 0 0 Z " fill="#DAAC11" transform="translate(194,32)"/>
<path d="M0 0 C0.33 0 0.66 0 1 0 C1.40257151 8.24526092 1.35915195 14.02733205 -4.16015625 20.5546875 C-7.47744748 23.41111709 -10.02388745 24.20673372 -14.25 25.25 C-18.44072117 25.98994203 -18.44072117 25.98994203 -22 28 C-23.55354846 28.09851061 -25.11154491 28.12798663 -26.66821289 28.12939453 C-28.16095482 28.13412277 -28.16095482 28.13412277 -29.68385315 28.13894653 C-31.31181068 28.13591019 -31.31181068 28.13591019 -32.97265625 28.1328125 C-34.0842662 28.13376923 -35.19587616 28.13472595 -36.34117126 28.13571167 C-38.70262712 28.13639407 -41.06408483 28.13453563 -43.42553711 28.13037109 C-47.02266736 28.12505883 -50.61967072 28.13029575 -54.21679688 28.13671875 C-56.51041694 28.13605729 -58.80403693 28.13477472 -61.09765625 28.1328125 C-62.70435936 28.13584885 -62.70435936 28.13584885 -64.34352112 28.13894653 C-69.26373011 28.12369989 -73.945022 27.90752243 -78.82322693 27.20678711 C-83.92120877 26.72249366 -89.07597989 27.05495371 -94.1875 27.18359375 C-96.76819531 27.22544962 -99.34892723 27.26509595 -101.9296875 27.30273438 C-105.97248549 27.3626422 -110.01401475 27.43372426 -114.05566406 27.54858398 C-117.97431681 27.65876317 -121.89251327 27.70339986 -125.8125 27.74609375 C-127.01479248 27.79052109 -128.21708496 27.83494843 -129.45581055 27.88072205 C-135.5250993 27.90121694 -139.20398828 27.56178969 -143.69921875 23.26586914 C-146.25164039 20.38409655 -147.81202989 17.66743411 -149 14 C-148.625 11.6875 -148.625 11.6875 -148 10 C-147.38511719 10.93972656 -147.38511719 10.93972656 -146.7578125 11.8984375 C-146.21898437 12.71570313 -145.68015625 13.53296875 -145.125 14.375 C-144.32449219 15.59316406 -144.32449219 15.59316406 -143.5078125 16.8359375 C-142.04134945 19.07594096 -142.04134945 19.07594096 -140 21 C-137.29874265 21.32540615 -137.29874265 21.32540615 -134.10083008 21.30297852 C-132.86226761 21.31962051 -131.62370514 21.33626251 -130.34761047 21.35340881 C-128.98825115 21.36197513 -127.6288914 21.37047255 -126.26953125 21.37890625 C-124.87667173 21.39508437 -123.48382351 21.41226471 -122.09098816 21.43040466 C-118.41614043 21.47616464 -114.74127723 21.51091297 -111.06628418 21.54260254 C-105.20197557 21.5943754 -99.33783651 21.66004708 -93.47373009 21.73081779 C-91.43154203 21.75349526 -89.38937452 21.76987435 -87.34712219 21.78553772 C-86.09279892 21.79902756 -84.83847565 21.8125174 -83.54614258 21.82641602 C-82.44853104 21.83592789 -81.35091949 21.84543976 -80.220047 21.85523987 C-76.76143696 22.01072482 -73.4230624 22.49327259 -70 23 C-68.50036086 23.08874266 -66.99828548 23.14654467 -65.49609375 23.16113281 C-64.68414551 23.17074036 -63.87219727 23.1803479 -63.03564453 23.19024658 C-62.17825684 23.19449646 -61.32086914 23.19874634 -60.4375 23.203125 C-59.5285498 23.20882507 -58.61959961 23.21452515 -57.68310547 23.22039795 C-55.76352079 23.22980848 -53.84392025 23.23636616 -51.92431641 23.24023438 C-49.03648385 23.24987816 -46.14938286 23.28091386 -43.26171875 23.3125 C-23.95561431 23.43599642 -23.95561431 23.43599642 -6 17 C-2.27212122 11.93504356 -0.40603859 6.22592501 0 0 Z " fill="#4D4404" transform="translate(204,114)"/>
<path d="M0 0 C0 0.33 0 0.66 0 1 C-1.02601318 1.09704224 -1.02601318 1.09704224 -2.07275391 1.19604492 C-25.14220742 2.59460283 -25.14220742 2.59460283 -45 13 C-45 12.34 -45 11.68 -45 11 C-45.9075 11.515625 -46.815 12.03125 -47.75 12.5625 C-51 14 -51 14 -53.375 13.6875 C-53.91125 13.460625 -54.4475 13.23375 -55 13 C-55 13.66 -55 14.32 -55 15 C-58.70933963 18.42083543 -62.70421656 21.37702719 -67.25 23.5625 C-70.18727653 25.09789455 -71.7186944 26.85579686 -73.71875 29.46484375 C-75 31 -75 31 -78 33.4375 C-82.4398736 37.22989204 -85.9495301 41.00458191 -86.8125 46.9375 C-86.874375 47.948125 -86.93625 48.95875 -87 50 C-90 49 -90 49 -92 46 C-92.70553901 39.57531902 -91.36613151 34.80079239 -87.375 29.75 C-85.95988139 28.12792729 -84.49509624 26.54866646 -83 25 C-82.28638306 24.21955322 -82.28638306 24.21955322 -81.55834961 23.42333984 C-76.557236 18.12980282 -70.84191813 14.16858592 -64.8125 10.125 C-63.82830078 9.44953125 -62.84410156 8.7740625 -61.83007812 8.078125 C-53.88627271 2.6994505 -53.88627271 2.6994505 -50 2 C-51 5 -51 5 -53.9375 6.5 C-54.948125 6.995 -55.95875 7.49 -57 8 C-57.66 8.99 -58.32 9.98 -59 11 C-58.17628906 10.29423828 -58.17628906 10.29423828 -57.3359375 9.57421875 C-52.01757196 5.99010284 -44.26903062 5.66113348 -38 6 C-38 5.34 -38 4.68 -38 4 C-35.69 4 -33.38 4 -31 4 C-31 3.34 -31 2.68 -31 2 C-20.65385845 -0.31290989 -10.53109421 -0.1982842 0 0 Z " fill="#FEED4E" transform="translate(137,16)"/>
<path d="M0 0 C0.33 0 0.66 0 1 0 C1.18175781 0.61488281 1.36351563 1.22976562 1.55078125 1.86328125 C1.80214844 2.67152344 2.05351563 3.47976562 2.3125 4.3125 C2.67794922 5.51326172 2.67794922 5.51326172 3.05078125 6.73828125 C4.04182023 9.09964573 5.08074943 10.33879993 7 12 C5.55879311 14.88241378 3.27597221 16.72402779 1 19 C-1.79802575 22.10094592 -4.34092508 25.12882519 -6 29 C-6.33 29.66 -6.66 30.32 -7 31 C-6.79375 31.639375 -6.5875 32.27875 -6.375 32.9375 C-6.25125 33.618125 -6.1275 34.29875 -6 35 C-7.375 36.625 -7.375 36.625 -9 38 C-9.33 38.66 -9.66 39.32 -10 40 C-10.99 39.67 -11.98 39.34 -13 39 C-13.33 40.32 -13.66 41.64 -14 43 C-13.34 43.33 -12.68 43.66 -12 44 C-12.185625 44.5775 -12.37125 45.155 -12.5625 45.75 C-13.15471585 47.9366599 -13.15471585 47.9366599 -12.53344727 49.81542969 C-11.91496573 52.34823187 -11.88719055 54.59677505 -11.90234375 57.203125 C-11.90556641 58.1828125 -11.90878906 59.1625 -11.91210938 60.171875 C-11.92048828 61.18765625 -11.92886719 62.2034375 -11.9375 63.25 C-11.94201172 64.28125 -11.94652344 65.3125 -11.95117188 66.375 C-11.96293912 68.91672573 -11.97937989 71.45833319 -12 74 C-11.34 74 -10.68 74 -10 74 C-10 78.29 -10 82.58 -10 87 C-10.99 87.495 -10.99 87.495 -12 88 C-12.64939736 85.62592408 -13.29460053 83.2508361 -13.9375 80.875 C-14.11990234 80.20984375 -14.30230469 79.5446875 -14.49023438 78.859375 C-21.92984569 51.26518031 -15.57579702 26.3014111 -2 2 C-1.34 1.34 -0.68 0.68 0 0 Z " fill="#E6B223" transform="translate(42,56)"/>
<path d="M0 0 C6.47300793 -0.26420441 11.5259995 1.18955156 17.625 3.1875 C20.96273196 3.99102806 22.76009263 3.98179011 26 3 C26.495 4.485 26.495 4.485 27 6 C22.03125466 6.82276766 17.36767314 7.08178238 12.3125 7 C6.57313734 6.85585951 6.57313734 6.85585951 1 8 C1.0825 8.845625 1.165 9.69125 1.25 10.5625 C0.92462977 15.03634062 -0.59932129 17.24893952 -3 21 C-2.34 21 -1.68 21 -1 21 C-2.32327141 25.36679564 -4.6552884 28.13578257 -7.66015625 31.44921875 C-9.09089081 32.97649454 -9.09089081 32.97649454 -10 35 C-11.1446875 34.9071875 -11.1446875 34.9071875 -12.3125 34.8125 C-15.01696627 34.74841062 -15.01696627 34.74841062 -16.75 36.375 C-18.07441644 37.98977484 -18.07441644 37.98977484 -19 40 C-17.02 41.65 -15.04 43.3 -13 45 C-13.875 48.875 -13.875 48.875 -15 50 C-16.68608966 50.07205511 -18.37500659 50.08386068 -20.0625 50.0625 C-20.98160156 50.05347656 -21.90070313 50.04445312 -22.84765625 50.03515625 C-23.55792969 50.02355469 -24.26820313 50.01195312 -25 50 C-25.33 47.03 -25.66 44.06 -26 41 C-26.433125 41.825 -26.86625 42.65 -27.3125 43.5 C-27.869375 44.325 -28.42625 45.15 -29 46 C-29.99 46 -30.98 46 -32 46 C-32.296875 43.6953125 -32.296875 43.6953125 -32 41 C-30.015625 39.3671875 -30.015625 39.3671875 -27.25 37.875 C-22.53539882 35.09381224 -18.55592922 32.07856349 -14.5625 28.375 C-14.06717773 27.9197998 -13.57185547 27.46459961 -13.06152344 26.99560547 C-8.88969611 23.07260901 -5.08473853 19.31180003 -3.375 13.75 C-3.13910156 12.98300781 -2.90320313 12.21601562 -2.66015625 11.42578125 C-1.63151607 7.64598509 -0.77161557 3.83992218 0 0 Z " fill="#E3AC16" transform="translate(170,41)"/>
<path d="M0 0 C7.09817745 -0.36862516 13.37703252 0.98415025 20.25 2.6875 C21.36955078 2.96440674 22.48910156 3.24131348 23.64257812 3.52661133 C34.99774831 6.40937115 44.28358192 10.349058 54.1875 16.5625 C54.94417969 17.03389404 55.70085937 17.50528809 56.48046875 17.9909668 C57.18171875 18.44898682 57.88296875 18.90700684 58.60546875 19.37890625 C59.23606201 19.7869751 59.86665527 20.19504395 60.51635742 20.61547852 C62.36245668 22.33824121 62.71438433 23.51424628 63 26 C62.67 26.66 62.34 27.32 62 28 C61.34 28 60.68 28 60 28 C60 28.66 60 29.32 60 30 C53.58125 29.6296875 53.58125 29.6296875 50.75 26.5625 C50.1725 25.716875 49.595 24.87125 49 24 C48.01 23.34 47.02 22.68 46 22 C46 21.34 46 20.68 46 20 C41.20127899 17.76059686 36.17144153 16.9439136 31 16 C31 15.34 31 14.68 31 14 C30.42894531 13.89042969 29.85789063 13.78085937 29.26953125 13.66796875 C22.14079497 12.27395514 15.07051934 10.66234781 8 9 C11.75399798 7.7960663 15.33217412 7.90122383 19.25 7.9375 C21.14492187 7.95103516 21.14492187 7.95103516 23.078125 7.96484375 C24.04234375 7.97644531 25.0065625 7.98804688 26 8 C25.67 7.34 25.34 6.68 25 6 C22.68195337 5.55667358 20.34325909 5.2185966 18 4.9375 C11.09529277 4.09529277 11.09529277 4.09529277 10 3 C8.32115762 2.6068352 6.63149955 2.25914548 4.9375 1.9375 C4.01839844 1.76089844 3.09929687 1.58429687 2.15234375 1.40234375 C1.44207031 1.26957031 0.73179687 1.13679687 0 1 C0 0.67 0 0.34 0 0 Z " fill="#FDE339" transform="translate(131,9)"/>
<path d="M0 0 C0 3 0 3 -2.125 5.5625 C-5.10210825 8.08657003 -7.27060471 9.00549459 -11 10 C-11.66 10.33 -12.32 10.66 -13 11 C-13.65555119 13.52733235 -13.65555119 13.52733235 -14 16 C-14.67651611 15.35546875 -15.35303223 14.7109375 -16.05004883 14.046875 C-19.66751141 11.53683558 -21.82537452 11.41029359 -26.19921875 11.25 C-26.89399826 11.22107666 -27.58877777 11.19215332 -28.30461121 11.16235352 C-36.46964924 10.8627546 -44.64393359 10.9253444 -52.8125 11 C-55.81900614 11.02664836 -58.82545181 11.04652078 -61.83203125 11.0625 C-63.13889893 11.07410156 -64.4457666 11.08570313 -65.79223633 11.09765625 C-69 11 -69 11 -72 10 C-73.39579273 9.88705254 -74.79599909 9.82410813 -76.19604492 9.79467773 C-77.03668991 9.77473251 -77.8773349 9.75478729 -78.74345398 9.73423767 C-79.64666885 9.71752518 -80.54988373 9.70081268 -81.48046875 9.68359375 C-82.40845779 9.66281265 -83.33644684 9.64203156 -84.29255676 9.62062073 C-87.2574624 9.55522677 -90.22245672 9.49628738 -93.1875 9.4375 C-95.1972748 9.39430513 -97.20704063 9.35069053 -99.21679688 9.30664062 C-104.14444032 9.19955573 -109.07217299 9.09825955 -114 9 C-114.11972168 9.6199585 -114.23944336 10.23991699 -114.36279297 10.87866211 C-114.52924316 11.69085205 -114.69569336 12.50304199 -114.8671875 13.33984375 C-115.10864502 14.54821899 -115.10864502 14.54821899 -115.35498047 15.78100586 C-116.19873008 18.6836706 -117.62565396 20.17966804 -120 22 C-119.79503906 21.43152344 -119.59007813 20.86304688 -119.37890625 20.27734375 C-119.10949219 19.50519531 -118.84007813 18.73304688 -118.5625 17.9375 C-118.29566406 17.18339844 -118.02882813 16.42929688 -117.75390625 15.65234375 C-116.84701588 12.46178126 -116.44599844 9.28355836 -116 6 C-110.5922885 5.97514838 -105.18461079 5.95706853 -99.77685547 5.94506836 C-97.93993551 5.94006181 -96.10301949 5.9332546 -94.26611328 5.92456055 C-91.61489892 5.91233303 -88.96373757 5.90673477 -86.3125 5.90234375 C-85.09481934 5.89460182 -85.09481934 5.89460182 -83.85253906 5.88670349 C-79.54564176 5.88628654 -75.44661452 6.1735485 -71.17160034 6.76747131 C-66.59189653 7.25785276 -61.98020773 7.1844307 -57.37890625 7.203125 C-56.2795726 7.20882507 -55.18023895 7.21452515 -54.04759216 7.22039795 C-51.73217723 7.22980524 -49.41674917 7.23636484 -47.10131836 7.24023438 C-43.5770729 7.24995979 -40.0534063 7.28103254 -36.52929688 7.3125 C-34.27083677 7.3190294 -32.01237252 7.32428012 -29.75390625 7.328125 C-28.70989151 7.3404718 -27.66587677 7.3528186 -26.59022522 7.36553955 C-20.16934229 7.34616439 -14.93357697 6.45719147 -9 4 C-7.99610985 3.59143768 -7.99610985 3.59143768 -6.97193909 3.17462158 C-4.61155717 2.18615731 -2.28897821 1.1444891 0 0 Z " fill="#917300" transform="translate(200,134)"/>
<path d="M0 0 C6.53553311 2.64637918 11.29565676 9.79761319 14 16.125 C14.33 17.07375 14.66 18.0225 15 19 C15.66 19 16.32 19 17 19 C17.33 18.34 17.66 17.68 18 17 C18.99 17.33 19.98 17.66 21 18 C21.06058594 18.80824219 21.12117188 19.61648437 21.18359375 20.44921875 C21.30927734 22.05216797 21.30927734 22.05216797 21.4375 23.6875 C21.55931641 25.27111328 21.55931641 25.27111328 21.68359375 26.88671875 C21.96451681 29.65086297 22.40156852 32.28945741 23 35 C23.66 34.01 24.32 33.02 25 32 C25.66 31.01 26.32 30.02 27 29 C26.67 28.67 26.34 28.34 26 28 C25.85884839 25.32941149 25.95752893 22.67567762 26 20 C29.04717345 24.57076017 30.39916617 29.68530181 32.125 34.875 C32.49753906 35.96425781 32.87007812 37.05351563 33.25390625 38.17578125 C33.78177734 39.75552734 33.78177734 39.75552734 34.3203125 41.3671875 C34.64273926 42.32737793 34.96516602 43.28756836 35.29736328 44.27685547 C35.9938568 46.97619135 36.13554221 49.22674333 36 52 C34.5422647 52.335939 33.08378894 52.66866624 31.625 53 C30.81289062 53.185625 30.00078125 53.37125 29.1640625 53.5625 C27 54 27 54 25 54 C24.91363281 53.18917969 24.82726562 52.37835938 24.73828125 51.54296875 C23.83228254 44.40303399 22.27923505 38.57143798 19.0234375 32.14453125 C18 30 18 30 18 28 C17.34 28 16.68 28 16 28 C15.52949219 26.87980469 15.05898437 25.75960937 14.57421875 24.60546875 C13.94569133 23.13265077 13.31676412 21.66000337 12.6875 20.1875 C12.37876953 19.44951172 12.07003906 18.71152344 11.75195312 17.95117188 C11.44580078 17.23896484 11.13964844 16.52675781 10.82421875 15.79296875 C10.40789185 14.81106567 10.40789185 14.81106567 9.9831543 13.80932617 C8.90431331 11.82390512 7.62339686 10.55535521 6 9 C5.690625 8.360625 5.38125 7.72125 5.0625 7.0625 C3.76953478 4.55262633 2.01810839 2.95083811 0 1 C0 0.67 0 0.34 0 0 Z " fill="#FBC730" transform="translate(197,48)"/>
<path d="M0 0 C0.66 0 1.32 0 2 0 C0.57475436 4.70982189 -1.36904858 8.98760065 -3.6875 13.3125 C-4.04126709 13.97330566 -4.39503418 14.63411133 -4.75952148 15.31494141 C-7.68765259 20.66059725 -11.09441184 25.32404353 -15 30 C-16.10487744 31.49947653 -17.20903018 32.9994873 -18.3125 34.5 C-22.31822139 39.64636403 -27.02171767 43.81478788 -32 48 C-32.69351563 48.61488281 -33.38703125 49.22976562 -34.1015625 49.86328125 C-38.87618169 53.84847137 -42.79612754 54.97127837 -49 55 C-47.66666667 53.66666667 -46.33333333 52.33333333 -45 51 C-44.484375 50.4225 -43.96875 49.845 -43.4375 49.25 C-42 48 -42 48 -39 48 C-39 47.34 -39 46.68 -39 46 C-35.91190305 44.23537317 -34.76687864 44 -31 44 C-31 43.34 -31 42.68 -31 42 C-30.34 42 -29.68 42 -29 42 C-28.73960937 41.4328125 -28.47921875 40.865625 -28.2109375 40.28125 C-26.89131636 37.79525405 -25.36127991 35.71394643 -23.625 33.5 C-22.74714844 32.37078125 -22.74714844 32.37078125 -21.8515625 31.21875 C-20 29 -20 29 -17.78125 26.87890625 C-15.72684325 25.12068536 -15.72684325 25.12068536 -15.875 22.4375 C-15.91625 21.633125 -15.9575 20.82875 -16 20 C-15.34 19.01 -14.68 18.02 -14 17 C-13.30686092 15.34416775 -12.63525576 13.67889021 -12 12 C-11.34 12 -10.68 12 -10 12 C-9.896875 11.38125 -9.79375 10.7625 -9.6875 10.125 C-9 8 -9 8 -6 6 C-4.80767387 3.94996045 -4.80767387 3.94996045 -4 2 C-2.68 2 -1.36 2 0 2 C0 1.34 0 0.68 0 0 Z " fill="#916B0B" transform="translate(226,147)"/>
<path d="M0 0 C-4.18406811 3.89350783 -8.1198587 5.24257431 -13.5 6.6875 C-14.24636719 6.89955078 -14.99273437 7.11160156 -15.76171875 7.33007812 C-23.05167265 9.37513599 -29.68017379 10.20753253 -37.25 10.25 C-38.15363281 10.270625 -39.05726563 10.29125 -39.98828125 10.3125 C-49.21247878 10.36558891 -56.21941692 7.8007853 -64 3 C-64 2.67 -64 2.34 -64 2 C-63.07864258 2.10284302 -63.07864258 2.10284302 -62.13867188 2.20776367 C-53.92941643 3.04625474 -45.74823964 3.27745014 -37.5 3.3125 C-36.44966583 3.31892014 -36.44966583 3.31892014 -35.37811279 3.32546997 C-24.99698203 3.35850825 -15.28633933 2.47530033 -5.2265625 -0.22265625 C-2 -1 -2 -1 0 0 Z " fill="#141605" transform="translate(168,212)"/>
<path d="M0 0 C5.75788735 0.09526771 11.51543613 0.2016825 17.27294922 0.31738281 C19.22178872 0.35510022 21.17068445 0.39003926 23.11962891 0.421875 C36.51025767 0.64309344 49.69566375 1.45370252 63 3 C62.0409375 3.4640625 62.0409375 3.4640625 61.0625 3.9375 C59.06389179 4.8345163 59.06389179 4.8345163 58 6 C37.82797791 8.37459 17.1964498 6.20661788 -3 5 C-3 4.01 -3 3.02 -3 2 C-2.01 2 -1.02 2 0 2 C0 1.34 0 0.68 0 0 Z " fill="#A6890C" transform="translate(96,170)"/>
<path d="M0 0 C0.90492188 0.02320313 1.80984375 0.04640625 2.7421875 0.0703125 C3.65226562 0.08835938 4.56234375 0.10640625 5.5 0.125 C6.19867188 0.14820313 6.89734375 0.17140625 7.6171875 0.1953125 C-12.10246152 16.78601352 -37.96098236 16.49845719 -62.3828125 15.1953125 C-64.38796436 14.89451833 -66.39047189 14.57172981 -68.3828125 14.1953125 C-68.3828125 13.8653125 -68.3828125 13.5353125 -68.3828125 13.1953125 C-67.31546875 13.21851563 -66.248125 13.24171875 -65.1484375 13.265625 C-56.55918852 13.39328459 -48.06503148 13.16919413 -39.5078125 12.3828125 C-38.23405762 12.27767334 -38.23405762 12.27767334 -36.93457031 12.17041016 C-32.40446318 11.71227861 -29.95432475 11.13565233 -26.3828125 8.1953125 C-23.4375 7.53515625 -23.4375 7.53515625 -20.2578125 7.1328125 C-15.81528156 6.73233315 -15.81528156 6.73233315 -12.3828125 4.1953125 C-10.35775959 3.58779663 -8.32790553 3.18400812 -6.2578125 2.7578125 C-3.50814718 1.9329129 -2.99966347 0.24587405 0 0 Z " fill="#7C5F03" transform="translate(177.3828125,200.8046875)"/>
<path d="M0 0 C0.33 0 0.66 0 1 0 C1.18175781 0.61488281 1.36351562 1.22976562 1.55078125 1.86328125 C1.92783203 3.07564453 1.92783203 3.07564453 2.3125 4.3125 C2.67794922 5.51326172 2.67794922 5.51326172 3.05078125 6.73828125 C4.04182023 9.09964573 5.08074943 10.33879993 7 12 C5.55879311 14.88241378 3.27597221 16.72402779 1 19 C-1.81607244 22.12094638 -4.22115455 25.16864056 -6 29 C-6.66 29.66 -7.32 30.32 -8 31 C-8.69748583 32.31747324 -9.36959957 33.64914193 -10 35 C-12.11137454 21.33312969 -7.73408095 12.60333948 -1 1 C-0.67 0.67 -0.34 0.34 0 0 Z " fill="#F1C512" transform="translate(42,56)"/>
<path d="M0 0 C1.0625 1.875 1.0625 1.875 2 4 C1.67 4.66 1.34 5.32 1 6 C1.66 6 2.32 6 3 6 C3 6.66 3 7.32 3 8 C3.66 8.33 4.32 8.66 5 9 C4.25556641 9.60134766 4.25556641 9.60134766 3.49609375 10.21484375 C-6.08259146 18.09069959 -6.08259146 18.09069959 -10.9375 29.0625 C-10.958125 30.031875 -10.97875 31.00125 -11 32 C-14 31 -14 31 -16 28 C-16.70553901 21.57531902 -15.36613151 16.80079239 -11.375 11.75 C-9.94841108 10.13800602 -8.49019487 8.55338334 -7 7 C-6.31164063 6.28070313 -5.62328125 5.56140625 -4.9140625 4.8203125 C-3.30242758 3.18236517 -1.67099863 1.57700496 0 0 Z " fill="#FDE731" transform="translate(61,34)"/>
<path d="M0 0 C0.556875 0.70125 1.11375 1.4025 1.6875 2.125 C2.8321875 3.548125 2.8321875 3.548125 4 5 C4.57983643 6.03415039 5.15967285 7.06830078 5.75708008 8.13378906 C7.7308028 10.47129986 8.82075759 10.96563639 11.86972046 11.5501709 C15.65296709 11.75970229 19.41282965 11.77852494 23.19921875 11.734375 C24.59977252 11.7405512 26.00031619 11.7496485 27.40083313 11.76153564 C31.07790655 11.78622832 34.75406942 11.777048 38.43115234 11.75897217 C44.32663335 11.73552931 50.2220574 11.76269856 56.11747169 11.79169464 C58.17725791 11.79682035 60.23656174 11.78695587 62.29631042 11.77484131 C63.54132828 11.77534485 64.78634613 11.77584839 66.0690918 11.77636719 C67.16875778 11.77159363 68.26842377 11.76682007 69.40141296 11.76190186 C72 12 72 12 74 14 C59.15 14 44.3 14 29 14 C29 14.66 29 15.32 29 16 C22.83052876 17.85395727 16.32328611 17.92891926 10 17 C4.83397116 13.91087971 1.83656928 9.68888534 0 4 C0 2.68 0 1.36 0 0 Z " fill="#493A28" transform="translate(55,124)"/>
<path d="M0 0 C6.49291094 -0.10821518 11.48098816 1.17480647 17.625 3.1875 C20.96273196 3.99102806 22.76009263 3.98179011 26 3 C26.495 4.485 26.495 4.485 27 6 C22.03125466 6.82276766 17.36767314 7.08178238 12.3125 7 C6.57313734 6.85585951 6.57313734 6.85585951 1 8 C1.12375 9.2684375 1.12375 9.2684375 1.25 10.5625 C0.92462977 15.03634062 -0.59932129 17.24893952 -3 21 C-2.34 21 -1.68 21 -1 21 C-2.32327141 25.36679564 -4.6552884 28.13578257 -7.66015625 31.44921875 C-9.09089081 32.97649454 -9.09089081 32.97649454 -10 35 C-11.32 34.67 -12.64 34.34 -14 34 C-12.50958227 30.20620942 -10.30937488 28.31656242 -7 26 C-6.34 26 -5.68 26 -5 26 C-5.33 25.01 -5.66 24.02 -6 23 C-7.65 24.65 -9.3 26.3 -11 28 C-11.66 27.67 -12.32 27.34 -13 27 C-12.52949219 26.56429687 -12.05898437 26.12859375 -11.57421875 25.6796875 C-10.95160156 25.08414063 -10.32898438 24.48859375 -9.6875 23.875 C-8.76517578 23.00488281 -8.76517578 23.00488281 -7.82421875 22.1171875 C-3.84312895 17.49673639 -2.4798406 12.51729066 -1.3125 6.625 C-1.06113281 5.37976562 -0.80976563 4.13453125 -0.55078125 2.8515625 C-0.36902344 1.91054688 -0.18726563 0.96953125 0 0 Z " fill="#DEB119" transform="translate(170,41)"/>
<path d="M0 0 C0.66 0 1.32 0 2 0 C1.97679688 0.97839844 1.95359375 1.95679687 1.9296875 2.96484375 C1.84030886 9.45756329 1.77895518 15.56450234 3.5 21.875 C4.26515674 25.12691614 4.39237102 28.40846472 4.55859375 31.73828125 C4.84726279 34.09376084 4.84726279 34.09376084 6.47265625 35.95703125 C8.34471055 38.46108343 8.58601392 40.29597856 9 43.375 C9.7086617 47.80267142 10.8473748 51.03916963 13 55 C13.61524831 56.55021081 14.19689199 58.11404661 14.75 59.6875 C15.01296875 60.43386719 15.2759375 61.18023437 15.546875 61.94921875 C16 64 16 64 15 67 C11.06665368 60.93609109 7.76547818 54.65385453 4.6875 48.125 C4.33816406 47.38773682 3.98882812 46.65047363 3.62890625 45.89086914 C0.63263989 39.44933883 0.63263989 39.44933883 0 36 C0.495 35.505 0.495 35.505 1 35 C1.23481693 32.81707226 1.41363323 30.62796826 1.5625 28.4375 C1.64628906 27.23996094 1.73007812 26.04242188 1.81640625 24.80859375 C1.87699219 23.88175781 1.93757813 22.95492187 2 22 C1.34 22 0.68 22 0 22 C0 14.74 0 7.48 0 0 Z " fill="#D9B20C" transform="translate(30,108)"/>
<path d="M0 0 C0.33 0 0.66 0 1 0 C1 6.6 1 13.2 1 20 C0.67 20 0.34 20 0 20 C0 18.35 0 16.7 0 15 C-1.10408203 15.08701172 -1.10408203 15.08701172 -2.23046875 15.17578125 C-10.19194773 15.54388133 -10.19194773 15.54388133 -14.25 12.8125 C-16 10 -16 10 -15.8125 7.1875 C-15.544375 6.465625 -15.27625 5.74375 -15 5 C-10.01770224 3.08373163 -5.27315333 2.4452885 0 2 C0 1.34 0 0.68 0 0 Z " fill="#876910" transform="translate(233,98)"/>
<path d="M0 0 C7.19711889 -0.39304654 13.53922845 1.07024771 20.5 2.8125 C21.58925781 3.07353516 22.67851562 3.33457031 23.80078125 3.60351562 C29.71438215 5.05152552 35.35461054 6.71855013 41 9 C41 9.99 41 10.98 41 12 C42.98 12.66 44.96 13.32 47 14 C47 14.99 47 15.98 47 17 C44.69 16.67 42.38 16.34 40 16 C40 15.34 40 14.68 40 14 C38.77925781 13.89042969 37.55851562 13.78085937 36.30078125 13.66796875 C26.64001379 12.75370054 17.39098832 11.52899147 8 9 C11.75399798 7.7960663 15.33217412 7.90122383 19.25 7.9375 C21.14492187 7.95103516 21.14492187 7.95103516 23.078125 7.96484375 C24.04234375 7.97644531 25.0065625 7.98804688 26 8 C25.67 7.34 25.34 6.68 25 6 C22.68195337 5.55667358 20.34325909 5.2185966 18 4.9375 C11.09529277 4.09529277 11.09529277 4.09529277 10 3 C8.32115762 2.6068352 6.63149955 2.25914548 4.9375 1.9375 C4.01839844 1.76089844 3.09929687 1.58429687 2.15234375 1.40234375 C1.44207031 1.26957031 0.73179687 1.13679687 0 1 C0 0.67 0 0.34 0 0 Z " fill="#FEEC43" transform="translate(131,9)"/>
<path d="M0 0 C5.28 0.33 10.56 0.66 16 1 C16.57446809 21.72340426 16.57446809 21.72340426 13 30 C11.68 29.34 10.36 28.68 9 28 C9 20.08 9 12.16 9 4 C4.545 3.01 4.545 3.01 0 2 C0 1.34 0 0.68 0 0 Z " fill="#E5B83A" transform="translate(217,112)"/>
<path d="M0 0 C0 3 0 3 -2.125 5.5625 C-5.10210825 8.08657003 -7.27060471 9.00549459 -11 10 C-11.66 10.33 -12.32 10.66 -13 11 C-13.65555119 13.52733235 -13.65555119 13.52733235 -14 16 C-14.67651611 15.35554932 -15.35303223 14.71109863 -16.05004883 14.04711914 C-19.66692476 11.53718744 -21.82588884 11.40831627 -26.19921875 11.24609375 C-26.89399826 11.21696396 -27.58877777 11.18783417 -28.30461121 11.15782166 C-37.23958205 10.83053221 -46.18843037 10.96674211 -55.1262207 11.09594727 C-57.36149868 11.12600978 -59.59661699 11.14383613 -61.83203125 11.16015625 C-63.79233276 11.18541382 -63.79233276 11.18541382 -65.79223633 11.21118164 C-69 11 -69 11 -72 9 C-64.48861406 8.9747101 -56.97723903 8.95715859 -49.46582031 8.94506836 C-46.90884999 8.94002983 -44.35188257 8.93319893 -41.79492188 8.92456055 C-38.12629483 8.91247398 -34.45770577 8.90676699 -30.7890625 8.90234375 C-29.64007477 8.89718246 -28.49108704 8.89202118 -27.30728149 8.88670349 C-26.2463327 8.88662796 -25.18538391 8.88655243 -24.09228516 8.88647461 C-22.68663803 8.88314369 -22.68663803 8.88314369 -21.25259399 8.87974548 C-19 9 -19 9 -17 10 C-17 9.34 -17 8.68 -17 8 C-15.68 8 -14.36 8 -13 8 C-12.67 7.01 -12.34 6.02 -12 5 C-10.0390625 4.12109375 -10.0390625 4.12109375 -7.625 3.4375 C-4.54588761 2.54987314 -2.72662828 1.81775218 0 0 Z " fill="#AB8801" transform="translate(200,134)"/>
<path d="M0 0 C0.99 0.66 1.98 1.32 3 2 C3 2.66 3 3.32 3 4 C1.52460414 5.24588984 0.04550456 6.48812639 -1.46484375 7.69140625 C-3.3047996 9.25981645 -4.66183579 10.99275368 -6 13 C-8.4681852 12.40763555 -10.88048783 11.73419235 -13.3125 11 C-16.88117227 10.03222447 -20.34024228 9.48971668 -24 9 C-24.08636719 9.9178125 -24.17273438 10.835625 -24.26171875 11.78125 C-25.82649546 25.44792368 -30.80616655 31.9305952 -41 41 C-43.53432083 42.95377156 -46.0967365 44.77464325 -48.7734375 46.52734375 C-51.18460142 48.05883075 -51.18460142 48.05883075 -53.875 50.4375 C-59.79156062 53.39578031 -66.48848832 52.66973645 -72.75 51 C-73.4925 50.67 -74.235 50.34 -75 50 C-71.80768576 48.9845957 -69.58867081 49.11245553 -66.3125 49.6875 C-56.35765605 50.73232327 -49.41358885 44.47299909 -42.03125 38.53125 C-33.8854066 31.72905087 -29.05086525 26.31717605 -27.3125 15.6875 C-27.18294922 14.94693359 -27.05339844 14.20636719 -26.91992188 13.44335938 C-26.6041294 11.63047666 -26.30079417 9.81543149 -26 8 C-18.64657821 7.79822928 -12.05112439 7.78788254 -5 10 C-4.34 8.35 -3.68 6.7 -3 5 C-2.34 5 -1.68 5 -1 5 C-0.67 3.35 -0.34 1.7 0 0 Z " fill="#866C07" transform="translate(194,32)"/>
<path d="M0 0 C0 0.33 0 0.66 0 1 C-0.87624023 0.99887207 -1.75248047 0.99774414 -2.65527344 0.99658203 C-5.96631343 1.00662078 -9.27494303 1.04357038 -12.58544922 1.09765625 C-14.006905 1.11561283 -15.4285323 1.12342238 -16.85009766 1.12011719 C-28.3102641 1.10394193 -36.82876103 3.40182194 -46.1875 10.375 C-48.67250185 13.97396819 -48.71076504 16.66147554 -49 21 C-49.33 21.33 -49.66 21.66 -50 22 C-50.23192865 23.51469448 -50.41215238 25.03754562 -50.5625 26.5625 C-50.64628906 27.38878906 -50.73007812 28.21507813 -50.81640625 29.06640625 C-50.87699219 29.70449219 -50.93757813 30.34257813 -51 31 C-51.33 31 -51.66 31 -52 31 C-52.08132642 27.95778935 -52.14065374 24.9177762 -52.1875 21.875 C-52.21263672 21.0190625 -52.23777344 20.163125 -52.26367188 19.28125 C-52.33734926 12.89587627 -51.38918401 8.60638256 -46.9375 3.75 C-34.41002833 -3.71317461 -13.81800402 -1.90593159 0 0 Z " fill="#EAE8E9" transform="translate(107,90)"/>
<path d="M0 0 C33.01578415 -0.13365882 65.99446255 0.15766768 99 1 C99 1.66 99 2.32 99 3 C66.98330971 3.11602919 35.00162195 3.05549209 3 2 C2.67 2.66 2.34 3.32 2 4 C1.34 2.68 0.68 1.36 0 0 Z " fill="#1B0F06" transform="translate(83,137)"/>
<path d="M0 0 C0.66 0 1.32 0 2 0 C0.54280375 4.8598246 -1.47844006 9.12129135 -3.875 13.5625 C-4.21402344 14.20896484 -4.55304688 14.85542969 -4.90234375 15.52148438 C-6.94759439 19.34369233 -9.16602826 22.6894635 -12 26 C-13.32 25.67 -14.64 25.34 -16 25 C-16.20086443 21.28400809 -16.1519437 20.22791555 -14 17 C-13.30686092 15.34416775 -12.63525576 13.67889021 -12 12 C-11.34 12 -10.68 12 -10 12 C-9.8453125 11.071875 -9.8453125 11.071875 -9.6875 10.125 C-9 8 -9 8 -6 6 C-4.80767387 3.94996045 -4.80767387 3.94996045 -4 2 C-2.68 2 -1.36 2 0 2 C0 1.34 0 0.68 0 0 Z " fill="#986E0C" transform="translate(226,147)"/>
<path d="M0 0 C0.33 0.66 0.66 1.32 1 2 C1.66 2.33 2.32 2.66 3 3 C2.814375 3.5775 2.62875 4.155 2.4375 4.75 C1.84528415 6.9366599 1.84528415 6.9366599 2.46655273 8.81542969 C3.08503427 11.34823187 3.11280945 13.59677505 3.09765625 16.203125 C3.09443359 17.1828125 3.09121094 18.1625 3.08789062 19.171875 C3.07951172 20.18765625 3.07113281 21.2034375 3.0625 22.25 C3.05798828 23.28125 3.05347656 24.3125 3.04882812 25.375 C3.03706088 27.91672573 3.02062011 30.45833319 3 33 C3.66 33 4.32 33 5 33 C5 37.29 5 41.58 5 46 C4.01 46.495 4.01 46.495 3 47 C2.32210976 44.64856824 1.65759253 42.29461376 1 39.9375 C0.80921875 39.28072266 0.6184375 38.62394531 0.421875 37.94726562 C-0.79596429 33.5325982 -1.19227394 29.62058323 -1 25 C-0.34 25 0.32 25 1 25 C0.83628906 24.03964844 0.67257813 23.07929687 0.50390625 22.08984375 C-0.14094818 17.57586275 -0.11017662 13.11378358 -0.0625 8.5625 C-0.05798828 7.73556641 -0.05347656 6.90863281 -0.04882812 6.05664062 C-0.03715811 4.03772854 -0.01922718 2.01885426 0 0 Z " fill="#ECC126" transform="translate(27,97)"/>
<path d="M0 0 C6.53553311 2.64637918 11.29565676 9.79761319 14 16.125 C14.33 17.07375 14.66 18.0225 15 19 C15.66 19 16.32 19 17 19 C17.33 18.34 17.66 17.68 18 17 C18.99 17.33 19.98 17.66 21 18 C21.03738281 18.76183594 21.07476562 19.52367188 21.11328125 20.30859375 C21.49255677 26.26545049 22.26709515 31.31025993 24.3671875 36.88671875 C25.39324559 40.31324609 25.19373791 43.44813824 25 47 C24.67 47 24.34 47 24 47 C23.62875 45.2984375 23.62875 45.2984375 23.25 43.5625 C22.23144254 39.42184249 20.63784022 35.72306673 18.8046875 31.8828125 C18 30 18 30 18 28 C17.34 28 16.68 28 16 28 C15.52949219 26.87980469 15.05898437 25.75960937 14.57421875 24.60546875 C13.94569133 23.13265077 13.31676412 21.66000337 12.6875 20.1875 C12.37876953 19.44951172 12.07003906 18.71152344 11.75195312 17.95117188 C11.44580078 17.23896484 11.13964844 16.52675781 10.82421875 15.79296875 C10.40789185 14.81106567 10.40789185 14.81106567 9.9831543 13.80932617 C8.90431331 11.82390512 7.62339686 10.55535521 6 9 C5.690625 8.360625 5.38125 7.72125 5.0625 7.0625 C3.76953478 4.55262633 2.01810839 2.95083811 0 1 C0 0.67 0 0.34 0 0 Z " fill="#ECB81B" transform="translate(197,48)"/>
<path d="M0 0 C1.32 0.33 2.64 0.66 4 1 C2.60746468 4.48133831 1.36823784 5.47886033 -2 7 C-2.33 7.66 -2.66 8.32 -3 9 C-4.04800781 9.42410156 -5.09601563 9.84820312 -6.17578125 10.28515625 C-10.27315543 11.95151241 -13.0429869 14.38294696 -16.1875 17.4375 C-16.69474609 17.91509766 -17.20199219 18.39269531 -17.72460938 18.88476562 C-20.53291532 21.54008992 -23.27907104 24.2555641 -26 27 C-27.66666667 28.66666667 -29.33333333 30.33333333 -31 32 C-31 28.2773511 -30.01462741 27.32537571 -27.75 24.4375 C-27.14671875 23.65246094 -26.5434375 22.86742188 -25.921875 22.05859375 C-24.0094796 20.01015396 -22.50281586 19.16126414 -20 18 C-18.73195434 15.9664052 -18.73195434 15.9664052 -18 14 C-17.34 14 -16.68 14 -16 14 C-15.74992187 13.38125 -15.49984375 12.7625 -15.2421875 12.125 C-13.77341201 9.61237777 -12.76680992 9.11653853 -10.125 8 C-6.72777116 6.44909118 -4.55994393 4.7568627 -2 2 C-1.34 2 -0.68 2 0 2 C0 1.34 0 0.68 0 0 Z " fill="#E7BF1A" transform="translate(82,29)"/>
<path d="M0 0 C2.37587624 0.11486425 4.75015171 0.24158156 7.125 0.375 C8.12273437 0.42140625 8.12273437 0.42140625 9.140625 0.46875 C13.39821262 0.71919633 17.02085783 1.47528197 21 3 C21 3.99 21 4.98 21 6 C10.16129087 6.31366039 -0.2643063 5.36326269 -11 4 C-11 3.67 -11 3.34 -11 3 C-10.28972656 2.95101563 -9.57945313 2.90203125 -8.84765625 2.8515625 C-7.46900391 2.73941406 -7.46900391 2.73941406 -6.0625 2.625 C-5.14597656 2.55539062 -4.22945312 2.48578125 -3.28515625 2.4140625 C-2.15400391 2.20910156 -2.15400391 2.20910156 -1 2 C-0.67 1.34 -0.34 0.68 0 0 Z " fill="#FEF461" transform="translate(136,12)"/>
<path d="M0 0 C6.47300793 -0.26420441 11.5259995 1.18955156 17.625 3.1875 C20.96273196 3.99102806 22.76009263 3.98179011 26 3 C26.33 3.99 26.66 4.98 27 6 C17.67367437 7.62196967 9.20647336 7.19388301 0 5 C0 3.35 0 1.7 0 0 Z " fill="#E9BB21" transform="translate(170,41)"/>
<path d="M0 0 C1.33998047 0.06960937 1.33998047 0.06960937 2.70703125 0.140625 C3.60808594 0.17671875 4.50914062 0.2128125 5.4375 0.25 C6.46810547 0.31960937 6.46810547 0.31960937 7.51953125 0.390625 C-1.8750467 8.35064914 -13.26581791 13.05751168 -25.48046875 14.390625 C-26.47046875 14.060625 -27.46046875 13.730625 -28.48046875 13.390625 C-27.48046875 12.390625 -27.48046875 12.390625 -24.91796875 12.328125 C-24.11359375 12.34875 -23.30921875 12.369375 -22.48046875 12.390625 C-22.48046875 11.730625 -22.48046875 11.070625 -22.48046875 10.390625 C-20.87790767 9.88550256 -19.27335083 9.38670873 -17.66796875 8.890625 C-16.77464844 8.6121875 -15.88132813 8.33375 -14.9609375 8.046875 C-12.48046875 7.390625 -12.48046875 7.390625 -9.48046875 7.390625 C-9.48046875 6.730625 -9.48046875 6.070625 -9.48046875 5.390625 C-8.88234375 5.308125 -8.28421875 5.225625 -7.66796875 5.140625 C-5.30836186 4.58361885 -5.30836186 4.58361885 -4.16796875 2.359375 C-2.48046875 0.390625 -2.48046875 0.390625 0 0 Z " fill="#735504" transform="translate(177.48046875,200.609375)"/>
<path d="M0 0 C0.99 0.33 1.98 0.66 3 1 C3 1.66 3 2.32 3 3 C1.35 3.33 -0.3 3.66 -2 4 C-1.7215625 4.9590625 -1.7215625 4.9590625 -1.4375 5.9375 C-1.293125 6.618125 -1.14875 7.29875 -1 8 C-1.33 8.33 -1.66 8.66 -2 9 C-2.39993686 11.68862664 -2.75134543 14.36352217 -3.0625 17.0625 C-3.15337891 17.82111328 -3.24425781 18.57972656 -3.33789062 19.36132812 C-3.5624374 21.2404301 -3.78170978 23.12016095 -4 25 C-7 24 -7 24 -9 21 C-9.56822537 15.82570531 -8.93221556 11.47976954 -6.14453125 7.0546875 C-4.17700441 4.61007893 -2.16356931 2.2719942 0 0 Z " fill="#FADA36" transform="translate(54,41)"/>
<path d="M0 0 C0.66 0.33 1.32 0.66 2 1 C-2.13231951 7.98977448 -5.15573756 11.38524585 -13 14 C-13 13.34 -13 12.68 -13 12 C-14.65 12.33 -16.3 12.66 -18 13 C-17.525625 12.608125 -17.05125 12.21625 -16.5625 11.8125 C-14.64820367 9.59191626 -14.38733012 7.86624291 -14 5 C-12.35 5 -10.7 5 -9 5 C-9 4.34 -9 3.68 -9 3 C-8.01 3.33 -7.02 3.66 -6 4 C-3.79192337 2.84338843 -1.77322566 1.77322566 0 0 Z " fill="#FEE73C" transform="translate(77,28)"/>
<path d="M0 0 C1.29164062 0.06574219 1.29164062 0.06574219 2.609375 0.1328125 C3.5065625 0.184375 4.40375 0.2359375 5.328125 0.2890625 C6.65070313 0.35480469 6.65070313 0.35480469 8 0.421875 C12.91435759 0.68514416 17.71930964 1.13081084 22.578125 1.9140625 C22.248125 2.9040625 21.918125 3.8940625 21.578125 4.9140625 C12.008125 4.5840625 2.438125 4.2540625 -7.421875 3.9140625 C-7.421875 2.9240625 -7.421875 1.9340625 -7.421875 0.9140625 C-4.51559392 -0.05469786 -2.98915559 -0.15670459 0 0 Z " fill="#998316" transform="translate(100.421875,171.0859375)"/>
<path d="M0 0 C0.99 0.66 1.98 1.32 3 2 C2.67 2.66 2.34 3.32 2 4 C-1.16015625 4.4140625 -1.16015625 4.4140625 -5.0625 4.625 C-6.35285156 4.69976562 -7.64320312 4.77453125 -8.97265625 4.8515625 C-9.97167969 4.90054688 -10.97070312 4.94953125 -12 5 C-12 5.66 -12 6.32 -12 7 C-16.84241633 8.33583899 -20.93437617 9.25328119 -26 9 C-26 8.67 -26 8.34 -26 8 C-25.154375 7.74605469 -24.30875 7.49210937 -23.4375 7.23046875 C-19.12012404 5.6850444 -15.19328663 3.55041396 -11.2109375 1.30273438 C-7.052596 -0.9000875 -4.51337811 -1.36555332 0 0 Z " fill="#F2C518" transform="translate(114,80)"/>
<path d="M0 0 C5.75 0.75 5.75 0.75 8 3 C9.2375 3.2475 9.2375 3.2475 10.5 3.5 C13 4 13 4 15 6 C14.625 8.625 14.625 8.625 14 11 C13.01 11.33 12.02 11.66 11 12 C10.34 11.34 9.68 10.68 9 10 C8.175 9.731875 7.35 9.46375 6.5 9.1875 C4 8 4 8 2.6875 5.375 C2.460625 4.59125 2.23375 3.8075 2 3 C1.01 3 0.02 3 -1 3 C-0.67 2.01 -0.34 1.02 0 0 Z " fill="#FDE53B" transform="translate(179,26)"/>
<path d="M0 0 C1.32 0 2.64 0 4 0 C4 0.66 4 1.32 4 2 C5.03640625 2 6.0728125 2 7.140625 2 C20.09375 2 33.046875 2 46 2 C46 2.33 46 2.66 46 3 C42.87588408 3.34197019 39.75060292 3.67192253 36.625 4 C35.75488281 4.09539062 34.88476562 4.19078125 33.98828125 4.2890625 C9.38921032 6.84007726 9.38921032 6.84007726 1.8125 1.9375 C1.214375 1.298125 0.61625 0.65875 0 0 Z " fill="#926D06" transform="translate(101,210)"/>
<path d="M0 0 C-0.31925341 2.87328071 -0.84148031 4.75877438 -2.4375 7.1875 C-5.71232952 9.50384283 -8.63865675 9.9216286 -12.5625 10.5078125 C-15.00736104 11.00148636 -16.83378681 11.78651946 -19 13 C-17.88829667 9.77606034 -17.10649159 9.05546437 -14 7.4375 C-13.01 6.963125 -12.02 6.48875 -11 6 C-10.34 5.01 -9.68 4.02 -9 3 C-2.77777778 0 -2.77777778 0 0 0 Z " fill="#FEF760" transform="translate(97,14)"/>
<path d="M0 0 C0 0.33 0 0.66 0 1 C-0.8971875 1.0093457 -1.794375 1.01869141 -2.71875 1.02832031 C-6.08148339 1.07261251 -9.44299347 1.13434662 -12.80517578 1.20751953 C-14.25395216 1.23556036 -15.70287672 1.25685811 -17.15185547 1.27099609 C-25.38225993 1.35607953 -31.74548349 1.70363585 -39 6 C-42.5 5.25 -42.5 5.25 -45 4 C-44.67 3.34 -44.34 2.68 -44 2 C-30.28751845 -2.31689234 -14.05800191 -1.93903475 0 0 Z " fill="#F5E7C1" transform="translate(107,90)"/>
<path d="M0 0 C0.62366455 0.06566162 1.2473291 0.13132324 1.88989258 0.19897461 C9.81629277 0.98176683 17.72852994 1.31081665 25.6875 1.5625 C27.61625977 1.62727539 27.61625977 1.62727539 29.58398438 1.69335938 C32.72257494 1.79836798 35.86123004 1.90052405 39 2 C39 2.33 39 2.66 39 3 C26.625 3.495 26.625 3.495 14 4 C15.32 4.66 16.64 5.32 18 6 C18 6.33 18 6.66 18 7 C10.80216064 7.95971191 6.02703971 4.66199881 0 1 C0 0.67 0 0.34 0 0 Z " fill="#242306" transform="translate(104,214)"/>
<path d="M0 0 C3 2 3 2 3.625 4.390625 C3.810625 5.80601562 3.810625 5.80601562 4 7.25 C4.70455215 11.73351371 5.82142122 14.99141504 8 19 C8.61524831 20.55021081 9.19689199 22.11404661 9.75 23.6875 C10.01296875 24.43386719 10.2759375 25.18023437 10.546875 25.94921875 C11 28 11 28 10 31 C9.03697644 29.44038638 8.07978996 27.87716775 7.125 26.3125 C6.59132813 25.44238281 6.05765625 24.57226562 5.5078125 23.67578125 C2.98659363 19.2015975 2 16.08615364 2 11 C1.67 10.38125 1.34 9.7625 1 9.125 C-0.43422946 6.07726241 -0.12761959 3.31810935 0 0 Z " fill="#D0A229" transform="translate(35,144)"/>
<path d="M0 0 C5.28 0.33 10.56 0.66 16 1 C16.37139616 10.53250133 16.37139616 10.53250133 14.55078125 12.82421875 C13 14 13 14 12 14 C11.67 10.7 11.34 7.4 11 4 C7.37 3.34 3.74 2.68 0 2 C0 1.34 0 0.68 0 0 Z " fill="#FACE32" transform="translate(217,112)"/>
<path d="M0 0 C0 0.99 0 1.98 0 3 C-4.51815281 3.88277755 -8.77512694 4.10589503 -13.375 4.0625 C-15.24285156 4.04896484 -15.24285156 4.04896484 -17.1484375 4.03515625 C-18.55996094 4.01775391 -18.55996094 4.01775391 -20 4 C-20 2.68 -20 1.36 -20 0 C-5.05263158 -1.68421053 -5.05263158 -1.68421053 0 0 Z " fill="#EDBE12" transform="translate(142,18)"/>
<path d="M0 0 C16.83 0 33.66 0 51 0 C51.495 1.485 51.495 1.485 52 3 C27.745 2.505 27.745 2.505 3 2 C2.67 2.66 2.34 3.32 2 4 C1.34 2.68 0.68 1.36 0 0 Z " fill="#232803" transform="translate(83,137)"/>
<path d="M0 0 C-4 3 -4 3 -8 6 C-8 5.34 -8 4.68 -8 4 C-8.9075 4.515625 -9.815 5.03125 -10.75 5.5625 C-14 7 -14 7 -16.375 6.6875 C-16.91125 6.460625 -17.4475 6.23375 -18 6 C-18 6.66 -18 7.32 -18 8 C-19.95927063 9.7143618 -21.95880212 11.38405168 -24 13 C-24.66 12.67 -25.32 12.34 -26 12 C-24.5486164 9.43834139 -23.05632757 7.1174066 -21 5 C-17.1875 4.0625 -17.1875 4.0625 -14 4 C-14 3.34 -14 2.68 -14 2 C-4.58997722 -0.29612756 -4.58997722 -0.29612756 0 0 Z " fill="#FCDF37" transform="translate(100,23)"/>
<path d="M0 0 C1.32 0 2.64 0 4 0 C4.66 1.32 5.32 2.64 6 4 C4.69144447 5.83615081 3.37805538 7.66885789 2.0625 9.5 C1.33160156 10.5209375 0.60070313 11.541875 -0.15234375 12.59375 C-0.76207031 13.3878125 -1.37179688 14.181875 -2 15 C-2.33 15 -2.66 15 -3 15 C-3.05391993 13.20866022 -3.09275571 11.41686101 -3.125 9.625 C-3.14820313 8.62726563 -3.17140625 7.62953125 -3.1953125 6.6015625 C-3 4 -3 4 -1 2 C-0.67 1.34 -0.34 0.68 0 0 Z " fill="#FAD018" transform="translate(39,64)"/>
<path d="M0 0 C0.33 0 0.66 0 1 0 C1 3.3 1 6.6 1 10 C4.3 9.67 7.6 9.34 11 9 C11.33 7.68 11.66 6.36 12 5 C10.6483633 2.75244247 10.6483633 2.75244247 9 1 C12.93673644 2.31224548 15.22719294 3.91910327 18 7 C17.34 8.32 16.68 9.64 16 11 C10.39 11 4.78 11 -1 11 C-1.09765625 3.28515625 -1.09765625 3.28515625 -1 1 C-0.67 0.67 -0.34 0.34 0 0 Z " fill="#B69204" transform="translate(144,81)"/>
<path d="M0 0 C0 0.33 0 0.66 0 1 C-0.63164063 0.84660156 -1.26328125 0.69320312 -1.9140625 0.53515625 C-9.91863859 -0.86045428 -14.90516329 1.39708723 -21.73828125 5.23828125 C-27.31907327 8.2525773 -31.66269428 9.25349223 -38 9 C-38 8.34 -38 7.68 -38 7 C-36.92685547 6.77957031 -36.92685547 6.77957031 -35.83203125 6.5546875 C-28.70299336 4.94996228 -22.58667372 2.58317224 -16.10546875 -0.79296875 C-10.37449664 -3.02047867 -5.60802345 -2.18849696 0 0 Z " fill="#917302" transform="translate(119,80)"/>
<path d="M0 0 C-5.35022874 4.72079006 -9.87265814 6.33939723 -17 6 C-17 5.34 -17 4.68 -17 4 C-18.32 3.67 -19.64 3.34 -21 3 C-17.87735751 2.30147903 -14.75159876 1.6180743 -11.625 0.9375 C-10.73554688 0.73833984 -9.84609375 0.53917969 -8.9296875 0.33398438 C-8.07890625 0.15029297 -7.228125 -0.03339844 -6.3515625 -0.22265625 C-5.56604004 -0.39547119 -4.78051758 -0.56828613 -3.97119141 -0.74633789 C-2 -1 -2 -1 0 0 Z " fill="#201902" transform="translate(168,212)"/>
<path d="M0 0 C0.33 0 0.66 0 1 0 C1.33 9.9 1.66 19.8 2 30 C1.01 30.33 0.02 30.66 -1 31 C-1.02902168 26.58334712 -1.04680608 22.16671877 -1.0625 17.75 C-1.07087891 16.49574219 -1.07925781 15.24148437 -1.08789062 13.94921875 C-1.09111328 12.74394531 -1.09433594 11.53867188 -1.09765625 10.296875 C-1.10289307 9.18666992 -1.10812988 8.07646484 -1.11352539 6.93261719 C-1.01658493 4.42842621 -0.73230276 2.3818844 0 0 Z " fill="#E9AE39" transform="translate(26,92)"/>
<path d="M0 0 C1.32 0.99 2.64 1.98 4 3 C3.125 6.875 3.125 6.875 2 8 C0.31391034 8.07205511 -1.37500659 8.08386068 -3.0625 8.0625 C-3.98160156 8.05347656 -4.90070313 8.04445313 -5.84765625 8.03515625 C-6.55792969 8.02355469 -7.26820313 8.01195313 -8 8 C-7.33333333 6 -6.66666667 4 -6 2 C-3.03 2.495 -3.03 2.495 0 3 C0 2.01 0 1.02 0 0 Z " fill="#D0AB03" transform="translate(153,83)"/>
<path d="M0 0 C7.75 -0.125 7.75 -0.125 10 1 C10 1.66 10 2.32 10 3 C10.66 2.71125 11.32 2.4225 12 2.125 C16.76307884 1.92653838 19.50528163 5.00824358 23 8 C19.53690981 9.21760043 17.77694761 8.80744321 14.453125 7.34765625 C13.60878906 6.98349609 12.76445313 6.61933594 11.89453125 6.24414062 C11.02183594 5.85419922 10.14914063 5.46425781 9.25 5.0625 C7.91775391 4.48338867 7.91775391 4.48338867 6.55859375 3.89257812 C4.36772604 2.93849057 2.18204402 1.97405887 0 1 C0 0.67 0 0.34 0 0 Z " fill="#8A650E" transform="translate(83,205)"/>
<path d="M0 0 C0.33 0 0.66 0 1 0 C1.18175781 0.61488281 1.36351562 1.22976562 1.55078125 1.86328125 C1.92783203 3.07564453 1.92783203 3.07564453 2.3125 4.3125 C2.67794922 5.51326172 2.67794922 5.51326172 3.05078125 6.73828125 C4.04182023 9.09964573 5.08074943 10.33879993 7 12 C6.67 12.66 6.34 13.32 6 14 C5.01 14.33 4.02 14.66 3 15 C2.34 14.34 1.68 13.68 1 13 C1 11.33333333 1 9.66666667 1 8 C-2.12197478 9.3089572 -2.12197478 9.3089572 -4 12 C-4.66 12 -5.32 12 -6 12 C-4.68315519 7.39104317 -2.84801255 3.85859765 0 0 Z " fill="#EEC42B" transform="translate(42,56)"/>
<path d="M0 0 C0 0.99 0 1.98 0 3 C-0.66 3 -1.32 3 -2 3 C-2 4.32 -2 5.64 -2 7 C-6.08718695 7.24042276 -9.17679443 6.42258812 -13 5 C-12.67 4.01 -12.34 3.02 -12 2 C-7.92532275 0.51117562 -4.33458585 -0.26270217 0 0 Z " fill="#AA7E0F" transform="translate(232,103)"/>
<path d="M0 0 C0.33 0 0.66 0 1 0 C1 1.65 1 3.3 1 5 C1.66 5 2.32 5 3 5 C3.13277344 5.85464844 3.26554687 6.70929688 3.40234375 7.58984375 C3.57894531 8.69457031 3.75554688 9.79929688 3.9375 10.9375 C4.19853516 12.59072266 4.19853516 12.59072266 4.46484375 14.27734375 C4.71845136 16.90426929 4.71845136 16.90426929 6 18 C6.04063832 19.66617115 6.042721 21.33388095 6 23 C1.29727354 19.06025276 -0.45418404 12.74850309 -2 7 C-1.84948672 4.09791575 -1.29013614 2.64170733 0 0 Z " fill="#D1AF2E" transform="translate(32,137)"/>
<path d="M0 0 C2.09087271 3.13630906 3.0159838 5.78507349 4.125 9.375 C4.47820312 10.49648437 4.83140625 11.61796875 5.1953125 12.7734375 C5.92181482 15.68650019 6.16735595 18.02106411 6 21 C4 21 4 21 2.375 19.9375 C0.32691689 17.05156471 0.87231888 14.44739015 1 11 C0.67 10.67 0.34 10.34 0 10 C-0.07205511 8.31391034 -0.08386068 6.62499341 -0.0625 4.9375 C-0.05347656 4.01839844 -0.04445312 3.09929687 -0.03515625 2.15234375 C-0.02355469 1.44207031 -0.01195312 0.73179688 0 0 Z " fill="#E3BA49" transform="translate(227,79)"/>
<path d="M0 0 C1.875 0.0625 1.875 0.0625 4 1 C6.25 3.5625 6.25 3.5625 8 6 C6.625 8 6.625 8 5 10 C4.34 10 3.68 10 3 10 C3.33 8.68 3.66 7.36 4 6 C3.21625 6.185625 2.4325 6.37125 1.625 6.5625 C-1 7 -1 7 -3 6 C-2.42655063 3.13275314 -2.1385485 2.1385485 0 0 Z " fill="#FCD53A" transform="translate(195,36)"/>
<path d="M0 0 C0.99 0.66 1.98 1.32 3 2 C3 2.66 3 3.32 3 4 C1.52460414 5.24588984 0.04550456 6.48812639 -1.46484375 7.69140625 C-3.3047996 9.25981645 -4.66183579 10.99275368 -6 13 C-8.4681852 12.40763555 -10.88048783 11.73419235 -13.3125 11 C-16.87825487 10.03301563 -20.33685146 9.4485488 -24 9 C-24 8.67 -24 8.34 -24 8 C-17.2718373 7.77737697 -11.46008837 8.04978464 -5 10 C-4.34 8.35 -3.68 6.7 -3 5 C-2.34 5 -1.68 5 -1 5 C-0.67 3.35 -0.34 1.7 0 0 Z " fill="#766A18" transform="translate(194,32)"/>
<path d="M0 0 C-1.65 0.33 -3.3 0.66 -5 1 C-5 1.66 -5 2.32 -5 3 C-18.6332574 7.59225513 -18.6332574 7.59225513 -25 7 C-22.40899273 3.68676074 -20.00418832 3.4464537 -15.9375 2.9375 C-11.4616386 2.54328132 -11.4616386 2.54328132 -8 0 C-2.51428571 -1.25714286 -2.51428571 -1.25714286 0 0 Z " fill="#977201" transform="translate(173,205)"/>
<path d="M0 0 C0.33 1.32 0.66 2.64 1 4 C1.99 4 2.98 4 4 4 C4 4.99 4 5.98 4 7 C4.66 7 5.32 7 6 7 C4.66666667 9.66666667 3.33333333 12.33333333 2 15 C1.34 14.67 0.68 14.34 0 14 C-0.6328125 11.05859375 -0.6328125 11.05859375 -1.125 7.4375 C-1.29257813 6.23996094 -1.46015625 5.04242188 -1.6328125 3.80859375 C-1.75398437 2.88175781 -1.87515625 1.95492187 -2 1 C-1.34 0.67 -0.68 0.34 0 0 Z " fill="#FDC822" transform="translate(219,69)"/>
<path d="M0 0 C0.99 0.495 0.99 0.495 2 1 C2.83491243 3.7761576 3.54547397 6.49175748 4.1875 9.3125 C4.47270508 10.47168945 4.47270508 10.47168945 4.76367188 11.65429688 C4.93833984 12.40388672 5.11300781 13.15347656 5.29296875 13.92578125 C5.53309692 14.95312378 5.53309692 14.95312378 5.77807617 16.0012207 C6.02736014 18.24642185 5.66818349 19.85695657 5 22 C0.91413545 17.91413545 0.25504111 10.21664089 -0.19140625 4.5859375 C-0.18825816 3.05596401 -0.10648372 1.52626669 0 0 Z " fill="#F9D153" transform="translate(26,122)"/>
<path d="M0 0 C7.37112329 -0.43359549 13.88218634 1.18997178 21 3 C22.15628906 3.28617188 23.31257813 3.57234375 24.50390625 3.8671875 C27.33810549 4.56988153 30.16990129 5.28100195 33 6 C29.8412749 6.8756617 27.99707343 6.97189931 24.8125 6.125 C20.79177906 5.13148852 16.87324404 4.59685583 12.75 4.24609375 C11 4 11 4 10 3 C8.32115762 2.6068352 6.63149955 2.25914548 4.9375 1.9375 C4.01839844 1.76089844 3.09929687 1.58429687 2.15234375 1.40234375 C1.44207031 1.26957031 0.73179687 1.13679687 0 1 C0 0.67 0 0.34 0 0 Z " fill="#D8CF56" transform="translate(131,9)"/>
<path d="M0 0 C0.33 0 0.66 0 1 0 C1.06058594 0.84304687 1.12117187 1.68609375 1.18359375 2.5546875 C1.26738281 3.65039062 1.35117188 4.74609375 1.4375 5.875 C1.51871094 6.96554688 1.59992188 8.05609375 1.68359375 9.1796875 C1.83001703 11.94728971 1.83001703 11.94728971 3 14 C3.66 14 4.32 14 5 14 C4.34 16.64 3.68 19.28 3 22 C1.68 21.34 0.36 20.68 -1 20 C-1.11044961 13.26257354 -0.70132913 6.70019789 0 0 Z " fill="#D7A935" transform="translate(227,120)"/>
<path d="M0 0 C0.33 0 0.66 0 1 0 C1.41621519 8.52470374 0.79113638 13.81329544 -4 21 C-4.66 21 -5.32 21 -6 21 C-6 20.34 -6 19.68 -6 19 C-6.66 18.67 -7.32 18.34 -8 18 C-7.401875 17.484375 -6.80375 16.96875 -6.1875 16.4375 C-1.87731733 11.63472503 -0.64280671 6.29950573 0 0 Z " fill="#574716" transform="translate(204,114)"/>
<path d="M0 0 C1.32 0.33 2.64 0.66 4 1 C2.60746468 4.48133831 1.36823784 5.47886033 -2 7 C-2.33 7.66 -2.66 8.32 -3 9 C-5.06640625 9.4140625 -5.06640625 9.4140625 -7.5625 9.625 C-8.80193359 9.73714844 -8.80193359 9.73714844 -10.06640625 9.8515625 C-11.02353516 9.92503906 -11.02353516 9.92503906 -12 10 C-11.46375 9.608125 -10.9275 9.21625 -10.375 8.8125 C-8.47612374 7.36335759 -6.68140509 5.87096714 -4.875 4.3125 C-2 2 -2 2 0 2 C0 1.34 0 0.68 0 0 Z " fill="#F2C722" transform="translate(82,29)"/>
<path d="M0 0 C0 0.33 0 0.66 0 1 C-4.08186677 1.53278633 -8.16564655 2.04915371 -12.25 2.5625 C-13.40886719 2.71396484 -14.56773438 2.86542969 -15.76171875 3.02148438 C-16.87675781 3.16005859 -17.99179688 3.29863281 -19.140625 3.44140625 C-20.68024902 3.63778687 -20.68024902 3.63778687 -22.25097656 3.83813477 C-24.80698497 3.98863508 -26.58670023 3.79012848 -29 3 C-19.65148165 -1.03740638 -9.95624052 -0.27599435 0 0 Z " fill="#F8D12D" transform="translate(137,16)"/>
<path d="M0 0 C1.7074998 1.28062485 3.37373596 2.61767557 5 4 C5 4.66 5 5.32 5 6 C7.97 6.495 7.97 6.495 11 7 C10.67 7.66 10.34 8.32 10 9 C6.875 8.47916667 3.75 7.95833333 0.625 7.4375 C-0.674375 7.2209375 -0.674375 7.2209375 -2 7 C-2 5.02 -2 3.04 -2 1 C-1.34 0.67 -0.68 0.34 0 0 Z " fill="#E7B608" transform="translate(179,32)"/>
<path d="M0 0 C0.33 0 0.66 0 1 0 C1 2.97 1 5.94 1 9 C2.32 9.66 3.64 10.32 5 11 C4.34 12.65 3.68 14.3 3 16 C2.34 16 1.68 16 1 16 C1 16.66 1 17.32 1 18 C-0.32 18.33 -1.64 18.66 -3 19 C-3 16 -3 16 -1 14 C0.04976964 10.85069107 0.10131595 8.61185544 0.0625 5.3125 C0.05347656 4.31863281 0.04445312 3.32476562 0.03515625 2.30078125 C0.02355469 1.54152344 0.01195312 0.78226563 0 0 Z " fill="#BB902A" transform="translate(225,131)"/>
<path d="M0 0 C2.6015625 1.21484375 2.6015625 1.21484375 5.625 2.9375 C6.62789062 3.50339844 7.63078125 4.06929688 8.6640625 4.65234375 C9.43492188 5.09707031 10.20578125 5.54179688 11 6 C8 8 8 8 5 8 C5 7.34 5 6.68 5 6 C3.68 6.33 2.36 6.66 1 7 C1 6.01 1 5.02 1 4 C-0.32 4.33 -1.64 4.66 -3 5 C-2.625 3.0625 -2.625 3.0625 -2 1 C-1.34 0.67 -0.68 0.34 0 0 Z " fill="#DEB621" transform="translate(49,68)"/>
<path d="M0 0 C2 2 2 2 2 5 C2.66 5 3.32 5 4 5 C4 6.32 4 7.64 4 9 C4.66 9 5.32 9 6 9 C8 11 8 11 8.125 13.625 C8.08375 14.40875 8.0425 15.1925 8 16 C7.01 16 6.02 16 5 16 C4.32845067 14.71086513 3.66291141 13.41859796 3 12.125 C2.62875 11.40570313 2.2575 10.68640625 1.875 9.9453125 C1 8 1 8 1 6 C0.34 6 -0.32 6 -1 6 C-0.67 4.02 -0.34 2.04 0 0 Z " fill="#FED636" transform="translate(215,57)"/>
<path d="M0 0 C0.99 0.33 1.98 0.66 3 1 C3 1.66 3 2.32 3 3 C1.35 3.33 -0.3 3.66 -2 4 C-1.7215625 4.9590625 -1.7215625 4.9590625 -1.4375 5.9375 C-1.293125 6.618125 -1.14875 7.29875 -1 8 C-1.33 8.33 -1.66 8.66 -2 9 C-2.33 9.99 -2.66 10.98 -3 12 C-4.32 12 -5.64 12 -7 12 C-7.33 12.66 -7.66 13.32 -8 14 C-7.46719784 9.77510398 -6.12321801 7.45919284 -3.4375 4.1875 C-2.47650391 3.00220703 -2.47650391 3.00220703 -1.49609375 1.79296875 C-1.00238281 1.20128906 -0.50867187 0.60960937 0 0 Z " fill="#E8D138" transform="translate(54,41)"/>
<path d="M0 0 C7.26 0.66 14.52 1.32 22 2 C17.65371522 4.17314239 15.23758795 4.32807832 10.4375 4.375 C9.42913086 4.41173828 9.42913086 4.41173828 8.40039062 4.44921875 C6.43359375 4.4609375 6.43359375 4.4609375 3 4 C2.01 2.68 1.02 1.36 0 0 Z " fill="#534500" transform="translate(62,137)"/>
<path d="M0 0 C0.66 0.66 1.32 1.32 2 2 C-2.625 6.875 -2.625 6.875 -6 8 C-7.20882096 10.00016466 -7.20882096 10.00016466 -8 12 C-9.32 11.67 -10.64 11.34 -12 11 C-9.32203864 7.3302011 -6.93578681 5.22018743 -3 3 C-1.24850835 1.41754725 -1.24850835 1.41754725 0 0 Z " fill="#F2BE14" transform="translate(164,63)"/>
<path d="M0 0 C4.66666667 0.66666667 9.33333333 1.33333333 14 2 C14 2.99 14 3.98 14 5 C15.32 5.66 16.64 6.32 18 7 C13.00216563 7.36020428 10.01981128 6.34389935 5.625 4 C4.56539063 3.443125 3.50578125 2.88625 2.4140625 2.3125 C1.61742188 1.879375 0.82078125 1.44625 0 1 C0 0.67 0 0.34 0 0 Z " fill="#96700D" transform="translate(69,198)"/>
<path d="M0 0 C0.66 0 1.32 0 2 0 C0.125 5.75 0.125 5.75 -1 8 C-4.17045938 9.24061454 -6.58238295 10 -10 10 C-9.38125 9.4225 -8.7625 8.845 -8.125 8.25 C-6.18652947 6.19750179 -5.09985751 4.56633418 -4 2 C-2.68 2 -1.36 2 0 2 C0 1.34 0 0.68 0 0 Z " fill="#AD7C0E" transform="translate(226,147)"/>
<path d="M0 0 C2.56695636 0.39491636 4.67123994 0.83561997 7 2 C7 3.32 7 4.64 7 6 C4.03 5.505 4.03 5.505 1 5 C0.67 6.32 0.34 7.64 0 9 C-1 8 -1 8 -1.125 4.5 C-1 1 -1 1 0 0 Z " fill="#E0AE1E" transform="translate(146,80)"/>
<path d="M0 0 C0.33 0.66 0.66 1.32 1 2 C1.66 2 2.32 2 3 2 C3 2.66 3 3.32 3 4 C3.99 4 4.98 4 6 4 C6.66 5.65 7.32 7.3 8 9 C3.02790438 7.23570801 -1.43438061 4.6060834 -6 2 C-6 1.67 -6 1.34 -6 1 C-4.02 0.67 -2.04 0.34 0 0 Z " fill="#B59406" transform="translate(61,70)"/>
<path d="M0 0 C0 0.99 0 1.98 0 3 C6.27 3 12.54 3 19 3 C19 3.33 19 3.66 19 4 C15.83501384 4.25817244 12.66842809 4.47612313 9.5 4.6875 C8.1696875 4.79674805 8.1696875 4.79674805 6.8125 4.90820312 C0.71069435 5.28956598 -3.4254925 4.53327502 -9 2 C-9 1.67 -9 1.34 -9 1 C-2.25 0 -2.25 0 0 0 Z " fill="#A98B09" transform="translate(93,172)"/>
<path d="M0 0 C0.66 0.66 1.32 1.32 2 2 C0.70902308 4.10459261 -0.58275359 6.20868708 -1.875 8.3125 C-2.42220703 9.20485352 -2.42220703 9.20485352 -2.98046875 10.11523438 C-4.61411539 12.77362299 -6.26895824 15.40343737 -8 18 C-7.8576876 10.31513055 -4.66758993 5.94721641 0 0 Z " fill="#AA8203" transform="translate(79,155)"/>
<path d="M0 0 C0.78239629 2.54278793 0.97915522 4.24492622 0.75 6.9375 C1.09445972 11.15713158 2.85776174 12.28624877 6 15 C7.33333333 16.33333333 8.66666667 17.66666667 10 19 C5.96006722 17.61488019 2.9959904 16.07483225 0 13 C-1.27188676 10.06604608 -2.18786277 7.09008312 -3 4 C-2.34 3.67 -1.68 3.34 -1 3 C-0.67 2.01 -0.34 1.02 0 0 Z " fill="#A58507" transform="translate(45,52)"/>
<path d="M0 0 C7.59 0 15.18 0 23 0 C23 0.33 23 0.66 23 1 C15.74 1.66 8.48 2.32 1 3 C0.67 2.01 0.34 1.02 0 0 Z " fill="#9C7001" transform="translate(124,212)"/>
<path d="M0 0 C3 2 3 2 3.765625 4.42578125 C3.92546875 5.37839844 4.0853125 6.33101562 4.25 7.3125 C4.42015625 8.25738281 4.5903125 9.20226562 4.765625 10.17578125 C5.00260799 13.03142626 4.70467681 15.23666022 4 18 C3.34 17.34 2.68 16.68 2 16 C2 14.33333333 2 12.66666667 2 11 C1.67 10.38125 1.34 9.7625 1 9.125 C-0.43422946 6.07726241 -0.12761959 3.31810935 0 0 Z " fill="#C8A50A" transform="translate(35,144)"/>
<path d="M0 0 C2.1640625 -0.29296875 2.1640625 -0.29296875 4.625 -0.1875 C5.44226563 -0.16042969 6.25953125 -0.13335937 7.1015625 -0.10546875 C8.04128906 -0.05326172 8.04128906 -0.05326172 9 0 C9 0.33 9 0.66 9 1 C12.3 1.33 15.6 1.66 19 2 C19 2.33 19 2.66 19 3 C12.07 3 5.14 3 -2 3 C-1.34 2.01 -0.68 1.02 0 0 Z " fill="#E7EDED" transform="translate(147,113)"/>
<path d="M0 0 C3.73487777 0.4979837 5.81237635 0.87491756 9 3 C8.67 3.66 8.34 4.32 8 5 C5.49609375 5.4140625 5.49609375 5.4140625 2.4375 5.625 C1.42558594 5.69976562 0.41367188 5.77453125 -0.62890625 5.8515625 C-1.41136719 5.90054688 -2.19382812 5.94953125 -3 6 C-2.67 5.01 -2.34 4.02 -2 3 C-1.01 3 -0.02 3 1 3 C0.67 2.01 0.34 1.02 0 0 Z " fill="#E3B91D" transform="translate(108,79)"/>
<path d="M0 0 C0.66 0 1.32 0 2 0 C2.70703125 2.234375 2.70703125 2.234375 3 5 C1.63671875 7.203125 1.63671875 7.203125 -0.3125 9.25 C-1.26576172 10.27867188 -1.26576172 10.27867188 -2.23828125 11.328125 C-4 13 -4 13 -6 14 C-6.33 13.01 -6.66 12.02 -7 11 C-6.34 10.34 -5.68 9.68 -5 9 C-4.01 9 -3.02 9 -2 9 C-1.34 6.03 -0.68 3.06 0 0 Z " fill="#E0B619" transform="translate(161,54)"/>
<path d="M0 0 C4.46182436 1.31074365 7.99618757 3.07066011 11.875 5.625 C12.84179688 6.25664062 13.80859375 6.88828125 14.8046875 7.5390625 C15.52914062 8.02117188 16.25359375 8.50328125 17 9 C16.01 9.66 15.02 10.32 14 11 C13.67 10.01 13.34 9.02 13 8 C10.36 8 7.72 8 5 8 C5.33 6.68 5.66 5.36 6 4 C4.02 3.34 2.04 2.68 0 2 C0 1.34 0 0.68 0 0 Z " fill="#EBD43E" transform="translate(172,19)"/>
<path d="M0 0 C5.53846154 0.61538462 5.53846154 0.61538462 7.875 2.5625 C8.431875 3.2740625 8.431875 3.2740625 9 4 C8.67 4.99 8.34 5.98 8 7 C6.35 6.67 4.7 6.34 3 6 C2.67 5.01 2.34 4.02 2 3 C1.01 3 0.02 3 -1 3 C-0.67 2.01 -0.34 1.02 0 0 Z " fill="#FFF13B" transform="translate(179,26)"/>
<path d="M0 0 C5.52706913 0.72724594 10.69960141 2.33445973 16 4 C14.109375 5.05078125 14.109375 5.05078125 12 6 C10.64791086 5.37224433 9.31836295 4.69580267 8 4 C5.33692572 3.52371941 2.69546448 3.26954645 0 3 C0 2.01 0 1.02 0 0 Z " fill="#E9C011" transform="translate(146,19)"/>
<path d="M0 0 C1.875 0.25 1.875 0.25 4 1 C5.25 3.0625 5.25 3.0625 6 5 C5.01 5 4.02 5 3 5 C3 5.66 3 6.32 3 7 C3.99 7.33 4.98 7.66 6 8 C4.02 8 2.04 8 0 8 C-1.125 2.25 -1.125 2.25 0 0 Z " fill="#D5A414" transform="translate(214,107)"/>
<path d="M0 0 C-2.66666667 2 -5.33333333 4 -8 6 C-8 5.34 -8 4.68 -8 4 C-9.98 4.99 -11.96 5.98 -14 7 C-13 5 -12 3 -11 1 C-7.29882394 0.15882362 -3.78728969 -0.11139087 0 0 Z " fill="#F9D12D" transform="translate(100,23)"/>
<path d="M0 0 C2.375 0.3125 2.375 0.3125 5 1 C5.66 1.99 6.32 2.98 7 4 C8.2375 4.495 8.2375 4.495 9.5 5 C12 6 12 6 14 9 C7.59743041 8.63062099 7.59743041 8.63062099 4.75 5.625 C4.1725 4.75875 3.595 3.8925 3 3 C2.01769502 1.9826127 1.02530403 0.97403883 0 0 Z " fill="#FAD51E" transform="translate(177,30)"/>
<path d="M0 0 C4.92127034 -0.16682272 8.50343896 -0.24828052 13 2 C8.26221957 4.36889021 6.36029082 5.04875255 1 4 C0.67 2.68 0.34 1.36 0 0 Z " fill="#F5E54C" transform="translate(159,16)"/>
<path d="M0 0 C0.33 0.66 0.66 1.32 1 2 C0.01 3.485 0.01 3.485 -1 5 C-0.67 5.66 -0.34 6.32 0 7 C-1.32 7.33 -2.64 7.66 -4 8 C-4 7.34 -4 6.68 -4 6 C-4.66 6 -5.32 6 -6 6 C-6 6.66 -6 7.32 -6 8 C-7.32 8.33 -8.64 8.66 -10 9 C-8.77946141 5.33838422 -7.63217696 4.83729526 -4.4375 2.8125 C-3.61121094 2.28269531 -2.78492187 1.75289062 -1.93359375 1.20703125 C-1.29550781 0.80871094 -0.65742187 0.41039063 0 0 Z " fill="#ECD748" transform="translate(74,25)"/>
<path d="M0 0 C2.9156164 3.54039134 5.50127818 7.1626772 8 11 C7.34 11.66 6.68 12.32 6 13 C1.90050429 8.69027374 0.36881356 6.14689273 0 0 Z " fill="#52450D" transform="translate(55,124)"/>
<path d="M0 0 C-2.62424658 1.74949772 -4.55727216 2.65389981 -7.5 3.625 C-8.66015625 4.01558594 -8.66015625 4.01558594 -9.84375 4.4140625 C-12 5 -12 5 -15 5 C-14.67 4.01 -14.34 3.02 -14 2 C-9.24983365 -0.2012966 -5.11918146 -0.1765235 0 0 Z " fill="#3C3B06" transform="translate(232,101)"/>
<path d="M0 0 C0.99 0 1.98 0 3 0 C2.67 0.99 2.34 1.98 2 3 C-3.82544138 5.80869495 -8.58939027 6.40066311 -15 6 C-15 5.67 -15 5.34 -15 5 C-13.989375 4.896875 -12.97875 4.79375 -11.9375 4.6875 C-7.91985926 3.98600717 -3.00565609 3.00565609 0 0 Z " fill="#E0B422" transform="translate(96,80)"/>
<path d="M0 0 C1.32 0.99 2.64 1.98 4 3 C3.67 4.32 3.34 5.64 3 7 C0 7 0 7 -1.5 5.625 C-1.995 5.08875 -2.49 4.5525 -3 4 C-3.99 3.34 -4.98 2.68 -6 2 C-3.03 2.495 -3.03 2.495 0 3 C0 2.01 0 1.02 0 0 Z " fill="#DBB103" transform="translate(153,83)"/>
<path d="M0 0 C1.32 0 2.64 0 4 0 C4.66 1.32 5.32 2.64 6 4 C5.34 4.66 4.68 5.32 4 6 C2.68 6 1.36 6 0 6 C-0.38218767 4.34385343 -0.71395102 2.67542976 -1 1 C-0.67 0.67 -0.34 0.34 0 0 Z " fill="#FCD52D" transform="translate(39,64)"/>
<path d="M0 0 C1.32 0.33 2.64 0.66 4 1 C3.67 2.65 3.34 4.3 3 6 C2.01 5.67 1.02 5.34 0 5 C-2.19038423 6.37168238 -2.19038423 6.37168238 -4 8 C-2.87548273 5.0280615 -1.77706209 2.66559313 0 0 Z " fill="#363124" transform="translate(38,52)"/>
<path d="M0 0 C6.11774896 -0.49940808 9.02495953 0.75099398 14 4 C10.30962722 5.37095624 8.29116165 4.60010967 4.75 3.0625 C3.85796875 2.68222656 2.9659375 2.30195313 2.046875 1.91015625 C1.37140625 1.60980469 0.6959375 1.30945313 0 1 C0 0.67 0 0.34 0 0 Z " fill="#6D540E" transform="translate(92,209)"/>
<path d="M0 0 C6.625 -0.25 6.625 -0.25 10 2 C9 3 9 3 6.71484375 3.09765625 C5.34005859 3.08025391 5.34005859 3.08025391 3.9375 3.0625 C3.01839844 3.05347656 2.09929687 3.04445313 1.15234375 3.03515625 C0.44207031 3.02355469 -0.26820312 3.01195313 -1 3 C-0.67 2.01 -0.34 1.02 0 0 Z " fill="#E9F6EE" transform="translate(122,93)"/>
<path d="M0 0 C2.80722691 4.21084037 1.94537893 6.11554218 1 11 C0.01 11.495 0.01 11.495 -1 12 C-1 10.68 -1 9.36 -1 8 C-1.66 8 -2.32 8 -3 8 C-1.125 2.25 -1.125 2.25 0 0 Z " fill="#EABF1C" transform="translate(35,68)"/>
<path d="M0 0 C0.99 0.66 1.98 1.32 3 2 C3 2.66 3 3.32 3 4 C1.52999567 5.27400375 0.05484219 6.5435008 -1.46484375 7.7578125 C-3.09066342 9.07336124 -4.56202021 10.48213245 -6 12 C-6.99 11.34 -7.98 10.68 -9 10 C-7.68 10 -6.36 10 -5 10 C-4.34 8.35 -3.68 6.7 -3 5 C-2.34 5 -1.68 5 -1 5 C-0.67 3.35 -0.34 1.7 0 0 Z " fill="#AA8818" transform="translate(194,32)"/>
<path d="M0 0 C-2.01380071 2.7245539 -3.06434874 3.01149085 -6.5 3.625 C-8.2325 3.810625 -8.2325 3.810625 -10 4 C-10.99 4.33 -11.98 4.66 -13 5 C-12.67 4.01 -12.34 3.02 -12 2 C-7.92532275 0.51117562 -4.33458585 -0.26270217 0 0 Z " fill="#BB8A22" transform="translate(232,103)"/>
<path d="M0 0 C0 0.66 0 1.32 0 2 C0.66 2.33 1.32 2.66 2 3 C0.35 4.32 -1.3 5.64 -3 7 C-3 6.34 -3 5.68 -3 5 C-3.99 5 -4.98 5 -6 5 C-5.6875 3.0625 -5.6875 3.0625 -5 1 C-2 0 -2 0 0 0 Z " fill="#FDE526" transform="translate(64,40)"/>
<path d="M0 0 C1.65 0 3.3 0 5 0 C4.01 0.33 3.02 0.66 2 1 C2 1.66 2 2.32 2 3 C-1.50776784 4.60355101 -4.14354879 5.22036864 -8 5 C-7.67 4.01 -7.34 3.02 -7 2 C-4.69 2 -2.38 2 0 2 C0 1.34 0 0.68 0 0 Z " fill="#FDE143" transform="translate(106,18)"/>
<path d="M0 0 C-0.33 1.65 -0.66 3.3 -1 5 C-3.64 5 -6.28 5 -9 5 C-9 4.34 -9 3.68 -9 3 C-2.25 0 -2.25 0 0 0 Z " fill="#E9DC64" transform="translate(97,14)"/>
<path d="M0 0 C0 0.99 0 1.98 0 3 C-3.30181761 5.83012938 -4.96683095 7.07653104 -9.375 6.75 C-10.24125 6.5025 -11.1075 6.255 -12 6 C-8.78447861 3.85631908 -5.5589943 2.48830671 -2 1 C-1.34 0.67 -0.68 0.34 0 0 Z " fill="#978003" transform="translate(200,134)"/>
<path d="M0 0 C0.33 0 0.66 0 1 0 C1.3125 3.3125 1.3125 3.3125 1 7 C-1.39740918 8.95578117 -2.87586608 10 -6 10 C-5.6875 8.0625 -5.6875 8.0625 -5 6 C-4.01 5.67 -3.02 5.34 -2 5 C-0.78130071 2.49552484 -0.78130071 2.49552484 0 0 Z " fill="#D59D05" transform="translate(221,95)"/>
<path d="M0 0 C2.31 1.98 4.62 3.96 7 6 C6.34 7.65 5.68 9.3 5 11 C3 7.25 3 7.25 3 5 C2.34 5 1.68 5 1 5 C0.67 3.35 0.34 1.7 0 0 Z " fill="#F1C92D" transform="translate(207,46)"/>
<path d="M0 0 C0.66 1.32 1.32 2.64 2 4 C0.25 5.5625 0.25 5.5625 -2 7 C-3.32 6.67 -4.64 6.34 -6 6 C-4.02 4.02 -2.04 2.04 0 0 Z " fill="#DEC638" transform="translate(61,34)"/>
<path d="M0 0 C-1.45264038 0.8638129 -2.9123163 1.71580454 -4.375 2.5625 C-5.59316406 3.27599609 -5.59316406 3.27599609 -6.8359375 4.00390625 C-7.55007812 4.33261719 -8.26421875 4.66132813 -9 5 C-9.66 4.67 -10.32 4.34 -11 4 C-10.375 2.0625 -10.375 2.0625 -9 0 C-5.41410857 -0.99184231 -3.55287397 -1.18429132 0 0 Z " fill="#7E5C07" transform="translate(185,202)"/>
<path d="M0 0 C0.33 0 0.66 0 1 0 C1.98248524 4.0527516 2.08159574 7.83861737 2 12 C1.01 11.67 0.02 11.34 -1 11 C-2.89463561 7.21072879 -1.24428677 3.80605364 0 0 Z " fill="#D9B73B" transform="translate(32,137)"/>
<path d="M0 0 C1.32 0 2.64 0 4 0 C4 2.97 4 5.94 4 9 C2.02 9 0.04 9 -2 9 C-1.01 8.67 -0.02 8.34 1 8 C1 6.68 1 5.36 1 4 C1.66 4 2.32 4 3 4 C3 3.01 3 2.02 3 1 C2.01 0.67 1.02 0.34 0 0 Z " fill="#9D6D16" transform="translate(229,102)"/>
<path d="M0 0 C2.64 0.33 5.28 0.66 8 1 C8 1.66 8 2.32 8 3 C8.66 3 9.32 3 10 3 C10.33 4.32 10.66 5.64 11 7 C7.22272911 5.18690997 3.62730178 3.0926741 0 1 C0 0.67 0 0.34 0 0 Z " fill="#B09004" transform="translate(69,79)"/>
<path d="M0 0 C0.66 0 1.32 0 2 0 C1.3125 2.4375 1.3125 2.4375 0 5 C-2.625 5.8125 -2.625 5.8125 -5 6 C-5 4.68 -5 3.36 -5 2 C-3.35 2 -1.7 2 0 2 C0 1.34 0 0.68 0 0 Z " fill="#FCEA4E" transform="translate(68,31)"/>
<path d="M0 0 C3.465 1.485 3.465 1.485 7 3 C7 3.99 7 4.98 7 6 C4.69 5.67 2.38 5.34 0 5 C0 3.35 0 1.7 0 0 Z " fill="#FFF350" transform="translate(171,20)"/>
<path d="M0 0 C4.95 0.33 9.9 0.66 15 1 C15 1.66 15 2.32 15 3 C15.66 3.33 16.32 3.66 17 4 C11.31900211 3.0787571 5.66064984 2.03745006 0 1 C0 0.67 0 0.34 0 0 Z " fill="#FBDC39" transform="translate(139,17)"/>
<path d="M0 0 C2.64 0 5.28 0 8 0 C7.67 0.99 7.34 1.98 7 3 C4.69 3 2.38 3 0 3 C0 2.01 0 1.02 0 0 Z " fill="#FFFC82" transform="translate(128,12)"/>
<path d="M0 0 C-4.62197306 2.21854707 -7.76824163 3.38281159 -13 3 C-9.54666565 -0.45333435 -4.63654999 -1.85462 0 0 Z " fill="#2F2D0D" transform="translate(164,215)"/>
<path d="M0 0 C0.33 0 0.66 0 1 0 C1 2.97 1 5.94 1 9 C1.66 9 2.32 9 3 9 C2.67 10.98 2.34 12.96 2 15 C1.34 14.67 0.68 14.34 0 14 C0 9.38 0 4.76 0 0 Z " fill="#CF9722" transform="translate(225,131)"/>
<path d="M0 0 C0.66 0.33 1.32 0.66 2 1 C1.20890398 2.27118864 0.41709922 3.54193623 -0.375 4.8125 C-0.81585938 5.52019531 -1.25671875 6.22789063 -1.7109375 6.95703125 C-2.78188476 8.65432039 -3.88676239 10.33014358 -5 12 C-4.58525633 6.71201818 -3.64775386 3.88309282 0 0 Z " fill="#E0D3B8" transform="translate(60,94)"/>
<path d="M0 0 C2 3 2 3 1.625 5.6875 C1.41875 6.450625 1.2125 7.21375 1 8 C0.34 8 -0.32 8 -1 8 C-1.33 8.66 -1.66 9.32 -2 10 C-2.33 8.35 -2.66 6.7 -3 5 C-2.34 4.67 -1.68 4.34 -1 4 C-0.34786708 1.97536745 -0.34786708 1.97536745 0 0 Z " fill="#F3C033" transform="translate(30,84)"/>
<path d="M0 0 C0.99 0.33 1.98 0.66 3 1 C2.04578192 2.14926266 1.08647955 3.29430541 0.125 4.4375 C-0.40867187 5.07558594 -0.94234375 5.71367188 -1.4921875 6.37109375 C-3 8 -3 8 -5 9 C-3.7508258 5.54074837 -2.32472205 2.85306797 0 0 Z " fill="#EABF19" transform="translate(43,70)"/>
<path d="M0 0 C0 0.66 0 1.32 0 2 C-2.64 2 -5.28 2 -8 2 C-8 1.01 -8 0.02 -8 -1 C-4.37673261 -2.2077558 -3.35853631 -1.54311128 0 0 Z " fill="#9E810E" transform="translate(101,173)"/>
<path d="M0 0 C0.33 0 0.66 0 1 0 C1.08114106 1.77007714 1.13925505 3.54122098 1.1875 5.3125 C1.22230469 6.29863281 1.25710937 7.28476563 1.29296875 8.30078125 C1 11 1 11 -0.51171875 12.85546875 C-1.00285156 13.23316406 -1.49398437 13.61085938 -2 14 C-2.33 13.34 -2.66 12.68 -3 12 C-2.33333333 10.33333333 -1.66666667 8.66666667 -1 7 C-0.6186926 4.67402489 -0.27539746 2.34087842 0 0 Z " fill="#76631A" transform="translate(204,114)"/>
<path d="M0 0 C1.2065625 0.0309375 1.2065625 0.0309375 2.4375 0.0625 C2.1075 1.0525 1.7775 2.0425 1.4375 3.0625 C-1.625 4.25 -1.625 4.25 -4.5625 5.0625 C-3.43829114 0.08386076 -3.43829114 0.08386076 0 0 Z " fill="#DFDFD9" transform="translate(64.5625,93.9375)"/>
<path d="M0 0 C2.97 0.33 5.94 0.66 9 1 C9 1.66 9 2.32 9 3 C9.99 3.33 10.98 3.66 12 4 C9.69 4 7.38 4 5 4 C5 3.34 5 2.68 5 2 C3.35 1.67 1.7 1.34 0 1 C0 0.67 0 0.34 0 0 Z " fill="#F7D624" transform="translate(157,21)"/>
<path d="M0 0 C6.625 0.75 6.625 0.75 10 3 C10 3.66 10 4.32 10 5 C6.08788267 3.84414715 3.1254959 2.64465038 0 0 Z " fill="#8E6614" transform="translate(69,198)"/>
<path d="M0 0 C0.33 0 0.66 0 1 0 C1.66 3.96 2.32 7.92 3 12 C2.01 12.495 2.01 12.495 1 13 C-0.00496852 9.98509443 -0.10335303 7.95818308 -0.0625 4.8125 C-0.05347656 3.91144531 -0.04445312 3.01039062 -0.03515625 2.08203125 C-0.02355469 1.39496094 -0.01195312 0.70789063 0 0 Z " fill="#86711B" transform="translate(53,112)"/>
<path d="M0 0 C3.25427759 0.56108234 4.87964507 1.45557408 7 4 C7 4.33 7 4.66 7 5 C5.35 5 3.7 5 2 5 C1.34 3.35 0.68 1.7 0 0 Z " fill="#E9B604" transform="translate(74,84)"/>
<path d="M0 0 C1.32 0.66 2.64 1.32 4 2 C2.68 3.32 1.36 4.64 0 6 C-0.99 5.67 -1.98 5.34 -3 5 C-1.125 1.125 -1.125 1.125 0 0 Z " fill="#E6B211" transform="translate(151,73)"/>
<path d="M0 0 C0.66 0 1.32 0 2 0 C2 0.66 2 1.32 2 2 C3.32 2.33 4.64 2.66 6 3 C6.12375 3.61875 6.2475 4.2375 6.375 4.875 C6.87197356 7.19120832 6.87197356 7.19120832 9 9 C7.68 9 6.36 9 5 9 C4.67 7.35 4.34 5.7 4 4 C3.01 3.67 2.02 3.34 1 3 C0.67 2.01 0.34 1.02 0 0 Z " fill="#A87F0B" transform="translate(58,185)"/>
<path d="M0 0 C0.66 0 1.32 0 2 0 C0.25 5.75 0.25 5.75 -2 8 C-2.33 6.02 -2.66 4.04 -3 2 C-2.01 2 -1.02 2 0 2 C0 1.34 0 0.68 0 0 Z " fill="#9E7B24" transform="translate(226,147)"/>
<path d="M0 0 C0 0.66 0 1.32 0 2 C-0.99 2.33 -1.98 2.66 -3 3 C-3.33 3.66 -3.66 4.32 -4 5 C-4.99 5 -5.98 5 -7 5 C-7.33 4.01 -7.66 3.02 -8 2 C-5.09399739 0.74335022 -3.20395416 0 0 0 Z " fill="#F0BF26" transform="translate(109,80)"/>
<path d="M0 0 C0.33 0.66 0.66 1.32 1 2 C3.01669827 3.13350534 3.01669827 3.13350534 5 4 C-0.625 5.125 -0.625 5.125 -4 4 C-2.68 2.68 -1.36 1.36 0 0 Z " fill="#D1A213" transform="translate(147,76)"/>
<path d="M0 0 C0 0.99 0 1.98 0 3 C-2.9826906 4.52448631 -5.818202 5.93940067 -9 7 C-9 6.34 -9 5.68 -9 5 C-6.03 3.35 -3.06 1.7 0 0 Z " fill="#E1CC52" transform="translate(86,18)"/>
<path d="M0 0 C2.0625 0.4375 2.0625 0.4375 4 1 C2.6875 3 2.6875 3 1 5 C0.01 5 -0.98 5 -2 5 C-1.125 1.125 -1.125 1.125 0 0 Z " fill="#9C7013" transform="translate(191,191)"/>
<path d="M0 0 C4.29 0.66 8.58 1.32 13 2 C13 2.33 13 2.66 13 3 C11.58845901 3.27748242 10.17020201 3.52093516 8.75 3.75 C7.96109375 3.88921875 7.1721875 4.0284375 6.359375 4.171875 C4 4 4 4 0 0 Z " fill="#BA8D01" transform="translate(65,141)"/>
<path d="M0 0 C0.33 0.99 0.66 1.98 1 3 C-1.97 3 -4.94 3 -8 3 C-8 2.34 -8 1.68 -8 1 C-5.07175348 0.02391783 -3.04386724 -0.08226668 0 0 Z " fill="#2C2607" transform="translate(134,137)"/>
<path d="M0 0 C0.66 0 1.32 0 2 0 C2 0.66 2 1.32 2 2 C2.763125 1.938125 3.52625 1.87625 4.3125 1.8125 C7 2 7 2 10 5 C7.03 4.67 4.06 4.34 1 4 C0.67 2.68 0.34 1.36 0 0 Z " fill="#8E750B" transform="translate(217,106)"/>
<path d="M0 0 C2.18975773 3.28463659 2.99806563 6.20696275 4 10 C3.34 10 2.68 10 2 10 C2 9.34 2 8.68 2 8 C1.34 8 0.68 8 0 8 C0 5.36 0 2.72 0 0 Z " fill="#D3B83A" transform="translate(223,68)"/>
<path d="M0 0 C2.02045442 0.60183749 4.02111039 1.27306096 6 2 C6.33 2.66 6.66 3.32 7 4 C5.02 4.33 3.04 4.66 1 5 C0.67 3.35 0.34 1.7 0 0 Z " fill="#D6AD20" transform="translate(53,71)"/>
<path d="M0 0 C0.66 1.32 1.32 2.64 2 4 C-1.4352048 6.29013653 -2.985331 6.17842973 -7 6 C-6.401875 5.7525 -5.80375 5.505 -5.1875 5.25 C-2.71352479 3.83629988 -1.56629745 2.34944617 0 0 Z " fill="#8B6907" transform="translate(175,201)"/>
<path d="M0 0 C2.7972908 2.06756277 3.02692273 3.14440371 3.6875 6.6875 C3.790625 7.780625 3.89375 8.87375 4 10 C3.01 10 2.02 10 1 10 C1.020625 9.0925 1.04125 8.185 1.0625 7.25 C1.0110245 4.57327412 0.7784983 2.53011948 0 0 Z " fill="#CAAD16" transform="translate(36,151)"/>
<path d="M0 0 C0.33 0 0.66 0 1 0 C1.33 2.64 1.66 5.28 2 8 C1.01 8.495 1.01 8.495 0 9 C-0.66 6.69 -1.32 4.38 -2 2 C-1.34 2 -0.68 2 0 2 C0 1.34 0 0.68 0 0 Z " fill="#ECCA4B" transform="translate(30,135)"/>
<path d="M0 0 C-3.6441774 2.4294516 -5.71241272 2.16179575 -10 2 C-9.67 1.34 -9.34 0.68 -9 0 C-5.65506316 -0.99444068 -3.31044803 -1.10348268 0 0 Z " fill="#2C210C" transform="translate(193,136)"/>
<path d="M0 0 C-0.33 1.32 -0.66 2.64 -1 4 C-2.32 4.33 -3.64 4.66 -5 5 C-4.67 4.34 -4.34 3.68 -4 3 C-4.66 2.34 -5.32 1.68 -6 1 C-4 0 -4 0 0 0 Z " fill="#3F3510" transform="translate(198,133)"/>
<path d="M0 0 C1.65 0 3.3 0 5 0 C5 1.32 5 2.64 5 4 C2.03 3.505 2.03 3.505 -1 3 C-0.67 2.01 -0.34 1.02 0 0 Z " fill="#EBB512" transform="translate(148,82)"/>
<path d="M0 0 C1.65 0.33 3.3 0.66 5 1 C5 1.99 5 2.98 5 4 C2.03 3.505 2.03 3.505 -1 3 C-0.67 2.01 -0.34 1.02 0 0 Z " fill="#FFF54C" transform="translate(179,26)"/>
<path d="M0 0 C1.65 0 3.3 0 5 0 C0.25 4.875 0.25 4.875 -2 6 C-1.34 4.02 -0.68 2.04 0 0 Z " fill="#86630B" transform="translate(195,189)"/>
<path d="M0 0 C0.99 0.99 1.98 1.98 3 3 C2.67 3.99 2.34 4.98 2 6 C1.01 5.67 0.02 5.34 -1 5 C-1.33 4.01 -1.66 3.02 -2 2 C-1.34 1.34 -0.68 0.68 0 0 Z " fill="#C5A120" transform="translate(40,160)"/>
<path d="M0 0 C0.33 0.66 0.66 1.32 1 2 C2.98 2 4.96 2 7 2 C5.75 3.5625 5.75 3.5625 4 5 C1.8125 4.6875 1.8125 4.6875 0 4 C0 2.68 0 1.36 0 0 Z " fill="#D3A91D" transform="translate(169,44)"/>
<path d="M0 0 C2 2 2 2 2 5 C0.68 5.33 -0.64 5.66 -2 6 C-2 3 -2 3 0 0 Z " fill="#FACA34" transform="translate(191,40)"/>
<path d="M0 0 C2.475 0.495 2.475 0.495 5 1 C5.33 1.99 5.66 2.98 6 4 C4.35 4 2.7 4 1 4 C0.67 2.68 0.34 1.36 0 0 Z " fill="#F4DF27" transform="translate(187,29)"/>
</svg>
