<?xml version="1.0" encoding="UTF-8"?>
<svg version="1.1" xmlns="http://www.w3.org/2000/svg" width="256" height="256">
<path d="M0 0 C0.75983185 0.00154083 1.5196637 0.00308167 2.30252075 0.00466919 C31.93474074 0.14803515 56.26569162 10.47324202 77.5625 31.375 C78.27535156 32.06335938 78.98820313 32.75171875 79.72265625 33.4609375 C90.6355019 44.75008817 100.15776082 59.25959162 104.5625 74.375 C104.92601562 75.58542969 105.28953125 76.79585938 105.6640625 78.04296875 C109.49790468 91.57174278 110.93587964 104.69008983 110.93310547 118.7121582 C110.93747611 121.17404588 110.97392768 123.63413053 111.01171875 126.09570312 C111.0868172 136.81520179 109.66190234 146.10007824 106.5625 156.375 C106.25127197 157.47465088 105.94004395 158.57430176 105.61938477 159.70727539 C102.54127485 170.36098168 96.93960119 180.34201761 89.32421875 188.40234375 C87.287112 190.68336128 85.61142872 193.10807342 83.875 195.625 C75.30137171 207.48354334 65.45302452 215.58303186 52.5625 222.375 C51.50289062 222.95121094 50.44328125 223.52742187 49.3515625 224.12109375 C34.5303547 231.60636368 18.91008078 232.98863929 2.54516602 233.2331543 C0.35108565 233.30784754 0.35108565 233.30784754 -2.4375 234.375 C-4.28605253 234.22390777 -6.12814751 233.9874772 -7.9609375 233.703125 C-9.05841309 233.53514404 -10.15588867 233.36716309 -11.28662109 233.1940918 C-12.45016113 233.0062915 -13.61370117 232.81849121 -14.8125 232.625 C-16.58681396 232.34039917 -16.58681396 232.34039917 -18.39697266 232.05004883 C-21.74598581 231.50388857 -25.09202018 230.9423465 -28.4375 230.375 C-29.19675781 230.25108887 -29.95601563 230.12717773 -30.73828125 229.99951172 C-49.40809967 226.87338012 -71.73467897 210.32363712 -83.70703125 195.8203125 C-101.56773484 170.58148531 -117.22790244 134.77874933 -112.4375 103.375 C-112.36015625 102.60671875 -112.2828125 101.8384375 -112.203125 101.046875 C-111.87317095 97.92500206 -111.7180167 96.6555167 -109.4375 94.375 C-108.65553112 92.04675409 -108.65553112 92.04675409 -108.02734375 89.30859375 C-99.81638318 56.96833692 -82.37872873 31.79679907 -53.60546875 14.25830078 C-44.64152647 8.95306231 -35.47832414 5.16051895 -25.4375 2.375 C-24.82092529 2.18953613 -24.20435059 2.00407227 -23.5690918 1.81298828 C-15.86062646 -0.24566321 -7.91865401 -0.0240975 0 0 Z " fill="#6C7B3A" transform="translate(128.4375,3.625)"/>
<path d="M0 0 C3.022292 1.88053724 3.57334624 2.54333761 4.8125 5.75 C5.19140625 8.26098633 5.19140625 8.26098633 5.375 11.08203125 C5.44847656 12.12133789 5.52195312 13.16064453 5.59765625 14.23144531 C5.66855469 15.33069336 5.73945313 16.42994141 5.8125 17.5625 C6.56788382 34.51576397 6.56788382 34.51576397 10.8125 50.75 C12.51394165 50.74830811 12.51394165 50.74830811 14.24975586 50.74658203 C18.49390579 50.75027766 22.73693467 50.7932924 26.98071289 50.84765625 C28.81071712 50.86572559 30.64085677 50.87340133 32.47094727 50.87011719 C51.60193117 50.8492603 51.60193117 50.8492603 58.8125 57.75 C59.823125 58.471875 60.83375 59.19375 61.875 59.9375 C64.90174796 64.3311664 64.5059737 68.58323993 63.8125 73.75 C62.625 77.0625 62.625 77.0625 60.8125 79.75 C60.11125 80.801875 59.41 81.85375 58.6875 82.9375 C53.20149134 89.20956363 41.73041236 90.41027712 33.83666992 90.95556641 C29.656253 91.09563278 25.47728031 91.17499367 21.29492188 91.22851562 C19.76254883 91.2681543 19.76254883 91.2681543 18.19921875 91.30859375 C16.82576294 91.32877563 16.82576294 91.32877563 15.42456055 91.34936523 C11.97194436 91.87892343 10.36096832 92.28764198 7.8125 94.75 C7.08848113 98.20976032 7.21194885 101.62685048 7.28125 105.1484375 C7.27798706 106.1755484 7.27472412 107.2026593 7.2713623 108.26089478 C7.25816967 112.66001143 7.30296313 117.05812143 7.34228516 121.45703125 C7.36275194 124.66698483 7.35392854 127.87595841 7.34375 131.0859375 C7.36336792 132.07878754 7.38298584 133.07163757 7.40319824 134.09457397 C7.37710443 141.02570427 7.37710443 141.02570427 4.39990234 144.8449707 C-3.33385584 150.53911253 -12.87971481 150.82397521 -22.1875 149.75 C-26.34430341 147.7086617 -28.31868004 146.02158849 -30.1875 141.75 C-32.2461699 133.44350635 -32.56281212 125.14433145 -32.75 116.625 C-32.32890228 103.86807786 -32.32890228 103.86807786 -35.1875 91.75 C-42.01952677 89.47265774 -49.68853667 89.71420634 -56.8359375 89.609375 C-58.49689453 89.58037109 -58.49689453 89.58037109 -60.19140625 89.55078125 C-62.46205514 89.51657681 -64.73300121 89.49867139 -67.00390625 89.49609375 C-76.26461936 89.28981761 -76.26461936 89.28981761 -79.828125 86.4453125 C-83.69535293 82.02745277 -85.79769529 78.1321399 -86.75 72.3125 C-85.64150282 65.29201785 -81.89931832 59.27143126 -76.18701172 55.00512695 C-68.11475069 49.93803367 -57.22244457 51.73220663 -48.125 52.125 C-46.5762115 52.1833531 -45.02738297 52.24065358 -43.47851562 52.296875 C-39.71427223 52.43578001 -35.9508577 52.58893606 -32.1875 52.75 C-32.17291748 51.8434668 -32.15833496 50.93693359 -32.14331055 50.00292969 C-32.08159112 46.58066369 -32.00732557 43.15911549 -31.92504883 39.73730469 C-31.89216582 38.26735382 -31.86402506 36.79728777 -31.84106445 35.32714844 C-31.4565615 11.34070905 -31.4565615 11.34070905 -24.1875 2.75 C-17.94130424 -2.73908112 -7.60458733 -2.9582327 0 0 Z " fill="#EEEFEB" transform="translate(139.1875,35.25)"/>
<path d="M0 0 C1.08667969 0.69802734 1.08667969 0.69802734 2.1953125 1.41015625 C6.19189328 4.05363457 9.07657463 7.19538308 12.1171875 10.8359375 C14.13325161 13.15315642 16.28394943 15.24909386 18.5 17.375 C29.70526891 28.54228495 35.67732347 42.27958283 40.4375 57.125 C40.82627319 58.33337524 40.82627319 58.33337524 41.22290039 59.56616211 C42.50207645 63.73589816 43 66.49255334 43 71 C39.04 71.66 35.08 72.32 31 73 C30.67 67.72 30.34 62.44 30 57 C30.66 57.66 31.32 58.32 32 59 C32.66 55.7 33.32 52.4 34 49 C33.34 49 32.68 49 32 49 C31.67 47.35 31.34 45.7 31 44 C30.34 44.66 29.68 45.32 29 46 C29.33 43.69 29.66 41.38 30 39 C29.34 39 28.68 39 28 39 C27.67 38.01 27.34 37.02 27 36 C26.34 36 25.68 36 25 36 C24.15885829 34.56705502 23.32734313 33.12845595 22.5 31.6875 C22.0359375 30.88699219 21.571875 30.08648437 21.09375 29.26171875 C20 27 20 27 20 24 C19.34 23.67 18.68 23.34 18 23 C18.33 23.66 18.66 24.32 19 25 C19.13415472 27.6723621 19.04318541 30.32250488 19 33 C16.47411298 30.63707344 15.11179163 29.33537489 14 26 C12.36497064 24.41441619 12.36497064 24.41441619 10.4375 22.9375 C8.49609375 21.40234375 8.49609375 21.40234375 7 20 C7 19.34 7 18.68 7 18 C5.42412109 18.10828125 5.42412109 18.10828125 3.81640625 18.21875 C-3.46837513 18.70526933 -10.69451255 19.13045513 -18 19 C-19.60624751 23.52961799 -21.01308464 27.86780197 -21.75 32.625 C-22.86880849 37.87973166 -25.75646708 40.85236976 -30 44 C-32.06933571 45.12601691 -34.11310141 46.10797561 -36.30078125 46.98046875 C-38.4832741 48.28996446 -39.05448408 49.68180613 -40 52 C-40.625 49.625 -40.625 49.625 -41 47 C-40.34 46.34 -39.68 45.68 -39 45 C-39.66 45 -40.32 45 -41 45 C-41.33 47.31 -41.66 49.62 -42 52 C-42.33 52 -42.66 52 -43 52 C-46.25951416 26.16612722 -46.25951416 26.16612722 -46.69140625 14.79296875 C-47.01008123 11.90875849 -47.22200209 10.29335963 -49 8 C-55.94069996 4.85873493 -64.25057641 4.92873612 -71.5 7 C-78.07272301 12.25817841 -79.84309684 18.9572036 -81 27 C-81.31961088 30.85234539 -81.45752615 34.69895038 -81.5625 38.5625 C-81.77557046 45.4306223 -82.14822971 52.17879827 -83 59 C-91.39828492 60.17882176 -99.5115643 59.84958009 -107.94189453 59.23071289 C-115.14877313 58.7802031 -121.17192018 59.72397339 -128 62 C-128 61.34 -128 60.68 -128 60 C-125.36 59.01 -122.72 58.02 -120 57 C-120.33 56.01 -120.66 55.02 -121 54 C-124.50294871 52.28432339 -124.50294871 52.28432339 -128 51 C-127.67 50.34 -127.34 49.68 -127 49 C-125.35 49 -123.7 49 -122 49 C-123.32 48.34 -124.64 47.68 -126 47 C-126 46.34 -126 45.68 -126 45 C-128.31 44.34 -130.62 43.68 -133 43 C-133 42.34 -133 41.68 -133 41 C-133.99 41.495 -133.99 41.495 -135 42 C-134.34 43.32 -133.68 44.64 -133 46 C-133.59167969 45.77183594 -134.18335938 45.54367188 -134.79296875 45.30859375 C-135.97826172 44.87740234 -135.97826172 44.87740234 -137.1875 44.4375 C-138.35345703 44.00244141 -138.35345703 44.00244141 -139.54296875 43.55859375 C-142.48026769 42.89081355 -144.14348854 43.05539844 -147 44 C-149.17957981 45.59823264 -149.17957981 45.59823264 -151.125 47.5625 C-154.68008048 51 -154.68008048 51 -158 51 C-157.95359375 51.81984375 -157.9071875 52.6396875 -157.859375 53.484375 C-157.82328125 54.56203125 -157.7871875 55.6396875 -157.75 56.75 C-157.70359375 57.81734375 -157.6571875 58.8846875 -157.609375 59.984375 C-158 63 -158 63 -159.890625 65.390625 C-162 67 -162 67 -164 67 C-163.58009091 55.03259105 -157.85181358 44.32335765 -152.4375 33.875 C-152.07398438 33.16472656 -151.71046875 32.45445313 -151.3359375 31.72265625 C-149.04948916 27.43659 -146.56809711 24.35986432 -143 21 C-141.62765381 19.28522577 -140.27375122 17.55554831 -138.9375 15.8125 C-123.44383097 -3.19782418 -98.74921671 -17.158604 -74.27929688 -19.79199219 C-47.1440415 -22.26834583 -22.3852335 -15.21191054 0 0 Z " fill="#849346" transform="translate(190,29)"/>
<path d="M0 0 C0.75983185 0.00154083 1.5196637 0.00308167 2.30252075 0.00466919 C31.93474074 0.14803515 56.26569162 10.47324202 77.5625 31.375 C78.27535156 32.06335938 78.98820313 32.75171875 79.72265625 33.4609375 C90.6355019 44.75008817 100.15776082 59.25959162 104.5625 74.375 C104.92601562 75.58542969 105.28953125 76.79585938 105.6640625 78.04296875 C109.49790468 91.57174278 110.93587964 104.69008983 110.93310547 118.7121582 C110.93747611 121.17404588 110.97392768 123.63413053 111.01171875 126.09570312 C111.0868172 136.81520179 109.66190234 146.10007824 106.5625 156.375 C106.25127197 157.47465088 105.94004395 158.57430176 105.61938477 159.70727539 C102.54127485 170.36098168 96.93960119 180.34201761 89.32421875 188.40234375 C87.287112 190.68336128 85.61142872 193.10807342 83.875 195.625 C75.30137171 207.48354334 65.45302452 215.58303186 52.5625 222.375 C51.50289062 222.95121094 50.44328125 223.52742187 49.3515625 224.12109375 C34.5303547 231.60636368 18.91008078 232.98863929 2.54516602 233.2331543 C0.35108565 233.30784754 0.35108565 233.30784754 -2.4375 234.375 C-4.28605253 234.22390777 -6.12814751 233.9874772 -7.9609375 233.703125 C-9.05841309 233.53514404 -10.15588867 233.36716309 -11.28662109 233.1940918 C-12.45016113 233.0062915 -13.61370117 232.81849121 -14.8125 232.625 C-16.58681396 232.34039917 -16.58681396 232.34039917 -18.39697266 232.05004883 C-21.74598581 231.50388857 -25.09202018 230.9423465 -28.4375 230.375 C-29.19675781 230.25108887 -29.95601563 230.12717773 -30.73828125 229.99951172 C-49.40809967 226.87338012 -71.73467897 210.32363712 -83.70703125 195.8203125 C-101.56773484 170.58148531 -117.22790244 134.77874933 -112.4375 103.375 C-112.36015625 102.60671875 -112.2828125 101.8384375 -112.203125 101.046875 C-111.87317095 97.92500206 -111.7180167 96.6555167 -109.4375 94.375 C-108.65553112 92.04675409 -108.65553112 92.04675409 -108.02734375 89.30859375 C-99.81638318 56.96833692 -82.37872873 31.79679907 -53.60546875 14.25830078 C-44.64152647 8.95306231 -35.47832414 5.16051895 -25.4375 2.375 C-24.82092529 2.18953613 -24.20435059 2.00407227 -23.5690918 1.81298828 C-15.86062646 -0.24566321 -7.91865401 -0.0240975 0 0 Z M-12.65234375 5.55078125 C-36.32082981 7.7656304 -59.32271191 21.26735767 -75.4375 38.375 C-77.95611415 41.42067697 -80.27643807 44.58541452 -82.5625 47.80859375 C-84.4375 50.375 -84.4375 50.375 -85.90844727 51.78149414 C-87.60823538 53.55293227 -88.62553481 55.27193216 -89.77734375 57.4375 C-90.19886719 58.22914551 -90.62039062 59.02079102 -91.0546875 59.83642578 C-91.49039063 60.67415527 -91.92609375 61.51188477 -92.375 62.375 C-92.82230469 63.23206543 -93.26960938 64.08913086 -93.73046875 64.97216797 C-96.80015727 70.94113216 -99.6541401 76.88124383 -101.4375 83.375 C-101.60975098 83.97932861 -101.78200195 84.58365723 -101.95947266 85.20629883 C-108.59732969 111.03365085 -101.37616489 136.1449576 -90.4375 159.375 C-89.94378906 160.4578125 -89.45007813 161.540625 -88.94140625 162.65625 C-84.86161375 170.88847226 -78.65063408 177.68098713 -72.4375 184.375 C-71.92791748 184.93123047 -71.41833496 185.48746094 -70.89331055 186.06054688 C-69.51699597 187.59838452 -69.51699597 187.59838452 -67.4375 187.375 C-67.4375 188.035 -67.4375 188.695 -67.4375 189.375 C-61.96186427 194.67961479 -54.94851367 197.82376878 -48.125 201 C-47.15626953 201.4640625 -46.18753906 201.928125 -45.18945312 202.40625 C-17.97628227 215.25943544 13.29457319 216.63452379 41.77734375 206.48730469 C48.70747504 203.71962603 54.69613585 199.94801858 60.5625 195.375 C61.15337402 194.92044434 61.74424805 194.46588867 62.35302734 193.99755859 C82.63421962 178.16901242 100.47907925 154.31594582 104.5625 128.375 C104.96362796 124.71407267 105.26296695 121.04549748 105.5625 117.375 C105.63662109 116.51310059 105.71074219 115.65120117 105.78710938 114.76318359 C107.46403171 92.24142515 100.52149027 66.33100883 85.640625 48.8359375 C82.72824403 45.56235927 79.67325639 42.46004766 76.5625 39.375 C75.85351562 38.653125 75.14453125 37.93125 74.4140625 37.1875 C72.81303072 35.565494 71.19182084 33.96846782 69.5625 32.375 C68.86382812 31.61316406 68.16515625 30.85132812 67.4453125 30.06640625 C63.72510818 26.59320736 59.6793739 24.00485031 55.375 21.3125 C54.17520508 20.5380957 54.17520508 20.5380957 52.95117188 19.74804688 C33.46673488 7.46267897 9.98600581 3.75408684 -12.65234375 5.55078125 Z " fill="#030403" transform="translate(128.4375,3.625)"/>
<path d="M0 0 C1.75073291 1.60619762 3.36914258 3.26854764 5 5 C3.3125 7.5 3.3125 7.5 1 10 C-1.75 10.3125 -1.75 10.3125 -4 10 C-4.33 9.01 -4.66 8.02 -5 7 C-6.79523383 5.96610143 -6.79523383 5.96610143 -9 5 C-10.76954711 3.86320004 -12.51891375 2.69455075 -14.25 1.5 C-15.14203125 0.8915625 -16.0340625 0.283125 -16.953125 -0.34375 C-17.62859375 -0.8903125 -18.3040625 -1.436875 -19 -2 C-19 -2.66 -19 -3.32 -19 -4 C-19.969375 -3.938125 -20.93875 -3.87625 -21.9375 -3.8125 C-25.78941052 -3.8125 -28.85683621 -4.82757762 -32.44921875 -6.13671875 C-36.42857864 -7.48348527 -40.50673757 -8.39173382 -44.59375 -9.3515625 C-47 -10 -47 -10 -48 -11 C-52.11577589 -11.21789186 -56.23464923 -11.18579188 -60.35571289 -11.18530273 C-62.42550264 -11.18748734 -64.49475793 -11.20563491 -66.56445312 -11.22460938 C-67.86189453 -11.22654297 -69.15933594 -11.22847656 -70.49609375 -11.23046875 C-72.29324829 -11.23663208 -72.29324829 -11.23663208 -74.12670898 -11.24291992 C-77.12990015 -11.3001158 -77.12990015 -11.3001158 -79 -9 C-82.80590132 -7.46300139 -86.64817936 -6.11934689 -90.53515625 -4.80078125 C-91.78167969 -4.37152344 -93.02820313 -3.94226563 -94.3125 -3.5 C-95.50488281 -3.0978125 -96.69726562 -2.695625 -97.92578125 -2.28125 C-100.78582196 -1.08926353 -102.01343097 -0.25718524 -104 2 C-106 3 -108 4 -110 5 C-110.804375 5.66 -111.60875 6.32 -112.4375 7 C-115 9 -115 9 -118.375 10.25 C-122.35579819 11.845751 -124.4433841 14.4715708 -127.09765625 17.7578125 C-129.17926868 20.21129409 -131.45130505 22.31636691 -133.8125 24.5 C-137.91996985 28.51665844 -139.27913138 31.33603228 -140 37 C-143 36 -143 36 -144.75 32.8125 C-146.3769111 29.27955089 -146.06526458 26.7147688 -145 23 C-143.43935225 20.51584631 -141.57978134 18.36927262 -139.625 16.1875 C-139.08262695 15.57293945 -138.54025391 14.95837891 -137.98144531 14.32519531 C-102.24109051 -25.32848896 -43.239817 -31.52565934 0 0 Z " fill="#ADC07B" transform="translate(190,29)"/>
<path d="M0 0 C0.33 0 0.66 0 1 0 C1.46155297 8.15410249 0.40390014 16.40344805 -4.6875 23.0625 C-8.78504771 27.27079224 -13.04448201 27.88600145 -18.734375 28.10546875 C-21.16113478 28.12260688 -23.57508591 28.08944355 -26 28 C-26 28.66 -26 29.32 -26 30 C-26.66 30 -27.32 30 -28 30 C-27.01 32.475 -27.01 32.475 -26 35 C-29.875 31.25 -29.875 31.25 -31 29 C-38.92 28.67 -46.84 28.34 -55 28 C-55.03738281 31.33480469 -55.07476562 34.66960937 -55.11328125 38.10546875 C-55.15950637 41.3390149 -55.21073655 44.57244574 -55.26245117 47.8059082 C-55.29568351 50.0512795 -55.32372069 52.296734 -55.34643555 54.54223633 C-55.38001202 57.77200743 -55.43233073 61.00101727 -55.48828125 64.23046875 C-55.49467117 65.23272995 -55.5010611 66.23499115 -55.50764465 67.2676239 C-55.61430093 72.33581831 -55.73196088 75.87511856 -59 80 C-59.5775 80.86625 -60.155 81.7325 -60.75 82.625 C-63.5247197 85.5538708 -66.27183321 86.55015736 -70 88 C-70.99 88.99 -70.99 88.99 -72 90 C-78.43224957 90.18657077 -85.79526034 90.06223583 -91 86 C-99.70221755 76.79208458 -99.27031701 64.32326096 -99.0703125 52.3515625 C-99.04710938 51.57554687 -99.02390625 50.79953125 -99 50 C-98.34 50 -97.68 50 -97 50 C-96.95512451 50.56396484 -96.91024902 51.12792969 -96.86401367 51.70898438 C-96.65042777 54.30712522 -96.41907848 56.90340346 -96.1875 59.5 C-96.11724609 60.386875 -96.04699219 61.27375 -95.97460938 62.1875 C-95.13448551 72.0445197 -95.13448551 72.0445197 -89.765625 79.9765625 C-82.16327219 82.78986255 -72.36333148 81.7207094 -64.83203125 79.046875 C-62.18548937 77.53456536 -60.85203202 76.50703622 -59 74 C-58.39921224 70.48381109 -58.46690888 66.99323248 -58.49609375 63.43359375 C-58.48667252 62.40315445 -58.47725128 61.37271515 -58.46754456 60.31105042 C-58.4388585 57.01966458 -58.43581833 53.7290009 -58.4375 50.4375 C-58.43389842 47.14253414 -58.42443924 43.84809344 -58.39674377 40.55323792 C-58.37988888 38.50328757 -58.37713131 36.45316375 -58.38975525 34.40318298 C-58.38287186 33.475345 -58.37598846 32.54750702 -58.36889648 31.59155273 C-58.36985825 30.77532944 -58.37082001 29.95910614 -58.37181091 29.1181488 C-57.90650483 26.4673726 -57.11477164 25.62063151 -55 24 C-52.07007777 23.02335926 -50.10953665 22.86302555 -47.0546875 22.82421875 C-32.57982509 22.51708528 -32.57982509 22.51708528 -18.3125 20.25 C-17.63751465 20.10522217 -16.9625293 19.96044434 -16.26708984 19.8112793 C-11.59970917 18.62677733 -9.12197663 16.59396945 -6 13 C-5.46375 12.4225 -4.9275 11.845 -4.375 11.25 C-2.23769147 7.75258605 -1.17749794 3.90829105 0 0 Z " fill="#1F280E" transform="translate(204,103)"/>
<path d="M0 0 C0.495 1.485 0.495 1.485 1 3 C-0.32 3 -1.64 3 -3 3 C-3 3.66 -3 4.32 -3 5 C-4.32 5 -5.64 5 -7 5 C-7 5.66 -7 6.32 -7 7 C4.23513293 5.84089976 4.23513293 5.84089976 14.875 2.3125 C18 1 18 1 20.4375 1.3125 C20.953125 1.539375 21.46875 1.76625 22 2 C18.46403873 5.53596127 13.13646718 6.61448019 8.46484375 8.19921875 C7.21832031 8.62847656 5.97179687 9.05773438 4.6875 9.5 C3.49511719 9.9021875 2.30273438 10.304375 1.07421875 10.71875 C-1.78582196 11.91073647 -3.01343097 12.74281476 -5 15 C-7 16 -9 17 -11 18 C-11.804375 18.66 -12.60875 19.32 -13.4375 20 C-16 22 -16 22 -19.375 23.25 C-23.35579819 24.845751 -25.4433841 27.4715708 -28.09765625 30.7578125 C-30.17926868 33.21129409 -32.45130505 35.31636691 -34.8125 37.5 C-38.91996985 41.51665844 -40.27913138 44.33603228 -41 50 C-44 49 -44 49 -45.75 45.8125 C-47.3769111 42.27955089 -47.06526458 39.7147688 -46 36 C-44.43935225 33.51584631 -42.57978134 31.36927262 -40.625 29.1875 C-40.08262695 28.57293945 -39.54025391 27.95837891 -38.98144531 27.32519531 C-28.39219663 15.57649483 -14.71402267 5.9084806 0 0 Z " fill="#B1BF73" transform="translate(91,16)"/>
<path d="M0 0 C17.34881282 14.33162798 27.61996347 29.86335701 34.4375 51.125 C34.69668213 51.9305835 34.95586426 52.73616699 35.22290039 53.56616211 C36.50207645 57.73589816 37 60.49255334 37 65 C31.06 65.99 31.06 65.99 25 67 C24.67 61.72 24.34 56.44 24 51 C24.66 51.66 25.32 52.32 26 53 C26.66 49.7 27.32 46.4 28 43 C27.34 43 26.68 43 26 43 C25.505 40.525 25.505 40.525 25 38 C24.34 38.66 23.68 39.32 23 40 C23.33 37.69 23.66 35.38 24 33 C23.34 33 22.68 33 22 33 C21.67 32.01 21.34 31.02 21 30 C20.34 30 19.68 30 19 30 C18.15885829 28.56705502 17.32734313 27.12845595 16.5 25.6875 C15.80390625 24.48673828 15.80390625 24.48673828 15.09375 23.26171875 C14 21 14 21 14 18 C13.34 17.67 12.68 17.34 12 17 C12.33 17.66 12.66 18.32 13 19 C13.13415472 21.6723621 13.04318541 24.32250488 13 27 C10.47411298 24.63707344 9.11179163 23.33537489 8 20 C7.319375 19.360625 6.63875 18.72125 5.9375 18.0625 C4 16 4 16 4 12 C3.34 12 2.68 12 2 12 C1.67 10.35 1.34 8.7 1 7 C-1.31 7.66 -3.62 8.32 -6 9 C-5.52797514 4.75177626 -3.03344482 2.80010291 0 0 Z " fill="#A9AC6B" transform="translate(196,35)"/>
<path d="M0 0 C2.1828803 1.01348014 3.95787545 1.96359564 5.78710938 3.54443359 C8.56942446 5.37454861 10.34339072 5.41036989 13.65625 5.4765625 C14.76226562 5.5075 15.86828125 5.5384375 17.0078125 5.5703125 C18.16023438 5.58835937 19.31265625 5.60640625 20.5 5.625 C45.14988553 6.19166404 45.14988553 6.19166404 50 9 C50 10.65 50 12.3 50 14 C49.31550781 13.68289062 48.63101563 13.36578125 47.92578125 13.0390625 C44.60249621 11.85883043 41.70245465 11.58802755 38.1875 11.375 C37.02605469 11.30023438 35.86460938 11.22546875 34.66796875 11.1484375 C33.78753906 11.09945312 32.90710938 11.05046875 32 11 C31.96261719 11.96679688 31.92523438 12.93359375 31.88671875 13.9296875 C31.26794704 26.18379399 29.44189521 35.02930545 22 45 C21.34 44.67 20.68 44.34 20 44 C20.4125 43.34 20.825 42.68 21.25 42 C25.34058971 34.98756049 27.69202908 29.10281261 28.75 21 C28.93755859 19.69482422 28.93755859 19.69482422 29.12890625 18.36328125 C29.43167185 16.24392208 29.71761438 14.12217074 30 12 C29.01 12.495 29.01 12.495 28 13 C25.2113958 12.96211927 22.46820711 12.85708364 19.6875 12.6875 C18.54764648 12.63432617 18.54764648 12.63432617 17.38476562 12.58007812 C12.33337579 12.28603545 8.10885322 11.89842535 4.19921875 8.37890625 C3.45091797 7.47978516 3.45091797 7.47978516 2.6875 6.5625 C1.91986328 5.66724609 1.91986328 5.66724609 1.13671875 4.75390625 C0 3 0 3 0 0 Z " fill="#3C4225" transform="translate(55,118)"/>
<path d="M0 0 C1.5625 1.0625 1.5625 1.0625 3 3 C2.6875 6.6875 2.6875 6.6875 2 10 C2.66 10 3.32 10 4 10 C3.979375 10.99 3.95875 11.98 3.9375 13 C3.9375 18.11755602 4.37458521 23.12375563 6 28 C6.47309876 30.35124386 6.92910078 32.70594658 7.375 35.0625 C8.41309631 40.44043356 9.70530188 45.64135069 11.3828125 50.85546875 C12 53 12 53 12.5 56.8125 C13.03404643 60.217046 14.12818967 62.15159298 16 65 C16 65.66 16 66.32 16 67 C16.66 67 17.32 67 18 67 C18 68.65 18 70.3 18 72 C18.66 72 19.32 72 20 72 C20 72.66 20 73.32 20 74 C16.35913228 72.57165218 15.19913543 71.10913119 13.5625 67.59765625 C13.14427979 66.71287598 12.72605957 65.8280957 12.29516602 64.91650391 C11.86776123 63.97468262 11.44035645 63.03286133 11 62.0625 C10.55648193 61.10263184 10.11296387 60.14276367 9.65600586 59.15380859 C3.78826777 46.32990019 3.78826777 46.32990019 2 40 C1.70480469 38.96230469 1.40960937 37.92460937 1.10546875 36.85546875 C-1.69895467 25.24080189 -1.92204532 12.89438467 -1 1 C-0.67 0.67 -0.34 0.34 0 0 Z " fill="#8F985C" transform="translate(26,99)"/>
<path d="M0 0 C-5.12212838 4.68620256 -9.92832271 6.90887631 -16.5 8.8125 C-17.21148193 9.0189917 -17.92296387 9.2254834 -18.65600586 9.43823242 C-31.69999415 13.00603669 -49.08717151 14.72851364 -61.34375 8.1328125 C-63.11895434 6.91863972 -64.50013151 5.53500527 -66 4 C-64.83597656 4.10066772 -64.83597656 4.10066772 -63.6484375 4.20336914 C-43.31610978 5.87599425 -24.14676875 6.74027252 -4.80810547 -0.56274414 C-3 -1 -3 -1 0 0 Z " fill="#11180F" transform="translate(171,210)"/>
<path d="M0 0 C6.75903595 3.10550301 13.10181792 6.51152143 19.25 10.6875 C19.82258545 11.06769287 20.3951709 11.44788574 20.98510742 11.83959961 C22.578125 12.94921875 22.578125 12.94921875 25 15 C25 18 25 18 23.8125 20.1875 C22 22 22 22 19.3125 22.25 C18.549375 22.1675 17.78625 22.085 17 22 C16.505 20.515 16.505 20.515 16 19 C14.20476617 17.96610143 14.20476617 17.96610143 12 17 C10.23045289 15.86320004 8.48108625 14.69455075 6.75 13.5 C5.85796875 12.8915625 4.9659375 12.283125 4.046875 11.65625 C3.37140625 11.1096875 2.6959375 10.563125 2 10 C2 9.34 2 8.68 2 8 C1.030625 8.061875 0.06125 8.12375 -0.9375 8.1875 C-4.7874546 8.1875 -7.85369415 7.17210074 -11.4453125 5.8671875 C-16.20474457 4.25160047 -21.11440756 3.1655982 -26 2 C-26 1.67 -26 1.34 -26 1 C-23.36 1 -20.72 1 -18 1 C-18 1.66 -18 2.32 -18 3 C-16.205625 2.938125 -16.205625 2.938125 -14.375 2.875 C-10.57670047 2.86148292 -7.55024382 3.57990247 -4 5 C-3.67 4.01 -3.34 3.02 -3 2 C-2.01 1.34 -1.02 0.68 0 0 Z " fill="#BDCB7A" transform="translate(169,17)"/>
<path d="M0 0 C3.875 0.25 3.875 0.25 7.0625 1.875 C12.12774324 4.37276903 17.62430284 2.44843498 22.875 1.25 C23.37 3.725 23.37 3.725 23.875 6.25 C24.535 6.25 25.195 6.25 25.875 6.25 C25.545 7.24 25.215 8.23 24.875 9.25 C24.215 8.92 23.555 8.59 22.875 8.25 C22.875 7.59 22.875 6.93 22.875 6.25 C21.82441406 6.3221875 20.77382812 6.394375 19.69140625 6.46875 C12.40662487 6.95526933 5.18048745 7.38045513 -2.125 7.25 C-3.73124751 11.77961799 -5.13808464 16.11780197 -5.875 20.875 C-6.99380849 26.12973166 -9.88146708 29.10236976 -14.125 32.25 C-16.19433571 33.37601691 -18.23810141 34.35797561 -20.42578125 35.23046875 C-22.6082741 36.53996446 -23.17948408 37.93180613 -24.125 40.25 C-25.04296875 38.14453125 -25.04296875 38.14453125 -25.125 35.25 C-23.21845376 32.7923365 -20.83067614 30.90876458 -18.4375 28.9375 C-10.90243683 22.67982393 -7.39485183 17.00874577 -5.4375 7.3125 C-4.00047276 0.32003782 -4.00047276 0.32003782 0 0 Z " fill="#98A056" transform="translate(174.125,40.75)"/>
<path d="M0 0 C0.33 0 0.66 0 1 0 C1 6.6 1 13.2 1 20 C-7.42246286 21.14851766 -15.49320027 20.85092818 -23.94189453 20.23071289 C-31.14877313 19.7802031 -37.17192018 20.72397339 -44 23 C-44 22.34 -44 21.68 -44 21 C-40.04 19.515 -40.04 19.515 -36 18 C-36.33 17.01 -36.66 16.02 -37 15 C-40.50294871 13.28432339 -40.50294871 13.28432339 -44 12 C-43.67 11.34 -43.34 10.68 -43 10 C-37.49829756 10.39297875 -33.59326525 11.39681917 -28.76171875 14.0625 C-23.76760715 16.72012036 -18.50464692 16.67374585 -13 16 C-10.16561255 14.89859401 -7.62871883 13.61014205 -4.99609375 12.09375 C-3 11 -3 11 -1 11 C-1.020625 9.9275 -1.04125 8.855 -1.0625 7.75 C-1.0142016 4.85209576 -0.86844115 2.71387859 0 0 Z " fill="#697335" transform="translate(106,68)"/>
<path d="M0 0 C0.99 0 1.98 0 3 0 C2.42655063 2.86724686 2.1385485 3.8614515 0 6 C-0.144375 6.66 -0.28875 7.32 -0.4375 8 C-1 10 -1 10 -4 12 C-9.82903287 13.79227819 -15.02345667 14.27463897 -21.09375 14.1953125 C-22.34194519 14.19106766 -22.34194519 14.19106766 -23.61535645 14.18673706 C-26.24372431 14.17564286 -28.8717371 14.15055925 -31.5 14.125 C-33.29426587 14.11495626 -35.08853715 14.10583286 -36.8828125 14.09765625 C-41.25534279 14.07573893 -45.62761143 14.0412849 -50 14 C-49.67 13.01 -49.34 12.02 -49 11 C-46.07007777 10.02335926 -44.10953665 9.86302555 -41.0546875 9.82421875 C-26.57982509 9.51708528 -26.57982509 9.51708528 -12.3125 7.25 C-11.63751465 7.10522217 -10.9625293 6.96044434 -10.26708984 6.8112793 C-5.56665679 5.6183892 -3.27044974 3.45945997 0 0 Z " fill="#3B382D" transform="translate(198,116)"/>
<path d="M0 0 C0.33 0 0.66 0 1 0 C1.46155297 8.15410249 0.40390014 16.40344805 -4.6875 23.0625 C-8.78504771 27.27079224 -13.04448201 27.88600145 -18.734375 28.10546875 C-21.16113478 28.12260688 -23.57508591 28.08944355 -26 28 C-26 28.66 -26 29.32 -26 30 C-26.66 30 -27.32 30 -28 30 C-27.34 31.65 -26.68 33.3 -26 35 C-29.875 31.25 -29.875 31.25 -31 29 C-38.92 28.67 -46.84 28.34 -55 28 C-55.04898438 31.35800781 -55.09796875 34.71601563 -55.1484375 38.17578125 C-55.20242328 41.42249062 -55.25974025 44.66912523 -55.31738281 47.91577148 C-55.35570221 50.17482959 -55.39054981 52.43394932 -55.421875 54.69311523 C-55.46746107 57.93756157 -55.52546638 61.18158248 -55.5859375 64.42578125 C-55.59748871 65.43836502 -55.60903992 66.45094879 -55.62094116 67.49421692 C-55.64081085 68.43496567 -55.66068054 69.37571442 -55.68115234 70.3449707 C-55.69447601 71.17325882 -55.70779968 72.00154694 -55.7215271 72.85493469 C-56 75 -56 75 -58 78 C-58.88385231 74.98323429 -59.09763246 72.36880835 -59.02172852 69.23144531 C-59.00163223 68.29077209 -58.98153595 67.35009888 -58.96083069 66.38092041 C-58.93379562 65.37349792 -58.90676056 64.36607544 -58.87890625 63.328125 C-58.85529526 62.29057068 -58.83168427 61.25301636 -58.80735779 60.184021 C-58.73083034 56.87253771 -58.6467587 53.56129471 -58.5625 50.25 C-58.50926841 48.00391798 -58.45652808 45.75782426 -58.40429688 43.51171875 C-58.27522995 38.00766406 -58.13996973 32.50378763 -58 27 C-54.81129769 25.40564884 -51.37507955 25.94302419 -47.87890625 26.0078125 C-46.20378237 26.0253548 -44.52865173 26.04226052 -42.85351562 26.05859375 C-40.22059187 26.08932542 -37.58801128 26.12454611 -34.95532227 26.17138672 C-20.73981719 26.42182919 -20.73981719 26.42182919 -7 23 C-6.86722656 22.23300781 -6.73445313 21.46601562 -6.59765625 20.67578125 C-5.92250148 17.6530295 -4.69124172 15.5736287 -3 13 C-3.66 12.67 -4.32 12.34 -5 12 C-4.72285156 11.38511719 -4.44570312 10.77023438 -4.16015625 10.13671875 C-3.61681641 8.92435547 -3.61681641 8.92435547 -3.0625 7.6875 C-2.70285156 6.88699219 -2.34320313 6.08648437 -1.97265625 5.26171875 C-0.92153959 2.90510392 -0.92153959 2.90510392 0 0 Z " fill="#474C23" transform="translate(204,103)"/>
<path d="M0 0 C1.32 0.33 2.64 0.66 4 1 C-18.3612207 15.84176351 -47.08326724 16.90541612 -72.94921875 12.7109375 C-77.80904907 11.57842903 -82.41673391 9.96289567 -87 8 C-86.67 7.34 -86.34 6.68 -86 6 C-84.68 6 -83.36 6 -82 6 C-82 6.66 -82 7.32 -82 8 C-80.96875 8.144375 -79.9375 8.28875 -78.875 8.4375 C-74.21817322 9.11349098 -69.72587088 9.79770812 -65.1875 11.0625 C-60.48588665 12.13692367 -55.86297465 12.22139289 -51.0625 12.25 C-49.92494263 12.26365601 -49.92494263 12.26365601 -48.7644043 12.27758789 C-44.41548528 12.40952831 -44.41548528 12.40952831 -41 10 C-38.4609375 9.69140625 -38.4609375 9.69140625 -35.375 9.5625 C-30.77021542 9.25514847 -27.14904707 8.56804104 -22.93359375 6.75390625 C-20.76548464 5.9085627 -18.65634345 5.4517136 -16.375 5 C-13.38500266 4.39994908 -11.57755771 3.77635408 -8.8125 2.3125 C-5.39925695 0.71965324 -3.58359502 1.0614394 0 2 C0 1.34 0 0.68 0 0 Z " fill="#47542A" transform="translate(179,202)"/>
<path d="M0 0 C3.62459342 3.62459342 4.54331503 9.01993864 6.125 13.8125 C6.68380859 15.4531543 6.68380859 15.4531543 7.25390625 17.12695312 C7.60582031 18.18462891 7.95773438 19.24230469 8.3203125 20.33203125 C8.64273926 21.29858643 8.96516602 22.2651416 9.29736328 23.26098633 C10 26 10 26 10 31 C6.04 31.66 2.08 32.32 -2 33 C-2.33 27.72 -2.66 22.44 -3 17 C-2.34 17.66 -1.68 18.32 -1 19 C-0.34 15.7 0.32 12.4 1 9 C0.34 9 -0.32 9 -1 9 C-1.33 7.02 -1.66 5.04 -2 3 C-1.34 3 -0.68 3 0 3 C0 2.01 0 1.02 0 0 Z " fill="#A1A35E" transform="translate(223,69)"/>
<path d="M0 0 C0.66 0 1.32 0 2 0 C4 4 6 8 8 12 C6.35 12 4.7 12 3 12 C2.74089844 12.59296875 2.48179688 13.1859375 2.21484375 13.796875 C0.91255529 16.15858141 -0.39298478 17.50886446 -2.4375 19.25 C-3.03433594 19.77078125 -3.63117187 20.2915625 -4.24609375 20.828125 C-6 22 -6 22 -9 22 C-8.95359375 22.81984375 -8.9071875 23.6396875 -8.859375 24.484375 C-8.82328125 25.56203125 -8.7871875 26.6396875 -8.75 27.75 C-8.70359375 28.81734375 -8.6571875 29.8846875 -8.609375 30.984375 C-9 34 -9 34 -10.890625 36.390625 C-13 38 -13 38 -15 38 C-14.50970057 24.02646629 -7.08579257 11.67177507 0 0 Z " fill="#949B57" transform="translate(41,58)"/>
<path d="M0 0 C0 0.66 0 1.32 0 2 C-0.6391333 2.01981934 -1.2782666 2.03963867 -1.93676758 2.06005859 C-4.89568633 2.15663497 -7.85402259 2.26576391 -10.8125 2.375 C-11.81732422 2.4059375 -12.82214844 2.436875 -13.85742188 2.46875 C-23.58122325 2.84394491 -32.05890655 4.09843195 -41 8 C-46.32788294 9.39173865 -51.47332787 10.29087748 -57 10 C-56.67 9.01 -56.34 8.02 -56 7 C-54.68 7 -53.36 7 -52 7 C-52 6.34 -52 5.68 -52 5 C-50.68 5 -49.36 5 -48 5 C-47.67 4.01 -47.34 3.02 -47 2 C-46.21753906 1.86722656 -45.43507813 1.73445312 -44.62890625 1.59765625 C-43.61699219 1.42105469 -42.60507813 1.24445312 -41.5625 1.0625 C-40.55316406 0.88847656 -39.54382813 0.71445313 -38.50390625 0.53515625 C-36.0712562 0.25248903 -36.0712562 0.25248903 -35 -1 C-33.38837643 -1.15773018 -31.77034774 -1.25104251 -30.15234375 -1.31640625 C-29.15396484 -1.35830078 -28.15558594 -1.40019531 -27.12695312 -1.44335938 C-26.07443359 -1.48267578 -25.02191406 -1.52199219 -23.9375 -1.5625 C-22.91205078 -1.60568359 -21.88660156 -1.64886719 -20.83007812 -1.69335938 C-3.58281957 -2.38854638 -3.58281957 -2.38854638 0 0 Z " fill="#CCDA97" transform="translate(140,14)"/>
<path d="M0 0 C0.66 0.33 1.32 0.66 2 1 C-1.74434563 5.41856863 -5.56982273 9.5525252 -9.8125 13.5 C-13.91996985 17.51665844 -15.27913138 20.33603228 -16 26 C-19 25 -19 25 -20.75 21.8125 C-22.37044023 18.29360283 -22.02223876 15.70503731 -21 12 C-18.93359375 9.0078125 -18.93359375 9.0078125 -16.4375 6.125 C-15.61121094 5.15820312 -14.78492188 4.19140625 -13.93359375 3.1953125 C-13.29550781 2.47085938 -12.65742187 1.74640625 -12 1 C-9.525 1.99 -9.525 1.99 -7 3 C-6.67 2.34 -6.34 1.68 -6 1 C-4.7934375 1.0309375 -4.7934375 1.0309375 -3.5625 1.0625 C-1.06645115 1.29633621 -1.06645115 1.29633621 0 0 Z M-10 3 C-9 5 -9 5 -9 5 Z " fill="#A6BA69" transform="translate(66,40)"/>
<path d="M0 0 C0.33 0 0.66 0 1 0 C1 7.59 1 15.18 1 23 C0.67 23 0.34 23 0 23 C0 20.36 0 17.72 0 15 C-0.81984375 15.03480469 -1.6396875 15.06960937 -2.484375 15.10546875 C-3.56203125 15.13253906 -4.6396875 15.15960938 -5.75 15.1875 C-6.81734375 15.22230469 -7.8846875 15.25710937 -8.984375 15.29296875 C-12.33624266 14.96733394 -13.67946555 14.40978578 -16 12 C-16.25 8.8125 -16.25 8.8125 -16 6 C-10.62819824 3.37124595 -5.95507399 2.3916035 0 2 C0 1.34 0 0.68 0 0 Z " fill="#566237" transform="translate(233,98)"/>
<path d="M0 0 C4.29 0 8.58 0 13 0 C13.0543251 3.02107902 13.09382927 6.04116528 13.125 9.0625 C13.14175781 9.91005859 13.15851563 10.75761719 13.17578125 11.63085938 C13.21596135 16.83418201 12.69745815 21.07469821 11 26 C9.68 25.67 8.36 25.34 7 25 C7 17.74 7 10.48 7 3 C4.69 2.34 2.38 1.68 0 1 C0 0.67 0 0.34 0 0 Z " fill="#91935D" transform="translate(220,113)"/>
<path d="M0 0 C1.05692047 0.00212242 1.05692047 0.00212242 2.13519287 0.00428772 C4.37663084 0.00986692 6.61796743 0.02241552 8.859375 0.03515625 C10.38281105 0.04017394 11.90624868 0.04473638 13.4296875 0.04882812 C17.15628272 0.05982951 20.88281896 0.07707979 24.609375 0.09765625 C24.279375 1.08765625 23.949375 2.07765625 23.609375 3.09765625 C13.55487562 5.27580699 -1.75635421 7.91479164 -11.390625 3.09765625 C-11.390625 2.43765625 -11.390625 1.77765625 -11.390625 1.09765625 C-7.59524869 -0.12108125 -3.96270879 -0.01572503 0 0 Z " fill="#0E100C" transform="translate(125.390625,216.90234375)"/>
<path d="M0 0 C0.66 0 1.32 0 2 0 C2.04487549 0.56396484 2.08975098 1.12792969 2.13598633 1.70898438 C2.34957223 4.30712522 2.58092152 6.90340346 2.8125 9.5 C2.88275391 10.386875 2.95300781 11.27375 3.02539062 12.1875 C3.55722237 17.97382943 4.75843286 22.64024235 7 28 C7.33 29.134375 7.66 30.26875 8 31.4375 C8.33 32.283125 8.66 33.12875 9 34 C11.88265149 34.96088383 13.67662271 35.11670941 16.66796875 35.09765625 C17.56064453 35.09443359 18.45332031 35.09121094 19.37304688 35.08789062 C20.76620117 35.07532227 20.76620117 35.07532227 22.1875 35.0625 C23.12787109 35.05798828 24.06824219 35.05347656 25.03710938 35.04882812 C27.35813712 35.03704626 29.67903644 35.02059558 32 35 C27.89490613 39.89247686 27.89490613 39.89247686 23.87890625 40.375 C10.72952786 38.88814449 10.72952786 38.88814449 6.38671875 34.29296875 C-1.13978392 24.61090446 -0.34974203 11.69692774 0 0 Z " fill="#424C1F" transform="translate(105,153)"/>
<path d="M0 0 C2.06183633 -0.08150744 4.12461349 -0.1394194 6.1875 -0.1875 C7.33605469 -0.22230469 8.48460938 -0.25710937 9.66796875 -0.29296875 C13.27039199 0.02377421 15.09366839 0.91466602 18 3 C18.33 2.01 18.66 1.02 19 0 C20.12513633 8.01659634 20.09579384 15.92138585 20 24 C19.34 24 18.68 24 18 24 C18.33 31.26 18.66 38.52 19 46 C18.67 46 18.34 46 18 46 C16.66117599 37.39805573 16.65823491 28.71727806 16.44775391 20.03149414 C16.39600655 17.95186764 16.33882893 15.87244067 16.28125 13.79296875 C16.25095703 12.5608667 16.22066406 11.32876465 16.18945312 10.05932617 C16.12897383 6.95860997 16.12897383 6.95860997 15 4 C11.7 3.67 8.4 3.34 5 3 C5 2.34 5 1.68 5 1 C3.35 1.33 1.7 1.66 0 2 C0 1.34 0 0.68 0 0 Z " fill="#5A6731" transform="translate(87,129)"/>
<path d="M0 0 C4.05429356 -0.24822205 6.52388302 -0.2427263 10.1875 1.625 C15.25274324 4.12276903 20.74930284 2.19843498 26 1 C26.33 2.65 26.66 4.3 27 6 C27.66 6 28.32 6 29 6 C28.67 6.99 28.34 7.98 28 9 C27.34 8.67 26.68 8.34 26 8 C26 7.34 26 6.68 26 6 C24.85660156 6.08378906 23.71320313 6.16757812 22.53515625 6.25390625 C21.04428998 6.35704794 19.55340347 6.45989747 18.0625 6.5625 C17.30775391 6.61857422 16.55300781 6.67464844 15.77539062 6.73242188 C13.85254042 6.86176157 11.92610452 6.93516912 10 7 C9.67 6.67 9.34 6.34 9 6 C7.31816052 5.76712992 5.6287584 5.58735834 3.9375 5.4375 C3.01839844 5.35371094 2.09929687 5.26992188 1.15234375 5.18359375 C0.08693359 5.09271484 0.08693359 5.09271484 -1 5 C-0.67 3.35 -0.34 1.7 0 0 Z " fill="#949D51" transform="translate(171,41)"/>
<path d="M0 0 C0.66 0.66 1.32 1.32 2 2 C0.92177933 4.21095812 -0.16237404 6.41867306 -1.25 8.625 C-1.55035156 9.24246094 -1.85070312 9.85992187 -2.16015625 10.49609375 C-4.17042788 14.55940875 -6.41131701 18.2773364 -9 22 C-9.82638376 19.10765685 -10 17.11257569 -10 14 C-10.68707031 14.5775 -11.37414062 15.155 -12.08203125 15.75 C-13.43361328 16.86375 -13.43361328 16.86375 -14.8125 18 C-16.15248047 19.11375 -16.15248047 19.11375 -17.51953125 20.25 C-20 22 -20 22 -23 22 C-22.31292969 21.39671875 -21.62585938 20.7934375 -20.91796875 20.171875 C-20.01691406 19.37265625 -19.11585938 18.5734375 -18.1875 17.75 C-16.84751953 16.56664062 -16.84751953 16.56664062 -15.48046875 15.359375 C-12.99430466 13.13050012 -12.99430466 13.13050012 -11.30078125 10.703125 C-10.87152344 10.14109375 -10.44226563 9.5790625 -10 9 C-9.34 9 -8.68 9 -8 9 C-8 8.34 -8 7.68 -8 7 C-7.34 7 -6.68 7 -6 7 C-6 6.34 -6 5.68 -6 5 C-5.195625 4.731875 -4.39125 4.46375 -3.5625 4.1875 C-2.716875 3.795625 -1.87125 3.40375 -1 3 C-0.67 2.01 -0.34 1.02 0 0 Z " fill="#545830" transform="translate(225,149)"/>
<path d="M0 0 C0.66 0.66 1.32 1.32 2 2 C0.62500127 3.70451912 -0.77579293 5.38825686 -2.1875 7.0625 C-2.96480469 8.00222656 -3.74210937 8.94195312 -4.54296875 9.91015625 C-7 12 -7 12 -9.65234375 11.875 C-11.24674878 11.28074588 -12.82179599 10.63235443 -14.375 9.9375 C-17.66921695 8.76099395 -20.5247192 8.93895877 -24 9 C-24.23074219 9.99 -24.46148437 10.98 -24.69921875 12 C-27.39332407 23.09684696 -30.89219616 31.55404663 -40 39 C-41.485 39.495 -41.485 39.495 -43 40 C-41.50254969 36.40611926 -39.41833251 34.35729536 -36.5625 31.75 C-29.96405025 25.25729464 -28.83465283 19.18239128 -27.4296875 10.22265625 C-27 8 -27 8 -26 7 C-19.03125067 6.4648996 -12.73100067 7.23449163 -6 9 C-5.57074219 8.09507813 -5.57074219 8.09507813 -5.1328125 7.171875 C-3.73467768 4.49131306 -1.93089949 2.31707939 0 0 Z " fill="#46551D" transform="translate(195,33)"/>
<path d="M0 0 C0.66 0.33 1.32 0.66 2 1 C-1.74434563 5.41856863 -5.56982273 9.5525252 -9.8125 13.5 C-13.91996985 17.51665844 -15.27913138 20.33603228 -16 26 C-19 25 -19 25 -20.75 21.8125 C-22.14564736 18.18233214 -22.30617774 15.75526101 -21 12 C-18.4375 9.125 -18.4375 9.125 -16 7 C-16 10.76687864 -16.23537317 11.91190305 -18 15 C-13.86060782 15.43336272 -13.86060782 15.43336272 -11.0546875 12.48046875 C-9.98441203 11.39293078 -8.92482249 10.29479452 -7.875 9.1875 C-7.33746094 8.64029297 -6.79992187 8.09308594 -6.24609375 7.52929688 C-3.90587935 5.1219691 -1.86631585 2.79947377 0 0 Z " fill="#A8B664" transform="translate(66,40)"/>
<path d="M0 0 C1.91829926 3.46670225 2.97892443 7.00968534 4.0625 10.8125 C4.40410156 11.99457031 4.74570312 13.17664063 5.09765625 14.39453125 C6 18 6 18 6.5234375 21.7734375 C7.03213206 25.21754982 8.11056736 27.12477641 10 30 C10 30.66 10 31.32 10 32 C10.66 32 11.32 32 12 32 C12 33.65 12 35.3 12 37 C12.66 37 13.32 37 14 37 C14 37.66 14 38.32 14 39 C10.27910436 37.5589538 9.15146075 36.00135281 7.4921875 32.421875 C7.06292969 31.50792969 6.63367187 30.59398437 6.19140625 29.65234375 C5.75699219 28.69457031 5.32257812 27.73679688 4.875 26.75 C4.43285156 25.80769531 3.99070312 24.86539063 3.53515625 23.89453125 C1.41701634 19.3318915 -0.55736656 14.83039063 -2 10 C-1.67 9.67 -1.34 9.34 -1 9 C-0.76807135 7.48530552 -0.58784762 5.96245438 -0.4375 4.4375 C-0.35371094 3.61121094 -0.26992188 2.78492188 -0.18359375 1.93359375 C-0.12300781 1.29550781 -0.06242187 0.65742188 0 0 Z " fill="#868F5B" transform="translate(32,134)"/>
<path d="M0 0 C12.66970387 6.15034169 12.66970387 6.15034169 18 10 C15 11 15 11 11.5 9.75 C8.54893161 8.2744658 7.17656276 7.2853909 5 5 C4.01 5 3.02 5 2 5 C2 5.99 2 6.98 2 8 C-3.05659918 8.32276165 -6.70269779 7.59028281 -11.4453125 5.8671875 C-16.20474457 4.25160047 -21.11440756 3.1655982 -26 2 C-26 1.67 -26 1.34 -26 1 C-23.36 1 -20.72 1 -18 1 C-18 1.66 -18 2.32 -18 3 C-16.205625 2.938125 -16.205625 2.938125 -14.375 2.875 C-10.57670047 2.86148292 -7.55024382 3.57990247 -4 5 C-3.67 4.01 -3.34 3.02 -3 2 C-2.01 1.34 -1.02 0.68 0 0 Z " fill="#A7B871" transform="translate(169,17)"/>
<path d="M0 0 C2.97 0.495 2.97 0.495 6 1 C6.33 2.32 6.66 3.64 7 5 C7.928125 5.0928125 7.928125 5.0928125 8.875 5.1875 C11 6 11 6 12.25 7.9375 C13.31861153 12.30099708 13.15620933 16.53067741 13 21 C10.47411298 18.63707344 9.11179163 17.33537489 8 14 C7.319375 13.360625 6.63875 12.72125 5.9375 12.0625 C4 10 4 10 4 6 C3.34 6 2.68 6 2 6 C1.34 4.02 0.68 2.04 0 0 Z " fill="#A3B265" transform="translate(196,41)"/>
<path d="M0 0 C0.99 0 1.98 0 3 0 C2.22125478 4.25964254 0.36685922 6.48706455 -2.703125 9.44921875 C-8.52823275 13.38215715 -16.20338764 13.0908908 -23 13 C-23.33 12.34 -23.66 11.68 -24 11 C-23.34 11 -22.68 11 -22 11 C-22 10.34 -22 9.68 -22 9 C-20.83082031 8.76925781 -19.66164062 8.53851563 -18.45703125 8.30078125 C-16.90864561 7.97233581 -15.36047961 7.64285378 -13.8125 7.3125 C-13.04357422 7.16361328 -12.27464844 7.01472656 -11.48242188 6.86132812 C-6.19163419 5.70325872 -3.72185219 4.10288276 0 0 Z " fill="#2C311B" transform="translate(198,116)"/>
<path d="M0 0 C0.97453125 0.00451172 1.9490625 0.00902344 2.953125 0.01367188 C5.34381434 0.02539094 7.7343744 0.04179781 10.125 0.0625 C10.125 0.7225 10.125 1.3825 10.125 2.0625 C7.03893218 2.95627186 4.22719644 3.20980377 1.01953125 3.2734375 C-0.45676758 3.31597656 -0.45676758 3.31597656 -1.96289062 3.359375 C-4.00959431 3.41096173 -6.0564929 3.45537527 -8.10351562 3.4921875 C-13.84440881 3.67147369 -18.66676719 4.32035716 -24.02856445 6.42822266 C-25.875 7.0625 -25.875 7.0625 -28.875 7.0625 C-28.875 6.4025 -28.875 5.7425 -28.875 5.0625 C-27.00199975 4.41088988 -25.1264945 3.76647805 -23.25 3.125 C-22.20585938 2.76535156 -21.16171875 2.40570313 -20.0859375 2.03515625 C-13.34135426 -0.00791094 -6.98760533 -0.06154395 0 0 Z " fill="#B3D094" transform="translate(121.875,9.9375)"/>
<path d="M0 0 C0.33 0 0.66 0 1 0 C1.46155297 8.15410249 0.40390014 16.40344805 -4.6875 23.0625 C-8.78504771 27.27079224 -13.04448201 27.88600145 -18.734375 28.10546875 C-21.16113478 28.12260688 -23.57508591 28.08944355 -26 28 C-26 28.66 -26 29.32 -26 30 C-26.99 30 -27.98 30 -29 30 C-29 29.01 -29 28.02 -29 27 C-28.00033203 26.94392578 -28.00033203 26.94392578 -26.98046875 26.88671875 C-20.01728507 26.39004411 -13.66633432 25.05018792 -7 23 C-6.86722656 22.23300781 -6.73445313 21.46601562 -6.59765625 20.67578125 C-5.92250148 17.6530295 -4.69124172 15.5736287 -3 13 C-3.66 12.67 -4.32 12.34 -5 12 C-4.58427734 11.07767578 -4.58427734 11.07767578 -4.16015625 10.13671875 C-3.79792969 9.32847656 -3.43570313 8.52023438 -3.0625 7.6875 C-2.70285156 6.88699219 -2.34320313 6.08648437 -1.97265625 5.26171875 C-0.92153959 2.90510392 -0.92153959 2.90510392 0 0 Z " fill="#5C7232" transform="translate(204,103)"/>
<path d="M0 0 C2.2102955 1.02620862 4.07317497 2.05716794 6 3.5625 C10.08369814 6.49765804 14.87100352 6.2811968 19.75 6.5625 C20.44738281 6.60568359 21.14476563 6.64886719 21.86328125 6.69335938 C23.57531922 6.79889596 25.28763561 6.8998991 27 7 C26.67 7.99 26.34 8.98 26 10 C9.40415665 10.9063264 9.40415665 10.9063264 3.3828125 6.2890625 C2.23241084 5.21665417 1.11208894 4.11208894 0 3 C0 2.01 0 1.02 0 0 Z " fill="#242C0C" transform="translate(55,118)"/>
<path d="M0 0 C-0.85019455 13.62548638 -0.85019455 13.62548638 -3 19 C-3.99 19.33 -4.98 19.66 -6 20 C-6.05428973 17.77110504 -6.09292338 15.54182529 -6.125 13.3125 C-6.15980469 11.45044922 -6.15980469 11.45044922 -6.1953125 9.55078125 C-6.00896059 6.16290345 -5.58000739 3.97770624 -4 1 C-2 0 -2 0 0 0 Z " fill="#878F46" transform="translate(85,132)"/>
<path d="M0 0 C1.32 0 2.64 0 4 0 C4 0.66 4 1.32 4 2 C5.03125 2.144375 6.0625 2.28875 7.125 2.4375 C11.75654281 3.10982073 16.25494514 3.80393293 20.78515625 4.99609375 C27.30879695 6.45557303 33.90385094 6.46151399 40.5625 6.625 C41.85736328 6.66367188 43.15222656 6.70234375 44.48632812 6.7421875 C47.65741576 6.83579894 50.82850755 6.92153403 54 7 C54 7.33 54 7.66 54 8 C14.22566682 8.52076375 14.22566682 8.52076375 -1 2 C-0.67 1.34 -0.34 0.68 0 0 Z " fill="#3D4926" transform="translate(93,208)"/>
<path d="M0 0 C0.66 0.33 1.32 0.66 2 1 C-2.18908805 10.4851372 -11.72126892 18.1412057 -20 24 C-20.66 24 -21.32 24 -22 24 C-21.00102287 21.00306862 -20.34869747 19.97290587 -18 18 C-17.34 18 -16.68 18 -16 18 C-16 17.34 -16 16.68 -16 16 C-14.53125 14.58984375 -14.53125 14.58984375 -12.5 12.9375 C-7.86316213 9.01274795 -3.93497013 4.61521763 0 0 Z " fill="#4F552B" transform="translate(208,176)"/>
<path d="M0 0 C2.0625 0.4375 2.0625 0.4375 4 1 C3.26394531 1.32613281 2.52789062 1.65226562 1.76953125 1.98828125 C0.30580078 2.64376953 0.30580078 2.64376953 -1.1875 3.3125 C-2.63189453 3.95638672 -2.63189453 3.95638672 -4.10546875 4.61328125 C-8.41830213 6.67948348 -12.16747356 9.05494224 -15.875 12.0625 C-19.51608288 14.85215095 -22.53030055 16.06881262 -27 17 C-27 16.34 -27 15.68 -27 15 C-26.43410156 14.74605469 -25.86820312 14.49210937 -25.28515625 14.23046875 C-24.55167969 13.88628906 -23.81820312 13.54210938 -23.0625 13.1875 C-22.33160156 12.85105469 -21.60070312 12.51460937 -20.84765625 12.16796875 C-18.66970511 11.06399866 -18.66970511 11.06399866 -18 8 C-16.1875 6.90234375 -16.1875 6.90234375 -14 5.9375 C-10.8485304 4.67769923 -10.8485304 4.67769923 -9 2 C-7.1875 1.62109375 -7.1875 1.62109375 -5 1.4375 C-2.21067942 1.37334592 -2.21067942 1.37334592 0 0 Z " fill="#9EAE62" transform="translate(95,23)"/>
<path d="M0 0 C0.66 0 1.32 0 2 0 C2 0.99 2 1.98 2 3 C2.66 3 3.32 3 4 3 C5.69832609 8.83799592 6.25287193 13.93107371 6 20 C5.34 20.33 4.68 20.66 4 21 C3.5196682 19.41701974 3.04078388 17.83360022 2.5625 16.25 C2.29566406 15.36828125 2.02882813 14.4865625 1.75390625 13.578125 C0.3701388 8.84607049 -0.09583483 4.98341121 0 0 Z " fill="#A2AC77" transform="translate(26,123)"/>
<path d="M0 0 C5.50102837 0.41257713 9.76201664 2.54722675 14 6 C14 6.66 14 7.32 14 8 C14.66 8.33 15.32 8.66 16 9 C15.02417969 9.20496094 14.04835938 9.40992187 13.04296875 9.62109375 C11.77066406 9.89050781 10.49835938 10.15992187 9.1875 10.4375 C7.92292969 10.70433594 6.65835938 10.97117187 5.35546875 11.24609375 C2.02954587 11.93427886 2.02954587 11.93427886 -1 13 C-1 12.34 -1 11.68 -1 11 C1.64 10.01 4.28 9.02 7 8 C6.67 7.01 6.34 6.02 6 5 C2.49705129 3.28432339 2.49705129 3.28432339 -1 2 C-0.67 1.34 -0.34 0.68 0 0 Z " fill="#819148" transform="translate(63,78)"/>
<path d="M0 0 C-1.98 0.99 -3.96 1.98 -6 3 C-3.03 3.495 -3.03 3.495 0 4 C-5.4981188 7.66541254 -12.47206957 8.34357529 -19 8 C-18.67 7.01 -18.34 6.02 -18 5 C-16.68 5 -15.36 5 -14 5 C-14 4.34 -14 3.68 -14 3 C-12.68 3 -11.36 3 -10 3 C-9.67 2.01 -9.34 1.02 -9 0 C-5.62182575 -0.84454356 -3.32534757 -1.10844919 0 0 Z " fill="#C4D291" transform="translate(102,16)"/>
<path d="M0 0 C4.29 0 8.58 0 13 0 C13.054138 2.24973447 13.09285491 4.49984383 13.125 6.75 C13.14820313 8.00296875 13.17140625 9.2559375 13.1953125 10.546875 C13 14 13 14 11 18 C11 14.04 11 10.08 11 6 C10.01 5.67 9.02 5.34 8 5 C8 4.34 8 3.68 8 3 C6.865625 2.87625 5.73125 2.7525 4.5625 2.625 C3.386875 2.41875 2.21125 2.2125 1 2 C0.67 1.34 0.34 0.68 0 0 Z " fill="#A4AD69" transform="translate(220,113)"/>
<path d="M0 0 C0.77601562 0.32742187 1.55203125 0.65484375 2.3515625 0.9921875 C7.1038861 2.30492785 11.47388863 2.2158908 16.375 2.125 C17.30183594 2.11597656 18.22867188 2.10695312 19.18359375 2.09765625 C21.45600077 2.07422937 23.7278618 2.04142748 26 2 C21.89490613 6.89247686 21.89490613 6.89247686 17.87890625 7.375 C6.37479754 6.07418205 6.37479754 6.07418205 2 3 C1.34 2.01 0.68 1.02 0 0 Z " fill="#4B5B27" transform="translate(111,186)"/>
<path d="M0 0 C0.33 0 0.66 0 1 0 C1.99 7.92 2.98 15.84 4 24 C4.99 24.33 5.98 24.66 7 25 C7 25.66 7 26.32 7 27 C6.01 27.33 5.02 27.66 4 28 C3.67 30.31 3.34 32.62 3 35 C2.67 35 2.34 35 2 35 C0.00918568 23.26841562 -0.21705681 11.87783126 0 0 Z " fill="#818950" transform="translate(145,46)"/>
<path d="M0 0 C22.59489033 -0.61916858 22.59489033 -0.61916858 33 3 C33 3.33 33 3.66 33 4 C30.58325776 4.02705308 28.1668206 4.04686438 25.75 4.0625 C24.72712891 4.07506836 24.72712891 4.07506836 23.68359375 4.08789062 C20.30657446 4.10428392 17.22708361 4.05628768 14 3 C14 2.34 14 1.68 14 1 C9.38 1 4.76 1 0 1 C0 0.67 0 0.34 0 0 Z " fill="#98B17D" transform="translate(118,9)"/>
<path d="M0 0 C1.14855469 0.47566406 1.14855469 0.47566406 2.3203125 0.9609375 C7.18376053 2.33426784 11.84425471 2.46139853 16.875 2.625 C18.33679688 2.68300781 18.33679688 2.68300781 19.828125 2.7421875 C22.2185672 2.83593033 24.60901244 2.9216383 27 3 C26.67 4.32 26.34 5.64 26 7 C26 6.34 26 5.68 26 5 C25.01 5.495 25.01 5.495 24 6 C21.2113958 5.96211927 18.46820711 5.85708364 15.6875 5.6875 C14.54764648 5.63432617 14.54764648 5.63432617 13.38476562 5.58007812 C9.25783924 5.3398487 5.69360448 5.03044299 2 3 C1.34 2.01 0.68 1.02 0 0 Z " fill="#505E25" transform="translate(59,125)"/>
<path d="M0 0 C0.33 0 0.66 0 1 0 C1 4.62 1 9.24 1 14 C0.01 13.34 -0.98 12.68 -2 12 C-1.67 9.69 -1.34 7.38 -1 5 C-1.66386719 5.13277344 -2.32773438 5.26554687 -3.01171875 5.40234375 C-7.34114583 6.26822917 -11.67057292 7.13411458 -16 8 C-15.67 7.01 -15.34 6.02 -15 5 C-12.890625 4.05078125 -12.890625 4.05078125 -10.25 3.3125 C-9.38890625 3.06113281 -8.5278125 2.80976562 -7.640625 2.55078125 C-5.01182147 2.00246572 -2.67647662 1.89891006 0 2 C0 1.34 0 0.68 0 0 Z " fill="#4B5331" transform="translate(233,98)"/>
<path d="M0 0 C5 2 5 2 10 4 C10 4.66 10 5.32 10 6 C10.66 6 11.32 6 12 6 C12.33 6.99 12.66 7.98 13 9 C17.40688787 10.91939266 17.40688787 10.91939266 22 10 C21.34 11.32 20.68 12.64 20 14 C18.35 14 16.7 14 15 14 C14.67 13.01 14.34 12.02 14 11 C12.20476617 9.96610143 12.20476617 9.96610143 10 9 C8.23045289 7.86320004 6.48108625 6.69455075 4.75 5.5 C3.85796875 4.8915625 2.9659375 4.283125 2.046875 3.65625 C1.37140625 3.1096875 0.6959375 2.563125 0 2 C0 1.34 0 0.68 0 0 Z " fill="#A0B25E" transform="translate(171,25)"/>
<path d="M0 0 C7.92 0 15.84 0 24 0 C24.33 0.66 24.66 1.32 25 2 C16.53438902 3.12298921 8.48799189 2.80542989 0 2 C0 1.34 0 0.68 0 0 Z " fill="#5D6E30" transform="translate(149,131)"/>
<path d="M0 0 C0.66 1.32 1.32 2.64 2 4 C1.34 4.66 0.68 5.32 0 6 C-0.38921131 8.79277311 -0.38921131 8.79277311 -0.5 11.9375 C-0.7785059 17.66775885 -0.7785059 17.66775885 -3 21 C-5.02578132 16.82182603 -5.53937404 13.62320608 -5 9 C-3.55849944 5.85079844 -1.85517553 2.92190146 0 0 Z " fill="#E1E4E2" transform="translate(58,95)"/>
<path d="M0 0 C3.60479946 0.10979085 7.20854679 0.24044045 10.8125 0.375 C12.34874023 0.42140625 12.34874023 0.42140625 13.91601562 0.46875 C14.89892578 0.50742188 15.88183594 0.54609375 16.89453125 0.5859375 C17.80050049 0.6173584 18.70646973 0.6487793 19.63989258 0.68115234 C22 1 22 1 25 3 C16.42 3 7.84 3 -1 3 C-0.67 2.01 -0.34 1.02 0 0 Z " fill="#232C0E" transform="translate(149,127)"/>
<path d="M0 0 C0.66 0.33 1.32 0.66 2 1 C-1.74434563 5.41856863 -5.56982273 9.5525252 -9.8125 13.5 C-13.91996985 17.51665844 -15.27913138 20.33603228 -16 26 C-16.99 25.67 -17.98 25.34 -19 25 C-19 23.68 -19 22.36 -19 21 C-18.34 21 -17.68 21 -17 21 C-16.89872803 20.40904541 -16.79745605 19.81809082 -16.69311523 19.20922852 C-15.87707494 16.6081899 -14.86467567 15.53097564 -12.91015625 13.65234375 C-11.98106445 12.74452148 -11.98106445 12.74452148 -11.03320312 11.81835938 C-10.05770508 10.88733398 -10.05770508 10.88733398 -9.0625 9.9375 C-7.78038863 8.69885004 -6.50035449 7.45804546 -5.22265625 6.21484375 C-4.65297119 5.66948975 -4.08328613 5.12413574 -3.49633789 4.56225586 C-1.78432891 2.8660142 -1.78432891 2.8660142 0 0 Z " fill="#90A356" transform="translate(66,40)"/>
<path d="M0 0 C1.2065625 0.0309375 1.2065625 0.0309375 2.4375 0.0625 C1.4475 0.5575 1.4475 0.5575 0.4375 1.0625 C0.4375 2.0525 0.4375 3.0425 0.4375 4.0625 C-3.18117559 5.2687252 -6.48756251 5.17066918 -10.25 5.125 C-10.95189453 5.12048828 -11.65378906 5.11597656 -12.37695312 5.11132812 C-14.10550538 5.09956927 -15.83401365 5.08163454 -17.5625 5.0625 C-16.9025 4.0725 -16.2425 3.0825 -15.5625 2.0625 C-12.77734375 1.5859375 -12.77734375 1.5859375 -9.5 1.4375 C-5.90949972 1.25818845 -3.25756293 0.07945275 0 0 Z " fill="#4A572B" transform="translate(153.5625,209.9375)"/>
<path d="M0 0 C0.66 0.66 1.32 1.32 2 2 C1.01 2.33 0.02 2.66 -1 3 C-0.67 2.01 -0.34 1.02 0 0 Z M-3 3 C-2.34 3.33 -1.68 3.66 -1 4 C-3.475 5.485 -3.475 5.485 -6 7 C-6 6.34 -6 5.68 -6 5 C-5.01 4.34 -4.02 3.68 -3 3 Z M-8 7 C-7.34 7.33 -6.68 7.66 -6 8 C-9.8275596 13.71234273 -13.92942999 18.58287743 -20 22 C-20.99 22 -21.98 22 -23 22 C-22.31292969 21.39671875 -21.62585938 20.7934375 -20.91796875 20.171875 C-20.01691406 19.37265625 -19.11585938 18.5734375 -18.1875 17.75 C-16.84751953 16.56664062 -16.84751953 16.56664062 -15.48046875 15.359375 C-12.99430466 13.13050012 -12.99430466 13.13050012 -11.30078125 10.703125 C-10.87152344 10.14109375 -10.44226563 9.5790625 -10 9 C-9.34 9 -8.68 9 -8 9 C-8 8.34 -8 7.68 -8 7 Z " fill="#5C6635" transform="translate(225,149)"/>
<path d="M0 0 C2.31 1.65 4.62 3.3 7 5 C6.67 5.66 6.34 6.32 6 7 C5.01 7 4.02 7 3 7 C2.67 7.66 2.34 8.32 2 9 C-0.31 8.01 -2.62 7.02 -5 6 C-4.67 4.68 -4.34 3.36 -4 2 C-2.02 2.495 -2.02 2.495 0 3 C0 2.01 0 1.02 0 0 Z " fill="#B7C46D" transform="translate(188,28)"/>
<path d="M0 0 C0.66 0 1.32 0 2 0 C3.32221288 2.722203 4.02015824 4.57667699 3.875 7.625 C2.80400073 10.53199802 1.65738035 11.46999313 -1 13 C-1.66 13 -2.32 13 -3 13 C-2.42415568 10.61435923 -1.77772405 8.33317216 -1 6 C-1.66 5.67 -2.32 5.34 -3 5 C-1.625 2.5 -1.625 2.5 0 0 Z " fill="#A5AF69" transform="translate(41,58)"/>
<path d="M0 0 C0.99 0.66 1.98 1.32 3 2 C3.52637895 6.06063761 3.66230899 8.13899831 1.125 11.4375 C-1 13 -1 13 -3 13 C-2.88490339 11.58249437 -2.75746342 10.16598831 -2.625 8.75 C-2.55539063 7.96109375 -2.48578125 7.1721875 -2.4140625 6.359375 C-1.98492887 3.914123 -1.21399362 2.15163097 0 0 Z " fill="#91925E" transform="translate(29,83)"/>
<path d="M0 0 C0.33 0.66 0.66 1.32 1 2 C4.3 2 7.6 2 11 2 C11 2.33 11 2.66 11 3 C8.36 3.33 5.72 3.66 3 4 C0.89603589 9.93317878 -0.75971762 15.82777121 -2 22 C-2.12375 21.360625 -2.2475 20.72125 -2.375 20.0625 C-2.58125 19.381875 -2.7875 18.70125 -3 18 C-3.66 17.67 -4.32 17.34 -5 17 C-4.54625 16.236875 -4.0925 15.47375 -3.625 14.6875 C-1.29422458 10.10327347 -0.76139791 5.0341838 0 0 Z " fill="#859047" transform="translate(169,44)"/>
<path d="M0 0 C2 3 2 3 3 5 C22.305 5.495 22.305 5.495 42 6 C42 6.33 42 6.66 42 7 C28.47 7 14.94 7 1 7 C0 4 0 4 0 0 Z " fill="#C5CCAC" transform="translate(147,81)"/>
<path d="M0 0 C0.66 0.66 1.32 1.32 2 2 C0.62500127 3.70451912 -0.77579293 5.38825686 -2.1875 7.0625 C-2.96480469 8.00222656 -3.74210937 8.94195312 -4.54296875 9.91015625 C-7 12 -7 12 -9.65234375 11.87109375 C-11.23985495 11.28205049 -12.81442234 10.65708533 -14.375 10 C-17.55617053 8.78812551 -20.62924226 8.39655973 -24 8 C-24 7.67 -24 7.34 -24 7 C-17.64012196 6.79809911 -12.14778871 7.3722167 -6 9 C-5.57074219 8.09507813 -5.57074219 8.09507813 -5.1328125 7.171875 C-3.73467768 4.49131306 -1.93089949 2.31707939 0 0 Z " fill="#3F552C" transform="translate(195,33)"/>
<path d="M0 0 C0.33 0 0.66 0 1 0 C1.38614349 6.8218683 0.00865708 12.49577707 -2 19 C-3.65 19.33 -5.3 19.66 -7 20 C-5.68 17.69 -4.36 15.38 -3 13 C-3.66 12.67 -4.32 12.34 -5 12 C-4.72285156 11.38511719 -4.44570312 10.77023438 -4.16015625 10.13671875 C-3.61681641 8.92435547 -3.61681641 8.92435547 -3.0625 7.6875 C-2.70285156 6.88699219 -2.34320313 6.08648437 -1.97265625 5.26171875 C-0.92153959 2.90510392 -0.92153959 2.90510392 0 0 Z " fill="#505C2B" transform="translate(204,103)"/>
<path d="M0 0 C2.8125 0.1875 2.8125 0.1875 6 1 C8.95465958 4.77539835 9.34310138 7.59259138 9.1875 12.3125 C9.16042969 13.38113281 9.13335937 14.44976562 9.10546875 15.55078125 C9.07066406 16.35902344 9.03585938 17.16726562 9 18 C8.67 18 8.34 18 8 18 C7.67 15.69 7.34 13.38 7 11 C6.67 11 6.34 11 6 11 C6 9.02 6 7.04 6 5 C5.38125 4.9175 4.7625 4.835 4.125 4.75 C2 4 2 4 0.75 1.9375 C0.5025 1.298125 0.255 0.65875 0 0 Z " fill="#D0D4BF" transform="translate(135,35)"/>
<path d="M0 0 C-0.33 1.32 -0.66 2.64 -1 4 C-0.34 4.33 0.32 4.66 1 5 C-1.31 5.66 -3.62 6.32 -6 7 C-6 7.66 -6 8.32 -6 9 C-7.98 9.33 -9.96 9.66 -12 10 C-4.57142857 0 -4.57142857 0 0 0 Z " fill="#A3AE6E" transform="translate(67,31)"/>
<path d="M0 0 C0 0.66 0 1.32 0 2 C-0.54527344 2.10957031 -1.09054688 2.21914062 -1.65234375 2.33203125 C-6.59806626 3.37190111 -11.30195008 4.69353748 -16.0546875 6.4140625 C-18 7 -18 7 -21 7 C-21 6.34 -21 5.68 -21 5 C-19.12699975 4.34838988 -17.2514945 3.70397805 -15.375 3.0625 C-14.33085938 2.70285156 -13.28671875 2.34320313 -12.2109375 1.97265625 C-8.10990547 0.73037282 -4.28630864 0 0 0 Z " fill="#9DAA7F" transform="translate(114,10)"/>
<path d="M0 0 C1.65 0 3.3 0 5 0 C5 0.66 5 1.32 5 2 C9.95 2 14.9 2 20 2 C16.31912647 4.45391569 13.55644412 4.22802759 9.3125 4.125 C8.2596582 4.11146484 8.2596582 4.11146484 7.18554688 4.09765625 C5.45688475 4.07413704 3.72839855 4.03826713 2 4 C1.34 2.68 0.68 1.36 0 0 Z " fill="#879652" transform="translate(148,83)"/>
<path d="M0 0 C-13.91071429 5.36904762 -13.91071429 5.36904762 -20 5 C-20 4.34 -20 3.68 -20 3 C-5.20225873 -1.73408624 -5.20225873 -1.73408624 0 0 Z " fill="#3C4C28" transform="translate(174,208)"/>
<path d="M0 0 C2.31 0.66 4.62 1.32 7 2 C7 2.66 7 3.32 7 4 C7.66 4 8.32 4 9 4 C9 6.64 9 9.28 9 12 C6.47411298 9.63707344 5.11179163 8.33537489 4 5 C2.68671343 3.64691687 1.35500919 2.31129922 0 1 C0 0.67 0 0.34 0 0 Z " fill="#94A458" transform="translate(200,50)"/>
<path d="M0 0 C0.33 0.99 0.66 1.98 1 3 C-0.32 3 -1.64 3 -3 3 C-3 3.66 -3 4.32 -3 5 C-4.32 5 -5.64 5 -7 5 C-7.33 6.32 -7.66 7.64 -8 9 C-8.66 9 -9.32 9 -10 9 C-10 9.66 -10 10.32 -10 11 C-11.32 11 -12.64 11 -14 11 C-14 9 -14 9 -12.71484375 7.59765625 C-8.66111999 4.09630804 -5.03158847 1.84833862 0 0 Z " fill="#BAC385" transform="translate(91,16)"/>
<path d="M0 0 C0.8125 1.625 0.8125 1.625 1 4 C-0.46818136 6.24609835 -2.15852858 8.02378677 -4 10 C-5.32 9.67 -6.64 9.34 -8 9 C-7.67 8.01 -7.34 7.02 -7 6 C-7.66 5.67 -8.32 5.34 -9 5 C-7.88625 4.54625 -6.7725 4.0925 -5.625 3.625 C-2.03800992 2.27534014 -2.03800992 2.27534014 0 0 Z " fill="#30361B" transform="translate(145,178)"/>
<path d="M0 0 C1.79133978 -0.05391993 3.58313899 -0.09275571 5.375 -0.125 C6.37273437 -0.14820312 7.37046875 -0.17140625 8.3984375 -0.1953125 C11 0 11 0 13 2 C8.15758367 3.33583899 4.06562383 4.25328119 -1 4 C-1.33 3.34 -1.66 2.68 -2 2 C-1.34 2 -0.68 2 0 2 C0 1.34 0 0.68 0 0 Z " fill="#1A220C" transform="translate(176,125)"/>
<path d="M0 0 C2.64 0 5.28 0 8 0 C8 0.66 8 1.32 8 2 C9.670625 1.87625 9.670625 1.87625 11.375 1.75 C16.75507006 1.71143319 21.18220303 3.78855221 26 6 C26 6.33 26 6.66 26 7 C19.41728436 6.37898909 13.34032675 4.84377455 7 3 C5.60422344 2.60396651 4.20839973 2.20809911 2.8125 1.8125 C1.884375 1.544375 0.95625 1.27625 0 1 C0 0.67 0 0.34 0 0 Z " fill="#9DAD5F" transform="translate(143,18)"/>
<path d="M0 0 C0.33 0 0.66 0 1 0 C1.33 7.26 1.66 14.52 2 22 C2.99 22.33 3.98 22.66 5 23 C4.67 23.99 4.34 24.98 4 26 C1.48828125 24.703125 1.48828125 24.703125 -1 22 C-1.50430641 18.21577117 -1.14687067 14.5411379 -0.8125 10.75 C-0.74224609 9.71875 -0.67199219 8.6875 -0.59960938 7.625 C-0.4229223 5.08070614 -0.2222909 2.54064866 0 0 Z " fill="#78824B" transform="translate(226,116)"/>
<path d="M0 0 C1.32 0.99 2.64 1.98 4 3 C3.67 3.66 3.34 4.32 3 5 C0.93359375 5.6328125 0.93359375 5.6328125 -1.5625 6.125 C-2.38878906 6.29257813 -3.21507812 6.46015625 -4.06640625 6.6328125 C-4.70449219 6.75398438 -5.34257813 6.87515625 -6 7 C-6 7.66 -6 8.32 -6 9 C-6.99 9 -7.98 9 -9 9 C-8.375 7.125 -8.375 7.125 -7 5 C-5.00827818 4.30899447 -3.00838196 3.64097297 -1 3 C-0.67 2.01 -0.34 1.02 0 0 Z " fill="#95A35C" transform="translate(45,65)"/>
<path d="M0 0 C0.33 1.65 0.66 3.3 1 5 C1.66 5 2.32 5 3 5 C2.67 5.99 2.34 6.98 2 8 C1.34 7.67 0.68 7.34 0 7 C0 6.34 0 5.68 0 5 C-2.97 4.67 -5.94 4.34 -9 4 C-8.67 3.01 -8.34 2.02 -8 1 C-2.25 0 -2.25 0 0 0 Z " fill="#96A65A" transform="translate(197,42)"/>
<path d="M0 0 C-0.33 1.32 -0.66 2.64 -1 4 C-2.65 4.33 -4.3 4.66 -6 5 C-5.01 5.66 -4.02 6.32 -3 7 C-5.97 6.67 -8.94 6.34 -12 6 C-4.8 0 -4.8 0 0 0 Z " fill="#94A257" transform="translate(105,82)"/>
<path d="M0 0 C0.33 0 0.66 0 1 0 C1.33 5.94 1.66 11.88 2 18 C2.99 18 3.98 18 5 18 C4.67 19.65 4.34 21.3 4 23 C2.68 22.67 1.36 22.34 0 22 C0 14.74 0 7.48 0 0 Z " fill="#838B57" transform="translate(227,116)"/>
<path d="M0 0 C1.95958144 3.53788686 3.0589088 7.18780601 4.1875 11.0625 C4.55230469 12.29097656 4.91710938 13.51945313 5.29296875 14.78515625 C6 18 6 18 5 21 C1.18260786 13.71225137 -0.32635494 8.15887341 0 0 Z " fill="#7C8D4F" transform="translate(32,134)"/>
<path d="M0 0 C2.58646214 1.29323107 2.63668534 2.25699997 3.5625 4.9375 C4.29822324 7.03793267 5.00401313 9.00802626 6 11 C5.01 12.485 5.01 12.485 4 14 C0.07260562 9.09075703 -0.43177893 6.26079448 0 0 Z " fill="#33391B" transform="translate(107,172)"/>
<path d="M0 0 C0.33 0.99 0.66 1.98 1 3 C-4.93852229 6.95901486 -11.08104381 7.24710558 -18 7 C-14.04552349 4.36368233 -10.46599953 4.24754651 -5.8125 3.66015625 C-2.86848333 2.96913011 -1.83485343 2.33816392 0 0 Z " fill="#445C26" transform="translate(196,123)"/>
<path d="M0 0 C0 0.99 0 1.98 0 3 C-0.99 3.33 -1.98 3.66 -3 4 C-3.73323796 6.01508358 -3.73323796 6.01508358 -4 8 C-5.65 8 -7.3 8 -9 8 C-9 8.66 -9 9.32 -9 10 C-9.99 10 -10.98 10 -12 10 C-12 9.34 -12 8.68 -12 8 C-10.02559073 6.5368217 -8.06761129 5.19286936 -6 3.875 C-5.42765625 3.50246094 -4.8553125 3.12992188 -4.265625 2.74609375 C-2.84778218 1.82449592 -1.42439275 0.91144179 0 0 Z " fill="#A0AC75" transform="translate(80,21)"/>
<path d="M0 0 C-2.06473354 2.06473354 -3.24566146 2.60506767 -5.9375 3.5625 C-6.62714844 3.81128906 -7.31679687 4.06007813 -8.02734375 4.31640625 C-9.68085359 4.88940471 -11.33982537 5.44660846 -13 6 C-13.33 5.01 -13.66 4.02 -14 3 C-12.42274653 2.29866401 -10.83788667 1.614417 -9.25 0.9375 C-7.92742187 0.36322266 -7.92742187 0.36322266 -6.578125 -0.22265625 C-3.84743691 -1.04600008 -2.63098653 -0.9773992 0 0 Z " fill="#A5B66A" transform="translate(113,18)"/>
<path d="M0 0 C-5.4981188 3.66541254 -12.47206957 4.34357529 -19 4 C-17.67741528 3.31225595 -16.34013497 2.65288627 -15 2 C-13.9275 1.443125 -12.855 0.88625 -11.75 0.3125 C-7.14669098 -1.29865816 -4.72213492 -0.9112892 0 0 Z " fill="#C0CB83" transform="translate(102,20)"/>
<path d="M0 0 C5.75 0.875 5.75 0.875 8 2 C8 2.66 8 3.32 8 4 C1.73 4 -4.54 4 -11 4 C-11 3.67 -11 3.34 -11 3 C-6.71 3 -2.42 3 2 3 C2 2.34 2 1.68 2 1 C1.34 0.67 0.68 0.34 0 0 Z " fill="#C2D392" transform="translate(132,12)"/>
<path d="M0 0 C1.78409802 3.06246747 2.22880021 5.22079273 2.125 8.75 C2.10695313 9.54921875 2.08890625 10.3484375 2.0703125 11.171875 C2.03550781 12.07679688 2.03550781 12.07679688 2 13 C1.01 13.495 1.01 13.495 0 14 C-1.25664978 11.09399739 -2 9.20395416 -2 6 C-1.34 6 -0.68 6 0 6 C0 4.02 0 2.04 0 0 Z " fill="#94A56D" transform="translate(30,130)"/>
<path d="M0 0 C0.66 0.66 1.32 1.32 2 2 C0.56877218 3.48523642 -0.87020889 4.96300462 -2.3125 6.4375 C-3.51326172 7.67306641 -3.51326172 7.67306641 -4.73828125 8.93359375 C-7 11 -7 11 -10 12 C-8.52278578 8.54798361 -6.56205999 6.35038064 -3.875 3.75 C-3.15054688 3.04359375 -2.42609375 2.3371875 -1.6796875 1.609375 C-1.12539062 1.07828125 -0.57109375 0.5471875 0 0 Z " fill="#535F27" transform="translate(162,61)"/>
<path d="M0 0 C2 2 2 2 2.1953125 5.9140625 C2.18200376 7.48449351 2.15813602 9.05486221 2.125 10.625 C2.11597656 11.42679688 2.10695313 12.22859375 2.09765625 13.0546875 C2.07406223 15.03658523 2.03819065 17.01832981 2 19 C1.67 19 1.34 19 1 19 C0.67 16.69 0.34 14.38 0 12 C-0.33 12 -0.66 12 -1 12 C-1.08159574 7.83861737 -0.98248524 4.0527516 0 0 Z " fill="#8B8F60" transform="translate(106,60)"/>
<path d="M0 0 C0.33 0 0.66 0 1 0 C1.33 4.62 1.66 9.24 2 14 C1.01 13.67 0.02 13.34 -1 13 C-1.02686553 11.02090602 -1.04633375 9.04171029 -1.0625 7.0625 C-1.07410156 5.96035156 -1.08570312 4.85820312 -1.09765625 3.72265625 C-1 1 -1 1 0 0 Z " fill="#D5DDD8" transform="translate(118,140)"/>
<path d="M0 0 C-0.32781157 3.05957468 -1.05678401 4.05836134 -3.25 6.3125 C-6 8 -6 8 -8.8125 7.75 C-9.534375 7.5025 -10.25625 7.255 -11 7 C-10.01 6.34 -9.02 5.68 -8 5 C-7.175 4.13375 -6.35 3.2675 -5.5 2.375 C-3 0 -3 0 0 0 Z " fill="#383F24" transform="translate(201,116)"/>
<path d="M0 0 C2.35694954 0.09031574 4.71153582 0.24688128 7.0625 0.4375 C8.35285156 0.53933594 9.64320312 0.64117187 10.97265625 0.74609375 C12.47119141 0.87177734 12.47119141 0.87177734 14 1 C10.74917327 3.16721782 9.70767847 3.27221018 5.9375 3.25 C5.05964844 3.25515625 4.18179688 3.2603125 3.27734375 3.265625 C1 3 1 3 -1 1 C-0.67 0.67 -0.34 0.34 0 0 Z " fill="#D0E49D" transform="translate(110,13)"/>
<path d="M0 0 C0.66 0.99 1.32 1.98 2 3 C1.07615834 4.67427615 0.13549431 6.33928003 -0.8125 8 C-1.59560547 9.3921875 -1.59560547 9.3921875 -2.39453125 10.8125 C-2.92433594 11.534375 -3.45414062 12.25625 -4 13 C-4.99 13 -5.98 13 -7 13 C-6.5875 12.34 -6.175 11.68 -5.75 11 C-3.65786316 7.4134797 -1.82272665 3.72872508 0 0 Z " fill="#54612B" transform="translate(82,149)"/>
<path d="M0 0 C1.32 0 2.64 0 4 0 C4 2.31 4 4.62 4 7 C1.03 7 -1.94 7 -5 7 C-4.67 6.34 -4.34 5.68 -4 5 C-1.4375 4.375 -1.4375 4.375 1 4 C1.33 3.01 1.66 2.02 2 1 C1.34 0.67 0.68 0.34 0 0 Z " fill="#758046" transform="translate(103,81)"/>
<path d="M0 0 C0.33 0 0.66 0 1 0 C1.33 2.31 1.66 4.62 2 7 C2.66 7 3.32 7 4 7 C3.67 8.98 3.34 10.96 3 13 C2.01 13.33 1.02 13.66 0 14 C0 9.38 0 4.76 0 0 Z " fill="#7A863F" transform="translate(79,138)"/>
<path d="M0 0 C-3.16566573 2.11044382 -5.51197415 2.75552077 -9.1875 3.625 C-10.27417969 3.88539062 -11.36085937 4.14578125 -12.48046875 4.4140625 C-13.31191406 4.60742188 -14.14335937 4.80078125 -15 5 C-14.67 4.01 -14.34 3.02 -14 2 C-9.24983365 -0.2012966 -5.11918146 -0.1765235 0 0 Z " fill="#132C12" transform="translate(232,101)"/>
<path d="M0 0 C0.33 0.99 0.66 1.98 1 3 C-2.18824568 4.59412284 -5.62896662 4.10174735 -9.125 4.0625 C-9.87910156 4.05798828 -10.63320312 4.05347656 -11.41015625 4.04882812 C-13.27347127 4.03703499 -15.13674555 4.01909942 -17 4 C-17 3.67 -17 3.34 -17 3 C-15.75283203 2.92652344 -15.75283203 2.92652344 -14.48046875 2.8515625 C-13.39378906 2.77679688 -12.30710937 2.70203125 -11.1875 2.625 C-10.10855469 2.55539063 -9.02960938 2.48578125 -7.91796875 2.4140625 C-4.76523143 1.96668612 -3.07078259 0 0 0 Z " fill="#101802" transform="translate(138,184)"/>
<path d="M0 0 C5.94 0 11.88 0 18 0 C17.67 0.99 17.34 1.98 17 3 C11.39 2.34 5.78 1.68 0 1 C0 0.67 0 0.34 0 0 Z " fill="#1A210E" transform="translate(64,125)"/>
<path d="M0 0 C1.231394 3.69418201 0.64432764 6.2056261 0 10 C-1.32 10.33 -2.64 10.66 -4 11 C-2.95902388 7.13351728 -1.96301592 3.50538557 0 0 Z " fill="#AFBD70" transform="translate(52,44)"/>
<path d="M0 0 C-1.26391488 1.00873016 -2.53640883 2.00671822 -3.8125 3 C-4.87404297 3.8353125 -4.87404297 3.8353125 -5.95703125 4.6875 C-8 6 -8 6 -11 6 C-11 5.34 -11 4.68 -11 4 C-10.01 3.67 -9.02 3.34 -8 3 C-8.66 2.34 -9.32 1.68 -10 1 C-3.375 -1.125 -3.375 -1.125 0 0 Z " fill="#232519" transform="translate(171,210)"/>
<path d="M0 0 C0.66 0 1.32 0 2 0 C2.28875 0.61875 2.5775 1.2375 2.875 1.875 C3.93720042 4.13325765 3.93720042 4.13325765 6 6 C6 6.66 6 7.32 6 8 C3.03 7.505 3.03 7.505 0 7 C0 4.69 0 2.38 0 0 Z " fill="#8A914A" transform="translate(215,107)"/>
<path d="M0 0 C-1.69179328 2.04219706 -2.63727666 2.91793306 -5.26171875 3.51171875 C-6.06222656 3.56972656 -6.86273438 3.62773438 -7.6875 3.6875 C-8.49574219 3.75324219 -9.30398437 3.81898437 -10.13671875 3.88671875 C-10.75160156 3.92410156 -11.36648437 3.96148437 -12 4 C-8.7771058 -0.8343413 -5.44718932 -0.10277716 0 0 Z " fill="#646B41" transform="translate(232,103)"/>
<path d="M0 0 C0.66 0.33 1.32 0.66 2 1 C0.50867052 5.72254335 0.50867052 5.72254335 -2.0625 7.125 C-2.701875 7.41375 -3.34125 7.7025 -4 8 C-4.33 8.99 -4.66 9.98 -5 11 C-4.54663921 6.12637153 -3.2910841 3.60957611 0 0 Z " fill="#96A05F" transform="translate(49,47)"/>
<path d="M0 0 C0.99 0.33 1.98 0.66 3 1 C0.525 5.455 0.525 5.455 -2 10 C-2.33 10 -2.66 10 -3 10 C-3 8.02 -3 6.04 -3 4 C-2.34 4 -1.68 4 -1 4 C-0.67 2.68 -0.34 1.36 0 0 Z " fill="#73853C" transform="translate(54,97)"/>
<path d="M0 0 C2.45823172 3.68734758 3.01242616 6.69699971 4 11 C2.68 11 1.36 11 0 11 C0 7.37 0 3.74 0 0 Z " fill="#939B65" transform="translate(227,79)"/>
<path d="M0 0 C0 3.92896395 -1.00299863 7.19893228 -2 11 C-2.99 10.67 -3.98 10.34 -5 10 C-5 8.68 -5 7.36 -5 6 C-4.34 6 -3.68 6 -3 6 C-2.87625 5.38125 -2.7525 4.7625 -2.625 4.125 C-2 2 -2 2 0 0 Z " fill="#97A85C" transform="translate(52,55)"/>
<path d="M0 0 C3.36591866 1.44253657 5.51047079 3.33264727 8 6 C6.25 6.75 6.25 6.75 4 7 C1.75 5.25 1.75 5.25 0 3 C0 2.01 0 1.02 0 0 Z " fill="#353C1A" transform="translate(55,118)"/>
<path d="M0 0 C0.66 0.66 1.32 1.32 2 2 C-0.64 4.97 -3.28 7.94 -6 11 C-7.32 10.34 -8.64 9.68 -10 9 C-8.68 9 -7.36 9 -6 9 C-5.7525 8.443125 -5.505 7.88625 -5.25 7.3125 C-3.78393985 4.60028873 -1.97010529 2.36412635 0 0 Z " fill="#5D6C39" transform="translate(195,33)"/>
<path d="M0 0 C0.99 0.33 1.98 0.66 3 1 C-1.27152492 4.95897432 -4.31251115 6.74875245 -10 8 C-10 7.34 -10 6.68 -10 6 C-8.71086513 5.32845067 -7.41859796 4.66291141 -6.125 4 C-5.40570313 3.62875 -4.68640625 3.2575 -3.9453125 2.875 C-2 2 -2 2 0 2 C0 1.34 0 0.68 0 0 Z " fill="#98A85C" transform="translate(78,32)"/>
<path d="M0 0 C0.66 0 1.32 0 2 0 C2.99 2.31 3.98 4.62 5 7 C4.34 7 3.68 7 3 7 C2.67 7.66 2.34 8.32 2 9 C0.14223235 5.86501708 -0.20140476 3.62528568 0 0 Z " fill="#555D2D" transform="translate(52,111)"/>
<path d="M0 0 C2.1519437 3.22791555 2.20086443 4.28400809 2 8 C1.34 8 0.68 8 0 8 C-2 5 -2 5 -2 1 C-1.34 0.67 -0.68 0.34 0 0 Z " fill="#9B9E66" transform="translate(231,92)"/>
<path d="M0 0 C-2.77842595 2.77842595 -4.78366581 3.94471208 -8.75 4.125 C-9.4925 4.08375 -10.235 4.0425 -11 4 C-8.74499851 -0.51000297 -4.55950767 -0.20725035 0 0 Z " fill="#0C0E08" transform="translate(165,212)"/>
<path d="M0 0 C2.475 0.99 2.475 0.99 5 2 C5 2.66 5 3.32 5 4 C4.01 4.33 3.02 4.66 2 5 C1.67 7.31 1.34 9.62 1 12 C0.67 12 0.34 12 0 12 C0 8.04 0 4.08 0 0 Z " fill="#737F4D" transform="translate(147,69)"/>
<path d="M0 0 C1.32 0.33 2.64 0.66 4 1 C3.67 2.98 3.34 4.96 3 7 C2.54625 6.525625 2.0925 6.05125 1.625 5.5625 C0.06741796 3.90972192 0.06741796 3.90972192 -2 3 C-1.34 2.01 -0.68 1.02 0 0 Z " fill="#292E28" transform="translate(38,52)"/>
<path d="M0 0 C0.625 1.875 0.625 1.875 1 4 C0.34 4.66 -0.32 5.32 -1 6 C-2.32 6 -3.64 6 -5 6 C-3.86695008 2.60085025 -2.87481525 1.94745549 0 0 Z " fill="#222815" transform="translate(145,178)"/>
<path d="M0 0 C1.46015291 0.28241641 2.91809793 0.57626614 4.375 0.875 C5.18710938 1.03742188 5.99921875 1.19984375 6.8359375 1.3671875 C9 2 9 2 11 4 C8 5 8 5 5.95703125 4.22265625 C5.24933594 3.83980469 4.54164062 3.45695313 3.8125 3.0625 C3.09707031 2.68222656 2.38164063 2.30195313 1.64453125 1.91015625 C1.10183594 1.60980469 0.55914062 1.30945313 0 1 C0 0.67 0 0.34 0 0 Z " fill="#505534" transform="translate(67,197)"/>
<path d="M0 0 C1.4606285 2.64738916 2 3.89448334 2 7 C2.66 7 3.32 7 4 7 C3.67 8.65 3.34 10.3 3 12 C0.05413171 7.58119757 -0.0985616 5.32232661 0 0 Z " fill="#C5C9B2" transform="translate(53,104)"/>
<path d="M0 0 C0.598125 0.350625 1.19625 0.70125 1.8125 1.0625 C-1.27559695 2.82712683 -2.42062136 3.0625 -6.1875 3.0625 C-5.8575 2.0725 -5.5275 1.0825 -5.1875 0.0625 C-2.1875 -0.9375 -2.1875 -0.9375 0 0 Z " fill="#636E32" transform="translate(95.1875,84.9375)"/>
<path d="M0 0 C0.66 0 1.32 0 2 0 C2 0.66 2 1.32 2 2 C3.32 2.33 4.64 2.66 6 3 C6.33 4.32 6.66 5.64 7 7 C3.17053157 5.54744301 1.87949705 3.57104439 0 0 Z " fill="#C9D0BF" transform="translate(56,116)"/>
<path d="M0 0 C0.99 0.33 1.98 0.66 3 1 C2.67 1.33 2.34 1.66 2 2 C2.99 2.66 3.98 3.32 5 4 C2.03 3.67 -0.94 3.34 -4 3 C-2.1875 1.4375 -2.1875 1.4375 0 0 Z " fill="#A6B276" transform="translate(97,85)"/>
<path d="M0 0 C0.33 0.66 0.66 1.32 1 2 C0.06421005 4.35981813 -0.93347808 6.69631264 -2 9 C-2.66 8.34 -3.32 7.68 -4 7 C-3.68134222 3.70720291 -2.45484649 2.13464912 0 0 Z " fill="#829146" transform="translate(153,72)"/>
<path d="M0 0 C0.66 0.33 1.32 0.66 2 1 C1.01 2.485 1.01 2.485 0 4 C-0.99 4 -1.98 4 -3 4 C-3 4.66 -3 5.32 -3 6 C-3.99 6 -4.98 6 -6 6 C-4.98545548 3.4636387 -4.3146444 2.20648539 -2 0.6875 C-1.34 0.460625 -0.68 0.23375 0 0 Z " fill="#9DAC5E" transform="translate(42,68)"/>
<path d="M0 0 C0.66 0 1.32 0 2 0 C1.34 3.3 0.68 6.6 0 10 C-0.66 9.34 -1.32 8.68 -2 8 C-1.42307692 1.42307692 -1.42307692 1.42307692 0 0 Z " fill="#4F6424" transform="translate(169,40)"/>
<path d="M0 0 C2.31 1.65 4.62 3.3 7 5 C6.34 5.66 5.68 6.32 5 7 C4.01 6.34 3.02 5.68 2 5 C2 4.34 2 3.68 2 3 C1.34 3 0.68 3 0 3 C0 2.01 0 1.02 0 0 Z " fill="#ABB467" transform="translate(188,28)"/>
<path d="M0 0 C0.33 0.99 0.66 1.98 1 3 C-0.32 3 -1.64 3 -3 3 C-3 3.66 -3 4.32 -3 5 C-4.32 5 -5.64 5 -7 5 C-7 4.34 -7 3.68 -7 3 C-4.69 2.01 -2.38 1.02 0 0 Z " fill="#A8B686" transform="translate(91,16)"/>
<path d="M0 0 C4.29 0.33 8.58 0.66 13 1 C13 1.33 13 1.66 13 2 C11.39884424 2.2493357 9.79379841 2.47378648 8.1875 2.6875 C6.84751953 2.87892578 6.84751953 2.87892578 5.48046875 3.07421875 C3 3 3 3 0 0 Z " fill="#142212" transform="translate(105,214)"/>
<path d="M0 0 C0.598125 0.226875 1.19625 0.45375 1.8125 0.6875 C-3.9375 5.6875 -3.9375 5.6875 -6.1875 5.6875 C-5.02477055 2.19931165 -4.06615469 -0.58087924 0 0 Z " fill="#4C4F27" transform="translate(192.1875,194.3125)"/>
<path d="M0 0 C2.3431213 0.25561323 4.67843403 0.59270772 7 1 C7.33 1.66 7.66 2.32 8 3 C5.69 3 3.38 3 1 3 C0.67 2.01 0.34 1.02 0 0 Z " fill="#40552B" transform="translate(218,109)"/>
</svg>
