<?xml version="1.0" encoding="UTF-8"?>
<svg version="1.1" xmlns="http://www.w3.org/2000/svg" width="256" height="256">
<path d="M0 0 C0.75983185 0.00154083 1.5196637 0.00308167 2.30252075 0.00466919 C31.93474074 0.14803515 56.26569162 10.47324202 77.5625 31.375 C78.27535156 32.06335938 78.98820313 32.75171875 79.72265625 33.4609375 C90.6355019 44.75008817 100.15776082 59.25959162 104.5625 74.375 C104.92601562 75.58542969 105.28953125 76.79585938 105.6640625 78.04296875 C109.49790468 91.57174278 110.93587964 104.69008983 110.93310547 118.7121582 C110.93747611 121.17404588 110.97392768 123.63413053 111.01171875 126.09570312 C111.0868172 136.81520179 109.66190234 146.10007824 106.5625 156.375 C106.25127197 157.47465088 105.94004395 158.57430176 105.61938477 159.70727539 C102.54127485 170.36098168 96.93960119 180.34201761 89.32421875 188.40234375 C87.287112 190.68336128 85.61142872 193.10807342 83.875 195.625 C75.30137171 207.48354334 65.45302452 215.58303186 52.5625 222.375 C51.50289062 222.95121094 50.44328125 223.52742187 49.3515625 224.12109375 C34.5303547 231.60636368 18.91008078 232.98863929 2.54516602 233.2331543 C0.35108565 233.30784754 0.35108565 233.30784754 -2.4375 234.375 C-4.28605253 234.22390777 -6.12814751 233.9874772 -7.9609375 233.703125 C-9.05841309 233.53514404 -10.15588867 233.36716309 -11.28662109 233.1940918 C-12.45016113 233.0062915 -13.61370117 232.81849121 -14.8125 232.625 C-16.58681396 232.34039917 -16.58681396 232.34039917 -18.39697266 232.05004883 C-21.74598581 231.50388857 -25.09202018 230.9423465 -28.4375 230.375 C-29.19675781 230.25108887 -29.95601563 230.12717773 -30.73828125 229.99951172 C-49.40809967 226.87338012 -71.73467897 210.32363712 -83.70703125 195.8203125 C-101.56773484 170.58148531 -117.22790244 134.77874933 -112.4375 103.375 C-112.36015625 102.60671875 -112.2828125 101.8384375 -112.203125 101.046875 C-111.87317095 97.92500206 -111.7180167 96.6555167 -109.4375 94.375 C-108.65553112 92.04675409 -108.65553112 92.04675409 -108.02734375 89.30859375 C-99.81638318 56.96833692 -82.37872873 31.79679907 -53.60546875 14.25830078 C-44.64152647 8.95306231 -35.47832414 5.16051895 -25.4375 2.375 C-24.82092529 2.18953613 -24.20435059 2.00407227 -23.5690918 1.81298828 C-15.86062646 -0.24566321 -7.91865401 -0.0240975 0 0 Z " fill="#A03716" transform="translate(128.4375,3.625)"/>
<path d="M0 0 C2.61325511 2.00334719 4.94824746 4.18953658 7.328125 6.46484375 C14.15006692 12.9377097 21.74442683 18.62017527 29.1015625 24.46875 C31 26 31 26 32 27 C34.70012347 27.67350769 34.70012347 27.67350769 38 27 C40.94033655 24.95692079 43.4225063 22.47555892 46 20 C47.34975152 18.84896906 48.7038581 17.70302338 50.0625 16.5625 C52.84106649 14.14824653 55.25379086 11.62668228 57.625 8.8125 C61.62157 4.12561337 65.67940945 0.57459914 72 0 C72.75539063 -0.08636719 73.51078125 -0.17273437 74.2890625 -0.26171875 C78.99365181 -0.58151712 82.17030641 -0.44485624 85.9375 2.5625 C90.44896784 7.13780937 92.14634499 11.90104766 92.625 18.25 C92.40709828 25.18495921 89.12194127 29.63614297 85 35 C84.31292969 35.9075 83.62585938 36.815 82.91796875 37.75 C79.80223631 41.70220836 76.63584076 45.46518777 72.9453125 48.890625 C72.43516602 49.36951172 71.92501953 49.84839844 71.39941406 50.34179688 C69.9494892 51.68118935 68.47146811 52.98997668 66.9921875 54.296875 C64.70874509 56.8909971 64.70874509 56.8909971 64.76171875 60.33984375 C66.44690875 65.32098897 69.25885976 68.14762247 72.9375 71.8125 C73.95432861 72.86135376 73.95432861 72.86135376 74.99169922 73.93139648 C78.81682908 77.86129336 82.72079001 81.7114487 86.625 85.5625 C95.5993249 94.50691048 95.5993249 94.50691048 96.5625 100.5 C95.33221139 108.15512914 90.02550853 114.74515909 84.08203125 119.55078125 C80.98076308 121.68027874 78.35590049 122.91270365 74.6875 123.8125 C64.42389276 121.55102722 56.94676215 112.09563887 49.85620117 104.8828125 C41.63369168 95.57959203 41.63369168 95.57959203 30.9375 90.62109375 C27.59620368 91.05208543 26.78610443 91.56680834 24.625 94.0625 C22.24458251 96.66168671 19.86213321 99.0770757 17.1875 101.375 C13.1259441 104.87333233 9.15961027 108.46980602 5.19921875 112.08203125 C0.21099699 116.43232767 -3.30750252 116.54915085 -9.7578125 116.44140625 C-13.86931992 115.88164681 -15.89996941 114.75068416 -18.69921875 111.75 C-23.70219242 105.01927266 -23.9170981 98.21122716 -23 90 C-21.5625 86.8125 -21.5625 86.8125 -19 84 C-18.37867187 83.25492187 -17.75734375 82.50984375 -17.1171875 81.7421875 C-12.36932259 76.17748561 -7.2374156 71.51035968 -1.48046875 67.0078125 C1.9839474 64.23072815 1.9839474 64.23072815 5 61 C5.25567063 58.98004568 5.25567063 58.98004568 4 57 C2.23136761 55.09150871 0.46162487 53.33009764 -1.4375 51.5625 C-10.5711794 42.72934281 -21.63149796 31.76672432 -22.5625 18.4375 C-22.25111867 12.47973721 -19.32697225 8.34224777 -15.21484375 4.203125 C-10.5421117 0.03635756 -6.29760257 -2.49057729 0 0 Z " fill="#F0EDEC" transform="translate(92,50)"/>
<path d="M0 0 C0.75983185 0.00154083 1.5196637 0.00308167 2.30252075 0.00466919 C31.93474074 0.14803515 56.26569162 10.47324202 77.5625 31.375 C78.27535156 32.06335938 78.98820313 32.75171875 79.72265625 33.4609375 C90.6355019 44.75008817 100.15776082 59.25959162 104.5625 74.375 C104.92601562 75.58542969 105.28953125 76.79585938 105.6640625 78.04296875 C109.49790468 91.57174278 110.93587964 104.69008983 110.93310547 118.7121582 C110.93747611 121.17404588 110.97392768 123.63413053 111.01171875 126.09570312 C111.0868172 136.81520179 109.66190234 146.10007824 106.5625 156.375 C106.25127197 157.47465088 105.94004395 158.57430176 105.61938477 159.70727539 C102.54127485 170.36098168 96.93960119 180.34201761 89.32421875 188.40234375 C87.287112 190.68336128 85.61142872 193.10807342 83.875 195.625 C75.30137171 207.48354334 65.45302452 215.58303186 52.5625 222.375 C51.50289062 222.95121094 50.44328125 223.52742187 49.3515625 224.12109375 C34.5303547 231.60636368 18.91008078 232.98863929 2.54516602 233.2331543 C0.35108565 233.30784754 0.35108565 233.30784754 -2.4375 234.375 C-4.28605253 234.22390777 -6.12814751 233.9874772 -7.9609375 233.703125 C-9.05841309 233.53514404 -10.15588867 233.36716309 -11.28662109 233.1940918 C-12.45016113 233.0062915 -13.61370117 232.81849121 -14.8125 232.625 C-16.58681396 232.34039917 -16.58681396 232.34039917 -18.39697266 232.05004883 C-21.74598581 231.50388857 -25.09202018 230.9423465 -28.4375 230.375 C-29.19675781 230.25108887 -29.95601563 230.12717773 -30.73828125 229.99951172 C-49.40809967 226.87338012 -71.73467897 210.32363712 -83.70703125 195.8203125 C-101.56773484 170.58148531 -117.22790244 134.77874933 -112.4375 103.375 C-112.36015625 102.60671875 -112.2828125 101.8384375 -112.203125 101.046875 C-111.87317095 97.92500206 -111.7180167 96.6555167 -109.4375 94.375 C-108.65553112 92.04675409 -108.65553112 92.04675409 -108.02734375 89.30859375 C-99.81638318 56.96833692 -82.37872873 31.79679907 -53.60546875 14.25830078 C-44.64152647 8.95306231 -35.47832414 5.16051895 -25.4375 2.375 C-24.82092529 2.18953613 -24.20435059 2.00407227 -23.5690918 1.81298828 C-15.86062646 -0.24566321 -7.91865401 -0.0240975 0 0 Z M-66.4375 30.375 C-67.241875 31.01179688 -68.04625 31.64859375 -68.875 32.3046875 C-74.26340863 36.81373778 -78.34439767 41.9453552 -82.39453125 47.640625 C-84.4375 50.375 -84.4375 50.375 -86.453125 52.26953125 C-89.12522769 55.10469533 -90.69566828 58.33965519 -92.375 61.8125 C-92.72127441 62.51898682 -93.06754883 63.22547363 -93.42431641 63.95336914 C-104.80363806 87.52557829 -107.96979472 113.77732384 -99.32373047 138.98486328 C-96.4758732 146.66544804 -93.11433797 154.05950342 -89.4375 161.375 C-88.87160156 162.51839844 -88.30570313 163.66179687 -87.72265625 164.83984375 C-75.39633308 187.77464066 -52.62019113 201.73441819 -28.4375 209.375 C-7.69764552 215.34062106 13.99124643 215.01535604 34.45703125 208.375 C36.60588029 207.68304358 38.78181278 207.07191767 40.97265625 206.52734375 C45.16241561 205.18242644 48.49810028 203.29476809 52.1875 200.9375 C52.87972656 200.49865479 53.57195312 200.05980957 54.28515625 199.60766602 C64.60445249 192.91314092 73.86516631 185.00908216 81.5625 175.375 C82.19285156 174.60414063 82.82320312 173.83328125 83.47265625 173.0390625 C92.72784624 161.07907544 100.00046314 147.09360515 103.5625 132.375 C103.83707031 131.39853516 103.83707031 131.39853516 104.1171875 130.40234375 C105.11896507 125.84161955 105.20968198 121.151351 105.43652344 116.5 C105.52061309 115.08155751 105.63074929 113.66442368 105.76660156 112.25 C106.90618954 100.3770834 104.79217229 90.14196102 101.0625 78.9375 C100.65346436 77.69419922 100.24442871 76.45089844 99.82299805 75.16992188 C95.84380731 63.87687176 90.3481869 53.684105 82 45 C81.53384277 44.50943115 81.06768555 44.0188623 80.58740234 43.51342773 C79.25845106 42.12172936 77.9110383 40.74772733 76.5625 39.375 C75.53189453 38.32119141 75.53189453 38.32119141 74.48046875 37.24609375 C72.85540761 35.60687086 71.21228322 33.98926157 69.5625 32.375 C68.86253906 31.611875 68.16257813 30.84875 67.44140625 30.0625 C63.72266302 26.59100022 59.67751051 24.00368478 55.375 21.3125 C54.17520508 20.5380957 54.17520508 20.5380957 52.95117188 19.74804688 C45.10878099 14.8032462 37.01591896 11.56621056 28.0625 9.25 C26.28359375 8.78207031 26.28359375 8.78207031 24.46875 8.3046875 C23.16815552 7.98860137 21.86593376 7.67916587 20.5625 7.375 C19.7876123 7.19404785 19.01272461 7.0130957 18.21435547 6.82666016 C-13.0157726 0.02267087 -42.13856747 11.00335101 -66.4375 30.375 Z " fill="#040303" transform="translate(128.4375,3.625)"/>
<path d="M0 0 C1.08667969 0.69802734 1.08667969 0.69802734 2.1953125 1.41015625 C6.19189328 4.05363457 9.07657463 7.19538308 12.1171875 10.8359375 C14.13325161 13.15315642 16.28394943 15.24909386 18.5 17.375 C25.00088912 23.82060945 34.71903455 34.52096742 35.08203125 44.18359375 C34.8125 46.125 34.8125 46.125 34 49 C33.34 48.67 32.68 48.34 32 48 C32.33 47.01 32.66 46.02 33 45 C32.505 44.608125 32.01 44.21625 31.5 43.8125 C29.53432198 41.43730573 29.92294223 40.00525303 30 37 C29.34 36.34 28.68 35.68 28 35 C27.01 35.33 26.02 35.66 25 36 C24.67 33.36 24.34 30.72 24 28 C22.68 27.67 21.36 27.34 20 27 C19.87625 26.195625 19.7525 25.39125 19.625 24.5625 C19.41875 23.716875 19.2125 22.87125 19 22 C18.34 21.67 17.68 21.34 17 21 C15.98133771 19.34467377 14.98189187 17.67739862 14 16 C11.64046906 13.64046906 10.22104383 13.50858587 7 13 C7 13.99 7 14.98 7 16 C8.97956942 17.69088222 10.97945196 19.35830472 13 21 C13 21.66 13 22.32 13 23 C13.99 23 14.98 23 16 23 C15.67 24.32 15.34 25.64 15 27 C14.34 27 13.68 27 13 27 C12.67 26.01 12.34 25.02 12 24 C10.05628781 21.27880293 8.00310525 19.48400527 5 18 C1.72690804 17.89540052 -1.31044816 18.2664026 -4.5546875 18.69921875 C-9.87559234 19.16374219 -14.81436173 18.13056258 -20 17 C-20 15.68 -20 14.36 -20 13 C-18.41705218 12.94562393 -16.83355744 12.90703729 -15.25 12.875 C-13.92742187 12.84019531 -13.92742187 12.84019531 -12.578125 12.8046875 C-9.861122 13.01052106 -8.37724222 13.75094053 -6 15 C-3.31006947 14.69621948 -3.31006947 14.69621948 -1 14 C-1 13.67 -1 13.34 -1 13 C-1.94875 13.020625 -2.8975 13.04125 -3.875 13.0625 C-7 13 -7 13 -9 12 C-10.83128771 11.90391392 -12.66619959 11.87017421 -14.5 11.875 C-15.4796875 11.87242188 -16.459375 11.86984375 -17.46875 11.8671875 C-19.99431054 11.83059947 -19.99431054 11.83059947 -22 13 C-22.474375 13.99 -22.94875 14.98 -23.4375 16 C-25 19 -25 19 -28 20 C-27.34 20.66 -26.68 21.32 -26 22 C-27.4540625 22.2475 -27.4540625 22.2475 -28.9375 22.5 C-37.38228371 24.88098364 -43.85483428 33.81353837 -49.82421875 39.859375 C-50.77863337 40.82292902 -51.73306052 41.78647062 -52.6875 42.75 C-53.17283203 43.24371094 -53.65816406 43.73742187 -54.15820312 44.24609375 C-56.9643063 47.07154936 -58.67205584 48.74705825 -62.625 49.5 C-66.96135131 48.85757758 -68.48487822 47.14884411 -71.59765625 44.19140625 C-74.42253143 41.61456889 -77.44007243 39.34704148 -80.5 37.0625 C-84.4283251 34.10372855 -88.06497565 31.10161599 -91.5 27.5625 C-95.49733633 23.44857469 -97.83644196 21.07093633 -103.8125 20.875 C-109.09570319 21.78555207 -112.52469275 25.10028887 -116 29 C-118.2389912 32.61127613 -119.38326622 35.80621028 -120 40 C-120.33 40 -120.66 40 -121 40 C-121 37.36 -121 34.72 -121 32 C-121.99 36.29 -122.98 40.58 -124 45 C-129 44 -129 44 -132 42 C-132.94875 41.71125 -133.8975 41.4225 -134.875 41.125 C-138.35059792 39.87378475 -140.38980694 38.61019306 -143 36 C-144.84439052 31.95990649 -145.70391372 28.39946072 -145 24 C-143.30645278 21.06742374 -141.18656915 18.57634887 -139 16 C-138.48953125 15.32195313 -137.9790625 14.64390625 -137.453125 13.9453125 C-124.74008272 -1.9751487 -103.55856344 -13.23573455 -84 -18 C-83.09765625 -18.22429688 -82.1953125 -18.44859375 -81.265625 -18.6796875 C-52.53219893 -24.60494203 -23.74820063 -16.13811639 0 0 Z " fill="#BE401A" transform="translate(190,29)"/>
<path d="M0 0 C-0.61277612 2.96175123 -1.25372522 4.38058783 -3 7 C-5.25 7.5625 -5.25 7.5625 -8 7 C-10.28644139 5.2407851 -12.26225015 3.30505651 -14 1 C-14 0.34 -14 -0.32 -14 -1 C-14.556875 -1.268125 -15.11375 -1.53625 -15.6875 -1.8125 C-18 -3 -18 -3 -20.125 -4.5625 C-23.65216864 -6.32608432 -26.59772478 -6.44741468 -30.5 -6.59375 C-33 -7 -33 -7 -35.31713867 -8.39038086 C-44.40759205 -13.84432199 -53.80738563 -14.61115545 -64.1875 -14.4375 C-65.39341797 -14.44458984 -66.59933594 -14.45167969 -67.84179688 -14.45898438 C-74.80644201 -14.40953577 -80.56857364 -13.67976098 -87 -11 C-87.928125 -10.690625 -88.85625 -10.38125 -89.8125 -10.0625 C-92.14285271 -9.11964668 -92.14285271 -9.11964668 -93.6875 -6.9375 C-96.37602425 -4.68495266 -97.28299569 -4.7411314 -100.6875 -4.5625 C-108.61675409 -4.07130727 -113.9945739 0.1307356 -120 5 C-120.99 5.474375 -121.98 5.94875 -123 6.4375 C-127.01731188 8.52984994 -130.06013028 11.06497411 -132.0625 15.1875 C-133.28718639 17.55522702 -134.64027874 17.85589272 -137 19 C-139.62710674 21.99847785 -140.89372047 25.00250068 -142.1875 28.75 C-142.53167969 29.73484375 -142.87585938 30.7196875 -143.23046875 31.734375 C-143.61138672 32.85585937 -143.61138672 32.85585937 -144 34 C-144.99 33.67 -145.98 33.34 -147 33 C-148.79219938 28.94396982 -149.70262543 25.39140892 -149 21 C-147.30645278 18.06742374 -145.18656915 15.57634887 -143 13 C-142.48953125 12.32195313 -141.9790625 11.64390625 -141.453125 10.9453125 C-128.74008272 -4.9751487 -107.55856344 -16.23573455 -88 -21 C-87.09765625 -21.22429688 -86.1953125 -21.44859375 -85.265625 -21.6796875 C-55.09243233 -27.90184305 -24.00050646 -18.47097801 0 0 Z " fill="#DF6C49" transform="translate(194,32)"/>
<path d="M0 0 C4.444517 0.51342729 6.73658585 2.65368601 9.91015625 5.57421875 C10.5144043 6.10942139 11.11865234 6.64462402 11.74121094 7.19604492 C16.02429001 11.03821879 20.07486438 15.08815245 24.09765625 19.19921875 C32.75063694 28.19536363 32.75063694 28.19536363 43.91015625 33.19921875 C51.79901762 31.33457879 57.20776489 26.187342 61.90625 19.77734375 C64.07908206 16.17362229 65.3376263 12.45569654 66.34765625 8.38671875 C66.67765625 8.38671875 67.00765625 8.38671875 67.34765625 8.38671875 C67.88215277 15.63211601 67.06373173 20.11584138 63.34765625 26.38671875 C62.68765625 26.38671875 62.02765625 26.38671875 61.34765625 26.38671875 C61.14140625 26.94359375 60.93515625 27.50046875 60.72265625 28.07421875 C58.82871101 31.2594903 56.230896 33.09189527 53.34765625 35.38671875 C52.89390625 35.98484375 52.44015625 36.58296875 51.97265625 37.19921875 C49.69588902 38.86301019 47.57589266 39.03518627 44.8046875 38.9375 C37.19198562 37.23099608 30.97926181 32.46128638 26.34765625 26.38671875 C25.54328125 25.91234375 24.73890625 25.43796875 23.91015625 24.94921875 C21.22494279 23.31189347 19.67066811 21.46847676 17.75 19.0078125 C15.65686444 16.58817112 13.20393013 14.66717479 10.703125 12.68359375 C10.25582031 12.255625 9.80851562 11.82765625 9.34765625 11.38671875 C9.34765625 10.72671875 9.34765625 10.06671875 9.34765625 9.38671875 C8.41953125 8.95359375 8.41953125 8.95359375 7.47265625 8.51171875 C5.34765625 7.38671875 5.34765625 7.38671875 3.34765625 5.38671875 C1.05067507 4.71576984 1.05067507 4.71576984 -1.65234375 5.38671875 C-4.12100508 7.14409656 -6.20694672 9.24174416 -8.33984375 11.38671875 C-14.42768159 17.38671875 -14.42768159 17.38671875 -16.65234375 17.38671875 C-17.31234375 18.70671875 -17.97234375 20.02671875 -18.65234375 21.38671875 C-19.31234375 21.38671875 -19.97234375 21.38671875 -20.65234375 21.38671875 C-20.65234375 22.04671875 -20.65234375 22.70671875 -20.65234375 23.38671875 C-22.296875 24.859375 -22.296875 24.859375 -24.46484375 26.44921875 C-25.17253906 26.97644531 -25.88023438 27.50367188 -26.609375 28.046875 C-30.3617848 30.50782445 -33.46679104 30.49624082 -37.83984375 30.44921875 C-39.46986328 30.43568359 -39.46986328 30.43568359 -41.1328125 30.421875 C-41.96425781 30.41027344 -42.79570313 30.39867187 -43.65234375 30.38671875 C-43.65234375 29.72671875 -43.65234375 29.06671875 -43.65234375 28.38671875 C-44.60109375 28.09796875 -45.54984375 27.80921875 -46.52734375 27.51171875 C-49.65234375 26.38671875 -49.65234375 26.38671875 -51.65234375 24.38671875 C-51.65234375 23.06671875 -51.65234375 21.74671875 -51.65234375 20.38671875 C-49.4785214 21.39599341 -47.71001857 22.33647757 -45.89453125 23.91796875 C-41.31169812 26.91996397 -35.86596144 26.31385169 -30.65234375 25.38671875 C-26.72351022 23.28317898 -23.78002403 20.53531997 -20.65234375 17.38671875 C-19.49605469 16.25363281 -19.49605469 16.25363281 -18.31640625 15.09765625 C-16.80930116 13.60083856 -15.31409282 12.09193087 -13.83203125 10.5703125 C-10.59385813 7.3263362 -7.13025756 4.36778773 -3.65234375 1.38671875 C-2.65234375 0.38671875 -2.65234375 0.38671875 0 0 Z " fill="#46140B" transform="translate(122.65234375,139.61328125)"/>
<path d="M0 0 C-0.59167969 0.19335938 -1.18335937 0.38671875 -1.79296875 0.5859375 C-4.19938554 1.3789166 -6.59998613 2.1878741 -9 3 C-10.3921875 3.4640625 -10.3921875 3.4640625 -11.8125 3.9375 C-14.14285271 4.88035332 -14.14285271 4.88035332 -15.6875 7.0625 C-18.37602425 9.31504734 -19.28299569 9.2588686 -22.6875 9.4375 C-30.61675409 9.92869273 -35.9945739 14.1307356 -42 19 C-42.99 19.474375 -43.98 19.94875 -45 20.4375 C-49.01731188 22.52984994 -52.06013028 25.06497411 -54.0625 29.1875 C-55.28718639 31.55522702 -56.64027874 31.85589272 -59 33 C-61.62710674 35.99847785 -62.89372047 39.00250068 -64.1875 42.75 C-64.53167969 43.73484375 -64.87585938 44.7196875 -65.23046875 45.734375 C-65.61138672 46.85585937 -65.61138672 46.85585937 -66 48 C-66.99 47.67 -67.98 47.34 -69 47 C-70.79219938 42.94396982 -71.70262543 39.39140892 -71 35 C-69.30645278 32.06742374 -67.18656915 29.57634887 -65 27 C-64.48953125 26.32195313 -63.9790625 25.64390625 -63.453125 24.9453125 C-55.11798651 14.5072721 -42.03736601 5.70098827 -30 0 C-29.34 0 -28.68 0 -28 0 C-28 0.66 -28 1.32 -28 2 C-28.99 2 -29.98 2 -31 2 C-31 2.66 -31 3.32 -31 4 C-26.34947128 4.26932521 -26.34947128 4.26932521 -22 3 C-20.2675 2.814375 -20.2675 2.814375 -18.5 2.625 C-14.21764642 2.15612917 -10.35643162 0.93264664 -6.296875 -0.4765625 C-3.79205639 -1.04738851 -2.40254764 -0.82656456 0 0 Z " fill="#E76639" transform="translate(116,18)"/>
<path d="M0 0 C0.66 0.99 1.32 1.98 2 3 C3.97583715 3.73519522 5.98177598 4.39072482 8 5 C12.12729506 6.60894553 14.9136448 7.9136448 18 11 C21.63764764 12.71961525 25.11547152 14.02985114 29 15 C29.93980713 15.31807617 30.87961426 15.63615234 31.84790039 15.96386719 C43.67985119 19.69186873 55.1287156 19.45685393 67.4375 19.25 C69.53709218 19.22988803 71.63670314 19.21164564 73.73632812 19.1953125 C78.82469171 19.15172689 83.91213237 19.08296303 89 19 C89 18.34 89 17.68 89 17 C89.99 17 90.98 17 92 17 C92.33 16.34 92.66 15.68 93 15 C93 15.66 93 16.32 93 17 C93.49628906 16.69964844 93.99257812 16.39929688 94.50390625 16.08984375 C99.55846884 13.26043964 102.36344696 12.59086174 108 14 C105.48579876 17.07861376 103.20059854 17.66963753 99.375 18.5 C95.59142717 19.36507682 91.96010007 20.29976964 88.3125 21.625 C66.26825629 29.11690489 36.19592046 22.85166852 16 13 C13.07980845 11.48028018 10.19038679 9.91075897 7.3125 8.3125 C6.60424072 7.91973877 5.89598145 7.52697754 5.16625977 7.12231445 C0.12511389 4.25022779 0.12511389 4.25022779 -1 2 C-0.67 1.34 -0.34 0.68 0 0 Z " fill="#602816" transform="translate(66,193)"/>
<path d="M0 0 C2 2 2 2 3.3125 4.375 C6.58505912 9.46564751 11.407468 11.82755795 16.58203125 14.64453125 C19.08507536 16.04769168 21.51981204 17.51689272 23.9375 19.0625 C24.66839844 19.52785156 25.39929688 19.99320313 26.15234375 20.47265625 C28.18142781 22.14997521 29.00825374 23.58553921 30 26 C28.68 25.67 27.36 25.34 26 25 C26 24.34 26 23.68 26 23 C25.29101562 22.89558594 24.58203125 22.79117188 23.8515625 22.68359375 C20.64840519 21.91571357 18.24109197 20.6771441 15.375 19.0625 C14.43398438 18.53785156 13.49296875 18.01320313 12.5234375 17.47265625 C10.64510413 16.37647718 8.80954102 15.20636068 7 14 C4.21555423 13.24616662 4.21555423 13.24616662 1 14 C-3.54309373 17.06314653 -7.84487167 20.88157022 -10 26 C-9.95875 26.845625 -9.9175 27.69125 -9.875 28.5625 C-10 31 -10 31 -12.5 33.3125 C-13.325 33.869375 -14.15 34.42625 -15 35 C-15.59988217 23.85933111 -9.1628054 11.16652569 -3 2 C-2.01 1.34 -1.02 0.68 0 0 Z " fill="#CD5A30" transform="translate(42,59)"/>
<path d="M0 0 C3.23196692 0.58272745 4.88675613 1.50338768 7.20703125 3.80859375 C8.08210327 4.67436035 8.08210327 4.67436035 8.97485352 5.55761719 C9.58127686 6.17797852 10.1877002 6.79833984 10.8125 7.4375 C11.75017212 8.38931152 11.75017212 8.38931152 12.70678711 9.36035156 C17.40932783 14.21688285 21.54883936 19.16475067 25 25 C25.51433594 25.85464844 26.02867187 26.70929687 26.55859375 27.58984375 C29.49634948 32.88417318 30.66583758 36.1054978 29 42 C28.01 41.505 28.01 41.505 27 41 C27.33 40.01 27.66 39.02 28 38 C27.505 37.608125 27.01 37.21625 26.5 36.8125 C24.53432198 34.43730573 24.92294223 33.00525303 25 30 C24.34 29.34 23.68 28.68 23 28 C22.01 28.33 21.02 28.66 20 29 C19.505 25.04 19.505 25.04 19 21 C17.68 20.67 16.36 20.34 15 20 C14.87625 19.195625 14.7525 18.39125 14.625 17.5625 C14.41875 16.716875 14.2125 15.87125 14 15 C13.34 14.67 12.68 14.34 12 14 C10.98133771 12.34467377 9.98189187 10.67739862 9 9 C6.64046906 6.64046906 5.22104383 6.50858587 2 6 C2 6.99 2 7.98 2 9 C3.97956942 10.69088222 5.97945196 12.35830472 8 14 C8 14.66 8 15.32 8 16 C8.99 16 9.98 16 11 16 C10.67 17.32 10.34 18.64 10 20 C9.34 20 8.68 20 8 20 C7.505 18.515 7.505 18.515 7 17 C5.05628781 14.27880293 3.00310525 12.48400527 0 11 C-3.27309196 10.89540052 -6.31044816 11.2664026 -9.5546875 11.69921875 C-14.87559234 12.16374219 -19.81436173 11.13056258 -25 10 C-25 8.68 -25 7.36 -25 6 C-23.41705218 5.94562393 -21.83355744 5.90703729 -20.25 5.875 C-19.36828125 5.85179687 -18.4865625 5.82859375 -17.578125 5.8046875 C-14.86172497 6.01047538 -13.3591944 6.70902452 -11 8 C-8.5202272 8.22348143 -8.5202272 8.22348143 -6 7 C-3.79333259 4.81941613 -1.87530991 2.4681914 0 0 Z " fill="#DE5D3C" transform="translate(195,36)"/>
<path d="M0 0 C0.15855469 0.74765625 0.31710938 1.4953125 0.48046875 2.265625 C1.87093409 8.41882247 1.87093409 8.41882247 5.3125 13.5625 C8.17320366 15.09264382 10.89381966 16.0681459 14 17 C16.35526575 17.95445245 18.6734935 18.97633714 21 20 C21.04898438 19.40832031 21.09796875 18.81664063 21.1484375 18.20703125 C21.56456867 13.80895528 22.04965595 10.03071103 24 6 C24.92635752 8.77907257 25.08844247 10.56483163 25.1875 13.4375 C26.7546449 28.90745893 39.73069703 41.41980561 50.671875 51.44921875 C52 53 52 53 52 56 C43.81062149 53.26059522 38.10271365 46.09135348 34.16796875 38.62890625 C32.71873785 36.60773808 31.20005601 36.09566281 29 35 C28.443125 33.9275 27.88625 32.855 27.3125 31.75 C23.80773505 25.18875398 16.65360178 22.32605475 10.3125 19 C4.53732681 15.91020146 -0.5508683 12.36774243 -3 6 C-3.66 6 -4.32 6 -5 6 C-2.84615385 0 -2.84615385 0 0 0 Z " fill="#862911" transform="translate(45,54)"/>
<path d="M0 0 C0.84691406 -0.02900391 1.69382813 -0.05800781 2.56640625 -0.08789062 C8.91894081 -0.15112412 13.54083354 1.32092187 19.125 4.3125 C19.125 4.6425 19.125 4.9725 19.125 5.3125 C18.40546143 5.32708252 17.68592285 5.34166504 16.94458008 5.35668945 C-3.18544586 5.42506125 -3.18544586 5.42506125 -22.50390625 10.40625 C-25.40296198 11.51429107 -27.7933166 11.37949312 -30.875 11.3125 C-31.865 11.6425 -32.855 11.9725 -33.875 12.3125 C-35.87461564 12.35170815 -37.87549364 12.35693347 -39.875 12.3125 C-39.545 11.3225 -39.215 10.3325 -38.875 9.3125 C-37.885 9.3125 -36.895 9.3125 -35.875 9.3125 C-35.875 8.6525 -35.875 7.9925 -35.875 7.3125 C-34.94880859 7.16554688 -34.94880859 7.16554688 -34.00390625 7.015625 C-28.61869246 6.064811 -24.04344333 4.71956307 -19.17578125 2.21484375 C-13.13947137 -0.15253754 -6.40160254 0.07241632 0 0 Z " fill="#FEAA89" transform="translate(123.875,10.6875)"/>
<path d="M0 0 C0 0.99 0 1.98 0 3 C-4.58323979 3.72366944 -8.12245183 4.00507939 -12.72290039 3.27368164 C-18.09423183 2.6281083 -23.5344123 2.61033081 -28.9375 2.4375 C-30.19369141 2.39431641 -31.44988281 2.35113281 -32.74414062 2.30664062 C-35.82932968 2.20106381 -38.91459263 2.09895449 -42 2 C-42 1.67 -42 1.34 -42 1 C-29.625 0.505 -29.625 0.505 -17 0 C-23.53977616 -2.69864545 -23.53977616 -2.69864545 -29.8046875 -3.36328125 C-30.63081543 -3.36416748 -31.45694336 -3.36505371 -32.30810547 -3.3659668 C-33.57871826 -3.33950073 -33.57871826 -3.33950073 -34.875 -3.3125 C-35.75687988 -3.3019458 -36.63875977 -3.2913916 -37.54736328 -3.28051758 C-44.75075741 -3.13330562 -51.51651748 -2.81431381 -58 0.5625 C-62.2211937 2.58515531 -66.37130804 2.73471924 -71 3 C-52.40533991 -9.39644006 -19.51719731 -10.3839634 0 0 Z " fill="#EF7C59" transform="translate(159,15)"/>
<path d="M0 0 C0 0.66 0 1.32 0 2 C-0.99 2 -1.98 2 -3 2 C-3 2.66 -3 3.32 -3 4 C1.65052872 4.26932521 1.65052872 4.26932521 6 3 C8.3329866 2.95977609 10.66706666 2.95679753 13 3 C9.59759403 6.55706079 7.58175879 7.09684185 2.6875 7.375 C-1.66252122 7.72231845 -4.42872774 8.35034639 -8 11 C-8.66 11 -9.32 11 -10 11 C-11.03789581 12.64333504 -12.03567924 14.31243867 -13 16 C-15.39763185 18.39763185 -16.33273498 18.34280586 -19.625 18.625 C-20.44226563 18.69976562 -21.25953125 18.77453125 -22.1015625 18.8515625 C-22.72804688 18.90054688 -23.35453125 18.94953125 -24 19 C-24 18.34 -24 17.68 -24 17 C-24.99 17 -25.98 17 -27 17 C-6.97074468 0 -6.97074468 0 0 0 Z " fill="#E37655" transform="translate(88,18)"/>
<path d="M0 0 C-11.39064319 9.04019301 -25.24010865 11.21122368 -39.4375 11.0625 C-40.26443359 11.05798828 -41.09136719 11.05347656 -41.94335938 11.04882812 C-43.96227146 11.03715811 -45.98114574 11.01922718 -48 11 C-47.67 10.34 -47.34 9.68 -47 9 C-44.0170339 8.40227901 -41.03669195 8.25662185 -38 8 C-45.425 7.01 -45.425 7.01 -53 6 C-53 5.67 -53 5.34 -53 5 C-52.33581055 5.01047363 -51.67162109 5.02094727 -50.98730469 5.03173828 C-35.34625223 5.24603643 -21.71263448 4.8746024 -6.8125 -0.29296875 C-3.99696549 -1.00076284 -2.67371817 -1.00907152 0 0 Z " fill="#130B07" transform="translate(170,211)"/>
<path d="M0 0 C0.33 0 0.66 0 1 0 C1 6.6 1 13.2 1 20 C0.67 20 0.34 20 0 20 C0 18.35 0 16.7 0 15 C-1.794375 15.061875 -1.794375 15.061875 -3.625 15.125 C-7.45454098 15.1046301 -10.518066 14.740967 -14 13 C-15.64530416 10.08332445 -16 8.35279018 -16 5 C-13.70887834 4.49750857 -11.41708499 3.99807883 -9.125 3.5 C-7.84882813 3.2215625 -6.57265625 2.943125 -5.2578125 2.65625 C-2 2 -2 2 0 2 C0 1.34 0 0.68 0 0 Z " fill="#772B1C" transform="translate(233,98)"/>
<path d="M0 0 C0.33 0 0.66 0 1 0 C1.19335938 1.134375 1.38671875 2.26875 1.5859375 3.4375 C1.84880225 4.95836032 2.11183192 6.47919214 2.375 8 C2.50132813 8.74378906 2.62765625 9.48757812 2.7578125 10.25390625 C3.62511461 15.2408934 4.74185008 20.09720944 6 25 C6.46137265 27.12434219 6.91987746 29.24931001 7.375 31.375 C8.52306392 36.42413824 10.04203036 41.04862687 12.1328125 45.78125 C13.06597035 48.168789 13.56489355 50.47815854 14 53 C11 52 11 52 9.09765625 48.52734375 C8.40324453 47.00460288 7.72591337 45.4739993 7.0625 43.9375 C6.71058594 43.12547119 6.35867187 42.31344238 5.99609375 41.47680664 C0.37831607 28.11767929 -2.06165786 15.49772124 -1 1 C-0.67 0.67 -0.34 0.34 0 0 Z " fill="#D9765E" transform="translate(27,111)"/>
<path d="M0 0 C0.66 0.33 1.32 0.66 2 1 C-9.28914107 24.51818632 -24.28082926 45.51622593 -48 58 C-48.66 57.67 -49.32 57.34 -50 57 C-49.21753906 56.51789063 -48.43507812 56.03578125 -47.62890625 55.5390625 C-46.61699219 54.90742188 -45.60507813 54.27578125 -44.5625 53.625 C-43.55316406 52.99851563 -42.54382813 52.37203125 -41.50390625 51.7265625 C-38.91988937 50.24183698 -38.91988937 50.24183698 -38 48 C-37.34 48 -36.68 48 -36 48 C-36 47.34 -36 46.68 -36 46 C-33.12228205 44.08152136 -30.11373372 42.49920512 -27 41 C-27 40.34 -27 39.68 -27 39 C-26.01 38.505 -26.01 38.505 -25 38 C-24.34 37.01 -23.68 36.02 -23 35 C-21.5 32.8125 -21.5 32.8125 -20 31 C-19.34 31 -18.68 31 -18 31 C-17.7525 30.46375 -17.505 29.9275 -17.25 29.375 C-16 27 -16 27 -13.9375 23.9375 C-11.89527457 21.1164266 -11.89527457 21.1164266 -11 18 C-10.34 18 -9.68 18 -9 18 C-9.28875 16.824375 -9.5775 15.64875 -9.875 14.4375 C-10.24182269 11.65658747 -10.21467943 10.38541441 -8.8359375 7.91015625 C-7.30504055 6.06629268 -5.90772216 4.4535026 -4 3 C-3.01 3 -2.02 3 -1 3 C-0.67 2.01 -0.34 1.02 0 0 Z " fill="#682A15" transform="translate(226,148)"/>
<path d="M0 0 C0.33 0 0.66 0 1 0 C1.53449652 7.24539726 0.71607548 11.72912263 -3 18 C-3.66 18 -4.32 18 -5 18 C-5.309375 18.8353125 -5.309375 18.8353125 -5.625 19.6875 C-7.51894524 22.87277155 -10.11676025 24.70517652 -13 27 C-13.45375 27.598125 -13.9075 28.19625 -14.375 28.8125 C-17.32215736 30.96619191 -20.4616334 30.28082275 -24 30 C-24.66 29.34 -25.32 28.68 -26 28 C-23.69 28 -21.38 28 -19 28 C-19 27.34 -19 26.68 -19 26 C-20.65 26 -22.3 26 -24 26 C-24 25.67 -24 25.34 -24 25 C-23.41992188 24.84144531 -22.83984375 24.68289062 -22.2421875 24.51953125 C-13.44021581 21.89055951 -7.71401003 16.84277775 -3 9 C-1.77684437 6.04976694 -0.81452005 3.08660231 0 0 Z " fill="#6F2C0F" transform="translate(189,148)"/>
<path d="M0 0 C1.31223496 3.93670488 0.24296256 6.12488144 -1 10 C-1.66 10 -2.32 10 -3 10 C-3.309375 10.99 -3.309375 10.99 -3.625 12 C-6.31479903 17.86865243 -10.47084045 22.47084045 -15 27 C-15.33 27.99 -15.66 28.98 -16 30 C-20.45714286 34 -20.45714286 34 -23 34 C-23 34.66 -23 35.32 -23 36 C-23.66 36 -24.32 36 -25 36 C-25 36.66 -25 37.32 -25 38 C-25.99 38 -26.98 38 -28 38 C-27.56495858 33.65970303 -24.72249194 31.58728219 -21.6875 28.8125 C-12.94649657 20.48311909 -6.05393311 10.41602632 0 0 Z " fill="#561810" transform="translate(185,71)"/>
<path d="M0 0 C2.1497786 2.69179077 3.59459598 5.21459133 4.9375 8.375 C9.83846971 18.4145622 18.51079096 26.96822505 26.671875 34.44921875 C28 36 28 36 28 39 C19.81062149 36.26059522 14.10271365 29.09135348 10.16796875 21.62890625 C8.71500667 19.60253438 7.23525949 19.03779905 5 18 C2.04633372 14.17117335 1.54644976 10.73589791 1 6 C0.67 5.67 0.34 5.34 0 5 C-0.04063832 3.33382885 -0.042721 1.66611905 0 0 Z " fill="#642511" transform="translate(69,71)"/>
<path d="M0 0 C0.92232422 0.00451172 1.84464844 0.00902344 2.79492188 0.01367188 C5.05085048 0.02536062 7.30663967 0.04174545 9.5625 0.0625 C10.0575 1.0525 10.0575 1.0525 10.5625 2.0625 C9.99329834 2.05202637 9.42409668 2.04155273 8.83764648 2.03076172 C6.2251437 1.98884282 3.61271201 1.96306112 1 1.9375 C0.10474609 1.92074219 -0.79050781 1.90398438 -1.71289062 1.88671875 C-7.05552169 1.8475786 -11.38706496 2.30752257 -16.4375 4.0625 C-17.4275 4.3925 -18.4175 4.7225 -19.4375 5.0625 C-19.7675 5.7225 -20.0975 6.3825 -20.4375 7.0625 C-19.4475 7.3925 -18.4575 7.7225 -17.4375 8.0625 C-22.43502111 10.13043977 -25.97135494 11.3167393 -31.4375 11.0625 C-32.4275 11.3925 -33.4175 11.7225 -34.4375 12.0625 C-36.43711564 12.10170815 -38.43799364 12.10693347 -40.4375 12.0625 C-40.1075 11.0725 -39.7775 10.0825 -39.4375 9.0625 C-38.4475 9.0625 -37.4575 9.0625 -36.4375 9.0625 C-36.4375 8.4025 -36.4375 7.7425 -36.4375 7.0625 C-35.51130859 6.91554688 -35.51130859 6.91554688 -34.56640625 6.765625 C-29.18119246 5.814811 -24.60594333 4.46956307 -19.73828125 1.96484375 C-13.46762269 -0.49444679 -6.624763 -0.06200282 0 0 Z " fill="#EE9372" transform="translate(124.4375,10.9375)"/>
<path d="M0 0 C4.29 0 8.58 0 13 0 C13.57446809 20.72340426 13.57446809 20.72340426 10 29 C9.67 29 9.34 29 9 29 C7.83288905 20.33003296 7.90255986 11.72630608 8 3 C5.36 2.34 2.72 1.68 0 1 C0 0.67 0 0.34 0 0 Z " fill="#BB583C" transform="translate(220,113)"/>
<path d="M0 0 C-2.51420124 3.07861376 -4.79940146 3.66963753 -8.625 4.5 C-12.40857283 5.36507682 -16.03989993 6.29976964 -19.6875 7.625 C-32.49707158 11.97843091 -47.75991521 10.40425142 -61 9 C-61 8.67 -61 8.34 -61 8 C-59.51790039 7.970271 -59.51790039 7.970271 -58.00585938 7.93994141 C-54.30802747 7.86334395 -50.61056158 7.77471438 -46.91308594 7.68261719 C-45.3187589 7.64454948 -43.72435245 7.60965963 -42.12988281 7.578125 C-39.8258849 7.53198737 -37.52242334 7.47407935 -35.21875 7.4140625 C-34.51633179 7.40251129 -33.81391357 7.39096008 -33.09020996 7.37905884 C-28.14122061 7.23447026 -23.77053887 6.33294469 -19 5 C-19 4.34 -19 3.68 -19 3 C-18.01 3 -17.02 3 -16 3 C-15.67 2.34 -15.34 1.68 -15 1 C-15 1.66 -15 2.32 -15 3 C-14.50371094 2.69964844 -14.00742188 2.39929688 -13.49609375 2.08984375 C-8.44153116 -0.73956036 -5.63655304 -1.40913826 0 0 Z " fill="#452213" transform="translate(174,207)"/>
<path d="M0 0 C9.99336391 8.07974103 22.06367134 19.26433222 24 32.625 C24 36 24 36 23 38 C22.34 37.67 21.68 37.34 21 37 C21.33 36.01 21.66 35.02 22 34 C21.505 33.608125 21.01 33.21625 20.5 32.8125 C18.53432198 30.43730573 18.92294223 29.00525303 19 26 C18.34 25.34 17.68 24.68 17 24 C16.01 24.33 15.02 24.66 14 25 C13.67 22.36 13.34 19.72 13 17 C11.68 16.67 10.36 16.34 9 16 C8.87625 15.195625 8.7525 14.39125 8.625 13.5625 C8.41875 12.716875 8.2125 11.87125 8 11 C7.34 10.67 6.68 10.34 6 10 C4.9935725 8.33720673 3.99414593 6.67016516 3 5 C2.443125 4.443125 1.88625 3.88625 1.3125 3.3125 C0.879375 2.879375 0.44625 2.44625 0 2 C0 1.34 0 0.68 0 0 Z " fill="#D35E3F" transform="translate(201,40)"/>
<path d="M0 0 C2.76276177 0.52268466 5.3260876 1.10869587 8 2 C10.16715557 1.12516085 10.16715557 1.12516085 12 0 C14.31 1.65 16.62 3.3 19 5 C18 9 18 9 16 12 C13.75 12.5625 13.75 12.5625 11 12 C8.71355861 10.2407851 6.73774985 8.30505651 5 6 C5 5.34 5 4.68 5 4 C4.360625 3.71125 3.72125 3.4225 3.0625 3.125 C1 2 1 2 0 0 Z " fill="#F0663C" transform="translate(175,27)"/>
<path d="M0 0 C3.90865952 2.60577301 4.4215359 5.51740126 5.6875 9.8125 C5.91244141 10.52470703 6.13738281 11.23691406 6.36914062 11.97070312 C7.5179926 15.74550246 8.2900868 19.00934648 8 23 C6.5422647 23.335939 5.08378894 23.66866624 3.625 24 C2.81289062 24.185625 2.00078125 24.37125 1.1640625 24.5625 C-1 25 -1 25 -3 25 C-3.3396019 23.12612523 -3.67138691 21.25083303 -4 19.375 C-4.185625 18.33085938 -4.37125 17.28671875 -4.5625 16.2109375 C-4.98715797 13.09425135 -5.07545206 10.14069188 -5 7 C-2.40308015 9.59691985 -2.38736002 11.40388316 -1.8125 15 C-1.54373047 16.60875 -1.54373047 16.60875 -1.26953125 18.25 C-1 21 -1 21 -2 23 C1.465 22.505 1.465 22.505 5 22 C4.649375 21.278125 4.29875 20.55625 3.9375 19.8125 C2.89590983 16.6877295 3.10903428 15.11838004 4 12 C3.34 12 2.68 12 2 12 C1.87625 11.21625 1.7525 10.4325 1.625 9.625 C1.20882007 6.85942178 1.20882007 6.85942178 -1 5 C-0.625 2.375 -0.625 2.375 0 0 Z " fill="#BA5B3E" transform="translate(225,77)"/>
<path d="M0 0 C0 0.33 0 0.66 0 1 C-1.2375 1.020625 -2.475 1.04125 -3.75 1.0625 C-4.44609375 1.07410156 -5.1421875 1.08570313 -5.859375 1.09765625 C-8 1 -8 1 -9.76220703 0.50439453 C-14.74784137 -0.61935853 -20.03830033 -0.18478854 -25.125 -0.1875 C-26.90390625 -0.20586914 -26.90390625 -0.20586914 -28.71875 -0.22460938 C-36.72486064 -0.23786453 -44.76599521 -0.20521083 -52 3.5625 C-56.2211937 5.58515531 -60.37130804 5.73471924 -65 6 C-47.1262588 -5.91582747 -19.95613998 -5.63467482 0 0 Z " fill="#B26B55" transform="translate(153,12)"/>
<path d="M0 0 C3.66714117 0.56541824 5.16312316 1.91169744 7.625 4.625 C13.71583323 10.93133757 20.25239875 16.2885128 29 18 C29 18.66 29 19.32 29 20 C21.93817025 20.79730336 18.21902038 19.65827144 12.57421875 15.3515625 C7.84768889 11.03385237 3.80807646 6.13685208 0 1 C0 0.67 0 0.34 0 0 Z " fill="#241009" transform="translate(141,156)"/>
<path d="M0 0 C0 -0.66 0 -1.32 0 -2 C0.66 -1.67 1.32 -1.34 2 -1 C1.01 0.32 0.02 1.64 -1 3 C-6.75 2.125 -6.75 2.125 -9 1 C-10.70363822 0.77377919 -12.41328701 0.59111527 -14.125 0.4375 C-15.03507813 0.35371094 -15.94515625 0.26992188 -16.8828125 0.18359375 C-17.58148438 0.12300781 -18.28015625 0.06242187 -19 0 C-19 1.32 -19 2.64 -19 4 C-18.01 4 -17.02 4 -16 4 C-15.67 5.32 -15.34 6.64 -15 8 C-19.95 8 -24.9 8 -30 8 C-27 6 -27 6 -24 5 C-22.96708324 3.01679982 -21.9662501 1.01652194 -21 -1 C-14.86373626 -4.06813187 -6.25526725 -1.88838257 0 0 Z " fill="#9C391C" transform="translate(189,42)"/>
<path d="M0 0 C0.83778992 0.0028299 1.67557983 0.00565979 2.53875732 0.00857544 C5.20827663 0.01974901 7.8774575 0.04484829 10.546875 0.0703125 C12.35937015 0.08034596 14.17187056 0.08947117 15.984375 0.09765625 C20.42200493 0.1196791 24.85938263 0.15418946 29.296875 0.1953125 C28.296875 2.1953125 28.296875 2.1953125 26.63769531 2.81201172 C23.6791511 3.29646253 20.84253312 3.32516595 17.84375 3.328125 C15.95462891 3.33005859 15.95462891 3.33005859 14.02734375 3.33203125 C12.71378906 3.32816406 11.40023437 3.32429687 10.046875 3.3203125 C8.74878906 3.32417969 7.45070312 3.32804688 6.11328125 3.33203125 C-0.25052389 3.32554419 -6.41492521 3.20078607 -12.703125 2.1953125 C-8.77654789 -0.46849216 -4.54924891 -0.05793529 0 0 Z " fill="#732D18" transform="translate(122.703125,211.8046875)"/>
<path d="M0 0 C2.95424083 -0.4162177 5.14955921 -0.51267205 7.75927734 1.06054688 C9.63708727 2.55950492 11.41739262 4.12535502 13.1875 5.75 C13.80302734 6.28882813 14.41855469 6.82765625 15.05273438 7.3828125 C18.02724939 10.02539355 20.88800513 12.59008828 23 16 C23 16.66 23 17.32 23 18 C24.10170737 19.78546868 24.10170737 19.78546868 25.5 21.625 C25.9640625 22.25664062 26.428125 22.88828125 26.90625 23.5390625 C27.2671875 24.02117187 27.628125 24.50328125 28 25 C24.45780243 23.68807497 22.73172913 21.58139215 20.4375 18.65625 C18.3283276 16.22611659 15.87083291 14.29200393 13.35546875 12.296875 C12.90816406 11.86890625 12.46085938 11.4409375 12 11 C12 10.34 12 9.68 12 9 C11.401875 8.7525 10.80375 8.505 10.1875 8.25 C7.68373081 6.81927475 6.51927612 5.4308418 5 3 C5 2.34 5 1.68 5 1 C3.02 1.33 1.04 1.66 -1 2 C-0.67 1.34 -0.34 0.68 0 0 Z " fill="#2C1511" transform="translate(120,140)"/>
<path d="M0 0 C2.25891996 1.49443832 4.02400724 3.12039713 6 5 C3.0345579 6.11204079 1.46874808 5.91145801 -1.75 5.375 C-6.53177328 4.64967484 -9.61565902 6.11019786 -14 8 C-15.66666667 8 -17.33333333 8 -19 8 C-17.56771184 6.68181446 -16.12897516 5.37063296 -14.6875 4.0625 C-13.88699219 3.33160156 -13.08648437 2.60070313 -12.26171875 1.84765625 C-8.11221927 -1.54217666 -5.05336079 -1.19910256 0 0 Z " fill="#E8E1E2" transform="translate(92,50)"/>
<path d="M0 0 C-0.1875 1.875 -0.1875 1.875 -1 4 C-2.66072849 4.68132451 -4.327767 5.34742127 -6 6 C-7.12516085 7.83284443 -7.12516085 7.83284443 -8 10 C-9.3050581 11.68889872 -10.63360658 13.3603279 -12 15 C-12.99 14.67 -13.98 14.34 -15 14 C-15 9.33010674 -14.33402121 8.71487003 -11.3125 5.375 C-10.62800781 4.59898438 -9.94351563 3.82296875 -9.23828125 3.0234375 C-6.43103303 0.48564591 -3.67789672 -1.83894836 0 0 Z " fill="#F16D44" transform="translate(66,35)"/>
<path d="M0 0 C0.66 0.33 1.32 0.66 2 1 C0.31979013 2.95858784 -1.37277792 4.90074493 -3.09765625 6.8203125 C-4.97314367 8.89144512 -4.97314367 8.89144512 -6.30859375 10.8671875 C-8.74317521 14.03745246 -10.26823186 14.90335138 -14.3125 15.4375 C-22.61084475 15.57580575 -27.98968236 14.40648537 -35 10 C-34.67 9.01 -34.34 8.02 -34 7 C-30.535 8.98 -30.535 8.98 -27 11 C-27 11.66 -27 12.32 -27 13 C-19.53243722 12.75475984 -14.20562164 12.26636488 -8 8 C-6.67353844 7.3197633 -5.34391123 6.64507739 -4 6 C-4 5.34 -4 4.68 -4 4 C-2.70766393 2.62689293 -1.37562854 1.28965176 0 0 Z " fill="#7F2907" transform="translate(106,157)"/>
<path d="M0 0 C0.33 0 0.66 0 1 0 C1.06316406 0.62261719 1.12632813 1.24523437 1.19140625 1.88671875 C2.62311685 12.69236614 6.39883184 22.75782868 10 33 C9.01 33 8.02 33 7 33 C5.66065284 30.04435292 4.32955753 27.0850622 3 24.125 C2.6184375 23.28324219 2.236875 22.44148438 1.84375 21.57421875 C1.4828125 20.76855469 1.121875 19.96289062 0.75 19.1328125 C0.41484375 18.38918457 0.0796875 17.64555664 -0.265625 16.87939453 C-1 15 -1 15 -1 13 C-0.34 13 0.32 13 1 13 C0.67 8.71 0.34 4.42 0 0 Z " fill="#BF6043" transform="translate(31,130)"/>
<path d="M0 0 C7.10787303 -0.46271868 12.08710436 -0.27406647 18 4 C18.77730469 4.48210937 19.55460937 4.96421875 20.35546875 5.4609375 C27.29151007 9.80561203 27.29151007 9.80561203 29 14 C27.68 13.67 26.36 13.34 25 13 C25 12.34 25 11.68 25 11 C24.29101562 10.89558594 23.58203125 10.79117188 22.8515625 10.68359375 C19.64840519 9.91571357 17.24109197 8.6771441 14.375 7.0625 C13.43398438 6.53785156 12.49296875 6.01320313 11.5234375 5.47265625 C9.64510413 4.37647718 7.80954102 3.20636068 6 2 C4.0103005 1.60986284 2.00980131 1.26797351 0 1 C0 0.67 0 0.34 0 0 Z " fill="#C74722" transform="translate(43,71)"/>
<path d="M0 0 C-3.00440021 2.00293347 -4.70993945 2.49271626 -8.1875 3.125 C-9.53908203 3.37636719 -9.53908203 3.37636719 -10.91796875 3.6328125 C-11.60503906 3.75398438 -12.29210937 3.87515625 -13 4 C-13 5.32 -13 6.64 -13 8 C-9.04 8.33 -5.08 8.66 -1 9 C-1 9.99 -1 10.98 -1 12 C-5.76644369 12.19065775 -9.66586616 12.11667001 -14 10 C-15.64530416 7.08332445 -16 5.35279018 -16 2 C-10.51324804 0.13216954 -5.77807024 -0.2358396 0 0 Z " fill="#6C2012" transform="translate(233,101)"/>
<path d="M0 0 C0.66 0 1.32 0 2 0 C2.07347656 1.06541016 2.07347656 1.06541016 2.1484375 2.15234375 C2.22320313 3.07144531 2.29796875 3.99054688 2.375 4.9375 C2.44460937 5.85402344 2.51421875 6.77054687 2.5859375 7.71484375 C2.72257812 8.46894531 2.85921875 9.22304687 3 10 C3.66 10.33 4.32 10.66 5 11 C5 15.62 5 20.24 5 25 C4.67 25 4.34 25 4 25 C3.34 22.03 2.68 19.06 2 16 C1.67 20.29 1.34 24.58 1 29 C0.67 29 0.34 29 0 29 C0 19.43 0 9.86 0 0 Z " fill="#B25337" transform="translate(25,96)"/>
<path d="M0 0 C8.6084012 -0.47628449 14.31593132 1.10718987 22 5 C14.29814525 6.26092312 7.61540316 5.5832711 0 4 C0 2.68 0 1.36 0 0 Z " fill="#CE502A" transform="translate(170,42)"/>
<path d="M0 0 C0.66 0.33 1.32 0.66 2 1 C-4.41721854 5.65562914 -4.41721854 5.65562914 -7.75 7.625 C-9.99092165 8.87360138 -9.99092165 8.87360138 -11.5 10.5 C-13 12 -13 12 -15.4375 13.375 C-18.14637307 14.89147328 -18.14637307 14.89147328 -20 17.5625 C-22.19159106 20.23350161 -23.74207599 21.00452322 -27 22 C-26.62547281 18.62925529 -25.21672462 16.71593623 -22.77734375 14.41796875 C-18.78323491 11.23145994 -14.35184888 8.66216454 -10 6 C-8.47840897 5.04287016 -6.95747585 4.08469278 -5.4375 3.125 C-3.64046035 1.99671315 -1.89858496 0.94929248 0 0 Z " fill="#CE522D" transform="translate(88,27)"/>
<path d="M0 0 C2.49726675 1.15258465 4.40024642 2.32214955 6.5625 4.0625 C11.27518693 6.71874172 15.66891154 6.81028155 21 7 C20.67 7.99 20.34 8.98 20 10 C16.04 10 12.08 10 8 10 C8 9.34 8 8.68 8 8 C7.05125 7.71125 6.1025 7.4225 5.125 7.125 C2 6 2 6 0 4 C0 2.68 0 1.36 0 0 Z " fill="#1F0703" transform="translate(71,160)"/>
<path d="M0 0 C3.28732692 0.97731341 4.43667133 2.90849456 6.3125 5.6875 C4.6109375 5.1925 4.6109375 5.1925 2.875 4.6875 C-0.3201466 4.24561802 -1.37564323 4.46548277 -4.046875 6.3671875 C-5.57351184 7.80673432 -7.06414422 9.28566048 -8.51171875 10.8046875 C-10.9493617 12.91410205 -12.52425536 13.34403035 -15.6875 13.6875 C-5.83857103 1.49358794 -5.83857103 1.49358794 0 0 Z " fill="#8B2B05" transform="translate(123.6875,143.3125)"/>
<path d="M0 0 C1.31223496 3.93670488 0.24296256 6.12488144 -1 10 C-1.66 10 -2.32 10 -3 10 C-3.2475 10.70125 -3.495 11.4025 -3.75 12.125 C-5.19944956 15.458734 -6.7004562 18.17484619 -9 21 C-11.63671875 21.16796875 -11.63671875 21.16796875 -14 21 C-13.125 19.6875 -12.25 18.375 -11.375 17.0625 C-10.83101562 16.24652344 -10.28703125 15.43054688 -9.7265625 14.58984375 C-6.484375 9.7265625 -3.2421875 4.86328125 0 0 Z " fill="#5E2119" transform="translate(185,71)"/>
<path d="M0 0 C0.99 0.33 1.98 0.66 3 1 C2.01 1.495 2.01 1.495 1 2 C1.66 2.33 2.32 2.66 3 3 C1.84826645 5.46800047 0.95216435 7.04783565 -1 9 C-3.1640625 9.4140625 -3.1640625 9.4140625 -5.625 9.625 C-6.44226563 9.69976562 -7.25953125 9.77453125 -8.1015625 9.8515625 C-8.72804688 9.90054688 -9.35453125 9.94953125 -10 10 C-10 9.34 -10 8.68 -10 8 C-10.99 8 -11.98 8 -13 8 C-8.69230769 4.06153846 -8.69230769 4.06153846 -5.1875 3.75 C-4.465625 3.8325 -3.74375 3.915 -3 4 C-3 3.34 -3 2.68 -3 2 C-2.01 2 -1.02 2 0 2 C0 1.34 0 0.68 0 0 Z " fill="#F57350" transform="translate(74,27)"/>
<path d="M0 0 C2.125 0.375 2.125 0.375 4 1 C3.21448343 2.31618998 2.4213763 3.62785228 1.625 4.9375 C1.18414062 5.66839844 0.74328125 6.39929688 0.2890625 7.15234375 C-1 9 -1 9 -3 10 C-4.875 10.16796875 -4.875 10.16796875 -7 10.1875 C-8.051875 10.20876953 -8.051875 10.20876953 -9.125 10.23046875 C-11 10 -11 10 -13 8 C-10.69 8 -8.38 8 -6 8 C-6 7.34 -6 6.68 -6 6 C-7.65 6 -9.3 6 -11 6 C-11 5.67 -11 5.34 -11 5 C-10.37351563 4.80664062 -9.74703125 4.61328125 -9.1015625 4.4140625 C-8.28429687 4.15367187 -7.46703125 3.89328125 -6.625 3.625 C-5.81289062 3.36976563 -5.00078125 3.11453125 -4.1640625 2.8515625 C-1.83540815 2.10145717 -1.83540815 2.10145717 0 0 Z " fill="#492315" transform="translate(176,168)"/>
<path d="M0 0 C5.73491451 -0.88229454 8.76938812 1.49896975 13.2421875 4.6875 C13.82226562 5.120625 14.40234375 5.55375 15 6 C14.01 6.99 13.02 7.98 12 9 C10.55903414 8.57405412 9.12231288 8.13373367 7.6875 7.6875 C6.88699219 7.44386719 6.08648437 7.20023438 5.26171875 6.94921875 C2.85183261 5.93781576 1.58058021 5.07163426 0 3 C0 2.01 0 1.02 0 0 Z " fill="#EF6E48" transform="translate(171,21)"/>
<path d="M0 0 C0.33 0 0.66 0 1 0 C1 1.65 1 3.3 1 5 C0.01 5.33 -0.98 5.66 -2 6 C-2 6.66 -2 7.32 -2 8 C-3.6796875 9.5078125 -3.6796875 9.5078125 -5.875 11.125 C-6.59429687 11.66382813 -7.31359375 12.20265625 -8.0546875 12.7578125 C-10 14 -10 14 -12 14 C-12 13.34 -12 12.68 -12 12 C-15.63 12 -19.26 12 -23 12 C-23 11.67 -23 11.34 -23 11 C-22.32195312 11.020625 -21.64390625 11.04125 -20.9453125 11.0625 C-11.43926917 10.85183976 -6.50986574 6.50986574 0 0 Z " fill="#3B1612" transform="translate(104,155)"/>
<path d="M0 0 C1.13965577 3.4189673 1.06378508 6.02911607 1 9.625 C0.96247826 11.74966871 0.95317941 13.87551587 1 16 C1.33 16.33 1.66 16.66 2 17 C2.04063832 18.66617115 2.042721 20.33388095 2 22 C0.68121422 21.23997083 -0.6298684 20.46656347 -1.9375 19.6875 C-2.66839844 19.25824219 -3.39929688 18.82898438 -4.15234375 18.38671875 C-6 17 -6 17 -7 14 C-5.68 14 -4.36 14 -3 14 C-2.95101562 13.40832031 -2.90203125 12.81664063 -2.8515625 12.20703125 C-2.43543133 7.80895528 -1.95034405 4.03071103 0 0 Z " fill="#B0320D" transform="translate(69,60)"/>
<path d="M0 0 C4.00939243 1.61330314 6.75673781 4.42459698 9.75 7.4375 C10.50990234 8.17323242 10.50990234 8.17323242 11.28515625 8.92382812 C12.5859308 10.22284961 13.79988368 11.60745123 15 13 C15 13.99 15 14.98 15 16 C10.84995785 14.62401085 8.3342938 12.76661881 5.25 9.6875 C4.08210938 8.54861328 4.08210938 8.54861328 2.890625 7.38671875 C0.86682254 4.83187722 0.34014275 3.20301087 0 0 Z " fill="#521C0C" transform="translate(82,94)"/>
<path d="M0 0 C-0.59167969 0.19335938 -1.18335938 0.38671875 -1.79296875 0.5859375 C-4.19938554 1.3789166 -6.59998613 2.1878741 -9 3 C-9.928125 3.309375 -10.85625 3.61875 -11.8125 3.9375 C-14.14285271 4.88035332 -14.14285271 4.88035332 -15.6875 7.0625 C-18.85275762 9.7144726 -21.48597254 9.54075425 -25.515625 9.78515625 C-28.54808679 10.04739744 -31.17701845 10.88566518 -34 12 C-30.94007316 8.42764522 -28.70904448 7.38648188 -24.125 6.5 C-19.22931422 5.41536259 -16.11715064 3.90071977 -12 1 C-7.83928729 -0.53375292 -4.3072569 -1.3304638 0 0 Z " fill="#D8603B" transform="translate(116,18)"/>
<path d="M0 0 C0.99 0.66 1.98 1.32 3 2 C2.67 3.32 2.34 4.64 2 6 C0.68 6.33 -0.64 6.66 -2 7 C-2 9.31 -2 11.62 -2 14 C-1.34 14 -0.68 14 0 14 C0 13.34 0 12.68 0 12 C1.32 11.34 2.64 10.68 4 10 C3.01 12.97 2.02 15.94 1 19 C0.01 18.67 -0.98 18.34 -2 18 C-3.79099034 13.94670608 -4.55050886 10.40407091 -4 6 C-2 2.625 -2 2.625 0 0 Z " fill="#D1542B" transform="translate(49,47)"/>
<path d="M0 0 C2.48849795 1.24424898 2.72399477 2.1495548 3.875 4.640625 C4.22046875 5.38183594 4.5659375 6.12304688 4.921875 6.88671875 C5.27765625 7.66660156 5.6334375 8.44648438 6 9.25 C6.35578125 10.01441406 6.7115625 10.77882812 7.078125 11.56640625 C8.82463806 15.33965648 10.50883628 19.11676113 12 23 C6.30206826 17.99272665 1.40520571 11.21561713 -1 4 C-0.5625 1.8125 -0.5625 1.8125 0 0 Z " fill="#893F24" transform="translate(40,160)"/>
<path d="M0 0 C-1.89399715 1.75202288 -3.79011738 3.50164978 -5.6875 5.25 C-6.21794922 5.74113281 -6.74839844 6.23226562 -7.29492188 6.73828125 C-16.14515599 14.88266847 -16.14515599 14.88266847 -20.1875 15.4375 C-21.115625 15.293125 -22.04375 15.14875 -23 15 C-23.66 14.01 -24.32 13.02 -25 12 C-24.37351562 12.03480469 -23.74703125 12.06960937 -23.1015625 12.10546875 C-22.28429687 12.13253906 -21.46703125 12.15960938 -20.625 12.1875 C-19.40683594 12.23970703 -19.40683594 12.23970703 -18.1640625 12.29296875 C-17.44992188 12.19628906 -16.73578125 12.09960938 -16 12 C-15.34 11.01 -14.68 10.02 -14 9 C-13.34 9 -12.68 9 -12 9 C-12 7.68 -12 6.36 -12 5 C-11.195625 4.731875 -10.39125 4.46375 -9.5625 4.1875 C-8.716875 3.795625 -7.87125 3.40375 -7 3 C-6.67 2.01 -6.34 1.02 -6 0 C-3 -1 -3 -1 0 0 Z " fill="#B95C3F" transform="translate(147,63)"/>
<path d="M0 0 C-2.53384398 3.10853024 -4.96925146 3.77382205 -8.8125 4.6875 C-9.82957031 4.93886719 -10.84664062 5.19023437 -11.89453125 5.44921875 C-14.99965292 5.99993844 -17.85380252 6.09875956 -21 6 C-20.34 5.67 -19.68 5.34 -19 5 C-19 4.34 -19 3.68 -19 3 C-18.01 3 -17.02 3 -16 3 C-15.67 2.34 -15.34 1.68 -15 1 C-15 1.66 -15 2.32 -15 3 C-14.50371094 2.69964844 -14.00742188 2.39929688 -13.49609375 2.08984375 C-8.44153116 -0.73956036 -5.63655304 -1.40913826 0 0 Z " fill="#682A15" transform="translate(174,207)"/>
<path d="M0 0 C0.12375 0.639375 0.2475 1.27875 0.375 1.9375 C0.684375 2.9584375 0.684375 2.9584375 1 4 C1.66 4.33 2.32 4.66 3 5 C2.505 5.8353125 2.505 5.8353125 2 6.6875 C0.80275088 8.96478132 0.80275088 8.96478132 1.1875 11.5 C1 14 1 14 -1.5 16.3125 C-2.325 16.869375 -3.15 17.42625 -4 18 C-4.59244521 11.33499135 -2.48322845 6.13047025 0 0 Z " fill="#B2542F" transform="translate(31,76)"/>
<path d="M0 0 C8.39765368 -0.39058854 17.27959964 0.5846556 25 4 C25 4.99 25 5.98 25 7 C21.08329065 6.59200944 17.77131837 6.00099451 14.125 4.5 C10.3468319 2.9695092 6.83861816 2.53803499 2.78515625 2.30859375 C2.19605469 2.20675781 1.60695312 2.10492188 1 2 C0.67 1.34 0.34 0.68 0 0 Z " fill="#DB7855" transform="translate(134,11)"/>
<path d="M0 0 C0.33 0 0.66 0 1 0 C1 2.64 1 5.28 1 8 C1.99 8.33 2.98 8.66 4 9 C1.02819057 10.89865603 -1.51460083 12.35455571 -5 13 C-5 13.66 -5 14.32 -5 15 C-5.66 15 -6.32 15 -7 15 C-5.45454854 9.52067211 -2.84456788 4.88570819 0 0 Z " fill="#C85C34" transform="translate(39,61)"/>
<path d="M0 0 C-2.56331361 2.56331361 -3.75611956 2.27869005 -7.3125 2.4375 C-11.75625461 2.74496605 -14.26378798 3.50919199 -18 6 C-20.38222923 5.72774523 -21.86246601 5.06876699 -24 4 C-24 4.66 -24 5.32 -24 6 C-24.99 6 -25.98 6 -27 6 C-27 6.66 -27 7.32 -27 8 C-28.32 7.67 -29.64 7.34 -31 7 C-23.88710882 1.89919218 -23.88710882 1.89919218 -20.25 2.3125 C-19.5075 2.539375 -18.765 2.76625 -18 3 C-16.65753688 2.35191436 -15.32567199 1.68177416 -14 1 C-9.27284626 0.23755585 -4.79559877 -0.11988997 0 0 Z M-23 6 C-22.01 6.495 -22.01 6.495 -21 7 C-21.99 7.495 -21.99 7.495 -23 8 C-23 7.34 -23 6.68 -23 6 Z " fill="#DE6B49" transform="translate(98,23)"/>
<path d="M0 0 C0.33 0 0.66 0 1 0 C1.36086838 3.91277352 1.69998472 7.8267734 2.01928711 11.74316406 C2.18567312 13.72820474 2.36911144 15.71179204 2.55273438 17.6953125 C2.65263672 18.94570312 2.75253906 20.19609375 2.85546875 21.484375 C2.95496826 22.63647461 3.05446777 23.78857422 3.15698242 24.97558594 C2.98137834 28.35876372 2.29463268 29.5780321 0 32 C0.020625 31.030625 0.04125 30.06125 0.0625 29.0625 C0.35618499 26.12534105 0.35618499 26.12534105 -1 25 C-1.01674294 23.14416777 -0.96275607 21.28760637 -0.87890625 19.43359375 C-0.83056641 18.30888672 -0.78222656 17.18417969 -0.73242188 16.02539062 C-0.67634766 14.84138672 -0.62027344 13.65738281 -0.5625 12.4375 C-0.51029297 11.24962891 -0.45808594 10.06175781 -0.40429688 8.83789062 C-0.2741434 5.89168934 -0.1391636 2.94578724 0 0 Z " fill="#AE462F" transform="translate(227,116)"/>
<path d="M0 0 C0 0.33 0 0.66 0 1 C-0.75925781 1.06058594 -1.51851562 1.12117187 -2.30078125 1.18359375 C-3.29464844 1.26738281 -4.28851563 1.35117188 -5.3125 1.4375 C-6.29863281 1.51871094 -7.28476563 1.59992187 -8.30078125 1.68359375 C-11.09375599 1.91812559 -11.09375599 1.91812559 -14 3 C-12.68 3.66 -11.36 4.32 -10 5 C-14.40914783 6.10228696 -18.48382401 6.07654536 -23 6 C-22 3 -22 3 -20.3125 1.875 C-13.75990713 -0.60435946 -6.89801479 -0.10045653 0 0 Z " fill="#F99C7D" transform="translate(127,12)"/>
<path d="M0 0 C4.00364637 1.2984799 5.59522794 2.61145755 8 6 C8.99 6.33 9.98 6.66 11 7 C15.28786964 11.1684858 18.8386798 15.94188768 22 21 C18.45780243 19.68807497 16.73172913 17.58139215 14.4375 14.65625 C12.3283276 12.22611659 9.87083291 10.29200393 7.35546875 8.296875 C6.90816406 7.86890625 6.46085938 7.4409375 6 7 C6 6.34 6 5.68 6 5 C5.38125 4.731875 4.7625 4.46375 4.125 4.1875 C2 3 2 3 0 0 Z " fill="#4F1504" transform="translate(126,144)"/>
<path d="M0 0 C4.29 0 8.58 0 13 0 C13 3.3 13 6.6 13 10 C12.01 10.495 12.01 10.495 11 11 C10.855625 10.236875 10.71125 9.47375 10.5625 8.6875 C10.0367406 5.91827092 10.0367406 5.91827092 9 3 C6.89415562 2.19436362 6.89415562 2.19436362 4.4375 1.8125 C3.61121094 1.65394531 2.78492188 1.49539062 1.93359375 1.33203125 C1.29550781 1.22246094 0.65742188 1.11289063 0 1 C0 0.67 0 0.34 0 0 Z " fill="#D56A41" transform="translate(220,113)"/>
<path d="M0 0 C0.33 0 0.66 0 1 0 C2.2982126 5.76081841 3.25706972 11.08739655 3 17 C2.34 16.67 1.68 16.34 1 16 C0.34 16.66 -0.32 17.32 -1 18 C-1.02684312 15.18743719 -1.04676188 12.37512759 -1.0625 9.5625 C-1.07087891 8.76005859 -1.07925781 7.95761719 -1.08789062 7.13085938 C-1.0965143 5.08704779 -1.0522815 3.04316098 -1 1 C-0.67 0.67 -0.34 0.34 0 0 Z " fill="#C75E47" transform="translate(27,111)"/>
<path d="M0 0 C1.58409994 0.11487748 3.16728963 0.24234508 4.75 0.375 C5.63171875 0.44460937 6.5134375 0.51421875 7.421875 0.5859375 C9.99066382 0.99850055 11.75841015 1.71160957 14 3 C13.07767578 3.09087891 13.07767578 3.09087891 12.13671875 3.18359375 C11.32847656 3.26738281 10.52023438 3.35117187 9.6875 3.4375 C8.88699219 3.51871094 8.08648437 3.59992187 7.26171875 3.68359375 C4.83912821 3.95265693 4.83912821 3.95265693 2 5 C0.00038436 5.03920815 -2.00049364 5.04443347 -4 5 C-3.67 4.01 -3.34 3.02 -3 2 C-2.01 2 -1.02 2 0 2 C0 1.34 0 0.68 0 0 Z " fill="#F6805F" transform="translate(88,18)"/>
<path d="M0 0 C8.39763447 -0.91241904 8.39763447 -0.91241904 12.22265625 1.265625 C13.99171805 2.76224402 15.57182113 4.17457933 17 6 C17 6.66 17 7.32 17 8 C15.35 7.67 13.7 7.34 12 7 C12 6.34 12 5.68 12 5 C11.01 5 10.02 5 9 5 C9 4.34 9 3.68 9 3 C8.34 3 7.68 3 7 3 C7 2.34 7 1.68 7 1 C4.69 1 2.38 1 0 1 C0 0.67 0 0.34 0 0 Z " fill="#F2C9BF" transform="translate(164,50)"/>
<path d="M0 0 C2.72822237 3.18292609 4.92926823 5.91175144 6 10 C5.625 13.8125 5.625 13.8125 5 17 C4.34 16.67 3.68 16.34 3 16 C3.33 15.01 3.66 14.02 4 13 C3.505 12.608125 3.01 12.21625 2.5 11.8125 C0.5085506 9.40616531 0.85389706 8.06816175 1 5 C0.70250054 3.32656552 0.37872934 1.65694085 0 0 Z " fill="#C05E3D" transform="translate(219,61)"/>
<path d="M0 0 C5.04424468 0.44508041 7.44443409 2.60980925 11 6 C11 6.66 11 7.32 11 8 C11.99 8 12.98 8 14 8 C13.67 9.32 13.34 10.64 13 12 C12.34 12 11.68 12 11 12 C10.67 11.01 10.34 10.02 10 9 C8.47523754 7.37495407 8.47523754 7.37495407 6.625 5.875 C6.01914063 5.35679688 5.41328125 4.83859375 4.7890625 4.3046875 C2.92426657 2.80615554 2.92426657 2.80615554 0 2 C0 1.34 0 0.68 0 0 Z " fill="#CC4D29" transform="translate(192,44)"/>
<path d="M0 0 C0 0.66 0 1.32 0 2 C-5.9571217 5.47498766 -12.2606305 6.28080706 -19 6 C-16.4127495 3.4127495 -14.11722529 2.93443913 -10.625 1.875 C-9.48289063 1.52179688 -8.34078125 1.16859375 -7.1640625 0.8046875 C-4 0 -4 0 0 0 Z " fill="#0C0905" transform="translate(163,212)"/>
<path d="M0 0 C4.057041 0.53039297 5.94844566 2.57643552 8.75 5.4375 C9.54921875 6.24058594 10.3484375 7.04367188 11.171875 7.87109375 C13 10 13 10 13 12 C8.74551682 10.63647912 6.56990605 8.81930597 3.6875 5.4375 C2.99011719 4.63183594 2.29273438 3.82617188 1.57421875 2.99609375 C0 1 0 1 0 0 Z " fill="#1E0803" transform="translate(141,156)"/>
<path d="M0 0 C0.66 0.33 1.32 0.66 2 1 C-0.59013453 8.17399103 -0.59013453 8.17399103 -4.046875 10.19921875 C-6.25 11 -6.25 11 -10 12 C-8.4705003 8.55862568 -6.54630448 5.7777867 -4 3 C-3.01 3 -2.02 3 -1 3 C-0.67 2.01 -0.34 1.02 0 0 Z " fill="#81311D" transform="translate(226,148)"/>
<path d="M0 0 C0.75 1.625 0.75 1.625 1 4 C-2.19841773 10.39683546 -7.91608458 15.0907229 -13 20 C-13.99 19.67 -14.98 19.34 -16 19 C-15.34 19 -14.68 19 -14 19 C-13.79375 18.443125 -13.5875 17.88625 -13.375 17.3125 C-11.48105476 14.12722845 -8.88323975 12.29482348 -6 10 C-2.64191867 7.26378558 -1.56891131 3.9596333 0 0 Z " fill="#7E3515" transform="translate(189,158)"/>
<path d="M0 0 C-1.47721422 3.45201639 -3.43794001 5.64961936 -6.125 8.25 C-6.84945312 8.95640625 -7.57390625 9.6628125 -8.3203125 10.390625 C-8.87460938 10.92171875 -9.42890625 11.4528125 -10 12 C-10.33 11.01 -10.66 10.02 -11 9 C-10.34 9 -9.68 9 -9 9 C-8.9071875 8.1646875 -8.9071875 8.1646875 -8.8125 7.3125 C-7.31059735 3.03785401 -4.59925477 0 0 0 Z " fill="#ECE0E5" transform="translate(109,149)"/>
<path d="M0 0 C6.06892629 -0.25287193 11.16200408 0.30167391 17 2 C17 1.34 17 0.68 17 0 C17.66 0.33 18.32 0.66 19 1 C18.01 2.32 17.02 3.64 16 5 C10.47293087 4.27275406 5.30039859 2.66554027 0 1 C0 0.67 0 0.34 0 0 Z " fill="#6C1B0D" transform="translate(172,40)"/>
<path d="M0 0 C1.28585364 3.98171231 0.61911116 6.23347209 -0.8984375 10.02734375 C-2.68198197 13.22127976 -5.03959195 14.89482094 -8 17 C-8.66 16.67 -9.32 16.34 -10 16 C-9.44570312 15.34773437 -8.89140625 14.69546875 -8.3203125 14.0234375 C-7.59585938 13.14945313 -6.87140625 12.27546875 -6.125 11.375 C-5.40570313 10.51648438 -4.68640625 9.65796875 -3.9453125 8.7734375 C-1.92919413 5.89905187 -0.93763735 3.36562459 0 0 Z " fill="#5E392C" transform="translate(188,151)"/>
<path d="M0 0 C0.66 0 1.32 0 2 0 C2 0.66 2 1.32 2 2 C4.97 2.495 4.97 2.495 8 3 C7.67 4.65 7.34 6.3 7 8 C3.62496331 6.8141763 1.35277269 5.72426311 -1 3 C-0.67 2.01 -0.34 1.02 0 0 Z " fill="#DCE3E2" transform="translate(145,140)"/>
<path d="M0 0 C2.39119721 2.39119721 2.59712795 3.69644917 3 7 C2.67 7.99 2.34 8.98 2 10 C0.68 10 -0.64 10 -2 10 C-2 7.03 -2 4.06 -2 1 C-1.34 0.67 -0.68 0.34 0 0 Z " fill="#DF663F" transform="translate(42,59)"/>
<path d="M0 0 C-5.67793686 4.29788276 -9.81595146 6.73876187 -17 7 C-17 6.34 -17 5.68 -17 5 C-13.7 4.34 -10.4 3.68 -7 3 C-7.33 2.01 -7.66 1.02 -8 0 C-4.90645403 -0.99435406 -3.09720845 -0.87840996 0 0 Z " fill="#21140F" transform="translate(170,211)"/>
<path d="M0 0 C0.33 1.32 0.66 2.64 1 4 C-3.625 8 -3.625 8 -7 8 C-8.68798827 9.43750191 -8.68798827 9.43750191 -10 11 C-10.66 10.67 -11.32 10.34 -12 10 C-10.37744772 8.51814875 -8.75188112 7.03959744 -7.125 5.5625 C-6.22007813 4.73878906 -5.31515625 3.91507812 -4.3828125 3.06640625 C-2 1 -2 1 0 0 Z " fill="#D4BEB8" transform="translate(90,118)"/>
<path d="M0 0 C0.33 0 0.66 0 1 0 C1.12117188 0.64066406 1.24234375 1.28132812 1.3671875 1.94140625 C2.15328862 5.99889741 2.93413705 9.95304485 4.25 13.875 C5.0959398 17.39974918 4.73328792 18.01201859 3 21 C0.39241413 13.84466021 -0.38999191 7.59762024 0 0 Z " fill="#642312" transform="translate(67,143)"/>
<path d="M0 0 C-2.79916389 1.86610926 -4.81938269 2.68785383 -8 3.625 C-9.299375 4.01558594 -9.299375 4.01558594 -10.625 4.4140625 C-13 5 -13 5 -16 5 C-16 4.01 -16 3.02 -16 2 C-10.51324804 0.13216954 -5.77807024 -0.2358396 0 0 Z " fill="#391106" transform="translate(233,101)"/>
<path d="M0 0 C2.25891996 1.49443832 4.02400724 3.12039713 6 5 C4 6 4 6 2.0625 5.75 C0 5 0 5 -1.25 3.4375 C-4.17481966 1.03496956 -7.31819938 1.81892784 -11 2 C-8.76867182 -2.46265636 -4.07987178 -0.96810517 0 0 Z " fill="#E0AFA1" transform="translate(92,50)"/>
<path d="M0 0 C2.0625 0.4375 2.0625 0.4375 4 1 C-1.96583144 8.66742597 -1.96583144 8.66742597 -7 10 C-6.52727227 5.74545047 -4.03562624 3.80795427 -1 1 C-0.67 0.67 -0.34 0.34 0 0 Z " fill="#C74B24" transform="translate(68,39)"/>
<path d="M0 0 C2.43642676 3.65464013 2.07959834 5.70168967 2 10 C2.33 10.33 2.66 10.66 3 11 C3.04063832 12.66617115 3.042721 14.33388095 3 16 C0.36 14.35 -2.28 12.7 -5 11 C-4.34 10.67 -3.68 10.34 -3 10 C-2.01 10.33 -1.02 10.66 0 11 C0 7.37 0 3.74 0 0 Z " fill="#962D0F" transform="translate(68,66)"/>
<path d="M0 0 C0.66 0.99 1.32 1.98 2 3 C3.97583715 3.73519522 5.98177598 4.39072482 8 5 C10.3557084 5.95361342 12.67338898 6.97629115 15 8 C15 8.33 15 8.66 15 9 C9.02703797 9.76576436 4.78062702 7.32127772 0 4 C-0.33 3.34 -0.66 2.68 -1 2 C-0.67 1.34 -0.34 0.68 0 0 Z " fill="#6E2B18" transform="translate(66,193)"/>
<path d="M0 0 C0.33 0.99 0.66 1.98 1 3 C-2.75 6 -2.75 6 -5 6 C-5 5.34 -5 4.68 -5 4 C-8.63 4 -12.26 4 -16 4 C-16 3.67 -16 3.34 -16 3 C-15.26394531 2.95101562 -14.52789062 2.90203125 -13.76953125 2.8515625 C-12.79371094 2.77679688 -11.81789063 2.70203125 -10.8125 2.625 C-9.84957031 2.55539063 -8.88664062 2.48578125 -7.89453125 2.4140625 C-4.98491062 1.99784147 -2.67109226 1.20125904 0 0 Z " fill="#361E20" transform="translate(97,163)"/>
<path d="M0 0 C0.33 0.66 0.66 1.32 1 2 C-3.75 6 -3.75 6 -6 6 C-6 6.66 -6 7.32 -6 8 C-6.66 8 -7.32 8 -8 8 C-8 8.66 -8 9.32 -8 10 C-8.99 10 -9.98 10 -11 10 C-10.42655063 7.13275314 -10.1385485 6.1385485 -8 4 C-6.33927151 3.31867549 -4.672233 2.65257873 -3 2 C-2.01 1.34 -1.02 0.68 0 0 Z " fill="#561206" transform="translate(168,99)"/>
<path d="M0 0 C0.33 0.66 0.66 1.32 1 2 C1.99 2 2.98 2 4 2 C4 2.66 4 3.32 4 4 C4.66 4 5.32 4 6 4 C5.67 5.32 5.34 6.64 5 8 C5.66 8.33 6.32 8.66 7 9 C4 9 4 9 2.39453125 7.46875 C1.87246094 6.8190625 1.35039063 6.169375 0.8125 5.5 C0.28269531 4.8503125 -0.24710937 4.200625 -0.79296875 3.53125 C-1.19128906 3.0259375 -1.58960937 2.520625 -2 2 C-1.34 1.34 -0.68 0.68 0 0 Z " fill="#E3E0DE" transform="translate(84,90)"/>
<path d="M0 0 C0.66 3.3 1.32 6.6 2 10 C1.01 10 0.02 10 -1 10 C-1.66 8.68 -2.32 7.36 -3 6 C-3.66 6 -4.32 6 -5 6 C-2.84615385 0 -2.84615385 0 0 0 Z " fill="#9F4423" transform="translate(45,54)"/>
<path d="M0 0 C2.9375 0.375 2.9375 0.375 6 1 C6.33 1.66 6.66 2.32 7 3 C-0.59 3 -8.18 3 -16 3 C-16 2.67 -16 2.34 -16 2 C-10.72 2 -5.44 2 0 2 C0 1.34 0 0.68 0 0 Z " fill="#FE9B77" transform="translate(136,13)"/>
<path d="M0 0 C0.33 0.99 0.66 1.98 1 3 C-0.0725 3.103125 -1.145 3.20625 -2.25 3.3125 C-5.85820872 3.97400493 -7.36395023 4.57483421 -10 7 C-10.66 6.67 -11.32 6.34 -12 6 C-7.91466721 1.69383841 -6.09114656 0 0 0 Z " fill="#301007" transform="translate(125,141)"/>
<path d="M0 0 C2.58095199 2.58095199 2.5740925 4.29847351 3.125 7.875 C3.29257813 8.92429687 3.46015625 9.97359375 3.6328125 11.0546875 C4 14 4 14 4 18 C3.34 18 2.68 18 2 18 C1.6603981 16.12612523 1.32861309 14.25083303 1 12.375 C0.7215625 10.80878906 0.7215625 10.80878906 0.4375 9.2109375 C0.01284203 6.09425135 -0.07545206 3.14069188 0 0 Z " fill="#C34628" transform="translate(220,84)"/>
<path d="M0 0 C0.99 0.66 1.98 1.32 3 2 C3 2.66 3 3.32 3 4 C3.66 4.33 4.32 4.66 5 5 C4.12988281 4.7834375 4.12988281 4.7834375 3.2421875 4.5625 C-1.26659675 3.49110572 -5.33054247 2.76054064 -10 3 C-8.03914692 -0.92170616 -3.88511871 -0.24281992 0 0 Z " fill="#DCD4D0" transform="translate(89,51)"/>
<path d="M0 0 C2.46301423 2.46301423 2.76766521 4.27360036 3.625 7.625 C3.88539062 8.62789062 4.14578125 9.63078125 4.4140625 10.6640625 C4.60742188 11.43492187 4.80078125 12.20578125 5 13 C2 12 2 12 0.25 9.3125 C-1.14124787 5.62569316 -0.98410592 3.75749535 0 0 Z " fill="#AB5535" transform="translate(36,151)"/>
<path d="M0 0 C2.625 0.5 2.625 0.5 4.9375 3 C5.7728125 4.2375 5.7728125 4.2375 6.625 5.5 C2.94233897 4.90049704 -0.72043185 4.25241109 -4.375 3.5 C-2.375 0.5 -2.375 0.5 0 0 Z " fill="#802604" transform="translate(123.375,143.5)"/>
<path d="M0 0 C1.84765625 0.33984375 1.84765625 0.33984375 4.0625 0.9375 C5.16271484 1.22947266 5.16271484 1.22947266 6.28515625 1.52734375 C7.13400391 1.76130859 7.13400391 1.76130859 8 2 C7.34 2.66 6.68 3.32 6 4 C6.99 4.66 7.98 5.32 9 6 C6.03 5.67 3.06 5.34 0 5 C-0.33 3.68 -0.66 2.36 -1 1 C-0.67 0.67 -0.34 0.34 0 0 Z " fill="#B74223" transform="translate(217,110)"/>
<path d="M0 0 C2.00720923 0.28674418 4.0085944 0.61866701 6 1 C5.01 1.495 5.01 1.495 4 2 C4 3.32 4 4.64 4 6 C2.35 5.67 0.7 5.34 -1 5 C-1 1 -1 1 0 0 Z " fill="#F6F3F2" transform="translate(123,78)"/>
<path d="M0 0 C0.78375 0.185625 1.5675 0.37125 2.375 0.5625 C4.97089775 1.25962266 4.97089775 1.25962266 7 0 C11.875 3.625 11.875 3.625 13 7 C11.68 6.67 10.36 6.34 9 6 C9 5.34 9 4.68 9 4 C7.88625 3.8453125 7.88625 3.8453125 6.75 3.6875 C3.82985982 2.95746496 2.26812446 1.93210602 0 0 Z " fill="#C23C13" transform="translate(59,78)"/>
<path d="M0 0 C0 0.33 0 0.66 0 1 C-2.31 1 -4.62 1 -7 1 C-7 2.32 -7 3.64 -7 5 C-6.01 5.33 -5.02 5.66 -4 6 C-5.65614657 6.38218767 -7.32457024 6.71395102 -9 7 C-10 6 -10 6 -10.25 3.5625 C-10.1675 2.716875 -10.085 1.87125 -10 1 C-6.1496895 -1.56687367 -4.41430237 -0.83288724 0 0 Z " fill="#932C0C" transform="translate(177,41)"/>
<path d="M0 0 C0.66 0 1.32 0 2 0 C3.19961999 1.43287943 4.39501028 2.86973679 5.55859375 4.33203125 C7.7814031 6.90422526 10.33703093 8.89439655 13 11 C8.63454758 11 6.27828672 8.72028047 3 6 C0 2.61290323 0 2.61290323 0 0 Z " fill="#872909" transform="translate(130,149)"/>
<path d="M0 0 C0.99 0 1.98 0 3 0 C1.12459748 4.77375186 -2.20614205 7.2027298 -6.8125 9.25 C-7.534375 9.4975 -8.25625 9.745 -9 10 C-6.19195732 7.03595495 -3.81684226 4.55500981 0 3 C0 2.01 0 1.02 0 0 Z " fill="#873417" transform="translate(213,160)"/>
<path d="M0 0 C1.31223496 3.93670488 0.24296256 6.12488144 -1 10 C-2.65 10 -4.3 10 -6 10 C-4.02 6.7 -2.04 3.4 0 0 Z " fill="#7A2B1B" transform="translate(185,71)"/>
<path d="M0 0 C1.32 0.33 2.64 0.66 4 1 C3.01 1.495 3.01 1.495 2 2 C2 2.66 2 3.32 2 4 C1.34 4 0.68 4 0 4 C0 4.66 0 5.32 0 6 C-1.98 6.33 -3.96 6.66 -6 7 C-4.02 4.69 -2.04 2.38 0 0 Z " fill="#C76139" transform="translate(59,36)"/>
<path d="M0 0 C0.66 0.33 1.32 0.66 2 1 C2.3125 3.25 2.3125 3.25 2 6 C-0.5 8.3125 -0.5 8.3125 -3 10 C-3.36629408 5.72656908 -2.40814077 3.51187196 0 0 Z " fill="#C15938" transform="translate(30,84)"/>
<path d="M0 0 C3.17218843 3.62535821 4.42902597 7.51150278 6 12 C5.01 12 4.02 12 3 12 C-0.42857143 4.71428571 -0.42857143 4.71428571 0 0 Z " fill="#6C3624" transform="translate(69,71)"/>
<path d="M0 0 C0.75 1.75 0.75 1.75 1 4 C-0.9375 6.25 -0.9375 6.25 -3 8 C-3.36923077 3.44615385 -3.36923077 3.44615385 -1.5 1.1875 C-1.005 0.795625 -0.51 0.40375 0 0 Z M-4 8 C-4 8.99 -4 9.98 -4 11 C-4.66 10.67 -5.32 10.34 -6 10 C-5.34 9.34 -4.68 8.68 -4 8 Z " fill="#E1D9D7" transform="translate(94,114)"/>
<path d="M0 0 C0.33 0 0.66 0 1 0 C1.33 4.95 1.66 9.9 2 15 C1.34 15 0.68 15 0 15 C-1.2063366 9.77254141 -0.75612577 5.23471686 0 0 Z " fill="#D16E55" transform="translate(30,128)"/>
<path d="M0 0 C3.465 1.98 3.465 1.98 7 4 C7.33 3.34 7.66 2.68 8 2 C7.75 3.875 7.75 3.875 7 6 C4.9375 7.25 4.9375 7.25 3 8 C3 6.68 3 5.36 3 4 C2.34 4 1.68 4 1 4 C0.67 2.68 0.34 1.36 0 0 Z " fill="#8B3A24" transform="translate(90,106)"/>
<path d="M0 0 C-0.66 0 -1.32 0 -2 0 C-2.33 1.32 -2.66 2.64 -3 4 C-4.32 4.33 -5.64 4.66 -7 5 C-7 4.01 -7 3.02 -7 2 C-7.66 1.34 -8.32 0.68 -9 0 C-5.62182575 -0.84454356 -3.32534757 -1.10844919 0 0 Z " fill="#F4E3E0" transform="translate(134,78)"/>
<path d="M0 0 C2.88437779 1.29299694 4.87219421 2.65941363 7 5 C6.34 5 5.68 5 5 5 C4.67 5.66 4.34 6.32 4 7 C2 5.75 2 5.75 0 4 C0 2.68 0 1.36 0 0 Z " fill="#3E140D" transform="translate(71,160)"/>
<path d="M0 0 C0.33 0.66 0.66 1.32 1 2 C0.109375 3.91015625 0.109375 3.91015625 -1.25 6.0625 C-1.90742187 7.13177734 -1.90742187 7.13177734 -2.578125 8.22265625 C-4 10 -4 10 -7 11 C-5.5140084 6.40693504 -3.14985318 3.56430755 0 0 Z " fill="#DBCAC9" transform="translate(77,129)"/>
<path d="M0 0 C1.32 0.33 2.64 0.66 4 1 C3.65066406 1.51949219 3.30132812 2.03898437 2.94140625 2.57421875 C-0.54055504 7.87724314 -0.54055504 7.87724314 -2 14 C-2.33 14 -2.66 14 -3 14 C-2.58846263 9.02906176 -2.20399168 4.55491614 0 0 Z " fill="#A74F3B" transform="translate(72,55)"/>
<path d="M0 0 C4.05606165 0.46800711 7.46588679 0.87953208 11 3 C10.34 3 9.68 3 9 3 C8.67 3.99 8.34 4.98 8 6 C6.66402348 5.19185349 5.331275 4.37836819 4 3.5625 C3.2575 3.11003906 2.515 2.65757812 1.75 2.19140625 C1.1725 1.79824219 0.595 1.40507812 0 1 C0 0.67 0 0.34 0 0 Z " fill="#23120A" transform="translate(102,213)"/>
<path d="M0 0 C2 3 2 3 2 7 C2.99 7 3.98 7 5 7 C3.25 10.875 3.25 10.875 1 12 C0.67 8.04 0.34 4.08 0 0 Z " fill="#942C0E" transform="translate(84,110)"/>
<path d="M0 0 C4.41889613 1.35021826 6.34345343 3.26115668 9 7 C6 7 6 7 4 6 C4 5.01 4 4.02 4 3 C2.68 3 1.36 3 0 3 C0 2.01 0 1.02 0 0 Z " fill="#FDE3D7" transform="translate(115,71)"/>
<path d="M0 0 C4.41889613 1.35021826 6.34345343 3.26115668 9 7 C8.01 7 7.02 7 6 7 C5.67 6.01 5.34 5.02 5 4 C1.99152582 2.77479736 1.99152582 2.77479736 -1 2 C-0.67 1.34 -0.34 0.68 0 0 Z " fill="#EDCFC6" transform="translate(95,55)"/>
<path d="M0 0 C0 3 0 3 -1.1875 4.6875 C-3.55741722 6.40364695 -5.14025666 6.23187108 -8 6 C-5.79072873 2.51167694 -3.91402949 1.26941497 0 0 Z " fill="#F36E46" transform="translate(76,30)"/>
<path d="M0 0 C6.52307692 -0.36923077 6.52307692 -0.36923077 8.9375 1.5 C9.288125 1.995 9.63875 2.49 10 3 C8.72125 3.061875 7.4425 3.12375 6.125 3.1875 C5.40570313 3.22230469 4.68640625 3.25710937 3.9453125 3.29296875 C3.30335938 3.19628906 2.66140625 3.09960938 2 3 C1.34 2.01 0.68 1.02 0 0 Z " fill="#DE5B33" transform="translate(159,22)"/>
<path d="M0 0 C0.33 0 0.66 0 1 0 C1 1.98 1 3.96 1 6 C1.66 6 2.32 6 3 6 C3.33 7.98 3.66 9.96 4 12 C3.01 11.67 2.02 11.34 1 11 C-0.20272819 8.59454362 -0.10071472 7.05003047 -0.0625 4.375 C-0.05347656 3.55773437 -0.04445313 2.74046875 -0.03515625 1.8984375 C-0.02355469 1.27195312 -0.01195313 0.64546875 0 0 Z " fill="#EFD9D9" transform="translate(70,64)"/>
<path d="M0 0 C1.32 0 2.64 0 4 0 C4 0.99 4 1.98 4 3 C-0.625 5.125 -0.625 5.125 -4 4 C-3.67 3.34 -3.34 2.68 -3 2 C-2.01 2 -1.02 2 0 2 C0 1.34 0 0.68 0 0 Z " fill="#F38969" transform="translate(88,18)"/>
<path d="M0 0 C1.5 1.375 1.5 1.375 3 3 C3 3.66 3 4.32 3 5 C3.33 5.66 3.66 6.32 4 7 C0.08597051 5.73058503 -1.79072873 4.48832306 -4 1 C-2.68 1.33 -1.36 1.66 0 2 C0 1.34 0 0.68 0 0 Z " fill="#422114" transform="translate(154,166)"/>
<path d="M0 0 C2.60704898 2.60704898 2.23905333 4.47338241 2.265625 8.02734375 C2 10 2 10 0 13 C-0.19466332 11.20909747 -0.38051213 9.41723495 -0.5625 7.625 C-0.66691406 6.62726563 -0.77132812 5.62953125 -0.87890625 4.6015625 C-1 2 -1 2 0 0 Z " fill="#8B3711" transform="translate(190,145)"/>
<path d="M0 0 C0 0.66 0 1.32 0 2 C-3.37097383 3.49821059 -5.20442119 4 -9 4 C-9 3.01 -9 2.02 -9 1 C-2.25 0 -2.25 0 0 0 Z " fill="#933A25" transform="translate(229,104)"/>
<path d="M0 0 C0.33 0 0.66 0 1 0 C1.33 4.95 1.66 9.9 2 15 C1.67 15 1.34 15 1 15 C0.44058641 13.25559202 -0.09691897 11.50414743 -0.625 9.75 C-0.92664063 8.77546875 -1.22828125 7.8009375 -1.5390625 6.796875 C-2.05220752 3.68321539 -1.71056541 2.58430745 0 0 Z " fill="#7F3123" transform="translate(232,103)"/>
<path d="M0 0 C3.92300495 2.35380297 4.83857315 4.64464931 6 9 C4.125 8.4375 4.125 8.4375 2 7 C0.75 3.375 0.75 3.375 0 0 Z " fill="#952B05" transform="translate(77,90)"/>
<path d="M0 0 C0 3 0 3 -1.375 4.4375 C-1.91125 4.953125 -2.4475 5.46875 -3 6 C-4.17574711 8.09989652 -4.17574711 8.09989652 -5 10 C-5.66 10 -6.32 10 -7 10 C-6.42424336 6.64749299 -5.40693737 5.06181371 -2.9375 2.75 C-2.38964844 2.22921875 -1.84179688 1.7084375 -1.27734375 1.171875 C-0.64505859 0.59179688 -0.64505859 0.59179688 0 0 Z " fill="#F5E1DC" transform="translate(142,66)"/>
<path d="M0 0 C-3.96 3.465 -3.96 3.465 -8 7 C-8 3.86248779 -7.64820195 2.60242414 -6 0 C-3 -1 -3 -1 0 0 Z " fill="#B9674B" transform="translate(147,63)"/>
<path d="M0 0 C0.99 0.66 1.98 1.32 3 2 C2.67 3.32 2.34 4.64 2 6 C0.68 6.33 -0.64 6.66 -2 7 C-1.125 1.125 -1.125 1.125 0 0 Z " fill="#D95D39" transform="translate(49,47)"/>
<path d="M0 0 C0.33 0.66 0.66 1.32 1 2 C-0.98 4.31 -2.96 6.62 -5 9 C-5.33 8.01 -5.66 7.02 -6 6 C-4.02 4.02 -2.04 2.04 0 0 Z " fill="#57240B" transform="translate(184,164)"/>
<path d="M0 0 C0.33 0 0.66 0 1 0 C1.33 3.63 1.66 7.26 2 11 C-1 8 -1 8 -2 5 C-1.34 5 -0.68 5 0 5 C0 3.35 0 1.7 0 0 Z " fill="#B75D3C" transform="translate(34,144)"/>
<path d="M0 0 C2.6875 -0.3125 2.6875 -0.3125 6 0 C8.875 2.5 8.875 2.5 11 5 C9.35 4.67 7.7 4.34 6 4 C5.67 3.01 5.34 2.02 5 1 C3.02 1.33 1.04 1.66 -1 2 C-0.67 1.34 -0.34 0.68 0 0 Z " fill="#442322" transform="translate(120,140)"/>
<path d="M0 0 C-1.13474948 3.40424844 -1.96811304 4.21653709 -5 6 C-5.99 5.67 -6.98 5.34 -8 5 C-3.375 0 -3.375 0 0 0 Z " fill="#44110E" transform="translate(169,97)"/>
<path d="M0 0 C5.75 3.625 5.75 3.625 8 7 C7.01 7.495 7.01 7.495 6 8 C1.2 4.55384615 1.2 4.55384615 0.1875 1.75 C0.125625 1.1725 0.06375 0.595 0 0 Z " fill="#F6D9D0" transform="translate(106,63)"/>
<path d="M0 0 C2.0625 0.4375 2.0625 0.4375 4 1 C2.1875 3 2.1875 3 0 5 C-0.99 5 -1.98 5 -3 5 C-1.125 1.125 -1.125 1.125 0 0 Z " fill="#E56B41" transform="translate(53,43)"/>
<path d="M0 0 C0.99 0.66 1.98 1.32 3 2 C3 2.66 3 3.32 3 4 C1.37373596 5.38232443 -0.2925002 6.71937515 -2 8 C-2.66 7.67 -3.32 7.34 -4 7 C-2.68 4.69 -1.36 2.38 0 0 Z " fill="#A03820" transform="translate(194,32)"/>
<path d="M0 0 C3.42267755 1.20256238 5.55684199 2.33473672 8 5 C8.99 5.66 9.98 6.32 11 7 C8.875 7.4375 8.875 7.4375 6 7 C3.723853 4.87310854 1.8541278 2.4976567 0 0 Z " fill="#DC532C" transform="translate(180,32)"/>
<path d="M0 0 C1.65 0 3.3 0 5 0 C5.33 0.99 5.66 1.98 6 3 C4.35 3.33 2.7 3.66 1 4 C0.67 2.68 0.34 1.36 0 0 Z " fill="#F67852" transform="translate(171,21)"/>
<path d="M0 0 C0.66 0.33 1.32 0.66 2 1 C2.73075648 3.3140622 3.40138258 5.64828869 4 8 C2.0625 7.6875 2.0625 7.6875 0 7 C-1.04449911 3.86650268 -0.93423645 3.01031744 0 0 Z " fill="#9F4627" transform="translate(40,160)"/>
<path d="M0 0 C2.16874252 0.50603992 3.99967627 0.99983813 6 2 C6 2.99 6 3.98 6 5 C4.125 4.75 4.125 4.75 2 4 C0.75 1.9375 0.75 1.9375 0 0 Z " fill="#D0CCD1" transform="translate(72,158)"/>
<path d="M0 0 C4.455 0.99 4.455 0.99 9 2 C9 2.33 9 2.66 9 3 C7.35 3 5.7 3 4 3 C4 3.66 4 4.32 4 5 C3.01 4.67 2.02 4.34 1 4 C0.67 2.68 0.34 1.36 0 0 Z " fill="#DE6F4F" transform="translate(167,18)"/>
<path d="M0 0 C1.0625 1.875 1.0625 1.875 2 4 C1.67 4.66 1.34 5.32 1 6 C0.34 6 -0.32 6 -1 6 C-1 6.66 -1 7.32 -1 8 C-1.66 8 -2.32 8 -3 8 C-1.125 2.25 -1.125 2.25 0 0 Z " fill="#B65631" transform="translate(35,68)"/>
<path d="M0 0 C2.64 0.33 5.28 0.66 8 1 C8 1.66 8 2.32 8 3 C5.69 3 3.38 3 1 3 C0.67 2.01 0.34 1.02 0 0 Z " fill="#140605" transform="translate(162,173)"/>
<path d="M0 0 C2.02054804 1.64169528 4.02043058 3.30911778 6 5 C6 5.33 6 5.66 6 6 C4.35 6 2.7 6 1 6 C0.67 4.02 0.34 2.04 0 0 Z " fill="#F3DAC5" transform="translate(177,135)"/>
<path d="M0 0 C0.99 0.33 1.98 0.66 3 1 C3.33 2.65 3.66 4.3 4 6 C3.34 5.67 2.68 5.34 2 5 C1.34 5.66 0.68 6.32 0 7 C0 4.69 0 2.38 0 0 Z " fill="#D06952" transform="translate(26,122)"/>
<path d="M0 0 C0.33 0.66 0.66 1.32 1 2 C-0.65 3.98 -2.3 5.96 -4 8 C-4.33 7.01 -4.66 6.02 -5 5 C-3.35 3.35 -1.7 1.7 0 0 Z " fill="#8E2805" transform="translate(174,93)"/>
<path d="M0 0 C2.97 0.33 5.94 0.66 9 1 C8.67 1.66 8.34 2.32 8 3 C5.125 3.1875 5.125 3.1875 2 3 C1.34 2.01 0.68 1.02 0 0 Z " fill="#B04F30" transform="translate(122,75)"/>
<path d="M0 0 C2.97 0.495 2.97 0.495 6 1 C6 1.99 6 2.98 6 4 C6.66 4 7.32 4 8 4 C7.67 4.66 7.34 5.32 7 6 C5.83054208 5.19152271 4.66449539 4.37810888 3.5 3.5625 C2.8503125 3.11003906 2.200625 2.65757813 1.53125 2.19140625 C1.0259375 1.79824219 0.520625 1.40507813 0 1 C0 0.67 0 0.34 0 0 Z " fill="#BD6443" transform="translate(103,60)"/>
<path d="M0 0 C0 3 0 3 -2.5 5.6875 C-3.325 6.450625 -4.15 7.21375 -5 8 C-4.64950425 4.75791433 -4.43778819 3.38472296 -1.9375 1.1875 C-1.298125 0.795625 -0.65875 0.40375 0 0 Z " fill="#DD5E31" transform="translate(55,51)"/>
<path d="M0 0 C0.66 0.33 1.32 0.66 2 1 C-0.31 3.31 -2.62 5.62 -5 8 C-5 5 -5 5 -2.5 2.3125 C-1.675 1.549375 -0.85 0.78625 0 0 Z " fill="#C74D22" transform="translate(59,49)"/>
<path d="M0 0 C2.475 0.495 2.475 0.495 5 1 C4.67 1.99 4.34 2.98 4 4 C2.68 4 1.36 4 0 4 C0 2.68 0 1.36 0 0 Z " fill="#55190C" transform="translate(104,33)"/>
<path d="M0 0 C0 1.32 0 2.64 0 4 C-2.31 4.33 -4.62 4.66 -7 5 C-2.25 0 -2.25 0 0 0 Z " fill="#E8764F" transform="translate(68,31)"/>
<path d="M0 0 C0.99 0.33 1.98 0.66 3 1 C1.875 2.5 1.875 2.5 0 4 C-3.1875 4.1875 -3.1875 4.1875 -6 4 C-4.03617993 2.49440461 -2.21736634 1.10868317 0 0 Z " fill="#CD522D" transform="translate(98,23)"/>
</svg>
